<svg width="100" height="100" viewBox="0 0 100 100" fill="none" xmlns="http://www.w3.org/2000/svg">
<path d="M44.1792 9.41314C47.9081 7.33852 52.4445 7.33852 56.1734 9.41314L83.3001 24.5052C87.2125 26.6819 89.6383 30.8075 89.6383 35.2845V64.6883C89.6383 69.1653 87.2125 73.2909 83.3002 75.4675L56.1734 90.5596C52.4445 92.6343 47.9081 92.6343 44.1792 90.5596L17.0525 75.4675C13.1402 73.2909 10.7144 69.1653 10.7144 64.6883V35.2845C10.7144 30.8075 13.1402 26.6819 17.0525 24.5052L44.1792 9.41314Z" fill="#423B6F"/>
<path d="M44.8362 54.497L44.8242 52.2812L43.7492 54.0849H43.2236L42.1545 52.341V54.497H41.0616V50.3163H42.0351L43.5043 52.7292L44.9377 50.3163H45.9112L45.9232 54.497H44.8362Z" fill="white"/>
<path d="M49.1071 54.5806C48.6651 54.5806 48.267 54.4871 47.9126 54.2999C47.5622 54.1128 47.2855 53.854 47.0824 53.5235C46.8833 53.193 46.7838 52.8207 46.7838 52.4066C46.7838 51.9926 46.8833 51.6203 47.0824 51.2898C47.2855 50.9593 47.5622 50.7005 47.9126 50.5134C48.267 50.3262 48.6651 50.2327 49.1071 50.2327C49.5491 50.2327 49.9452 50.3262 50.2956 50.5134C50.65 50.7005 50.9267 50.9593 51.1258 51.2898C51.3289 51.6203 51.4304 51.9926 51.4304 52.4066C51.4304 52.8207 51.3289 53.193 51.1258 53.5235C50.9267 53.854 50.65 54.1128 50.2956 54.2999C49.9452 54.4871 49.5491 54.5806 49.1071 54.5806ZM49.1071 53.6011C49.3181 53.6011 49.5092 53.5514 49.6805 53.4518C49.8517 53.3523 49.987 53.2129 50.0866 53.0338C50.1861 52.8506 50.2359 52.6416 50.2359 52.4066C50.2359 52.1717 50.1861 51.9647 50.0866 51.7855C49.987 51.6024 49.8517 51.461 49.6805 51.3615C49.5092 51.2619 49.3181 51.2122 49.1071 51.2122C48.8961 51.2122 48.7049 51.2619 48.5337 51.3615C48.3625 51.461 48.2272 51.6024 48.1276 51.7855C48.0281 51.9647 47.9783 52.1717 47.9783 52.4066C47.9783 52.6416 48.0281 52.8506 48.1276 53.0338C48.2272 53.2129 48.3625 53.3523 48.5337 53.4518C48.7049 53.5514 48.8961 53.6011 49.1071 53.6011Z" fill="white"/>
<path d="M53.7579 54.5806C53.4194 54.5806 53.091 54.5388 52.7724 54.4552C52.4539 54.3716 52.1951 54.2601 51.996 54.1207L52.3842 53.2488C52.5714 53.3722 52.7884 53.4717 53.0352 53.5474C53.2821 53.623 53.525 53.6609 53.7639 53.6609C54.2178 53.6609 54.4447 53.5474 54.4447 53.3204C54.4447 53.201 54.379 53.1134 54.2476 53.0576C54.1202 52.9979 53.9132 52.9362 53.6265 52.8725C53.3119 52.8048 53.0491 52.7331 52.8381 52.6575C52.6271 52.5779 52.4459 52.4524 52.2946 52.2812C52.1433 52.11 52.0677 51.8791 52.0677 51.5884C52.0677 51.3336 52.1374 51.1046 52.2767 50.9016C52.4161 50.6945 52.6231 50.5313 52.8978 50.4118C53.1766 50.2924 53.517 50.2327 53.9191 50.2327C54.1939 50.2327 54.4646 50.2645 54.7314 50.3282C54.9982 50.388 55.2331 50.4775 55.4361 50.597L55.0718 51.4749C54.6737 51.2599 54.2874 51.1524 53.9132 51.1524C53.6783 51.1524 53.507 51.1883 53.3995 51.2599C53.292 51.3276 53.2383 51.4172 53.2383 51.5287C53.2383 51.6402 53.302 51.7238 53.4294 51.7795C53.5568 51.8353 53.7619 51.893 54.0446 51.9527C54.3631 52.0204 54.6259 52.0941 54.8329 52.1737C55.044 52.2494 55.2251 52.3728 55.3764 52.544C55.5317 52.7112 55.6093 52.9402 55.6093 53.2308C55.6093 53.4817 55.5397 53.7086 55.4003 53.9117C55.261 54.1148 55.0519 54.278 54.7732 54.4015C54.4945 54.5209 54.156 54.5806 53.7579 54.5806Z" fill="white"/>
<path d="M57.2261 51.254H55.942V50.3163H59.6867V51.254H58.4086V54.497H57.2261V51.254Z" fill="white"/>
<path d="M25.2758 59.6458H24.6308V60.7567H23.4482V56.576H25.3594C25.7377 56.576 26.0662 56.6397 26.3449 56.7671C26.6236 56.8905 26.8386 57.0697 26.9899 57.3046C27.1412 57.5355 27.2169 57.8083 27.2169 58.1228C27.2169 58.4254 27.1452 58.6902 27.0019 58.9172C26.8625 59.1401 26.6614 59.3153 26.3986 59.4427L27.3005 60.7567H26.0343L25.2758 59.6458ZM26.0224 58.1228C26.0224 57.9277 25.9607 57.7764 25.8372 57.6689C25.7138 57.5614 25.5306 57.5077 25.2878 57.5077H24.6308V58.732H25.2878C25.5306 58.732 25.7138 58.6803 25.8372 58.5767C25.9607 58.4692 26.0224 58.3179 26.0224 58.1228Z" fill="white"/>
<path d="M31.4647 59.8429V60.7567H28.1082V56.576H31.3871V57.4897H29.2788V58.1945H31.1362V59.0784H29.2788V59.8429H31.4647Z" fill="white"/>
<path d="M34.4384 60.8403C34.0004 60.8403 33.6062 60.7487 33.2558 60.5656C32.9094 60.3784 32.6367 60.1196 32.4376 59.7891C32.2385 59.4587 32.139 59.0844 32.139 58.6663C32.139 58.2483 32.2385 57.874 32.4376 57.5435C32.6367 57.213 32.9094 56.9562 33.2558 56.773C33.6062 56.5859 34.0004 56.4923 34.4384 56.4923C34.8206 56.4923 35.165 56.56 35.4716 56.6954C35.7782 56.8308 36.033 57.0259 36.2361 57.2807L35.4836 57.9616C35.2128 57.6351 34.8843 57.4718 34.4981 57.4718C34.2712 57.4718 34.0681 57.5216 33.8889 57.6211C33.7137 57.7207 33.5764 57.862 33.4768 58.0452C33.3813 58.2244 33.3335 58.4314 33.3335 58.6663C33.3335 58.9012 33.3813 59.1103 33.4768 59.2934C33.5764 59.4726 33.7137 59.612 33.8889 59.7115C34.0681 59.811 34.2712 59.8608 34.4981 59.8608C34.8843 59.8608 35.2128 59.6976 35.4836 59.3711L36.2361 60.0519C36.033 60.3068 35.7782 60.5019 35.4716 60.6372C35.165 60.7726 34.8206 60.8403 34.4384 60.8403Z" fill="white"/>
<path d="M39.0231 60.8403C38.5811 60.8403 38.1829 60.7467 37.8286 60.5596C37.4782 60.3725 37.2015 60.1137 36.9984 59.7832C36.7993 59.4527 36.6998 59.0804 36.6998 58.6663C36.6998 58.2522 36.7993 57.8799 36.9984 57.5495C37.2015 57.219 37.4782 56.9602 37.8286 56.773C38.1829 56.5859 38.5811 56.4923 39.0231 56.4923C39.465 56.4923 39.8612 56.5859 40.2116 56.773C40.566 56.9602 40.8427 57.219 41.0418 57.5495C41.2448 57.8799 41.3464 58.2522 41.3464 58.6663C41.3464 59.0804 41.2448 59.4527 41.0418 59.7832C40.8427 60.1137 40.566 60.3725 40.2116 60.5596C39.8612 60.7467 39.465 60.8403 39.0231 60.8403ZM39.0231 59.8608C39.2341 59.8608 39.4252 59.811 39.5964 59.7115C39.7676 59.612 39.903 59.4726 40.0025 59.2934C40.1021 59.1103 40.1519 58.9012 40.1519 58.6663C40.1519 58.4314 40.1021 58.2244 40.0025 58.0452C39.903 57.862 39.7676 57.7207 39.5964 57.6211C39.4252 57.5216 39.2341 57.4718 39.0231 57.4718C38.812 57.4718 38.6209 57.5216 38.4497 57.6211C38.2785 57.7207 38.1431 57.862 38.0436 58.0452C37.944 58.2244 37.8943 58.4314 37.8943 58.6663C37.8943 58.9012 37.944 59.1103 38.0436 59.2934C38.1431 59.4726 38.2785 59.612 38.4497 59.7115C38.6209 59.811 38.812 59.8608 39.0231 59.8608Z" fill="white"/>
<path d="M45.9792 60.7567L45.9673 58.5409L44.8922 60.3446H44.3667L43.2976 58.6006V60.7567H42.2046V56.576H43.1781L44.6474 58.9888L46.0808 56.576H47.0543L47.0662 60.7567H45.9792Z" fill="white"/>
<path d="M51.9165 60.7567L51.9045 58.5409L50.8295 60.3446H50.3039L49.2348 58.6006V60.7567H48.1419V56.576H49.1154L50.5846 58.9888L52.018 56.576H52.9915L53.0035 60.7567H51.9165Z" fill="white"/>
<path d="M57.4356 59.8429V60.7567H54.0791V56.576H57.358V57.4897H55.2497V58.1945H57.1072V59.0784H55.2497V59.8429H57.4356Z" fill="white"/>
<path d="M62.3084 56.576V60.7567H61.3349L59.4894 58.529V60.7567H58.3308V56.576H59.3043L61.1498 58.8037V56.576H62.3084Z" fill="white"/>
<path d="M63.3815 56.576H65.3584C65.8163 56.576 66.2224 56.6616 66.5768 56.8328C66.9311 57.004 67.2059 57.2469 67.401 57.5614C67.5961 57.876 67.6936 58.2443 67.6936 58.6663C67.6936 59.0884 67.5961 59.4567 67.401 59.7712C67.2059 60.0858 66.9311 60.3287 66.5768 60.4999C66.2224 60.6711 65.8163 60.7567 65.3584 60.7567H63.3815V56.576ZM65.3106 59.813C65.6689 59.813 65.9556 59.7115 66.1706 59.5084C66.3896 59.3054 66.4991 59.0247 66.4991 58.6663C66.4991 58.308 66.3896 58.0273 66.1706 57.8242C65.9556 57.6211 65.6689 57.5196 65.3106 57.5196H64.564V59.813H65.3106Z" fill="white"/>
<path d="M71.9112 59.8429V60.7567H68.5547V56.576H71.8336V57.4897H69.7253V58.1945H71.5827V59.0784H69.7253V59.8429H71.9112Z" fill="white"/>
<path d="M72.8063 56.576H74.7832C75.2411 56.576 75.6472 56.6616 76.0016 56.8328C76.356 57.004 76.6307 57.2469 76.8258 57.5614C77.0209 57.876 77.1185 58.2443 77.1185 58.6663C77.1185 59.0884 77.0209 59.4567 76.8258 59.7712C76.6307 60.0858 76.356 60.3287 76.0016 60.4999C75.6472 60.6711 75.2411 60.7567 74.7832 60.7567H72.8063V56.576ZM74.7354 59.813C75.0938 59.813 75.3805 59.7115 75.5955 59.5084C75.8145 59.3054 75.924 59.0247 75.924 58.6663C75.924 58.308 75.8145 58.0273 75.5955 57.8242C75.3805 57.6211 75.0938 57.5196 74.7354 57.5196H73.9889V59.813H74.7354Z" fill="white"/>
<path d="M45.7537 75.2756V76.3907H41.8829V75.51L43.7437 73.7699C43.9236 73.5995 44.0444 73.455 44.1059 73.3367C44.1675 73.2136 44.1983 73.0904 44.1983 72.9673C44.1983 72.8064 44.1438 72.6809 44.0349 72.5909C43.926 72.5009 43.7674 72.456 43.5591 72.456C43.3744 72.456 43.2039 72.4986 43.0477 72.5838C42.8962 72.6643 42.7707 72.7827 42.6713 72.9389L41.6272 72.3565C41.8213 72.0346 42.0936 71.7812 42.444 71.5966C42.7944 71.4119 43.2087 71.3196 43.6869 71.3196C44.0657 71.3196 44.3995 71.3811 44.6883 71.5042C44.9819 71.6274 45.2092 71.8049 45.3702 72.0369C45.5359 72.2642 45.6187 72.5294 45.6187 72.8324C45.6187 73.1023 45.5596 73.358 45.4412 73.5995C45.3275 73.8362 45.105 74.1061 44.7736 74.4091L43.836 75.2756H45.7537Z" fill="#F5821F"/>
<path d="M48.6348 76.4901C48.2087 76.4901 47.8299 76.3883 47.4984 76.1847C47.167 75.9811 46.9066 75.6852 46.7172 75.2969C46.5325 74.9039 46.4402 74.4399 46.4402 73.9049C46.4402 73.3698 46.5325 72.9082 46.7172 72.5199C46.9066 72.1269 47.167 71.8286 47.4984 71.625C47.8299 71.4214 48.2087 71.3196 48.6348 71.3196C49.0562 71.3196 49.4327 71.4214 49.7641 71.625C50.0956 71.8286 50.3536 72.1269 50.5383 72.5199C50.7277 72.9082 50.8224 73.3698 50.8224 73.9049C50.8224 74.4399 50.7277 74.9039 50.5383 75.2969C50.3536 75.6852 50.0956 75.9811 49.7641 76.1847C49.4327 76.3883 49.0562 76.4901 48.6348 76.4901ZM48.6348 75.3395C48.8716 75.3395 49.0586 75.2259 49.1959 74.9986C49.338 74.7666 49.409 74.402 49.409 73.9049C49.409 73.4077 49.338 73.0455 49.1959 72.8182C49.0586 72.5862 48.8716 72.4702 48.6348 72.4702C48.3933 72.4702 48.2016 72.5862 48.0595 72.8182C47.9222 73.0455 47.8536 73.4077 47.8536 73.9049C47.8536 74.402 47.9222 74.7666 48.0595 74.9986C48.2016 75.2259 48.3933 75.3395 48.6348 75.3395Z" fill="#F5821F"/>
<path d="M55.3733 75.2756V76.3907H51.5025V75.51L53.3633 73.7699C53.5432 73.5995 53.664 73.455 53.7255 73.3367C53.7871 73.2136 53.8179 73.0904 53.8179 72.9673C53.8179 72.8064 53.7634 72.6809 53.6545 72.5909C53.5456 72.5009 53.387 72.456 53.1786 72.456C52.994 72.456 52.8235 72.4986 52.6673 72.5838C52.5158 72.6643 52.3903 72.7827 52.2908 72.9389L51.2468 72.3565C51.4409 72.0346 51.7132 71.7812 52.0636 71.5966C52.414 71.4119 52.8283 71.3196 53.3065 71.3196C53.6853 71.3196 54.0191 71.3811 54.3079 71.5042C54.6015 71.6274 54.8288 71.8049 54.9898 72.0369C55.1555 72.2642 55.2383 72.5294 55.2383 72.8324C55.2383 73.1023 55.1792 73.358 55.0608 73.5995C54.9471 73.8362 54.7246 74.1061 54.3932 74.4091L53.4556 75.2756H55.3733Z" fill="#F5821F"/>
<path d="M58.1974 71.419V76.3907H56.7912V72.5057H55.8678V71.419H58.1974Z" fill="#F5821F"/>
<path d="M62.1038 28.3288C62.1038 27.7226 62.5995 27.249 63.1906 27.249H71.2746C71.8848 27.249 72.3614 27.7415 72.3614 28.3288V32.269C72.3614 32.8752 71.8657 33.3488 71.2746 33.3488H70.4357C69.8256 33.3488 68.9104 33.5951 68.3766 33.8792L65.4404 35.5084C64.9065 35.7925 64.6968 35.5841 64.9446 35.0537L65.2878 34.3149C65.5357 33.7656 65.2497 33.3299 64.6396 33.3299H63.1715C62.5614 33.3299 62.0847 32.8373 62.0847 32.2501V28.3288" fill="#F5821F"/>
<path d="M62.5999 37.8174H61.5694C61.4927 37.8174 61.4708 37.7736 61.4708 37.7188L61.4817 37.5872C61.5037 37.3132 61.7558 37.1158 62.0956 37.1158C62.4245 37.1158 62.6876 37.3132 62.7095 37.5763L62.7205 37.7078C62.7205 37.7736 62.6986 37.8174 62.5999 37.8174ZM62.0627 36.0415C60.9555 36.0415 60.1553 36.8418 60.1553 37.7517V38.9685C60.1553 39.988 60.9117 40.6896 62.0627 40.6896C62.6876 40.6896 63.1371 40.4704 63.455 40.1634C63.6085 40.0099 63.729 39.8345 63.8277 39.6591C63.8825 39.5605 63.8606 39.4618 63.7948 39.4289L62.863 38.9575C62.8082 38.9246 62.7534 38.9466 62.7205 39.0343C62.5889 39.3631 62.3697 39.5166 62.0518 39.5166C61.701 39.5166 61.4598 39.2864 61.4598 38.9795V38.7712C61.4598 38.7054 61.4927 38.6725 61.5694 38.6725H63.8496C63.9044 38.6725 63.9483 38.6396 63.9483 38.5738V37.7517C63.9373 36.8527 63.159 36.0415 62.0627 36.0415Z" fill="white"/>
<path d="M57.9847 37.1924C58.2807 37.1924 58.4889 37.3787 58.6534 37.7624C58.6863 37.8282 58.7301 37.8501 58.7959 37.8172L59.7167 37.4007C59.7716 37.3678 59.7935 37.313 59.7606 37.2362C59.6729 37.0389 59.5852 36.8635 59.4646 36.71C59.1577 36.2934 58.6972 36.0632 57.9737 36.0632C56.8007 36.0632 56.0991 36.7648 56.0991 37.7843V38.9354C56.0991 39.9549 56.8007 40.6455 57.9737 40.6455C58.6315 40.6455 59.07 40.4482 59.3769 40.0974C59.5413 39.922 59.6619 39.7028 59.7606 39.4616C59.7935 39.3849 59.7716 39.341 59.7167 39.3081L58.7959 38.8806C58.7301 38.8477 58.6863 38.8696 58.6534 38.9354C58.4889 39.3081 58.2807 39.5055 57.9847 39.5055C57.6339 39.5055 57.4146 39.2643 57.4146 38.9573V37.7295C57.4146 37.4445 57.6448 37.1924 57.9847 37.1924Z" fill="white"/>
<path d="M55.2769 36.1731H54.1587C54.0929 36.1731 54.0601 36.206 54.0601 36.2718V40.4594C54.0601 40.5252 54.0929 40.5581 54.1587 40.5581H55.2769C55.3317 40.5581 55.3646 40.5252 55.3646 40.4594V36.2718C55.3536 36.195 55.3207 36.1731 55.2769 36.1731Z" fill="white"/>
<path d="M54.7068 34.3203C54.3451 34.3203 54.0491 34.6163 54.0491 34.9781C54.0491 35.3398 54.3451 35.6358 54.7068 35.6358C55.0686 35.6358 55.3646 35.3398 55.3646 34.9781C55.3755 34.6163 55.0686 34.3203 54.7068 34.3203Z" fill="white"/>
<path d="M53.4681 36.1731H52.2732C52.2294 36.1731 52.1855 36.206 52.1746 36.2498L51.473 38.2779C51.4401 38.3766 51.3743 38.6287 51.3634 38.7493H51.3305C51.3085 38.6287 51.2647 38.3985 51.2208 38.2779L50.4864 36.2389C50.4644 36.195 50.4425 36.1731 50.3877 36.1731H49.1928C49.1051 36.1731 49.0832 36.2279 49.1051 36.3046L50.7933 40.4814C50.8152 40.5252 50.8481 40.5471 50.892 40.5471H51.769C51.8128 40.5471 51.8567 40.5252 51.8676 40.4814L53.5668 36.3046C53.5887 36.2279 53.5558 36.1731 53.4681 36.1731Z" fill="white"/>
<path d="M47.2962 38.9245C47.2962 39.2314 47.044 39.4726 46.7152 39.4726C46.3753 39.4726 46.1451 39.2424 46.1451 38.9245V37.7953C46.1451 37.4884 46.3753 37.2691 46.7152 37.2691C47.055 37.2691 47.2962 37.4993 47.2962 37.7953V38.9245ZM48.502 34.6162H47.3948C47.351 34.6162 47.2962 34.6491 47.2962 34.7149V36.0194C47.2962 36.1619 47.3291 36.436 47.3291 36.436C47.1427 36.2715 46.8248 36.1729 46.6055 36.1729C45.5751 36.1729 44.8406 36.8635 44.8406 37.883V38.8368C44.8406 39.933 45.4764 40.5469 46.6275 40.5469C46.8906 40.5469 47.1975 40.4592 47.3948 40.2948C47.4496 40.2509 47.5154 40.2619 47.5154 40.3386V40.4811C47.5154 40.514 47.5483 40.5469 47.5922 40.5469H48.502C48.5569 40.5469 48.6007 40.514 48.6007 40.4483V34.7039C48.6007 34.6491 48.5569 34.6162 48.502 34.6162Z" fill="white"/>
<path d="M42.385 38.5298H41.815C41.7163 38.5298 41.6834 38.475 41.7054 38.4202L41.9027 37.6528C42.0013 37.302 42.0671 36.8854 42.089 36.6443H42.1219C42.1439 36.8854 42.1987 37.302 42.2864 37.6528L42.4837 38.4202C42.5056 38.464 42.4618 38.5298 42.385 38.5298ZM42.6043 34.682C42.5824 34.6381 42.5604 34.6162 42.5056 34.6162H41.6615C41.6067 34.6162 41.5848 34.6381 41.5628 34.682L39.7321 40.4263C39.6992 40.5031 39.7431 40.5469 39.8308 40.5469H41.0147C41.0586 40.5469 41.0805 40.525 41.1024 40.4811L41.3765 39.6261C41.3984 39.5822 41.4094 39.5713 41.4751 39.5713H42.7139C42.7797 39.5713 42.8016 39.5822 42.8126 39.6261L43.0757 40.4811C43.0976 40.525 43.1086 40.5469 43.1743 40.5469H44.3692C44.4679 40.5469 44.4898 40.5031 44.4679 40.4263L42.6043 34.682Z" fill="white"/>
<path d="M59.2408 30.9109H58.2103C58.1335 30.9109 58.1116 30.8671 58.1116 30.8123L58.1226 30.6807C58.1445 30.4067 58.3966 30.2093 58.7365 30.2093C59.0654 30.2093 59.3285 30.4067 59.3504 30.6698L59.3613 30.8013C59.3504 30.8671 59.3394 30.9109 59.2408 30.9109ZM58.6926 29.135C57.5854 29.135 56.7852 29.9353 56.7852 30.8452V32.062C56.7852 33.0815 57.5416 33.7831 58.6926 33.7831C59.3175 33.7831 59.767 33.5639 60.0849 33.2569C60.2383 33.1034 60.3589 32.928 60.4576 32.7526C60.5124 32.654 60.4905 32.5553 60.4247 32.5224L59.4929 32.051C59.4381 32.0181 59.3833 32.0401 59.3504 32.1278C59.2188 32.4566 58.9996 32.6101 58.6817 32.6101C58.3309 32.6101 58.0897 32.3799 58.0897 32.073V31.8647C58.0897 31.7989 58.1226 31.766 58.1993 31.766H60.4686C60.5234 31.766 60.5672 31.7331 60.5672 31.6673V30.8452C60.5782 29.9462 59.7998 29.135 58.6926 29.135Z" fill="white"/>
<path d="M56.226 29.2885C56.1602 29.2776 56.0834 29.2666 55.9848 29.2666C55.623 29.2666 55.2832 29.431 55.1407 29.6284C55.0968 29.6722 55.0201 29.6613 55.0201 29.5845V29.3653C55.0201 29.2995 54.9872 29.2666 54.9214 29.2666H54.0225C53.9677 29.2666 53.9238 29.2995 53.9238 29.3653V33.5529C53.9238 33.6187 53.9567 33.6516 54.0225 33.6516H55.1297C55.1845 33.6516 55.2284 33.6187 55.2284 33.5529V31.0535C55.2284 30.7246 55.4586 30.4834 55.7984 30.4834C55.9409 30.4834 56.0615 30.5054 56.1711 30.5273C56.2588 30.5492 56.3137 30.5163 56.3137 30.4286V29.3653C56.3137 29.3324 56.2808 29.2885 56.226 29.2885Z" fill="white"/>
<path d="M51.2381 32.6321H50.8873C50.6899 32.6321 50.5803 32.5115 50.5803 32.2484C50.5803 32.062 50.7119 31.9305 50.8982 31.9305H51.6985C51.7533 31.9305 51.7752 32.0292 51.7752 32.062C51.7533 32.4019 51.4902 32.6321 51.2381 32.6321ZM51.2052 29.157C50.6242 29.157 50.1857 29.3433 49.8678 29.6393C49.6924 29.8038 49.5498 29.9901 49.4293 30.1984C49.3744 30.2971 49.3964 30.3957 49.4621 30.4286L50.394 30.9C50.4488 30.9329 50.5036 30.911 50.5365 30.8233C50.668 30.4944 50.8873 30.3409 51.2052 30.3409C51.556 30.3409 51.7752 30.5821 51.7752 30.8781V30.9219C51.7752 30.9877 51.7423 31.0206 51.6766 31.0206H50.8434C50.0103 31.0206 49.3416 31.4701 49.3416 32.2594V32.358C49.3416 33.1583 49.9445 33.6406 50.7557 33.6406H51.0846C51.3367 33.6406 51.6217 33.5529 51.8191 33.3995C51.852 33.3666 51.9068 33.3775 51.9177 33.4104L51.9506 33.5749C51.9616 33.6187 51.9945 33.6516 52.0493 33.6516H52.9701C53.0249 33.6516 53.0688 33.6187 53.0688 33.5529V30.8891C53.0688 29.8695 52.3562 29.157 51.2052 29.157Z" fill="white"/>
<path d="M48.9688 29.2666H47.8287C47.7739 29.2666 47.73 29.2995 47.73 29.3433L47.3025 31.1083C47.2586 31.3056 47.2148 31.5907 47.2038 31.788H47.1709C47.16 31.5907 47.1271 31.3385 47.0723 31.1083L46.6447 29.3433C46.6338 29.2995 46.6009 29.2666 46.5461 29.2666H45.6142C45.5594 29.2666 45.5265 29.2995 45.5156 29.3433L45.099 31.1083C45.0552 31.3056 45.0113 31.5578 45.0003 31.7441H44.9784C44.9675 31.5578 44.9346 31.3056 44.8798 31.1083L44.4413 29.3433C44.4303 29.2995 44.4084 29.2666 44.3426 29.2666H43.1806C43.0929 29.2666 43.0709 29.3105 43.0929 29.3872L44.4193 33.5749C44.4413 33.6187 44.4632 33.6406 44.518 33.6406H45.3511C45.406 33.6406 45.4388 33.6187 45.4498 33.5749L45.965 31.6235C46.0199 31.4043 46.0637 31.0425 46.0637 31.0425H46.0966C46.0966 31.0425 46.1404 31.4153 46.1953 31.6235L46.6995 33.5639C46.7105 33.6078 46.7324 33.6406 46.7982 33.6406H47.6204C47.6642 33.6406 47.6971 33.6187 47.719 33.5749L49.0674 29.3872C49.0894 29.3214 49.0565 29.2666 48.9688 29.2666Z" fill="white"/>
<path d="M42.6216 29.2666H41.9857C41.898 29.2666 41.8761 29.2337 41.8761 29.168V28.576C41.8761 28.5102 41.8542 28.4883 41.7884 28.4883H41.1964C41.1635 28.4883 41.1087 28.5102 41.0868 28.5321L39.9138 29.7051V30.3409C39.9138 30.4067 39.9467 30.4286 40.0125 30.4286H40.4839C40.5716 30.4286 40.5935 30.4615 40.5935 30.5273V31.9963C40.5935 33.1254 41.2951 33.7064 42.194 33.7064H42.5887C42.6764 33.7064 42.7093 33.6735 42.7093 33.6078V32.6431C42.7093 32.5883 42.6764 32.5444 42.6106 32.5444H42.4571C42.0734 32.5444 41.8871 32.3142 41.8871 31.9086V30.5383C41.8871 30.4725 41.92 30.4396 41.9967 30.4396H42.6325C42.6983 30.4396 42.7202 30.4177 42.7202 30.3519V29.3543C42.7093 29.2885 42.6873 29.2666 42.6216 29.2666Z" fill="white"/>
<path d="M39.804 27.6659C39.6396 27.633 39.3765 27.6001 39.1353 27.6001C37.7431 27.6001 37.2169 28.5648 37.2169 29.3322V29.5624C37.2169 29.6282 37.184 29.661 37.1182 29.661H36.899C36.8441 29.661 36.8003 29.6939 36.8003 29.7597V30.7463C36.8003 30.8121 36.8332 30.845 36.899 30.845H37.1182C37.2059 30.845 37.2169 30.8779 37.2169 30.9437V33.5637C37.2169 33.6295 37.2498 33.6624 37.3155 33.6624H38.4227C38.4885 33.6624 38.5214 33.6295 38.5214 33.5637V30.9437C38.5214 30.8779 38.5543 30.845 38.6201 30.845H39.234C39.2997 30.845 39.3326 30.8121 39.3326 30.7463V29.7597C39.3326 29.6939 39.2997 29.661 39.234 29.661H38.6201C38.5433 29.661 38.5214 29.6282 38.5214 29.5624V29.3102C38.5214 28.9814 38.7516 28.7731 39.1134 28.7731C39.234 28.7731 39.3655 28.795 39.4751 28.8169C39.5409 28.8389 39.5738 28.8169 39.5957 28.7621L39.8917 27.7974C39.9027 27.7316 39.8808 27.6768 39.804 27.6659Z" fill="white"/>
<path d="M34.9368 32.073C34.9368 32.38 34.6956 32.6211 34.3667 32.6211C34.0159 32.6211 33.7747 32.38 33.7747 32.073V30.8452C33.7747 30.5492 34.0159 30.2971 34.3667 30.2971C34.6956 30.2971 34.9368 30.5383 34.9368 30.8452V32.073ZM34.3667 29.157C33.2156 29.157 32.4592 29.8586 32.4592 30.8781V32.0292C32.4592 33.0487 33.2156 33.7393 34.3667 33.7393C35.4958 33.7393 36.2523 33.0487 36.2523 32.0292V30.8781C36.2523 29.8586 35.4958 29.157 34.3667 29.157Z" fill="white"/>
<path d="M30.4421 30.0997C29.9269 29.9024 29.3678 29.7599 29.3678 29.3324C29.3678 28.9925 29.6199 28.7623 29.9488 28.7623H30.0913C30.4092 28.7623 30.6285 28.9158 30.76 29.2447C30.7929 29.3324 30.8477 29.3433 30.9025 29.3214L31.8343 28.85C31.8891 28.8171 31.922 28.7185 31.8672 28.6198C31.7905 28.4773 31.7028 28.3348 31.5822 28.2142C31.2533 27.8524 30.7819 27.5784 30.0913 27.5784H29.9488C28.7758 27.5784 28.0413 28.28 28.0413 29.3433C28.0413 30.4286 28.7429 30.8342 29.6089 31.185C30.179 31.4152 30.6613 31.5358 30.6613 32.0072C30.6613 32.3909 30.3654 32.5663 30.0255 32.5663H29.7953C29.4774 32.5663 29.2581 32.4128 29.1266 32.084C29.0937 31.9963 29.0389 31.9853 28.9841 32.0072L28.0523 32.4786C27.9975 32.5115 27.9646 32.6102 28.0194 32.7088C28.1071 32.8623 28.2057 33.0048 28.3263 33.1473C28.6442 33.5091 29.1156 33.7503 29.7843 33.7503H30.0803C31.2752 33.7503 31.9768 33.0596 31.9768 31.9963C31.9768 30.889 31.3301 30.4505 30.4421 30.0997Z" fill="white"/>
<rect x="26.1501" y="45.2917" width="47.8681" height="0.368217" fill="white"/>
<rect x="26.1501" y="65.3594" width="47.8681" height="0.368217" fill="white"/>
<path d="M44.7378 13.3671C48.1252 11.5082 52.2274 11.5082 55.6148 13.3671L80.3499 26.9416C83.9673 28.9268 86.2156 32.7253 86.2156 36.8516V62.9371C86.2156 67.0634 83.9673 70.8619 80.3499 72.8471L55.6148 86.4215C52.2274 88.2805 48.1252 88.2805 44.7378 86.4215L20.0027 72.8471C16.3853 70.8619 14.137 67.0634 14.137 62.9371V36.8516C14.137 32.7253 16.3853 28.9268 20.0027 26.9416L44.7378 13.3671Z" stroke="white" stroke-width="2.06201"/>
</svg>
