<svg width="148" height="40" viewBox="0 0 148 40" fill="none" xmlns="http://www.w3.org/2000/svg">
<g clip-path="url(#clip0_2437_13539)">
<path d="M15.2339 27.3594C14.6515 27.3594 14.3676 27.0747 14.3668 26.49L14.363 19.967C14.363 18.3555 13.7768 17.0148 12.6709 16.0939C11.565 15.173 9.95093 14.6857 8.00248 14.6857H7.99481C5.28712 14.6857 2.96209 15.5904 1.08248 17.3716L1.03197 17.4192L3.36694 19.8665L3.41669 19.8166C4.66186 18.5665 6.17183 17.905 7.78896 17.9042H7.79354C8.69045 17.9042 9.44046 18.0738 9.96394 18.3945C10.4698 18.7015 10.7377 19.142 10.7377 19.6585C10.7377 20.66 9.4443 20.9017 7.47058 21.1572C5.99122 21.3407 4.29987 21.6284 2.97893 22.3751C1.446 23.2408 0.702881 24.5385 0.702881 26.3418C0.702881 27.7132 1.20263 28.8828 2.1455 29.7239C3.08837 30.5649 4.36492 30.9977 5.868 30.9977H5.87259C8.08357 30.9977 10.0964 30.0769 11.2926 28.5374C11.5948 30.1252 12.5936 30.835 14.5023 30.835H14.5076C14.9654 30.8432 15.4228 30.8075 15.8738 30.7284L15.9327 30.7161V27.3563L15.2339 27.3594ZM10.6375 24.6144C10.6375 26.4171 8.85042 27.8851 6.65091 27.8867C5.98203 27.8867 5.42641 27.7148 5.0537 27.3893C4.68099 27.064 4.48507 26.5967 4.48507 26.0272C4.48507 24.4049 6.08765 24.121 7.78512 23.8201L7.91065 23.7979C9.18332 23.593 10.0237 23.4403 10.639 23.1149L10.6375 24.6144Z" fill="#A7ADBE"/>
<path d="M33.5178 26.4228L30.3524 14.9853L30.3386 14.9346L26.7485 14.9377L23.5847 26.3767L20.5732 14.9929L20.5594 14.9415L16.5645 14.9438L21.2834 30.678L21.298 30.7271L25.5631 30.7248L28.4705 20.2635L31.5456 30.721L35.8099 30.7179L40.4439 15.0167L40.4699 14.9285L36.579 14.9308L33.5178 26.4228Z" fill="#A7ADBE"/>
<path d="M54.9484 16.8828C53.5708 15.4293 51.6331 14.6611 49.344 14.6611H49.3371C47.0044 14.6627 45.0146 15.4447 43.5865 16.9288C42.1584 18.413 41.4176 20.4389 41.4176 22.8202C41.4176 25.2015 42.1355 27.2167 43.4885 28.6525C44.9212 30.1697 47.0343 30.9716 49.5988 30.9716H49.6065C53.2364 30.9716 55.315 29.4514 56.4178 28.1783L56.4614 28.1284L54.0216 25.7893L53.9741 25.8446C53.2517 26.6888 51.9078 27.6994 49.6065 27.7009H49.6019C47.2624 27.7009 45.7041 26.3856 45.3161 24.0865L56.8349 24.0788H56.8862L56.9007 24.0296C57.0218 23.6356 57.0752 23.2238 57.0584 22.8118C57.0568 20.3875 56.3275 18.3378 54.9484 16.8828ZM49.3424 17.8236C51.3139 17.8236 52.6823 19.0446 53.1078 21.1779L45.3682 21.1833C45.8021 19.0515 47.2455 17.8236 49.3394 17.8236H49.3424Z" fill="#A7ADBE"/>
<path d="M70.8056 23.0075C69.8577 22.2478 68.3397 21.6315 66.0309 21.0674C63.7473 20.5218 63.0141 20.0821 63.0134 19.2595C63.0126 18.4368 63.9422 17.9196 65.4401 17.918H65.4489C67.0989 17.918 68.505 18.4099 69.8759 19.4659L69.9325 19.5097L71.9898 16.628L71.9313 16.5881C70.0588 15.3019 67.9833 14.6504 65.7606 14.6504H65.755C63.8297 14.6504 62.2036 15.1062 61.0526 15.9642C59.9015 16.8221 59.2923 18.0362 59.2923 19.4705C59.2923 21.9569 61.0373 23.4418 65.1233 24.4371C67.9808 25.0833 68.5037 25.553 68.5044 26.2452C68.5044 26.6895 68.2404 27.0394 67.7186 27.285C67.229 27.5153 66.5344 27.638 65.7129 27.638H65.7066C63.7279 27.638 61.9832 26.9964 60.6607 25.7824L60.6041 25.7302L58.5462 28.5037L58.5929 28.5459C60.2827 30.0807 62.8373 30.9586 65.6023 30.9586H65.6111C69.759 30.9586 72.233 29.1345 72.2305 26.0863C72.2268 24.761 71.7761 23.7826 70.8056 23.0075Z" fill="#A7ADBE"/>
<path d="M82.382 14.6387H82.3744C77.5105 14.6387 74.2445 17.9217 74.2482 22.7986C74.2482 25.2229 75.0183 27.2733 76.4677 28.7268C77.9172 30.1803 79.9626 30.9462 82.3776 30.9462H82.3851C84.7573 30.9462 86.7889 30.168 88.2579 28.6992C89.7275 27.2304 90.5132 25.1799 90.5119 22.7902C90.5081 17.8365 87.3175 14.6387 82.382 14.6387ZM82.382 27.6793C81.1261 27.6793 80.0789 27.2304 79.3541 26.3816C78.6294 25.5329 78.2384 24.2874 78.2378 22.7955C78.2372 21.3037 78.6206 20.0643 79.3497 19.2086C80.0789 18.353 81.1217 17.904 82.3788 17.904C83.6347 17.904 84.6819 18.3522 85.4066 19.201C86.1314 20.0497 86.5224 21.296 86.5236 22.7871C86.5255 24.2782 86.1414 25.5191 85.411 26.3747C84.6806 27.2304 83.6391 27.6755 82.382 27.6793Z" fill="#A7ADBE"/>
<path d="M112.399 14.6188H112.395C110.043 14.6188 108.045 15.6755 106.891 17.518C106.022 15.6762 104.283 14.6257 102.1 14.6257H102.095C99.992 14.6257 98.1453 15.4775 96.9988 16.9655L96.8001 14.8935H93.3392L93.3499 30.6109V30.6799H97.2332L97.2269 21.6391C97.2269 19.4381 98.7361 17.8994 100.9 17.8979C102.699 17.8979 103.691 19.2071 103.692 21.5815L103.699 30.6745H107.582L107.576 21.6337C107.576 20.5701 107.942 19.6123 108.607 18.937C109.273 18.2617 110.209 17.8933 111.25 17.8925C112.152 17.8925 112.851 18.2125 113.325 18.8419C113.8 19.4711 114.041 20.3912 114.042 21.5777L114.048 30.6707H117.931L117.924 20.6944C117.927 17.0561 115.705 14.6188 112.399 14.6188Z" fill="#A7ADBE"/>
<path d="M125.647 9H121.685V12.9238H125.647V9Z" fill="#A7ADBE"/>
<path d="M125.604 14.8707L121.72 14.8738L121.731 30.5911V30.6602L125.614 30.6571L125.604 14.9398V14.8707Z" fill="#A7ADBE"/>
<path d="M138.797 27.4164C138.417 27.5626 138.017 27.6543 137.611 27.6889H137.603C137.549 27.6935 137.494 27.6981 137.439 27.7012C137.329 27.7088 137.218 27.7134 137.105 27.7134C134.381 27.7134 132.247 25.4987 132.247 22.7659C132.247 20.0332 134.381 17.8177 137.105 17.8177C137.749 17.817 138.386 17.943 138.982 18.1884L140.002 15.0911C139.048 14.7601 138.044 14.5953 137.035 14.6038H137.019C134.825 14.6038 132.805 15.4211 131.331 16.8953C129.83 18.3971 129.006 20.4883 129.009 22.7836C129.013 25.0789 129.845 27.1762 131.353 28.6796C132.834 30.1561 134.861 30.9688 137.061 30.9688H137.075C138.075 30.9781 139.07 30.816 140.016 30.4891L138.979 27.3427C138.919 27.3696 138.858 27.3934 138.797 27.4164Z" fill="#A7ADBE"/>
<path d="M147.146 18.6478C147.144 18.6266 147.134 18.607 147.117 18.5929C147.102 18.5787 147.081 18.5709 147.059 18.5711H145.489L146.6 17.4561C146.615 17.4409 146.624 17.4207 146.625 17.3993C146.626 17.3779 146.619 17.3569 146.606 17.3402C146.549 17.2688 146.488 17.2007 146.424 17.136C146.359 17.0717 146.291 17.0107 146.221 16.9534C146.204 16.94 146.183 16.9333 146.161 16.9345C146.14 16.9358 146.12 16.945 146.105 16.9603L144.993 18.0746V16.4984C144.993 16.4769 144.986 16.4561 144.972 16.44C144.957 16.4239 144.938 16.4135 144.917 16.4109C144.736 16.3917 144.553 16.3917 144.373 16.4109C144.352 16.4135 144.332 16.4239 144.318 16.44C144.304 16.4561 144.296 16.4769 144.296 16.4984V18.0738L143.185 16.9595C143.17 16.9442 143.15 16.935 143.128 16.9338C143.106 16.9325 143.086 16.9392 143.069 16.9526C142.998 17.01 142.93 17.0709 142.866 17.1353C142.801 17.1999 142.741 17.268 142.683 17.3394C142.67 17.356 142.663 17.3772 142.664 17.3985C142.666 17.4199 142.675 17.4401 142.69 17.4553L143.801 18.5703H142.23C142.209 18.5702 142.188 18.5779 142.172 18.5921C142.156 18.6063 142.146 18.6258 142.143 18.6471C142.123 18.8287 142.123 19.0119 142.143 19.1935C142.146 19.2147 142.156 19.2343 142.172 19.2484C142.188 19.2626 142.209 19.2704 142.23 19.2702H143.801L142.69 20.3845C142.675 20.3998 142.666 20.4202 142.664 20.4416C142.664 20.4631 142.67 20.4843 142.683 20.5012C142.741 20.5725 142.801 20.6406 142.866 20.7053C142.93 20.7698 142.998 20.8308 143.069 20.8879C143.086 20.9013 143.107 20.908 143.128 20.9067C143.15 20.9055 143.17 20.8963 143.185 20.881L144.296 19.7667V21.3422C144.296 21.3636 144.304 21.3841 144.318 21.4001C144.332 21.4161 144.352 21.4263 144.373 21.4289C144.463 21.4387 144.553 21.4436 144.644 21.4435C144.736 21.4436 144.827 21.4387 144.917 21.4289C144.939 21.4263 144.958 21.4161 144.972 21.4001C144.986 21.3841 144.994 21.3636 144.994 21.3422V19.7683L146.105 20.8825C146.12 20.8979 146.141 20.907 146.162 20.9082C146.184 20.9094 146.205 20.9024 146.222 20.8887C146.363 20.7753 146.491 20.6467 146.604 20.505C146.618 20.4882 146.624 20.467 146.623 20.4455C146.622 20.424 146.613 20.4037 146.598 20.3883L145.487 19.2741H147.058C147.08 19.2742 147.1 19.2665 147.116 19.2523C147.132 19.2381 147.142 19.2186 147.145 19.1973C147.165 19.0147 147.166 18.8305 147.146 18.6478Z" fill="#A7ADBE"/>
<path d="M144.719 29.0744C146.033 29.0744 147.098 28.0062 147.098 26.6885C147.098 25.3709 146.033 24.3027 144.719 24.3027C143.405 24.3027 142.34 25.3709 142.34 26.6885C142.34 28.0062 143.405 29.0744 144.719 29.0744Z" fill="#A7ADBE"/>
</g>
<defs>
<clipPath id="clip0_2437_13539">
<rect width="146.457" height="22" fill="white" transform="translate(0.702881 9)"/>
</clipPath>
</defs>
</svg>
