<svg width="102" height="32" viewBox="0 0 102 32" fill="none" xmlns="http://www.w3.org/2000/svg">
<path d="M10.2658 0.668624C6.91855 0.668624 5.13322 0.891608 4.35188 0.891608C3.05006 0.891608 1.8971 0.854289 0.743648 0.854289C0.111583 0.854289 0 0.891668 0 1.15144C0 1.59658 0.148594 1.63427 1.82285 1.63427C2.86383 1.63427 3.45964 1.9684 3.45964 4.90107V21.9782C3.45964 22.535 3.38476 22.6093 1.71115 22.6093C0.892727 22.6093 0.66934 22.6831 0.66934 23.0548C0.66934 23.4259 0.92977 23.463 1.30218 23.463C2.49213 23.463 3.31054 23.3146 4.87261 23.3146C6.50916 23.3146 8.07159 23.6855 9.63395 23.6855C14.8044 23.6855 18.2639 21.7185 18.2639 17.5604C18.2639 14.3307 16.0686 13.0682 14.3205 12.1767C13.5766 11.8056 12.8697 11.6201 12.8697 11.5461C12.8697 11.435 13.6881 11.0263 14.3953 10.5436C15.5858 9.72705 17.1852 8.42711 17.1852 5.7915C17.1852 3.15559 15.102 0.668533 10.2657 0.668533L10.2658 0.668624ZM73.9988 0.711082C73.8046 0.711082 72.5752 1.26004 70.0517 1.42153C69.5019 1.45377 69.2426 1.42117 69.2426 1.80869C69.2426 2.16427 69.5665 2.229 70.1489 2.229C71.6044 2.229 71.7987 2.22885 71.7987 4.26285V22.0547C71.7987 22.636 71.2485 22.6038 69.9222 22.6038C69.1453 22.6038 69.1131 22.7981 69.1131 23.0241C69.1131 23.2823 69.1777 23.3469 69.9222 23.3469C70.3751 23.3469 72.0901 23.2825 73.1897 23.2825C73.7727 23.2825 74.4843 23.3469 74.9695 23.3469C76.1341 23.3469 76.3605 23.3468 76.3605 23.0241C76.3605 22.7652 76.425 22.5716 74.8073 22.5716C74.2252 22.5716 73.9987 22.2164 73.9987 19.5366C73.9987 18.5998 74.1605 16.0493 74.1605 3.74627C74.1605 2.77777 74.3222 1.61472 74.3222 1.2272C74.3222 0.871929 74.1603 0.710808 73.9987 0.710808L73.9988 0.711082ZM47.1386 0.743262C46.8472 0.743262 44.9381 1.45329 42.6091 1.45329C42.2531 1.45329 42.1884 1.58257 42.1884 1.9053C42.1884 2.1319 42.3178 2.22906 43.6439 2.22906C44.5173 2.22906 44.7764 2.51972 44.7764 4.812C44.7764 11.6255 44.6792 21.1833 44.6792 22.1196C44.6792 22.6039 44.3881 22.6038 43.2882 22.6038C42.5117 22.6038 42.3501 22.7653 42.3501 23.0241C42.3501 23.3146 42.5442 23.3469 43.2882 23.3469C43.7411 23.3469 44.9383 23.2825 46.0388 23.2825C47.0741 23.2825 48.5618 23.3469 49.047 23.3469C49.7586 23.3469 49.9205 23.3468 49.9205 23.0241C49.9205 22.7653 49.7912 22.6038 49.047 22.6038C47.0413 22.6038 47.1063 22.604 47.1063 21.0868V19.0525C47.1063 18.7617 47.5591 18.5354 48.0766 18.2124C48.6264 17.8571 49.0791 17.5345 49.2087 17.5345C49.4028 17.5345 50.7624 19.5692 52.121 21.119C53.4797 22.6688 53.771 23.4761 54.3537 23.4761C54.8066 23.4761 55.7771 23.4439 56.1653 23.4439C56.4564 23.4439 56.8768 23.4761 57.2651 23.4761C57.9767 23.4761 58.2032 23.4115 58.2032 23.1855C58.2032 22.9273 57.9446 22.7652 57.1684 22.7652C56.0685 22.7652 55.0331 21.1832 53.9326 19.8595C51.6682 17.1468 51.0862 16.5336 51.0862 16.2428C51.0862 16.0168 53.0919 14.5964 54.7099 13.0138C55.7126 12.0453 56.8122 10.6571 56.8122 10.366C56.8122 10.269 56.683 10.2368 56.4243 10.2368C56.0363 10.2368 54.1592 10.3334 53.7386 10.3334C53.3504 10.3334 52.736 10.2368 52.4126 10.2368C51.9921 10.2368 51.8303 10.3012 51.8303 10.5601C51.8303 10.8509 51.9919 10.9151 52.4771 10.9151C53.9004 10.9151 53.9975 10.9798 53.9975 11.4963C53.9975 12.1743 53.7063 12.7234 52.4449 13.9179C51.4096 14.887 48.0442 17.8574 47.2353 17.8574C47.1384 17.8574 47.1063 17.7604 47.1063 17.6311C47.1063 12.368 47.2998 8.75161 47.2998 3.84343C47.2998 2.81014 47.3648 1.45322 47.3648 1.03376C47.3648 0.839999 47.3001 0.743134 47.1386 0.743134L47.1386 0.743262ZM9.14947 1.55963C12.5344 1.55963 14.0968 5.12379 14.0968 6.98018C14.0968 9.91285 12.8693 10.6183 11.7907 11.4351C11.7907 11.4351 10.2281 11.2121 7.95946 11.2121C7.06626 11.2121 6.58299 11.2861 6.58299 10.692V2.63648C6.58299 1.89399 6.69477 1.55985 9.14942 1.55985L9.14947 1.55963ZM25.4617 9.91369C22.5177 9.91369 19.4438 12.6263 19.4438 17.1792C19.4438 22.5717 23.3911 23.8638 26.0438 23.8638C28.6645 23.8638 31.4146 21.8288 31.4146 21.6676C31.4146 21.6028 31.3175 21.4091 31.1557 21.4091C30.9618 21.4091 29.7971 22.1844 27.6619 22.1844C25.2028 22.1844 21.7406 20.9896 21.7406 16.5334C21.7406 15.7909 21.838 15.6294 22.3561 15.5971C26.0438 15.3711 29.2792 14.6612 30.1204 14.4668C30.9945 14.273 31.4473 14.1441 31.4473 14.0148C31.4473 13.7565 30.9293 12.9814 30.3789 12.3359C29.2144 10.9796 27.1441 9.91396 25.4615 9.91396L25.4617 9.91369ZM63.1864 9.91369C60.2426 9.91369 57.1685 12.6263 57.1685 17.1792C57.1685 22.5717 61.1155 23.8638 63.7685 23.8638C66.3889 23.8638 69.1393 21.8288 69.1393 21.6676C69.1393 21.6028 69.0419 21.4091 68.8803 21.4091C68.6862 21.4091 67.5213 22.1844 65.3861 22.1844C62.9273 22.1844 59.4657 20.9896 59.4657 16.5334C59.4657 15.7909 59.5628 15.6294 60.0803 15.5971C63.7686 15.3711 67.0034 14.6612 67.8451 14.4668C68.7186 14.273 69.1716 14.1441 69.1716 14.0148C69.1716 13.7565 68.6542 12.9814 68.104 12.3359C66.9389 10.9796 64.8688 9.91396 63.1861 9.91396L63.1864 9.91369ZM81.8474 9.91369C78.9031 9.91369 75.8295 12.6263 75.8295 17.1792C75.8295 22.5717 79.7765 23.8638 82.4295 23.8638C85.0502 23.8638 87.8003 21.8288 87.8003 21.6676C87.8003 21.6028 87.703 21.4091 87.5414 21.4091C87.3473 21.4091 86.183 22.1844 84.0472 22.1844C81.5886 22.1844 78.1267 20.9896 78.1267 16.5334C78.1267 15.7909 78.2239 15.6294 78.7414 15.5971C82.4297 15.3711 85.6651 14.6612 86.5062 14.4668C87.3797 14.273 87.8327 14.1441 87.8327 14.0148C87.8327 13.7565 87.3153 12.9814 86.7652 12.3359C85.6006 10.9796 83.5298 9.91396 81.8478 9.91396L81.8474 9.91369ZM36.7204 10.1395C36.2023 10.1395 35.5876 10.3009 35.0701 10.3009C34.423 10.3009 33.8082 10.236 32.7083 10.236C32.1579 10.236 32.1904 10.3334 32.1904 10.7212C32.1904 11.0765 32.1903 11.044 32.7733 11.044C34.5848 11.044 34.5199 11.1086 34.5199 13.3041V22.152C34.5199 22.604 34.423 22.6362 33.0967 22.6362C32.3198 22.6362 32.2876 22.7005 32.2876 23.0239C32.2876 23.3469 32.3521 23.3467 33.0967 23.3467C33.5496 23.3467 34.6497 23.1853 35.7496 23.1853C36.7852 23.1853 38.9527 23.3467 39.4056 23.3467C40.2467 23.3467 40.2791 23.3792 40.2791 23.0239C40.2791 22.7328 40.2467 22.6362 39.4056 22.6362C37.0116 22.6362 36.9148 22.6359 36.9148 21.0539V14.4016C36.9148 13.0456 37.6261 12.2706 39.5023 12.2706C41.1203 12.2706 41.5088 13.5945 41.9617 13.5945C42.1558 13.5945 42.6731 12.1738 42.6731 11.8508C42.6731 11.0116 41.1851 10.3007 40.6021 10.3007C39.0816 10.3007 37.5617 11.98 37.0765 11.98C36.947 11.98 36.9148 11.7541 36.9148 11.4636C36.9148 11.3666 36.9793 10.6562 36.9793 10.4947C36.9793 10.2359 36.8499 10.1392 36.7204 10.1392L36.7204 10.1395ZM101.321 10.1717C100.868 10.1717 99.9944 10.3009 99.5093 10.3009C98.6352 10.3009 98.053 10.2365 97.1797 10.2365C96.5973 10.2365 96.5002 10.2363 96.5002 10.6563C96.5002 10.9794 96.6297 10.9796 97.6327 10.9796C98.7323 10.9796 98.732 11.1731 98.732 12.1416C98.732 12.5936 97.5677 15.9523 96.7913 18.2769C96.2738 19.795 96.0797 20.2468 95.8533 20.2468C95.7237 20.2468 95.3353 19.698 95.076 19.02C93.1352 14.0467 92.2941 12.9164 92.2941 11.9801C92.2941 11.2376 92.4882 11.0439 93.2644 11.0439C93.9437 11.0439 94.0734 11.0116 94.0734 10.7211C94.0734 10.3652 93.9437 10.2364 93.2644 10.2364C92.2294 10.2364 91.0966 10.3329 90.1908 10.3329C89.4146 10.3329 89.1883 10.2686 88.2825 10.2686C87.7001 10.2686 87.6033 10.4303 87.6033 10.7211C87.6033 11.0115 87.6355 11.0439 88.2825 11.0439C88.8646 11.0439 89.0913 11.2056 89.9001 13.1426C91.6797 17.3405 94.2675 23.3142 94.2675 23.6695C94.2675 24.638 91.4859 28.448 90.3208 29.9008C89.2209 31.2897 87.7001 31.4834 87.7001 31.6772C87.7001 31.8387 88.0235 32 88.5737 32C89.2853 32 89.5116 31.7418 90.482 31.6128C91.1942 31.5158 91.5825 31.4834 91.9384 30.7732C92.9734 28.6418 94.4296 26.0261 96.4679 21.0858C99.0237 14.8867 100.448 11.0115 101.159 11.0115C101.547 11.0115 102 10.85 102 10.5595C102 10.2039 101.838 10.1713 101.321 10.1713V10.1717ZM25.1381 10.592C26.6265 10.592 28.5351 12.981 28.5351 13.7883C28.5351 13.9821 28.5031 14.0466 28.1471 14.1111C25.7206 14.4986 23.9735 14.9191 22.2911 14.9191C21.9026 14.9191 21.9027 14.8865 21.9027 14.725C21.9027 14.2724 22.6795 10.5919 25.138 10.5919L25.1381 10.592ZM62.8621 10.592C64.3509 10.592 66.2596 12.981 66.2596 13.7883C66.2596 13.9821 66.2272 14.0466 65.8712 14.1111C63.4446 14.4986 61.6977 14.9191 60.0157 14.9191C59.6274 14.9191 59.6273 14.8865 59.6273 14.725C59.6273 14.2724 60.4035 10.5919 62.8621 10.5919L62.8621 10.592ZM81.5232 10.592C83.0113 10.592 84.9206 12.981 84.9206 13.7883C84.9206 13.9821 84.8882 14.0466 84.5322 14.1111C82.1057 14.4986 80.3589 14.9191 78.6762 14.9191C78.288 14.9191 78.2878 14.8865 78.2878 14.725C78.2878 14.2724 79.064 10.5919 81.5231 10.5919L81.5232 10.592ZM7.92483 11.9168C11.979 11.9168 14.7313 14.5156 14.7313 17.857C14.7313 21.0867 12.6486 23.0178 9.82181 23.0178C8.63126 23.0178 7.44144 22.7577 7.03193 22.312C6.6975 21.9406 6.58557 19.8619 6.58557 19.5275V12.8818C6.58557 12.0652 6.88354 11.9166 7.92514 11.9166L7.92483 11.9168ZM26.3699 27.0719C25.6056 27.0719 24.9681 27.532 24.9681 28.2946C24.9681 29.7437 26.8812 29.4854 26.8812 30.292C26.8812 30.6133 26.6348 30.8905 26.1362 30.8905C25.8015 30.8905 25.3786 30.7334 25.0247 30.494L24.7093 31.0487C25.0628 31.2941 25.5425 31.5277 26.1362 31.5277C26.9633 31.5277 27.6515 30.9977 27.6515 30.2668C27.6515 28.7982 25.7385 29.2399 25.7385 28.2628C25.7385 27.9416 25.9532 27.7086 26.3699 27.7086C26.7423 27.7086 27.0326 27.8347 27.3547 27.9983L27.6263 27.4563C27.2604 27.2297 26.8243 27.0719 26.3699 27.0719L26.3699 27.0719ZM41.6214 27.0719C40.3208 27.0719 39.7402 27.9984 39.7402 29.2965C39.7402 30.5317 40.3145 31.5277 41.6214 31.5277C42.9283 31.5277 43.5031 30.5317 43.5031 29.2965C43.5031 27.9984 42.922 27.0719 41.6214 27.0719ZM51.7602 27.0719C50.4595 27.0719 49.8214 28.0047 49.8214 29.3031C49.8214 30.6262 50.4029 31.5277 51.7349 31.5277C52.3158 31.5277 52.8589 31.2878 53.3007 30.8845L52.9156 30.3933C52.562 30.7148 52.158 30.8905 51.7728 30.8905C50.9708 30.8905 50.5917 30.3176 50.5917 29.2966C50.5917 28.2821 50.9962 27.7086 51.7601 27.7086C52.1705 27.7086 52.4736 27.8538 52.808 28.1308L53.1997 27.6265C52.745 27.2546 52.2968 27.0719 51.7602 27.0719L51.7602 27.0719ZM68.1986 27.0719C66.8977 27.0719 66.3174 27.9984 66.3174 29.2965C66.3174 30.5317 66.8917 31.5277 68.1986 31.5277C69.5055 31.5277 70.0803 30.5317 70.0803 29.2965C70.0803 27.9984 69.4993 27.0719 68.1986 27.0719ZM7.78005 27.1348L7.05371 27.2109V31.4582H7.80524V28.5595H7.81786L9.64257 31.4582H10.3119V27.1414H9.56036V29.9776H9.5417L7.78012 27.1349L7.78005 27.1348ZM17.4193 27.1348V31.4582H20.046L20.103 30.8215H18.1708V29.5993H19.7936V28.9625H18.1708V27.7716H19.9955V27.1348H17.4193V27.1348ZM44.4697 27.1348V31.4582H45.2209V29.5993H46.8123V28.9625H45.2209V27.7716H46.995V27.1348H44.4697ZM56.0856 27.1348L55.2083 27.2043L53.6865 31.4582H54.3876L54.747 30.418H56.4899L56.8498 31.4582H57.6205L56.0856 27.1348H56.0856ZM63.3072 27.1348V31.4582H64.0584V29.5993H65.6498V28.9625H64.0584V27.7716H65.833V27.1348H63.3072ZM75.1379 27.1348L74.4115 27.2109V31.4582H75.1626V28.5595H75.1758L77 31.4582H77.6693V27.1414H76.9182V29.9776H76.899L75.1379 27.1349V27.1348ZM82.3781 27.1348L81.5003 27.2043L79.9784 31.4582H80.6795L81.0394 30.418H82.7819L83.1418 31.4582H83.9125L82.3781 27.1348H82.3781ZM2.80909 27.1413V29.958C2.80909 30.9286 3.34561 31.5277 4.40662 31.5277C5.46076 31.5277 5.99766 30.9288 5.99766 29.9519V27.1413H5.2461V30.0023C5.2461 30.5382 5.0193 30.8905 4.40669 30.8905C3.78779 30.8905 3.56027 30.5379 3.56027 29.9958V27.1413H2.80914H2.80909ZM11.3822 27.1413V31.4582H12.1333V27.1413H11.3822ZM12.8717 27.1413L14.3618 31.4582H15.1886L16.6852 27.1413H15.9462L15.1194 29.555C15.1194 29.555 15.0374 29.8004 14.8226 30.5378H14.7848C14.5763 29.8004 14.4945 29.5485 14.4945 29.5485L13.6672 27.1413H12.8717H12.8717ZM21.0973 27.1413V31.4582H21.8484V29.7313H22.2083C22.4799 29.7313 22.6378 29.9838 22.764 30.2421L23.3636 31.4582H24.1909L23.3636 29.9016C23.3134 29.8006 23.2374 29.687 23.0987 29.6049V29.5927C23.6667 29.3784 23.9133 28.9374 23.9133 28.4209C23.9133 27.671 23.4395 27.1413 22.4859 27.1413H21.0973H21.0973ZM28.5462 27.1413V31.4582H29.2974V27.1413H28.5462ZM30.162 27.1413V27.7842H31.3052V31.4582H32.0564V27.7776H33.1487L33.2057 27.1413H30.162V27.1413ZM33.6974 27.1413L35.0613 29.6114V31.4582H35.8124V29.6114L37.1767 27.1413H36.349L35.7367 28.3705C35.7367 28.3705 35.6609 28.5277 35.4465 29.0068H35.4278C35.2001 28.5276 35.1179 28.3705 35.1179 28.3705L34.5435 27.1413H33.6975H33.6974ZM58.2292 27.1413V31.4582H60.7863L60.8433 30.8215H58.9807V27.1413H58.2292V27.1413ZM61.5748 27.1413V31.4582H62.3259V27.1413H61.5748ZM70.7282 27.1413V31.4582H71.4797V29.7313H71.8396C72.111 29.7313 72.2691 29.9838 72.3954 30.2421L72.9951 31.4582H73.8223L72.9951 29.9016C72.9448 29.8006 72.8688 29.687 72.73 29.6049V29.5927C73.2981 29.3784 73.5447 28.9374 73.5447 28.4209C73.5447 27.671 73.0709 27.1413 72.1173 27.1413H70.7282V27.1413ZM78.6133 27.1413V31.4582H79.3644V27.1413H78.6133ZM41.6203 27.7086C42.3655 27.7086 42.7252 28.3576 42.7252 29.2965C42.7252 30.2355 42.3595 30.8905 41.6203 30.8905C40.8755 30.8905 40.5093 30.2352 40.5093 29.29C40.5093 28.351 40.8755 27.7086 41.6203 27.7086V27.7086ZM68.197 27.7086C68.9421 27.7086 69.3019 28.3576 69.3019 29.2965C69.3019 30.2355 68.9358 30.8905 68.197 30.8905C67.4518 30.8905 67.086 30.2352 67.086 29.29C67.086 28.351 67.4518 27.7086 68.197 27.7086V27.7086ZM21.8483 27.7842H22.4672C22.9787 27.7842 23.143 28.0236 23.143 28.427C23.143 28.8366 22.9345 29.1011 22.4798 29.1011H21.8483V27.7842ZM71.4796 27.7842H72.0985C72.61 27.7842 72.7743 28.0236 72.7743 28.427C72.7743 28.8366 72.5658 29.1011 72.1111 29.1011H71.4796V27.7842ZM55.6029 27.8975H55.6155C55.9123 28.7923 55.9628 28.9308 55.9628 28.9308L56.2975 29.8825H54.9271L55.2617 28.9308C55.2617 28.9308 55.3125 28.7923 55.6029 27.8975V27.8975ZM81.8954 27.8975H81.908C82.2047 28.7923 82.2557 28.9308 82.2557 28.9308L82.5899 29.8825H81.2195L81.5547 28.9308C81.5547 28.9308 81.6049 28.7923 81.8954 27.8975H81.8954Z" fill="#00326F"/>
</svg>
