<svg width="148" height="40" viewBox="0 0 148 40" fill="none" xmlns="http://www.w3.org/2000/svg">
<g opacity="0.8">
<path d="M93.0754 24.7872C92.605 24.7872 92.1452 24.6504 91.7541 24.3942C91.3629 24.1379 91.0581 23.7736 90.8781 23.3474C90.6981 22.9213 90.651 22.4523 90.7427 21.9999C90.8345 21.5474 91.061 21.1319 91.3937 20.8057C91.7263 20.4795 92.1501 20.2574 92.6114 20.1674C93.0728 20.0774 93.551 20.1236 93.9856 20.3001C94.4202 20.4766 94.7917 20.7756 95.053 21.1591C95.3144 21.5427 95.4538 21.9936 95.4538 22.4549C95.4538 22.7612 95.3923 23.0645 95.2728 23.3474C95.1533 23.6304 94.9781 23.8875 94.7572 24.1041C94.5364 24.3207 94.2742 24.4925 93.9856 24.6097C93.6971 24.7269 93.3878 24.7872 93.0754 24.7872ZM94.5556 15.5421C93.8559 15.5265 93.1619 15.6684 92.5268 15.9569C91.8918 16.2453 91.3326 16.6727 90.8923 17.2062V11.3064C90.8923 11.2251 90.8594 11.1472 90.8008 11.0897C90.7422 11.0323 90.6627 11 90.5799 11H86.3581C86.2752 11 86.1958 11.0323 86.1372 11.0897C86.0786 11.1472 86.0457 11.2251 86.0457 11.3064V28.3126C86.0457 28.3938 86.0786 28.4717 86.1372 28.5292C86.1958 28.5867 86.2752 28.6189 86.3581 28.6189H90.5818C90.6647 28.6189 90.7441 28.5867 90.8027 28.5292C90.8613 28.4717 90.8942 28.3938 90.8942 28.3126V27.2766C91.9995 28.4926 93.2375 28.9406 94.5575 28.9406C97.7092 28.9406 100.295 26.616 100.295 22.2385C100.295 18.0123 97.7561 15.5555 94.5575 15.5555L94.5556 15.5421ZM70.7871 17.4972L70.4571 17.6562L70.295 17.3345C69.9709 16.7547 69.7846 16.1105 69.7502 15.4502C69.7462 15.2462 69.7843 15.0435 69.8621 14.8543C69.94 14.6651 70.056 14.4933 70.2032 14.3491C70.5094 14.0611 70.9194 13.9034 71.3436 13.9106C71.7126 13.9094 72.0682 14.0464 72.3376 14.2936C72.4698 14.4168 72.5749 14.5654 72.6461 14.7301C72.7173 14.8948 72.7532 15.0722 72.7515 15.2511C72.7506 15.5039 72.6983 15.754 72.5977 15.9867C72.4971 16.2195 72.3503 16.4303 72.1657 16.6068C71.7662 16.982 71.3038 17.2871 70.7988 17.5087L70.7871 17.4972ZM71.0214 25.4747C70.5732 25.651 70.0963 25.747 69.6135 25.7581C69.3075 25.7566 69.0051 25.6923 68.726 25.5693C68.4468 25.4463 68.1971 25.2673 67.9928 25.0438C67.5539 24.5582 67.3163 23.929 67.3269 23.2802C67.3105 22.6576 67.5328 22.0515 67.9498 21.5817L68.2622 21.2294L68.5337 21.6123C68.9516 22.2021 69.4007 22.7728 69.8283 23.3223C70.1349 23.7245 70.6094 24.2798 71.1679 24.8945L71.5194 25.287L71.0214 25.4747ZM76.6726 24.9787C77.5919 23.854 78.3829 22.634 79.0315 21.3404C79.05 21.3038 79.061 21.2639 79.0637 21.223C79.0663 21.1822 79.0607 21.1412 79.0471 21.1026C79.0334 21.0639 79.0121 21.0283 78.9843 20.9978C78.9564 20.9672 78.9227 20.9425 78.885 20.9249L75.7958 19.4868C75.7551 19.4682 75.7107 19.4585 75.6657 19.4582C75.6207 19.458 75.5762 19.4673 75.5353 19.4855C75.4943 19.5037 75.4578 19.5303 75.4283 19.5636C75.3988 19.5969 75.3769 19.636 75.3643 19.6783C75.0624 20.5307 74.6601 21.3456 74.1653 22.1064L73.2065 20.9057C72.9136 20.5228 72.568 20.0957 72.2302 19.6266C74.3332 18.7381 76.409 17.6428 76.409 14.9523C76.4012 12.4726 73.8197 11.0115 71.1034 11.0115C67.7233 11.0115 65.4406 12.9436 65.4406 15.3181C65.4406 16.4421 65.8409 17.6677 66.4267 18.8683C64.4291 19.8085 62.6989 21.1662 62.6989 23.7513C62.6989 27.2747 65.4327 28.9981 68.9027 28.9981C70.4642 28.9962 71.9977 28.5914 73.3491 27.8243C73.642 28.1632 73.9349 28.4504 74.1458 28.686H79.3439C79.4049 28.6858 79.4645 28.6682 79.5155 28.6354C79.5665 28.6026 79.6066 28.5559 79.631 28.5011C79.6555 28.4463 79.6631 28.3857 79.653 28.3268C79.643 28.2678 79.6156 28.2129 79.5743 28.1689C78.5492 27.0851 77.5884 26.0396 76.6726 24.9787ZM133.497 24.7872C133.026 24.7872 132.566 24.6504 132.175 24.3942C131.784 24.1379 131.479 23.7736 131.299 23.3474C131.119 22.9213 131.072 22.4523 131.164 21.9999C131.256 21.5474 131.482 21.1319 131.815 20.8057C132.148 20.4795 132.571 20.2574 133.033 20.1674C133.494 20.0774 133.972 20.1236 134.407 20.3001C134.841 20.4766 135.213 20.7756 135.474 21.1591C135.736 21.5427 135.875 21.9936 135.875 22.4549C135.875 23.0733 135.624 23.6663 135.178 24.1035C134.732 24.5408 134.127 24.7867 133.497 24.7872ZM140.208 11H135.984C135.902 11 135.822 11.0323 135.764 11.0897C135.705 11.1472 135.672 11.2251 135.672 11.3064V17.2062C135.232 16.6727 134.673 16.2453 134.038 15.9569C133.402 15.6684 132.708 15.5265 132.009 15.5421C128.81 15.5421 126.272 17.9989 126.272 22.2251C126.272 26.6102 128.857 28.9272 132.009 28.9272C133.329 28.9272 134.567 28.4791 135.672 27.2632V28.3049C135.672 28.3862 135.705 28.4641 135.764 28.5215C135.822 28.579 135.902 28.6113 135.984 28.6113H140.208C140.249 28.6113 140.29 28.6034 140.328 28.588C140.366 28.5726 140.4 28.55 140.429 28.5215C140.458 28.4931 140.481 28.4593 140.497 28.4221C140.513 28.385 140.521 28.3451 140.521 28.3049V11.3064C140.521 11.2661 140.513 11.2263 140.497 11.1891C140.481 11.152 140.458 11.1182 140.429 11.0897C140.4 11.0613 140.366 11.0387 140.328 11.0233C140.29 11.0079 140.249 11 140.208 11V11ZM51.2716 15.567C48.9752 15.567 47.5419 16.4938 46.7804 17.3421V16.1932C46.7804 16.1118 46.7475 16.0336 46.689 15.9759C46.6305 15.9181 46.551 15.8854 46.4679 15.8849H42.2305C42.1475 15.8854 42.068 15.9181 42.0095 15.9759C41.951 16.0336 41.9181 16.1118 41.9181 16.1932V28.3738C41.9181 28.4551 41.951 28.533 42.0096 28.5905C42.0682 28.6479 42.1477 28.6802 42.2305 28.6802H46.4679C46.5508 28.6802 46.6303 28.6479 46.6889 28.5905C46.7475 28.533 46.7804 28.4551 46.7804 28.3738V20.787C47.1865 20.3351 47.7567 19.7798 48.86 19.7798C50.0317 19.7798 50.7522 20.2834 50.7522 21.6066V28.3738C50.7522 28.4141 50.7603 28.4539 50.776 28.4911C50.7917 28.5282 50.8147 28.562 50.8437 28.5905C50.8727 28.6189 50.9072 28.6415 50.9451 28.6569C50.983 28.6723 51.0236 28.6802 51.0646 28.6802H55.302C55.3849 28.6802 55.4644 28.6479 55.523 28.5905C55.5816 28.533 55.6145 28.4551 55.6145 28.3738V19.594C55.6145 17.3689 54.2905 15.5728 51.2658 15.5728L51.2716 15.567ZM115.895 20.7947L116.022 20.4462C116.142 20.0527 116.372 19.6995 116.684 19.4255C116.925 19.2045 117.209 19.0326 117.518 18.9195C117.827 18.8064 118.156 18.7545 118.486 18.7668C119.336 18.7668 119.951 19.0138 120.341 19.393C120.655 19.6855 120.876 20.0605 120.978 20.473L121.087 20.8043L115.895 20.7947ZM118.486 15.567C114.327 15.567 111.474 18.5217 111.474 22.183C111.474 26.3383 114.62 28.8238 118.646 28.8238C120.451 28.8238 122.583 28.3853 123.897 27.4413C123.964 27.3946 124.009 27.3244 124.024 27.2455C124.039 27.1666 124.022 27.0851 123.977 27.0181L122.341 24.613C122.296 24.5467 122.227 24.5003 122.148 24.4834C122.068 24.4666 121.986 24.4808 121.917 24.523C121.111 24.9884 120.194 25.2362 119.259 25.2411C117.633 25.2411 116.699 24.4579 116.432 23.646H125.178V22.6809C125.178 18.2364 122.272 15.5689 118.486 15.5689V15.567ZM110.546 15.5823C109.15 15.6972 107.641 16.4862 106.893 17.3421V16.1932C106.893 16.1118 106.86 16.0336 106.801 15.9759C106.743 15.9181 106.663 15.8854 106.58 15.8849H102.343C102.26 15.8854 102.181 15.9181 102.122 15.9759C102.063 16.0336 102.031 16.1118 102.031 16.1932V28.3738C102.031 28.4141 102.039 28.4539 102.054 28.4911C102.07 28.5282 102.093 28.562 102.122 28.5905C102.151 28.6189 102.186 28.6415 102.223 28.6569C102.261 28.6723 102.302 28.6802 102.343 28.6802H106.58C106.621 28.6802 106.662 28.6723 106.7 28.6569C106.738 28.6415 106.772 28.6189 106.801 28.5905C106.83 28.562 106.853 28.5282 106.869 28.4911C106.885 28.4539 106.893 28.4141 106.893 28.3738V20.8923C107.434 20.2566 108.758 19.9904 109.783 19.9904C110.032 19.9892 110.281 20.0065 110.527 20.0421C110.572 20.0493 110.618 20.0469 110.661 20.035C110.705 20.0232 110.746 20.0021 110.781 19.9734C110.815 19.9446 110.843 19.9088 110.862 19.8685C110.882 19.8281 110.892 19.7841 110.892 19.7396V15.8887C110.892 15.8458 110.882 15.8034 110.864 15.7642C110.846 15.725 110.82 15.6899 110.788 15.6611C110.755 15.6323 110.717 15.6104 110.676 15.5969C110.634 15.5833 110.59 15.5784 110.546 15.5823ZM22.799 24.7872C21.313 24.7872 20.4753 23.6996 20.4753 22.2691C20.4753 20.8387 21.313 19.7798 22.799 19.7798C24.2851 19.7798 25.1423 20.8655 25.1423 22.2691C25.1423 23.6728 24.3124 24.7872 22.799 24.7872ZM22.799 15.567C18.1789 15.567 15.4783 18.694 15.4783 22.2691C15.4783 25.8443 18.1789 29 22.799 29C27.4192 29 30.1471 25.8481 30.1471 22.2711C30.1471 18.694 27.4465 15.5689 22.799 15.5689V15.567ZM40.2681 15.5823C38.8699 15.6972 37.3624 16.4862 36.6145 17.3421V16.1932C36.6145 16.1114 36.5814 16.033 36.5224 15.9752C36.4635 15.9174 36.3835 15.8849 36.3001 15.8849H32.0647C31.983 15.8874 31.9055 15.921 31.8487 15.9785C31.7918 16.0361 31.76 16.1131 31.7601 16.1932V28.3738C31.7606 28.4553 31.7939 28.5332 31.8528 28.5906C31.9117 28.648 31.9914 28.6802 32.0745 28.6802H36.3099C36.3929 28.6802 36.4726 28.648 36.5315 28.5906C36.5904 28.5332 36.6238 28.4553 36.6243 28.3738V20.8923C37.1632 20.2566 38.4872 19.9904 39.5143 19.9904C39.7633 19.9892 40.012 20.0065 40.2583 20.0421C40.303 20.0494 40.3489 20.0469 40.3925 20.0351C40.4362 20.0232 40.4768 20.0021 40.5113 19.9733C40.5459 19.9445 40.5737 19.9087 40.5927 19.8684C40.6117 19.828 40.6215 19.784 40.6215 19.7396V15.8887C40.6214 15.8459 40.6122 15.8035 40.5945 15.7643C40.5768 15.7251 40.5509 15.69 40.5186 15.6612C40.4863 15.6323 40.4481 15.6104 40.4067 15.5969C40.3652 15.5833 40.3213 15.5783 40.2778 15.5823H40.2681ZM7.35108 24.7872C6.88076 24.7869 6.42111 24.6497 6.03024 24.3932C5.63936 24.1367 5.33482 23.7723 5.1551 23.3461C4.97539 22.9199 4.92857 22.451 5.02056 21.9987C5.11255 21.5464 5.33922 21.131 5.67193 20.805C6.00463 20.479 6.42843 20.2571 6.88974 20.1672C7.35106 20.0774 7.82917 20.1237 8.26366 20.3003C8.69814 20.4769 9.06949 20.7758 9.33074 21.1593C9.592 21.5428 9.73144 21.9937 9.73144 22.4549C9.73144 22.7613 9.66986 23.0648 9.55021 23.3479C9.43056 23.631 9.25519 23.8882 9.03413 24.1048C8.81307 24.3214 8.55064 24.4931 8.26186 24.6102C7.97307 24.7273 7.66358 24.7875 7.35108 24.7872ZM8.83124 15.5421C8.13155 15.5265 7.43753 15.6684 6.80248 15.9569C6.16744 16.2453 5.60827 16.6727 5.16794 17.2062V11.3064C5.16794 11.2255 5.13529 11.1478 5.07712 11.0904C5.01895 11.033 4.93998 11.0005 4.85746 11H0.633724C0.550861 11 0.471392 11.0323 0.412799 11.0897C0.354206 11.1472 0.321289 11.2251 0.321289 11.3064L0.321289 28.3126C0.321805 28.3935 0.35495 28.4709 0.413487 28.528C0.472024 28.585 0.551198 28.617 0.633724 28.617H4.85746C4.94032 28.617 5.01979 28.5847 5.07838 28.5273C5.13697 28.4698 5.16989 28.3919 5.16989 28.3106V27.2766C6.27513 28.4926 7.51315 28.9406 8.83319 28.9406C11.9849 28.9406 14.5703 26.616 14.5703 22.2385C14.5703 18.0123 12.0317 15.5555 8.83319 15.5555L8.83124 15.5421Z" fill="#A7ADBE"/>
<path d="M145.515 24.0853C145.991 24.0853 146.456 24.2234 146.852 24.4822C147.248 24.741 147.556 25.1089 147.738 25.5393C147.92 25.9697 147.968 26.4433 147.875 26.9002C147.782 27.3571 147.553 27.7768 147.216 28.1062C146.88 28.4356 146.451 28.6599 145.984 28.7508C145.517 28.8417 145.034 28.795 144.594 28.6168C144.154 28.4385 143.778 28.1366 143.514 27.7493C143.249 27.3619 143.108 26.9065 143.108 26.4407C143.117 25.8185 143.373 25.2242 143.822 24.7843C144.272 24.3443 144.879 24.0935 145.515 24.0853Z" fill="#A7ADBE"/>
</g>
</svg>
