<svg width="123" height="15" viewBox="0 0 123 15" fill="none" xmlns="http://www.w3.org/2000/svg">
<g opacity="0.8">
<path d="M77.2951 11.4894C76.9031 11.4894 76.5199 11.3754 76.194 11.1618C75.868 10.9482 75.614 10.6447 75.464 10.2895C75.314 9.93439 75.2747 9.54359 75.3512 9.16656C75.4277 8.78954 75.6164 8.44322 75.8936 8.1714C76.1708 7.89958 76.524 7.71447 76.9085 7.63947C77.2929 7.56448 77.6914 7.60297 78.0536 7.75008C78.4158 7.89718 78.7253 8.1463 78.9431 8.46593C79.1609 8.78555 79.2771 9.16133 79.2771 9.54574C79.2771 9.80098 79.2259 10.0537 79.1263 10.2895C79.0267 10.5253 78.8807 10.7396 78.6966 10.9201C78.5126 11.1006 78.2941 11.2437 78.0536 11.3414C77.8131 11.4391 77.5554 11.4894 77.2951 11.4894V11.4894ZM78.5286 3.78511C77.9455 3.77211 77.3672 3.89034 76.838 4.13073C76.3088 4.37112 75.8428 4.72727 75.4758 5.17181V0.255319C75.4758 0.187604 75.4484 0.122663 75.3996 0.0747812C75.3508 0.0268996 75.2845 0 75.2155 0L71.6973 0C71.6283 0 71.5621 0.0268996 71.5132 0.0747812C71.4644 0.122663 71.437 0.187604 71.437 0.255319V14.4271C71.437 14.4948 71.4644 14.5598 71.5132 14.6077C71.5621 14.6555 71.6283 14.6824 71.6973 14.6824H75.2171C75.2862 14.6824 75.3524 14.6555 75.4012 14.6077C75.45 14.5598 75.4775 14.4948 75.4775 14.4271V13.5638C76.3985 14.5771 77.4302 14.9505 78.5302 14.9505C81.1566 14.9505 83.3111 13.0133 83.3111 9.36543C83.3111 5.84362 81.1957 3.79628 78.5302 3.79628L78.5286 3.78511ZM58.7215 5.41436L58.4465 5.54681L58.3114 5.27872C58.0413 4.79558 57.8861 4.25879 57.8574 3.70851C57.8541 3.53852 57.8858 3.36962 57.9507 3.21195C58.0156 3.05428 58.1123 2.91108 58.235 2.79096C58.4901 2.5509 58.8317 2.41954 59.1853 2.42553C59.4928 2.42446 59.7891 2.53863 60.0136 2.74468C60.1238 2.84735 60.2113 2.97117 60.2707 3.10843C60.33 3.2457 60.3599 3.39347 60.3585 3.54255C60.3578 3.75323 60.3142 3.96163 60.2304 4.15561C60.1465 4.34959 60.0242 4.52525 59.8704 4.67234C59.5374 4.98503 59.1521 5.23927 58.7313 5.42394L58.7215 5.41436ZM58.9168 12.0622C58.5433 12.2092 58.1459 12.2891 57.7435 12.2984C57.4885 12.2972 57.2365 12.2436 57.0039 12.1411C56.7713 12.0386 56.5631 11.8894 56.3929 11.7032C56.0272 11.2985 55.8292 10.7742 55.838 10.2335C55.8244 9.71463 56.0096 9.2096 56.3571 8.81808L56.6175 8.52447L56.8437 8.84362C57.1919 9.33511 57.5662 9.81064 57.9225 10.2686C58.178 10.6037 58.5734 11.0665 59.0388 11.5787L59.3317 11.9059L58.9168 12.0622ZM63.6261 11.6489C64.3922 10.7117 65.0514 9.69498 65.5918 8.61702C65.6073 8.58648 65.6164 8.55322 65.6186 8.51919C65.6209 8.48516 65.6162 8.45103 65.6048 8.4188C65.5935 8.38657 65.5757 8.35688 65.5525 8.33146C65.5293 8.30604 65.5012 8.2854 65.4698 8.27074L62.8955 7.07234C62.8615 7.05684 62.8245 7.04872 62.787 7.04853C62.7495 7.04833 62.7125 7.05608 62.6783 7.07123C62.6442 7.08638 62.6138 7.10858 62.5892 7.13631C62.5646 7.16404 62.5464 7.19665 62.5358 7.23191C62.2843 7.94225 61.949 8.62132 61.5367 9.25532L60.7377 8.25479C60.4936 7.93564 60.2056 7.57979 59.9241 7.18883C61.6766 6.4484 63.4064 5.53564 63.4064 3.29362C63.3999 1.22713 61.2487 0.00957447 58.9851 0.00957447C56.1683 0.00957447 54.2661 1.61968 54.2661 3.5984C54.2661 4.53511 54.5996 5.55638 55.0878 6.55691C53.4231 7.34043 51.9814 8.47181 51.9814 10.6261C51.9814 13.5622 54.2595 14.9984 57.1512 14.9984C58.4524 14.9969 59.7303 14.6595 60.8565 14.0202C61.1006 14.3027 61.3447 14.542 61.5204 14.7383H65.8522C65.903 14.7381 65.9527 14.7235 65.9952 14.6962C66.0377 14.6688 66.0711 14.6299 66.0915 14.5843C66.1118 14.5386 66.1182 14.4881 66.1098 14.439C66.1014 14.3898 66.0786 14.3441 66.0442 14.3074C65.1899 13.4043 64.3893 12.533 63.6261 11.6489ZM110.98 11.4894C110.588 11.4894 110.204 11.3754 109.878 11.1618C109.552 10.9482 109.298 10.6447 109.148 10.2895C108.998 9.93439 108.959 9.54359 109.036 9.16656C109.112 8.78954 109.301 8.44322 109.578 8.1714C109.855 7.89958 110.208 7.71447 110.593 7.63947C110.977 7.56448 111.376 7.60297 111.738 7.75008C112.1 7.89718 112.41 8.1463 112.628 8.46593C112.845 8.78555 112.962 9.16133 112.962 9.54574C112.961 10.0611 112.752 10.5552 112.381 10.9196C112.009 11.284 111.505 11.4889 110.98 11.4894V11.4894ZM116.572 0H113.053C112.984 0 112.917 0.0268996 112.869 0.0747812C112.82 0.122663 112.792 0.187604 112.792 0.255319V5.17181C112.425 4.72727 111.959 4.37112 111.43 4.13073C110.901 3.89034 110.323 3.77211 109.74 3.78511C107.074 3.78511 104.959 5.83245 104.959 9.35425C104.959 13.0085 107.113 14.9394 109.74 14.9394C110.84 14.9394 111.871 14.566 112.792 13.5527V14.4207C112.792 14.4885 112.82 14.5534 112.869 14.6013C112.917 14.6492 112.984 14.6761 113.053 14.6761H116.572C116.607 14.6761 116.64 14.6695 116.672 14.6566C116.704 14.6438 116.732 14.625 116.757 14.6013C116.781 14.5776 116.8 14.5494 116.813 14.5185C116.826 14.4875 116.833 14.4543 116.833 14.4207V0.255319C116.833 0.22179 116.826 0.188589 116.813 0.157613C116.8 0.126636 116.781 0.0984898 116.757 0.0747812C116.732 0.0510727 116.704 0.032266 116.672 0.019435C116.64 0.00660402 116.607 0 116.572 0V0ZM42.4586 3.80585C40.545 3.80585 39.3505 4.57819 38.7159 5.28511V4.32766C38.7159 4.2598 38.6885 4.19469 38.6397 4.14656C38.591 4.09842 38.5247 4.07117 38.4555 4.07074H34.9244C34.8552 4.07117 34.789 4.09842 34.7402 4.14656C34.6914 4.19469 34.664 4.2598 34.664 4.32766V14.4782C34.664 14.5459 34.6914 14.6108 34.7403 14.6587C34.7891 14.7066 34.8553 14.7335 34.9244 14.7335H38.4555C38.5246 14.7335 38.5908 14.7066 38.6396 14.6587C38.6885 14.6108 38.7159 14.5459 38.7159 14.4782V8.15585C39.0544 7.77926 39.5295 7.31649 40.4489 7.31649C41.4253 7.31649 42.0258 7.73617 42.0258 8.83883V14.4782C42.0258 14.5117 42.0325 14.5449 42.0456 14.5759C42.0587 14.6069 42.0778 14.635 42.102 14.6587C42.1262 14.6824 42.1549 14.7012 42.1865 14.7141C42.2181 14.7269 42.2519 14.7335 42.2861 14.7335H45.8173C45.8863 14.7335 45.9526 14.7066 46.0014 14.6587C46.0502 14.6108 46.0777 14.5459 46.0777 14.4782V7.1617C46.0777 5.30745 44.9744 3.81064 42.4537 3.81064L42.4586 3.80585ZM96.3114 8.16223L96.4171 7.87181C96.5176 7.54389 96.7085 7.24956 96.9688 7.02128C97.1698 6.83711 97.406 6.69379 97.6638 6.59958C97.9216 6.50537 98.1958 6.46212 98.4707 6.47234C99.1786 6.47234 99.6912 6.67819 100.017 6.99415C100.278 7.23791 100.462 7.55038 100.547 7.89415L100.638 8.17021L96.3114 8.16223ZM98.4707 3.80585C95.0047 3.80585 92.6272 6.26809 92.6272 9.31915C92.6272 12.7819 95.2488 14.8532 98.6042 14.8532C100.108 14.8532 101.885 14.4878 102.98 13.7011C103.035 13.6622 103.073 13.6037 103.086 13.5379C103.098 13.4722 103.084 13.4042 103.047 13.3484L101.683 11.3441C101.646 11.2889 101.588 11.2502 101.522 11.2362C101.456 11.2222 101.387 11.234 101.33 11.2691C100.658 11.657 99.8943 11.8635 99.1151 11.8676C97.7596 11.8676 96.9818 11.2149 96.7589 10.5383H104.047V9.73404C104.047 6.03032 101.626 3.80745 98.4707 3.80745V3.80585ZM91.8543 3.81862C90.6908 3.91436 89.4329 4.57181 88.8097 5.28511V4.32766C88.8097 4.2598 88.7823 4.19469 88.7335 4.14656C88.6847 4.09842 88.6185 4.07117 88.5493 4.07074H85.0181C84.9489 4.07117 84.8827 4.09842 84.8339 4.14656C84.7851 4.19469 84.7578 4.2598 84.7578 4.32766V14.4782C84.7578 14.5117 84.7645 14.5449 84.7776 14.5759C84.7907 14.6069 84.8098 14.635 84.834 14.6587C84.8582 14.6824 84.8869 14.7012 84.9185 14.7141C84.9501 14.7269 84.9839 14.7335 85.0181 14.7335H88.5493C88.5835 14.7335 88.6173 14.7269 88.6489 14.7141C88.6805 14.7012 88.7092 14.6824 88.7334 14.6587C88.7576 14.635 88.7768 14.6069 88.7898 14.5759C88.8029 14.5449 88.8097 14.5117 88.8097 14.4782V8.24362C89.2604 7.71383 90.3637 7.49202 91.218 7.49202C91.4255 7.49101 91.6327 7.50542 91.838 7.53511C91.8754 7.5411 91.9136 7.53909 91.9501 7.52919C91.9866 7.5193 92.0205 7.50177 92.0494 7.47781C92.0783 7.45385 92.1016 7.42402 92.1176 7.39039C92.1337 7.35675 92.1421 7.32011 92.1423 7.28298V4.07394C92.142 4.03815 92.1341 4.0028 92.1192 3.97015C92.1042 3.9375 92.0825 3.90825 92.0555 3.88424C92.0284 3.86024 91.9965 3.84202 91.9619 3.83072C91.9273 3.81942 91.8906 3.8153 91.8543 3.81862V3.81862ZM18.7315 11.4894C17.4931 11.4894 16.795 10.583 16.795 9.39096C16.795 8.19894 17.4931 7.31649 18.7315 7.31649C19.9698 7.31649 20.6842 8.22128 20.6842 9.39096C20.6842 10.5606 19.9926 11.4894 18.7315 11.4894ZM18.7315 3.80585C14.8813 3.80585 12.6308 6.4117 12.6308 9.39096C12.6308 12.3702 14.8813 15 18.7315 15C22.5816 15 24.8549 12.3734 24.8549 9.39255C24.8549 6.4117 22.6043 3.80745 18.7315 3.80745V3.80585ZM33.289 3.81862C32.1239 3.91436 30.8676 4.57181 30.2444 5.28511V4.32766C30.2444 4.25952 30.2168 4.19417 30.1676 4.14599C30.1185 4.09781 30.0519 4.07074 29.9824 4.07074H26.4528C26.3848 4.07282 26.3202 4.1008 26.2728 4.14876C26.2254 4.19671 26.1989 4.26088 26.199 4.32766V14.4782C26.1994 14.5461 26.2272 14.611 26.2763 14.6588C26.3254 14.7067 26.3918 14.7335 26.461 14.7335H29.9905C30.0597 14.7335 30.1261 14.7067 30.1752 14.6588C30.2243 14.611 30.2521 14.5461 30.2525 14.4782V8.24362C30.7016 7.71383 31.8049 7.49202 32.6609 7.49202C32.8683 7.49101 33.0756 7.50542 33.2808 7.53511C33.3181 7.54113 33.3563 7.53912 33.3927 7.52922C33.4291 7.51932 33.4629 7.50176 33.4917 7.47777C33.5205 7.45378 33.5436 7.42393 33.5595 7.39029C33.5753 7.35665 33.5835 7.32003 33.5835 7.28298V4.07394C33.5834 4.03822 33.5758 4.00291 33.561 3.97026C33.5463 3.93761 33.5247 3.90834 33.4978 3.88431C33.4708 3.86029 33.439 3.84204 33.4045 3.83072C33.37 3.81941 33.3334 3.81529 33.2971 3.81862H33.289ZM5.85816 11.4894C5.46622 11.489 5.08318 11.3748 4.75746 11.161C4.43173 10.9473 4.17794 10.6436 4.02818 10.2884C3.87842 9.93325 3.8394 9.54251 3.91606 9.16559C3.99272 8.78867 4.18161 8.4425 4.45887 8.17084C4.73612 7.89918 5.08928 7.71422 5.47371 7.63936C5.85814 7.56449 6.25657 7.60308 6.61864 7.75023C6.98071 7.89738 7.29016 8.1465 7.50788 8.46609C7.72559 8.78569 7.84179 9.1614 7.84179 9.54574C7.84179 9.80112 7.79047 10.054 7.69077 10.2899C7.59106 10.5258 7.44492 10.7402 7.2607 10.9207C7.07648 11.1012 6.8578 11.2443 6.61714 11.3419C6.37648 11.4395 6.11858 11.4896 5.85816 11.4894V11.4894ZM7.09162 3.78511C6.50855 3.77211 5.9302 3.89034 5.40099 4.13073C4.87179 4.37112 4.40582 4.72727 4.03887 5.17181V0.255319C4.03888 0.18788 4.01167 0.123179 3.96319 0.0753431C3.91472 0.0275071 3.84891 0.000421495 3.78014 0L0.260363 0C0.19131 0 0.125086 0.0268996 0.0762584 0.0747812C0.027431 0.122663 0 0.187604 0 0.255319L0 14.4271C0.000429821 14.4946 0.0280504 14.5591 0.0768314 14.6066C0.125612 14.6542 0.191591 14.6809 0.260363 14.6809H3.78014C3.84919 14.6809 3.91542 14.654 3.96424 14.6061C4.01307 14.5582 4.0405 14.4932 4.0405 14.4255V13.5638C4.96153 14.5771 5.99322 14.9505 7.09325 14.9505C9.71966 14.9505 11.8742 13.0133 11.8742 9.36543C11.8742 5.84362 9.75871 3.79628 7.09325 3.79628L7.09162 3.78511Z" fill="#222222"/>
<path d="M120.995 10.9043C121.391 10.9043 121.779 11.0194 122.109 11.2351C122.439 11.4508 122.696 11.7573 122.847 12.116C122.999 12.4746 123.039 12.8693 122.961 13.2501C122.884 13.6308 122.693 13.9806 122.413 14.2551C122.132 14.5296 121.775 14.7165 121.386 14.7922C120.997 14.868 120.594 14.8291 120.227 14.6806C119.861 14.532 119.547 14.2804 119.327 13.9576C119.107 13.6348 118.989 13.2553 118.989 12.8671C118.996 12.3487 119.21 11.8534 119.584 11.4868C119.959 11.1202 120.465 10.9112 120.995 10.9043Z" fill="#FF64A5"/>
</g>
</svg>
