<svg width="105" height="19" viewBox="0 0 105 19" fill="none" xmlns="http://www.w3.org/2000/svg">
<mask id="mask0_14229_32704" style="mask-type:alpha" maskUnits="userSpaceOnUse" x="0" y="0" width="14" height="19">
<path d="M0 0H13.9713V18.511H0V0Z" fill="#B6BED0"/>
</mask>
<g mask="url(#mask0_14229_32704)">
<path fill-rule="evenodd" clip-rule="evenodd" d="M2.67392 2.84673C0.944581 4.55734 0.0017701 6.84033 -0.015564 9.21949H4.93277C4.9761 6.53329 6.9251 4.43327 9.80174 4.43327C11.4263 4.43327 13.002 5.10991 13.9719 6.36987V0.886941C12.566 0.327076 11.1598 0.000488281 9.63219 0.000488281C7.06215 0.000488281 4.468 1.07356 2.67392 2.84673Z" fill="#A4CA3D"/>
<path fill-rule="evenodd" clip-rule="evenodd" d="M5.04562 10.4272H0.0452881C0.281194 12.5669 1.20152 14.4474 2.91543 15.9381C4.80674 17.5947 7.23107 18.5278 9.77674 18.5278C11.2558 18.5278 12.3953 18.1778 13.971 17.7112V12.2283C12.977 13.3715 11.4254 14.0948 9.8737 14.0948C7.32993 14.0948 5.50714 12.6088 5.04562 10.4272Z" fill="#201E51"/>
</g>
<path fill-rule="evenodd" clip-rule="evenodd" d="M52.8948 17.8718V3.77218H48.9545V0.896484H60.2999V3.77218H56.3331V17.8718H52.8948Z" fill="#201E51"/>
<path fill-rule="evenodd" clip-rule="evenodd" d="M66.1747 8.70837H67.153C69.3485 8.70837 70.5383 7.81748 70.5383 6.13815C70.5383 4.45829 69.401 3.59295 67.2058 3.59295H66.1747V8.70837ZM70.0622 10.7192L75.6158 17.8706H71.3582L66.5981 11.0497H66.1747V17.8706H62.7366V0.89502H67.8407C69.7716 0.89502 71.3319 1.32795 72.3367 2.11666C73.4209 2.95672 74.0823 4.40747 74.0823 5.93459C74.0823 7.69055 73.315 9.19212 72.0193 10.0064C71.3847 10.3882 71.0139 10.541 70.0622 10.7192Z" fill="#201E51"/>
<path fill-rule="evenodd" clip-rule="evenodd" d="M87.354 3.77244H81.0333V7.93103H87.1156V10.8072H81.0333V14.9961H87.354V17.8718H77.5952V0.896484H87.354V3.77244Z" fill="#201E51"/>
<path fill-rule="evenodd" clip-rule="evenodd" d="M26.7799 3.77244H20.4592V7.93103H26.5416V10.8072H20.4592V14.9961H26.7799V17.8718H17.0211V0.896484H26.7799V3.77244Z" fill="#201E51"/>
<path fill-rule="evenodd" clip-rule="evenodd" d="M105 17.8718H101.235L90.0746 0.896484H93.9189L105 17.8718Z" fill="#201E51"/>
<path fill-rule="evenodd" clip-rule="evenodd" d="M100.301 7.30939L104.517 0.896484H100.673L98.3942 4.38782L100.301 7.30939Z" fill="#201E51"/>
<path fill-rule="evenodd" clip-rule="evenodd" d="M94.2991 10.6626L89.5937 17.871H93.3584L96.1982 13.5516L94.2991 10.6626Z" fill="#201E51"/>
<path fill-rule="evenodd" clip-rule="evenodd" d="M28.3987 17.9894L31.6402 0.907227H33.9673L38.7252 11.8759L43.6923 0.907227H46.0191L48.9206 17.9894H45.4961L43.9539 7.64959L39.1432 18.2159H38.2022L33.5749 7.64959L31.8236 17.9894H28.3987Z" fill="#201E51"/>
</svg>
