<svg width="112" height="40" viewBox="0 0 112 40" fill="none" xmlns="http://www.w3.org/2000/svg">
<mask id="mask0_2437_25968" style="mask-type:alpha" maskUnits="userSpaceOnUse" x="0" y="10" width="16" height="20">
<path d="M0.921387 10H15.628V29.4853H0.921387V10Z" fill="#A7ADBE"/>
</mask>
<g mask="url(#mask0_2437_25968)">
<path fill-rule="evenodd" clip-rule="evenodd" d="M3.73607 12.9967C1.91571 14.7974 0.923276 17.2005 0.905029 19.7049H6.1138C6.15942 16.8773 8.21099 14.6668 11.239 14.6668C12.9491 14.6668 14.6078 15.379 15.6287 16.7053V10.9338C14.1488 10.3444 12.6685 10.0007 11.0606 10.0007C8.35525 10.0007 5.62457 11.1302 3.73607 12.9967Z" fill="#A7ADBE"/>
<path fill-rule="evenodd" clip-rule="evenodd" d="M6.2325 20.9759H0.968994C1.21732 23.2281 2.18608 25.2077 3.99019 26.7767C5.98105 28.5206 8.53297 29.5028 11.2126 29.5028C12.7696 29.5028 13.969 29.1343 15.6277 28.6432V22.8717C14.5814 24.0751 12.948 24.8365 11.3147 24.8365C8.63703 24.8365 6.71831 23.2723 6.2325 20.9759Z" fill="#A7ADBE"/>
</g>
<path fill-rule="evenodd" clip-rule="evenodd" d="M56.6 28.8122V13.9705H52.4524V10.9435H64.3949V13.9705H60.2194V28.8122H56.6Z" fill="#A7ADBE"/>
<path fill-rule="evenodd" clip-rule="evenodd" d="M70.579 19.1666H71.6088C73.9198 19.1666 75.1723 18.2288 75.1723 16.4611C75.1723 14.6928 73.9751 13.7819 71.6644 13.7819H70.579V19.1666ZM74.671 21.2833L80.517 28.811H76.0352L71.0246 21.6312H70.579V28.811H66.96V10.942H72.3327C74.3651 10.942 76.0076 11.3977 77.0653 12.228C78.2066 13.1122 78.9028 14.6393 78.9028 16.2468C78.9028 18.0952 78.0951 19.6758 76.7312 20.5329C76.0632 20.9349 75.6729 21.0956 74.671 21.2833Z" fill="#A7ADBE"/>
<path fill-rule="evenodd" clip-rule="evenodd" d="M92.873 13.9708H86.2196V18.3483H92.6221V21.3759H86.2196V25.7851H92.873V28.8122H82.6006V10.9435H92.873V13.9708Z" fill="#A7ADBE"/>
<path fill-rule="evenodd" clip-rule="evenodd" d="M29.1108 13.9708H22.4574V18.3483H28.8599V21.3759H22.4574V25.7851H29.1108V28.8122H18.8384V10.9435H29.1108V13.9708Z" fill="#A7ADBE"/>
<path fill-rule="evenodd" clip-rule="evenodd" d="M111.448 28.8122H107.485L95.7368 10.9435H99.7835L111.448 28.8122Z" fill="#A7ADBE"/>
<path fill-rule="evenodd" clip-rule="evenodd" d="M106.502 17.6939L110.94 10.9435H106.893L104.494 14.6186L106.502 17.6939Z" fill="#A7ADBE"/>
<path fill-rule="evenodd" clip-rule="evenodd" d="M100.184 21.2238L95.2305 28.8115H99.1933L102.183 24.2648L100.184 21.2238Z" fill="#A7ADBE"/>
<path fill-rule="evenodd" clip-rule="evenodd" d="M30.8147 28.9361L34.2268 10.9549H36.6763L41.6847 22.5009L46.9131 10.9549H49.3624L52.4167 28.9361H48.8119L47.1885 18.0521L42.1246 29.1745H41.1342L36.2632 18.0521L34.4198 28.9361H30.8147Z" fill="#A7ADBE"/>
</svg>
