<svg width="101" height="17" viewBox="0 0 101 17" fill="none" xmlns="http://www.w3.org/2000/svg">
<path d="M95.2697 14.2171C93.1137 14.2171 91.4433 12.5467 91.4433 10.3519C91.4433 8.15714 93.1137 6.48676 95.2697 6.48676C97.4645 6.48676 99.1154 8.15714 99.1154 10.3519C99.1154 12.5467 97.445 14.2171 95.2697 14.2171ZM99.1154 0.601562V6.79752C98.2414 5.47675 96.8623 4.66099 95.0172 4.66099C92.0066 4.66099 89.5398 7.14714 89.5398 10.3519C89.5398 13.5567 92.0066 16.0429 95.0172 16.0429C96.8623 16.0429 98.2414 15.2271 99.1154 13.9064V15.771H100.999V0.620986H99.1154V0.601562ZM79.7506 10.4685L82.4504 3.01002L85.1697 10.4685H79.7506ZM87.0925 15.7516H89.2291L83.577 0.601562H81.3045L75.6523 15.7516H77.7889L79.032 12.3525H85.8495L87.0925 15.7516Z" fill="#62CB2C"/>
<path d="M68.8546 8.00339C68.8546 7.4207 69.4179 7.10993 70.1171 7.10993C70.9135 7.10993 71.5156 7.51782 71.8458 8.21705L74.2348 6.9157C73.3996 5.42012 71.8846 4.62378 70.1171 4.62378C67.8835 4.62378 65.9994 5.86686 65.9994 8.06166C65.9994 11.8686 71.5738 11.014 71.5738 12.5873C71.5738 13.2088 70.9717 13.5196 70.0783 13.5196C68.9906 13.5196 68.2525 12.9951 67.9611 12.1211L65.5333 13.4807C66.3102 15.1511 67.9223 16.064 70.0783 16.064C72.3896 16.064 74.429 14.9375 74.429 12.6067C74.4485 8.60551 68.8546 9.59609 68.8546 8.00339ZM61.4544 4.93455V10.7809C61.4544 12.665 60.4444 13.4613 59.0654 13.4613C57.8029 13.4613 56.9288 12.7038 56.9288 11.2276V4.93455H54.1319V11.5773C54.1319 14.4519 55.9188 16.064 58.2302 16.064C59.6869 16.064 60.8135 15.5201 61.4544 14.549V15.7532H64.2513V4.93455H61.4544ZM49.8394 6.77974V4.91512H47.0425V15.7338H49.8394V10.5673C49.8394 8.29474 51.6846 7.65378 53.1219 7.80916V4.70147C51.7623 4.70147 50.4027 5.32301 49.8394 6.77974ZM45.3333 7.61493V4.93455H42.886V1.90455L40.089 2.73974V4.93455H38.205V7.61493H40.089V12.1211C40.089 15.0346 41.4098 16.1805 45.3333 15.7532V13.2088C43.7406 13.2865 42.886 13.2671 42.886 12.1017V7.61493H45.3333ZM34.2233 15.7532H37.0202V4.93455H34.2233V15.7532ZM35.6217 3.6332C36.5735 3.6332 37.3504 2.85628 37.3504 1.92397C37.3504 0.991658 36.5735 0.195312 35.6217 0.195312C34.6894 0.195312 33.9125 0.991658 33.9125 1.92397C33.9125 2.85628 34.6894 3.6332 35.6217 3.6332ZM26.2598 16.0446C29.0567 16.0446 31.504 14.6461 32.7665 12.4707L30.1833 10.9751C29.4646 12.2959 27.969 13.1117 26.2404 13.1117C23.2686 13.1117 21.3263 11.0528 21.3263 8.15878C21.3263 5.24532 23.2686 3.18647 26.2404 3.18647C27.969 3.18647 29.4452 4.00224 30.1833 5.34243L32.7665 3.84685C31.4652 1.69089 29.0179 0.273006 26.2598 0.273006C21.6759 0.273006 18.374 3.71089 18.374 8.15878C18.3934 12.5873 21.6759 16.0446 26.2598 16.0446Z" fill="#181818"/>
<path d="M8.15769 16.3154C12.6638 16.3154 16.3154 12.6638 16.3154 8.15769C16.3154 3.65154 12.6638 0 8.15769 0C3.65154 0 0 3.65154 0 8.15769C0 12.6638 3.65154 16.3154 8.15769 16.3154Z" fill="#62CB2C"/>
</svg>
