<svg width="65" height="40" viewBox="0 0 65 40" fill="none" xmlns="http://www.w3.org/2000/svg">
<g clip-path="url(#clip0_2437_12188)">
<path d="M15.2959 18.5589C15.8733 18.3769 18.5789 15.928 24.4182 15.5164C30.9044 15.0603 36.4795 17.0097 39.8081 17.2962C43.2528 17.5919 43.7753 17.2962 43.1015 16.4254C42.5832 15.7573 34.7607 10.2804 27.5312 10.5793C18.8235 10.9392 16.1407 15.2444 14.9538 17.4554C14.4852 18.3283 14.7578 18.7295 15.2959 18.5589Z" fill="#A7ADBE"/>
<path d="M27.9158 8.89981C31.2807 8.73331 34.8364 9.20075 43.1015 13.8938C52.1326 19.0284 56.1382 17.9125 60.0847 16.7894C63.0992 15.928 64.819 15.051 64.6966 14.5546C64.6313 14.1989 64.2768 13.9031 63.1811 14.1409C61.7049 14.4636 60.0712 14.4067 58.4592 14.111C53.3258 13.1699 46.2777 7.60607 41.9042 6.09827C37.6198 4.61838 31.3481 4.20058 27.6453 7.64124C27.1176 8.13246 26.7185 8.95979 27.9158 8.89981Z" fill="#A7ADBE"/>
<path d="M60.4879 9.87817C60.2098 9.87797 59.938 9.96004 59.7067 10.114C59.4754 10.268 59.295 10.4869 59.1885 10.7431C59.0819 10.9994 59.0539 11.2814 59.1081 11.5534C59.1622 11.8255 59.296 12.0755 59.4925 12.2717C59.6891 12.4679 59.9395 12.6016 60.2122 12.6558C60.485 12.71 60.7676 12.6823 61.0245 12.5762C61.2815 12.4701 61.5011 12.2903 61.6556 12.0597C61.8101 11.8291 61.8925 11.5579 61.8925 11.2805C61.8927 11.0964 61.8564 10.9141 61.7859 10.7439C61.7154 10.5738 61.6119 10.4192 61.4815 10.289C61.351 10.1587 61.1962 10.0554 61.0257 9.98494C60.8552 9.91445 60.6724 9.87817 60.4879 9.87817ZM60.2453 10.992H60.0535V11.7707H59.8348V10.992H59.642V10.7748H60.2453V10.992ZM61.3058 11.7707H61.0871V11.3767L60.9046 11.7707H60.7647L60.5822 11.3767V11.7707H60.3635V10.7748H60.5418L60.8404 11.4025L61.1327 10.7748H61.311L61.3058 11.7707Z" fill="#A7ADBE"/>
<path d="M11.4054 24.5746C11.3612 24.6515 11.2895 24.7088 11.2046 24.7349C11.1197 24.761 11.0281 24.754 10.9482 24.7152C10.5177 24.5154 10.0683 24.3584 9.60681 24.2468C9.02918 24.1123 8.43766 24.0463 7.84453 24.0503C6.30202 24.0503 5.10021 24.4419 4.23912 25.2251C3.37802 26.0083 2.94816 27.1428 2.94954 28.6285C2.94167 29.2587 3.06339 29.8838 3.30718 30.4652C3.53189 31.0029 3.86701 31.4876 4.29095 31.8882C4.70871 32.2786 5.19745 32.5858 5.73083 32.7931C6.28794 33.0087 6.88105 33.1168 7.4786 33.1116C8.80571 33.1248 10.1181 32.8332 11.3141 32.2595C11.3579 32.2373 11.4059 32.2246 11.4549 32.222C11.5039 32.2195 11.5529 32.2272 11.5988 32.2446C11.6446 32.262 11.6863 32.2888 11.7212 32.3232C11.7561 32.3577 11.7834 32.399 11.8014 32.4446L12.2399 33.5904C12.2708 33.6712 12.2708 33.7605 12.2401 33.8414C12.2093 33.9222 12.1498 33.9889 12.073 34.0289C11.415 34.3684 10.7136 34.6165 9.98829 34.7663C9.12049 34.9309 8.23855 35.0099 7.35524 35.0021C6.40231 35.0164 5.45501 34.854 4.56151 34.5232C3.77154 34.2285 3.04941 33.7775 2.43848 33.1974C1.85075 32.6324 1.38938 31.9497 1.08464 31.1943C0.764283 30.3986 0.603676 29.548 0.611936 28.6906C0.599211 27.8067 0.779136 26.9307 1.13926 26.123C1.49939 25.3154 2.03111 24.5955 2.69764 24.0131C3.35731 23.4392 4.11889 22.9937 4.94299 22.6997C5.82718 22.3838 6.76026 22.2259 7.6994 22.2333C8.54579 22.2206 9.39124 22.2944 10.2226 22.4535C10.7907 22.5733 11.3433 22.7572 11.8698 23.0016C11.913 23.0225 11.9515 23.0521 11.9828 23.0884C12.014 23.1248 12.0375 23.1672 12.0516 23.213C12.0657 23.2588 12.0702 23.307 12.0647 23.3547C12.0593 23.4023 12.0441 23.4483 12.0201 23.4898L11.4054 24.5746Z" fill="#A7ADBE"/>
<path d="M33.7127 28.6172C33.7267 29.5292 33.5424 30.4335 33.1726 31.2677C32.828 32.0312 32.3306 32.7164 31.711 33.2812C31.0788 33.8487 30.3384 34.283 29.534 34.5584C27.7977 35.1472 25.9151 35.1472 24.1788 34.5584C23.3743 34.2834 22.6338 33.8489 22.0018 33.2812C21.3835 32.7165 20.8877 32.0312 20.5454 31.2677C20.1883 30.4289 20.0042 29.5269 20.0042 28.6156C20.0042 27.7043 20.1883 26.8023 20.5454 25.9635C20.8894 25.1999 21.3869 24.515 22.007 23.951C22.6392 23.3836 23.3796 22.9492 24.184 22.6738C25.9203 22.085 27.8029 22.085 29.5392 22.6738C30.3433 22.9497 31.0837 23.384 31.7161 23.951C32.3356 24.5155 32.833 25.2004 33.1778 25.9635C33.5462 26.7991 33.7287 27.7044 33.7127 28.6172ZM22.2195 28.6172C22.2195 30.0326 22.6307 31.1477 23.4531 31.9627C24.2755 32.7776 25.4106 33.1844 26.8585 33.183C28.3098 33.183 29.4449 32.7762 30.2638 31.9627C31.0828 31.1491 31.4939 30.034 31.4974 28.6172C31.4974 27.2004 31.0862 26.0848 30.2638 25.2706C29.4414 24.4564 28.3063 24.0496 26.8585 24.0503C25.4113 24.0503 24.2762 24.4571 23.4531 25.2706C22.63 26.0841 22.2188 27.1997 22.2195 28.6172Z" fill="#A7ADBE"/>
<path d="M38.2583 22.4774C38.3515 22.4774 38.4409 22.5143 38.5068 22.58C38.5727 22.6458 38.6097 22.735 38.6097 22.8279V29.6307C38.6097 30.6917 38.8026 31.5366 39.1882 32.1654C39.5738 32.7942 40.2919 33.1085 41.3423 33.1085C42.3098 33.1085 43.1343 32.9289 43.8157 32.5697C44.0426 32.449 44.2595 32.3107 44.4647 32.1561C44.8509 31.8631 45.1634 31.4844 45.3776 31.05C45.5917 30.6156 45.7015 30.1375 45.6982 29.6534V22.8279C45.6982 22.735 45.7353 22.6458 45.8012 22.58C45.8671 22.5143 45.9565 22.4774 46.0497 22.4774H47.6357C47.6819 22.4775 47.7275 22.4867 47.7701 22.5044C47.8127 22.5222 47.8514 22.5481 47.8839 22.5808C47.9164 22.6134 47.9422 22.6521 47.9597 22.6947C47.9773 22.7373 47.9862 22.7829 47.9861 22.829V34.4043C47.9861 34.4973 47.9491 34.5865 47.8832 34.6522C47.8173 34.718 47.7279 34.7549 47.6347 34.7549H46.3182C46.2296 34.7549 46.1443 34.7216 46.0794 34.6616C46.0144 34.6016 45.9746 34.5193 45.9678 34.4312L45.8579 32.9937C45.8568 32.9799 45.8515 32.9666 45.8427 32.9558C45.8338 32.945 45.8219 32.9372 45.8085 32.9334C45.795 32.9295 45.7808 32.9299 45.7675 32.9344C45.7543 32.9389 45.7428 32.9474 45.7345 32.9586C45.2311 33.6212 44.5717 34.1497 43.8147 34.4974C43.0346 34.8358 42.1919 35.0071 41.3413 35C39.6336 35 38.3699 34.5378 37.5503 33.6132C36.7307 32.6887 36.3209 31.3587 36.3209 29.6234V22.829C36.3209 22.736 36.3579 22.6468 36.4238 22.5811C36.4897 22.5153 36.5791 22.4784 36.6723 22.4784L38.2583 22.4774Z" fill="#A7ADBE"/>
<path d="M18.4483 32.7797C17.9341 32.7445 17.5709 32.6211 17.3588 32.4094C17.1044 32.1571 16.9776 31.7276 16.9783 31.1209V19.4049C16.9781 19.3564 16.9653 19.3089 16.9411 19.2669C16.917 19.2249 16.8824 19.1898 16.8406 19.1651C16.7988 19.1404 16.7514 19.127 16.7028 19.126C16.6543 19.1251 16.6064 19.1367 16.5637 19.1598L15.8048 19.5817C15.4742 19.7628 15.1983 20.029 15.0058 20.3525C14.8133 20.6761 14.7112 21.0452 14.7102 21.4215V30.8758C14.7043 31.441 14.7624 32.0051 14.8833 32.5573C14.9791 33.0165 15.1763 33.4486 15.4607 33.8221C15.7437 34.1746 16.1123 34.4491 16.5315 34.6195C16.9752 34.8077 17.525 34.9018 18.1808 34.9018C18.2264 34.9018 18.3342 34.8945 18.4472 34.8863C18.5353 34.879 18.6175 34.8391 18.6776 34.7744C18.7376 34.7097 18.7712 34.6249 18.7717 34.5367V33.1292C18.7715 33.0411 18.7381 32.9563 18.6782 32.8916C18.6183 32.8269 18.5363 32.7869 18.4483 32.7797Z" fill="#A7ADBE"/>
<path d="M60.9316 19.7502V23.163C60.4096 22.8185 59.8305 22.5691 59.2211 22.4266C58.5126 22.2839 57.7907 22.218 57.068 22.2302C56.1737 22.2204 55.2851 22.3743 54.4464 22.6842C53.6824 22.9678 52.9837 23.4022 52.3918 23.9613C51.8071 24.5252 51.3498 25.2071 51.0504 25.9614C50.7231 26.7899 50.5605 27.674 50.5715 28.5644C50.5715 29.6289 50.7228 30.5617 51.0255 31.3628C51.3024 32.1238 51.7486 32.8122 52.3306 33.3764C52.9134 33.9267 53.6107 34.3419 54.3728 34.5925C55.1689 34.8628 56.1409 34.9976 57.2888 34.9969C57.9799 34.9969 58.5542 34.9848 59.0117 34.9607C59.4692 34.9366 59.9371 34.8997 60.4153 34.85C60.8911 34.8004 61.3535 34.7311 61.8055 34.6432C62.2041 34.5685 62.5641 34.3572 62.8233 34.0458C63.0824 33.7344 63.2243 33.3426 63.2246 32.9379V17.8308C63.225 17.785 63.214 17.7398 63.1926 17.6992C63.1712 17.6586 63.1401 17.6239 63.102 17.5983C63.064 17.5726 63.0201 17.5567 62.9744 17.5519C62.9287 17.5472 62.8825 17.5539 62.84 17.5713C62.6679 17.6416 62.4876 17.7129 62.2979 17.7781C61.8957 17.9286 61.5494 18.1982 61.3052 18.5507C61.061 18.9032 60.9306 19.3218 60.9316 19.7502ZM60.9316 32.5128C60.9315 32.5917 60.9049 32.6684 60.8561 32.7304C60.8072 32.7925 60.7389 32.8364 60.662 32.8551C60.2215 32.9622 59.775 33.0431 59.3248 33.0971C58.7339 33.1594 58.14 33.188 57.5459 33.183C56.9171 33.1897 56.2914 33.094 55.6935 32.8996C55.1485 32.7217 54.647 32.4318 54.2214 32.0485C53.7898 31.6477 53.4579 31.152 53.2522 30.6007C53.0102 29.9409 52.8939 29.2419 52.9091 28.5396C52.8945 27.8667 53.0066 27.197 53.2398 26.5654C53.4391 26.038 53.7536 25.5615 54.1603 25.1703C54.5588 24.7993 55.031 24.5161 55.5463 24.3388C56.1024 24.1462 56.6877 24.0503 57.2764 24.0554C58.6164 24.0554 59.7864 24.4143 60.7864 25.132C60.8318 25.1652 60.8686 25.2087 60.8938 25.2589C60.919 25.309 60.932 25.3644 60.9316 25.4205V32.5128Z" fill="#A7ADBE"/>
</g>
<defs>
<clipPath id="clip0_2437_12188">
<rect width="64.0909" height="30" fill="white" transform="translate(0.611938 5)"/>
</clipPath>
</defs>
</svg>
