<svg width="91" height="50" viewBox="0 0 91 50" fill="none" xmlns="http://www.w3.org/2000/svg">
<g opacity="0.8">
<path d="M5.61235 16.554C7.72285 16.554 8.97351 15.899 10.0991 14.6981L8.56704 13.0605C7.70721 13.8403 6.94118 14.3394 5.69052 14.3394C3.81452 14.3394 2.51696 12.7798 2.51696 10.9083C2.51696 9.00566 3.84579 7.47728 5.69052 7.47728C6.94118 7.47728 7.66031 7.92956 8.50451 8.69375L9.94277 7.0406C8.92661 6.04248 7.76975 5.2627 5.70615 5.2627C2.34499 5.2627 0 7.80479 0 10.9083C0 14.0743 2.39189 16.554 5.61235 16.554Z" fill="black"/>
<path d="M17.0364 16.554C20.4132 16.554 22.8676 14.0119 22.8676 10.9083C22.8676 7.7736 20.4444 5.2627 17.0676 5.2627C13.6909 5.2627 11.2364 7.80479 11.2364 10.9083C11.2364 14.0431 13.6596 16.554 17.0364 16.554ZM17.0676 14.3394C15.1291 14.3394 13.7534 12.7798 13.7534 10.9083C13.7534 9.00566 15.0978 7.47728 17.0364 7.47728C18.9749 7.47728 20.3506 9.03685 20.3506 10.9083C20.3506 12.811 19.0062 14.3394 17.0676 14.3394Z" fill="black"/>
<path d="M25.0032 16.3668H32.8668V14.1834H27.4108V5.44984H25.0032V16.3668Z" fill="black"/>
<path d="M38.942 16.5384C41.8811 16.5384 43.7415 14.9164 43.7415 11.6101V5.44984H41.3339V11.7037C41.3339 13.4348 40.4428 14.3238 38.9733 14.3238C37.5038 14.3238 36.6127 13.4036 36.6127 11.6257V5.44984H34.2052V11.6881C34.2052 14.9008 36.003 16.5384 38.942 16.5384Z" fill="black"/>
<path d="M46.1937 16.3668H48.5543V9.28638L51.6028 13.9027H51.6653L54.7451 9.2396V16.3668H57.137V5.44984H54.5419L51.6653 10.0662L48.7888 5.44984H46.1937V16.3668Z" fill="black"/>
<path d="M59.7659 16.3668H64.9718C67.4419 16.3668 69.0678 15.3687 69.0678 13.3725C69.0678 11.8753 68.2861 11.1423 67.0198 10.6588C67.8015 10.2221 68.4581 9.53591 68.4581 8.30385C68.4581 7.52407 68.2079 6.91584 67.7077 6.41678C67.0823 5.79295 66.0974 5.44984 64.8468 5.44984H59.7659V16.3668ZM62.1109 9.86342V7.55526H64.4872C65.5034 7.55526 66.0662 7.96075 66.0662 8.67815C66.0662 9.52032 65.3939 9.86342 64.3309 9.86342H62.1109ZM62.1109 14.2614V11.8597H64.8937C66.1287 11.8597 66.6759 12.3119 66.6759 13.0449C66.6759 13.8871 66.0349 14.2614 64.9718 14.2614H62.1109Z" fill="black"/>
<path d="M75.6317 16.5384C78.5707 16.5384 80.4311 14.9165 80.4311 11.6102V5.4499H78.0236V11.7038C78.0236 13.4349 77.1325 14.3238 75.6629 14.3238C74.1934 14.3238 73.3023 13.4037 73.3023 11.6258V5.4499H70.8948V11.6882C70.8948 14.9009 72.6926 16.5384 75.6317 16.5384Z" fill="#EF3125"/>
<path d="M86.776 16.5228C89.1366 16.5228 90.7938 15.3064 90.7938 13.1386C90.7938 11.2047 89.5431 10.4093 87.3232 9.83229C85.4315 9.34882 84.9625 9.11489 84.9625 8.39749C84.9625 7.83604 85.4472 7.41496 86.3695 7.41496C87.2919 7.41496 88.2455 7.82045 89.2148 8.49106L90.4655 6.68196C89.3555 5.79301 87.9954 5.29395 86.4008 5.29395C84.1653 5.29395 82.5707 6.60398 82.5707 8.58464C82.5707 10.7836 83.9933 11.3919 86.1976 11.9533C88.0267 12.4212 88.4019 12.7331 88.4019 13.3413C88.4019 14.0119 87.8078 14.4018 86.8229 14.4018C85.5722 14.4018 84.5405 13.8872 83.5556 13.0762L82.1329 14.7761C83.4461 15.9458 85.1189 16.5228 86.776 16.5228Z" fill="#EF3125"/>
<path d="M6.53158 33.718C8.76273 33.718 10.1682 32.9294 11.4506 31.6324L10.5371 30.6685C9.36004 31.7902 8.25325 32.4386 6.56671 32.4386C3.86123 32.4386 1.80576 30.2128 1.80576 27.3737C1.80576 24.5169 3.84366 22.3087 6.56671 22.3087C8.23568 22.3087 9.39518 23.0097 10.4317 23.9912L11.3452 23.0097C10.1155 21.853 8.81543 21.0293 6.58428 21.0293C2.96525 21.0293 0.365173 23.9035 0.365173 27.3737C0.365173 30.9314 2.98282 33.718 6.53158 33.718Z" fill="black"/>
<path d="M13.88 33.5077H15.2679V27.9871H22.3654V33.5077H23.7533V21.2396H22.3654V26.6901H15.2679V21.2396H13.88V33.5077Z" fill="black"/>
<path d="M26.1735 33.5077H27.5966L29.0547 30.2654H35.7482L37.1887 33.5077H38.682L33.0778 21.152H31.7778L26.1735 33.5077ZM29.5993 29.0211L32.4102 22.7644L35.2035 29.0211H29.5993Z" fill="black"/>
<path d="M41.1071 33.5077H42.4599V23.5881L46.9397 30.1427H47.01L51.4899 23.5705V33.5077H52.8777V21.2396H51.4723L46.9924 27.9345L42.5126 21.2396H41.1071V33.5077Z" fill="black"/>
<path d="M56.3591 33.5077H61.8228C64.5107 33.5077 66.2851 32.2634 66.2851 30.1603C66.2851 28.4427 65.108 27.6015 63.6499 27.1633C64.6161 26.7427 65.5999 25.919 65.5999 24.3242C65.5999 23.5004 65.3188 22.852 64.8094 22.3262C64.1242 21.6252 62.9998 21.2396 61.5944 21.2396H56.3591V33.5077ZM57.7294 26.7077V22.4839H61.4714C63.2282 22.4839 64.1945 23.2726 64.1945 24.4819C64.1945 25.9541 63.035 26.7077 61.366 26.7077H57.7294ZM57.7294 32.2634V27.9345H61.612C63.7553 27.9345 64.8796 28.7056 64.8796 30.0376C64.8796 31.4397 63.7201 32.2634 61.8579 32.2634H57.7294Z" fill="black"/>
<path d="M69.0376 33.5077H78.0149V32.2458H70.4255V27.952H77.1365V26.6901H70.4255V22.5015H77.9271V21.2396H69.0376V33.5077Z" fill="black"/>
<path d="M80.8069 33.5077H82.1948V28.7407H85.7084L89.2747 33.5077H90.9788L87.2017 28.4953C89.1342 28.1448 90.5396 26.953 90.5396 24.92C90.5396 23.9211 90.1883 23.0623 89.591 22.4664C88.818 21.6953 87.6058 21.2396 86.0949 21.2396H80.8069V33.5077ZM82.1948 27.4963V22.519H85.9895C87.9747 22.519 89.1342 23.4303 89.1342 24.9376C89.1342 26.5499 87.8166 27.4963 85.9719 27.4963H82.1948Z" fill="black"/>
<path d="M4.20359 46.0001C6.69276 46.0001 8.38727 44.0299 8.38727 41.7798C8.38727 39.5065 6.71614 37.5596 4.22696 37.5596C1.73778 37.5596 0.0432739 39.5298 0.0432739 41.7798C0.0432739 44.0532 1.71441 46.0001 4.20359 46.0001ZM4.22696 45.149C2.35716 45.149 1.00155 43.6335 1.00155 41.7798C1.00155 39.9029 2.33378 38.4106 4.20359 38.4106C6.07339 38.4106 7.429 39.9262 7.429 41.7798C7.429 43.6568 6.09676 45.149 4.22696 45.149Z" fill="black"/>
<path d="M10.3343 45.8602H11.2575V42.3044H15.6866V41.4651H11.2575V38.5505H16.2125V37.6995H10.3343V45.8602Z" fill="black"/>
<path d="M25.2466 46.0001C26.7308 46.0001 27.6657 45.4755 28.5188 44.6128L27.9111 43.9716C27.1281 44.7177 26.3919 45.149 25.27 45.149C23.4703 45.149 22.103 43.6684 22.103 41.7798C22.103 39.8795 23.4586 38.4106 25.27 38.4106C26.3802 38.4106 27.1515 38.8769 27.841 39.5298L28.4487 38.8769C27.6306 38.1075 26.7659 37.5596 25.2817 37.5596C22.8743 37.5596 21.1448 39.4715 21.1448 41.7798C21.1448 44.1464 22.886 46.0001 25.2466 46.0001Z" fill="black"/>
<path d="M33.7046 46.0001C36.1938 46.0001 37.8883 44.0299 37.8883 41.7798C37.8883 39.5065 36.2171 37.5596 33.728 37.5596C31.2388 37.5596 29.5443 39.5298 29.5443 41.7798C29.5443 44.0532 31.2154 46.0001 33.7046 46.0001ZM33.728 45.149C31.8582 45.149 30.5025 43.6335 30.5025 41.7798C30.5025 39.9029 31.8348 38.4106 33.7046 38.4106C35.5744 38.4106 36.93 39.9262 36.93 41.7798C36.93 43.6568 35.5978 45.149 33.728 45.149Z" fill="black"/>
<path d="M39.8353 45.8602H40.7352V39.2617L43.7152 43.6218H43.7619L46.7419 39.25V45.8602H47.6651V37.6995H46.7302L43.7502 42.1529L40.7702 37.6995H39.8353V45.8602Z" fill="black"/>
<path d="M49.9809 45.8602H50.8808V39.2617L53.8608 43.6218H53.9075L56.8875 39.25V45.8602H57.8107V37.6995H56.8758L53.8958 42.1529L50.9158 37.6995H49.9809V45.8602Z" fill="black"/>
<path d="M60.1265 45.8602H66.0982V45.0208H61.0497V42.1645H65.5139V41.3252H61.0497V38.5389H66.0398V37.6995H60.1265V45.8602Z" fill="black"/>
<path d="M67.9554 45.8602H68.8786V42.6892H71.2159L73.5882 45.8602H74.7218L72.2092 42.5259C73.4947 42.2928 74.4296 41.5 74.4296 40.1477C74.4296 39.4832 74.1959 38.9119 73.7986 38.5155C73.2844 38.0026 72.478 37.6995 71.473 37.6995H67.9554V45.8602ZM68.8786 41.8614V38.5505H71.4029C72.7234 38.5505 73.4947 39.1567 73.4947 40.1593C73.4947 41.2319 72.6182 41.8614 71.3912 41.8614H68.8786Z" fill="black"/>
<path d="M80.1402 46.0001C81.6243 46.0001 82.5592 45.4755 83.4123 44.6128L82.8046 43.9716C82.0217 44.7177 81.2854 45.149 80.1636 45.149C78.3639 45.149 76.9966 43.6684 76.9966 41.7798C76.9966 39.8795 78.3522 38.4106 80.1636 38.4106C81.2737 38.4106 82.045 38.8769 82.7345 39.5298L83.3422 38.8769C82.5242 38.1075 81.6594 37.5596 80.1752 37.5596C77.7679 37.5596 76.0383 39.4715 76.0383 41.7798C76.0383 44.1464 77.7796 46.0001 80.1402 46.0001Z" fill="black"/>
<path d="M85.0283 45.8602H91V45.0208H85.9515V42.1645H90.4157V41.3252H85.9515V38.5389H90.9416V37.6995H85.0283V45.8602Z" fill="black"/>
<path d="M75.7133 0L76.2172 1.5471H77.8479L76.5286 2.50326L77.0325 4.05036L75.7133 3.0942L74.3941 4.05036L74.898 2.50326L73.5788 1.5471H75.2094L75.7133 0Z" fill="black"/>
</g>
</svg>
