<svg width="75" height="40" viewBox="0 0 75 40" fill="none" xmlns="http://www.w3.org/2000/svg">
<g clip-path="url(#clip0_2437_14896)">
<path d="M12.6006 23.257L11.8901 25.2131C11.8796 25.242 11.8762 25.273 11.8802 25.3035C11.8843 25.3339 11.8957 25.363 11.9134 25.3882C11.9311 25.4134 11.9546 25.4341 11.9821 25.4484C12.0095 25.4628 12.04 25.4704 12.071 25.4706H19.4327C19.4637 25.4704 19.4942 25.4628 19.5216 25.4484C19.549 25.4341 19.5726 25.4134 19.5903 25.3882C19.608 25.363 19.6194 25.3339 19.6234 25.3035C19.6275 25.273 19.6241 25.242 19.6136 25.2131L18.9097 23.2602C18.896 23.2227 18.871 23.1903 18.838 23.1676C18.805 23.1448 18.7657 23.1327 18.7255 23.1331H12.7815C12.7422 23.1332 12.7039 23.145 12.6716 23.1672C12.6393 23.1893 12.6146 23.2206 12.6006 23.257Z" fill="#A7ADBE"/>
<path d="M15.6367 14.9271L14.1631 18.9796C14.1524 19.0083 14.149 19.0392 14.153 19.0695C14.157 19.0998 14.1684 19.1287 14.1862 19.1538C14.204 19.1788 14.2277 19.1991 14.2552 19.2131C14.2826 19.227 14.3131 19.2342 14.344 19.2339H17.265C17.2956 19.2334 17.3257 19.2258 17.3528 19.2117C17.3798 19.1975 17.4031 19.1772 17.4208 19.1524C17.4384 19.1276 17.4499 19.099 17.4543 19.069C17.4586 19.0389 17.4558 19.0083 17.4459 18.9796L16.0019 14.9304C15.9886 14.893 15.9641 14.8606 15.9317 14.8376C15.8992 14.8146 15.8604 14.802 15.8204 14.8016C15.7805 14.8013 15.7415 14.8131 15.7086 14.8356C15.6757 14.8581 15.6506 14.89 15.6367 14.9271Z" fill="#A7ADBE"/>
<path d="M54.386 9H49.2775C49.1703 9 49.0834 9.08612 49.0834 9.19235V25.2653C49.0834 25.3715 49.1703 25.4576 49.2775 25.4576H54.386C54.4932 25.4576 54.58 25.3715 54.58 25.2653V9.19235C54.58 9.08612 54.4932 9 54.386 9Z" fill="#A7ADBE"/>
<path d="M68.389 16.7333L73.4876 9.29994C73.5073 9.27099 73.5187 9.23726 73.5205 9.20237C73.5224 9.16749 73.5146 9.13277 73.498 9.10193C73.4814 9.0711 73.4567 9.04532 73.4265 9.02737C73.3963 9.00941 73.3617 8.99995 73.3264 9H67.3331C67.3001 9.00011 67.2677 9.00855 67.2389 9.02453C67.2102 9.0405 67.186 9.06348 67.1686 9.09129L64.9614 12.6091C64.944 12.6367 64.9197 12.6595 64.891 12.6752C64.8622 12.691 64.8299 12.6993 64.797 12.6993C64.7641 12.6993 64.7317 12.691 64.703 12.6752C64.6742 12.6595 64.65 12.6367 64.6325 12.6091L62.4483 9.09129C62.4312 9.06326 62.4071 9.04011 62.3783 9.02411C62.3494 9.00811 62.3169 8.9998 62.2839 9H56.3629C56.3282 9.00033 56.2942 9.00989 56.2645 9.02769C56.2347 9.04548 56.2104 9.07085 56.1939 9.10115C56.1774 9.13146 56.1695 9.16559 56.1709 9.19998C56.1722 9.23437 56.1829 9.26777 56.2017 9.29668L61.399 16.9908C61.4206 17.0226 61.4322 17.0601 61.4322 17.0984C61.4322 17.1367 61.4206 17.1742 61.399 17.206L55.8531 25.1577C55.8335 25.1864 55.8221 25.2198 55.8202 25.2544C55.8182 25.289 55.8257 25.3235 55.8419 25.3543C55.858 25.385 55.8823 25.4108 55.9121 25.429C55.9418 25.4472 55.976 25.4571 56.011 25.4576H61.9549C61.9874 25.457 62.0193 25.4487 62.0479 25.4334C62.0765 25.4181 62.101 25.3962 62.1194 25.3696L64.649 21.4573C64.6658 21.4289 64.6898 21.4054 64.7187 21.389C64.7475 21.3727 64.7802 21.3641 64.8134 21.3641C64.8467 21.3641 64.8793 21.3727 64.9082 21.389C64.937 21.4054 64.9611 21.4289 64.9779 21.4573L67.5535 25.3696C67.5707 25.3965 67.5945 25.4188 67.6227 25.4341C67.6509 25.4495 67.6825 25.4576 67.7147 25.4576H73.8429C73.8778 25.4571 73.912 25.4472 73.9418 25.429C73.9715 25.4108 73.9958 25.385 74.012 25.3543C74.0281 25.3235 74.0356 25.289 74.0337 25.2544C74.0317 25.2198 74.0203 25.1864 74.0007 25.1577L68.4087 16.9484C68.3832 16.9191 68.3676 16.8826 68.3641 16.844C68.3605 16.8054 68.3693 16.7667 68.389 16.7333Z" fill="#A7ADBE"/>
<path d="M11.6071 13.0068L12.9656 9.25753C12.9762 9.22861 12.9795 9.19763 12.9755 9.16716C12.9714 9.13669 12.9601 9.10763 12.9423 9.08241C12.9246 9.05719 12.9011 9.03654 12.8736 9.0222C12.8462 9.00785 12.8157 9.00023 12.7847 8.99997H0.354047C0.328438 8.99953 0.303001 9.0042 0.279254 9.01371C0.255506 9.02322 0.233934 9.03737 0.215823 9.05532C0.197711 9.07327 0.183433 9.09465 0.173837 9.11819C0.164242 9.14173 0.159526 9.16694 0.159971 9.19232V25.2652C0.159971 25.2905 0.164991 25.3155 0.174745 25.3388C0.184498 25.3622 0.198793 25.3834 0.216815 25.4012C0.234836 25.4191 0.256231 25.4333 0.279777 25.4429C0.303324 25.4526 0.32856 25.4576 0.354047 25.4576H5.4625C5.51371 25.4567 5.56258 25.4362 5.5988 25.4003C5.63501 25.3644 5.65573 25.316 5.65658 25.2652V20.2966C5.65614 20.2715 5.66075 20.2466 5.67015 20.2233C5.67954 20.2 5.69352 20.1787 5.71128 20.1608C5.72904 20.1429 5.75022 20.1287 5.77359 20.119C5.79695 20.1093 5.82203 20.1043 5.84736 20.1043H8.89665C8.93641 20.1044 8.97523 20.0922 9.00766 20.0695C9.0401 20.0467 9.06454 20.0144 9.07757 19.9771L10.4361 16.2279C10.4467 16.1992 10.4502 16.1683 10.4462 16.138C10.4421 16.1076 10.4307 16.0787 10.4129 16.0537C10.3951 16.0287 10.3715 16.0083 10.344 15.9944C10.3165 15.9804 10.286 15.9733 10.2552 15.9736H5.84736C5.79646 15.9727 5.74794 15.9521 5.71225 15.9161C5.67657 15.8801 5.65657 15.8317 5.65658 15.7812V13.323C5.65657 13.2726 5.67657 13.2241 5.71225 13.1882C5.74794 13.1522 5.79646 13.1315 5.84736 13.1307H11.4394C11.4762 13.1277 11.5115 13.1145 11.5412 13.0926C11.5708 13.0707 11.5937 13.0409 11.6071 13.0068Z" fill="#A7ADBE"/>
<path d="M47.0243 14.8912C47.0243 11.1354 44.4421 9 39.9422 9H30.8075C30.7682 9.00009 30.7299 9.01198 30.6976 9.0341C30.6653 9.05622 30.6405 9.08752 30.6266 9.12389L27.6464 17.0136C27.6322 17.0498 27.6074 17.0808 27.5751 17.1027C27.5428 17.1246 27.5046 17.1364 27.4655 17.1364C27.4263 17.1364 27.3881 17.1246 27.3558 17.1027C27.3235 17.0808 27.2987 17.0498 27.2845 17.0136L24.2451 9.12389C24.2311 9.08752 24.2064 9.05622 24.1741 9.0341C24.1418 9.01198 24.1035 9.00009 24.0642 9H19.015C18.9839 9.00026 18.9535 9.00789 18.926 9.02223C18.8986 9.03657 18.8751 9.05722 18.8573 9.08244C18.8396 9.10766 18.8283 9.13672 18.8242 9.16719C18.8202 9.19766 18.8235 9.22865 18.834 9.25756L24.5609 25.0468C24.5773 25.0899 24.5773 25.1374 24.5609 25.1805L22.459 30.7392C22.4478 30.7683 22.4439 30.7996 22.4476 30.8305C22.4514 30.8614 22.4626 30.891 22.4804 30.9166C22.4982 30.9423 22.522 30.9633 22.5498 30.9778C22.5776 30.9923 22.6085 30.9999 22.6399 31H28.0543C28.094 31.0001 28.1328 30.988 28.1653 30.9652C28.1977 30.9424 28.2221 30.9101 28.2352 30.8728L34.5936 13.2676C34.6066 13.2304 34.6311 13.1981 34.6635 13.1753C34.6959 13.1525 34.7348 13.1403 34.7745 13.1405H39.9422C41.1264 13.1405 41.8139 13.8447 41.8139 15.0673C41.8139 16.2899 41.1264 17.0625 39.9422 17.0625H36.7975C36.7633 17.0617 36.7295 17.0701 36.6997 17.0866C36.6699 17.1032 36.6451 17.1274 36.6279 17.1568C36.6108 17.1861 36.6019 17.2194 36.6022 17.2533C36.6025 17.2872 36.6121 17.3204 36.6298 17.3494L41.4027 25.3729C41.4191 25.4017 41.443 25.4257 41.4719 25.4423C41.5009 25.4589 41.5337 25.4676 41.5672 25.4674H47.3203C47.3548 25.468 47.3887 25.4593 47.4185 25.4423C47.4484 25.4254 47.4731 25.4007 47.4899 25.3709C47.5068 25.3412 47.5152 25.3075 47.5143 25.2734C47.5134 25.2393 47.5032 25.2061 47.4848 25.1772L44.4914 20.2706C44.4657 20.2281 44.4579 20.1773 44.4696 20.1292C44.4813 20.081 44.5116 20.0393 44.5539 20.013C46.1559 18.96 47.0243 17.2125 47.0243 14.8912Z" fill="#A7ADBE"/>
</g>
<defs>
<clipPath id="clip0_2437_14896">
<rect width="73.8572" height="22" fill="white" transform="translate(0.160034 9)"/>
</clipPath>
</defs>
</svg>
