<svg width="119" height="40" viewBox="0 0 119 40" fill="none" xmlns="http://www.w3.org/2000/svg">
<g opacity="0.8">
<path d="M48.4721 25.7772H46.3717L44.9127 23.546C44.7363 23.5781 44.56 23.5781 44.3996 23.5781H43.7743V25.7612H41.9625V16.9807H44.3996C46.8688 16.9807 48.3439 18.1525 48.3439 20.3035C48.3439 21.6679 47.7346 22.5347 46.6443 23.0323L48.4721 25.7772ZM44.3355 22.0211C45.8106 22.0211 46.4679 21.5556 46.4679 20.3196C46.4679 19.0835 45.7945 18.5859 44.3355 18.5859H43.7583V22.0211H44.3355Z" fill="#A7ADBE"/>
<path d="M49.8991 21.3788C49.8991 18.7784 51.9193 16.8682 54.4687 16.8682C57.018 16.8682 59.0382 18.7784 59.0382 21.3788C59.0382 23.9793 57.018 25.8895 54.4687 25.8895C51.9193 25.9055 49.8991 23.9793 49.8991 21.3788ZM57.1623 21.3788C57.1623 19.7415 56.072 18.4734 54.4687 18.4734C52.8653 18.4734 51.775 19.7255 51.775 21.3788C51.775 23.0162 52.8653 24.2682 54.4687 24.2682C56.072 24.2843 57.1623 23.0322 57.1623 21.3788Z" fill="#A7ADBE"/>
<path d="M60.5934 21.3788C60.5934 18.7784 62.5976 16.8842 65.1309 16.8842C66.7342 16.8842 67.8726 17.4461 68.6582 18.6821L67.2633 19.6612C66.8465 18.987 66.141 18.5055 65.1148 18.5055C63.5115 18.5055 62.4372 19.7415 62.4372 21.3788C62.4372 23.0161 63.5115 24.2682 65.1148 24.2682C66.2532 24.2682 66.8946 23.7224 67.3916 22.9679L68.8025 23.9311C68.0329 25.1189 66.8144 25.8734 65.1148 25.8734C62.5976 25.9055 60.5934 23.9792 60.5934 21.3788Z" fill="#A7ADBE"/>
<path d="M70.5342 16.9807H72.346V21.4753H76.1299V16.9807H77.9417V25.7772H76.1299V23.1126H72.346V25.7933H70.5342V16.9807Z" fill="#A7ADBE"/>
<path d="M86.1828 16.9807V18.5699H82.1584V21.3629H85.7018V22.92H82.1584V24.1881H86.3592V25.7772H80.3306V16.9807H86.1828Z" fill="#A7ADBE"/>
<path d="M87.7542 24.0435L89.2293 23.1927C89.6141 23.8188 90.1272 24.2843 91.0251 24.2843C91.7786 24.2843 92.2596 23.9151 92.2596 23.3853C92.2596 22.7593 91.7626 22.5506 90.9289 22.1814L90.4799 21.9888C89.1652 21.427 88.2994 20.7368 88.2994 19.26C88.2994 17.8956 89.3415 16.8682 90.9609 16.8682C92.1153 16.8682 92.9491 17.2695 93.5423 18.3129L92.1314 19.2118C91.8267 18.65 91.49 18.4413 90.9609 18.4413C90.4318 18.4413 90.0951 18.7784 90.0951 19.2118C90.0951 19.7576 90.4318 19.9823 91.2175 20.3034L91.6664 20.496C93.2056 21.1541 94.0875 21.8283 94.0875 23.3372C94.0875 24.9745 92.8048 25.8574 91.0732 25.8574C89.3896 25.9055 88.2994 25.1029 87.7542 24.0435Z" fill="#A7ADBE"/>
<path d="M97.711 18.5859H95.1938V16.9967H102.04V18.5859H99.5228V25.7932H97.711V18.5859Z" fill="#A7ADBE"/>
<path d="M109.464 16.9807V18.5699H105.439V21.3629H108.983V22.92H105.439V24.1881H109.64V25.7772H103.611V16.9807H109.464Z" fill="#A7ADBE"/>
<path d="M118.298 25.7772H116.198L114.739 23.546C114.562 23.5781 114.386 23.5781 114.226 23.5781H113.6V25.7612H111.788V16.9807H114.226C116.695 16.9807 118.17 18.1525 118.17 20.3035C118.17 21.6679 117.561 22.5347 116.47 23.0323L118.298 25.7772ZM114.177 22.0211C115.653 22.0211 116.31 21.5556 116.31 20.3196C116.31 19.0835 115.637 18.5859 114.177 18.5859H113.6V22.0211H114.177Z" fill="#A7ADBE"/>
<path d="M41.9304 32.198C41.9304 30.641 43.165 29.3408 44.6882 29.3408C45.6823 29.3408 46.4198 29.9187 46.4198 30.5768C46.4198 30.9139 46.1793 31.2028 45.8586 31.2028C45.5861 31.2028 45.3616 30.9781 45.3616 30.7052C45.3616 30.5607 45.4257 30.4484 45.5059 30.3681C45.4097 30.2397 45.089 30.1113 44.6882 30.1113C43.6941 30.1113 42.7962 30.9941 42.7962 32.1659C42.7962 32.9846 43.2772 33.5625 44.0789 33.5625C44.5439 33.5625 44.9928 33.3698 45.3937 32.9364L45.9067 33.4341C45.3616 34.0601 44.7363 34.3169 44.0148 34.3169C42.8604 34.3009 41.9304 33.5304 41.9304 32.198Z" fill="#A7ADBE"/>
<path d="M47.7186 29.5495H47.1254L47.3017 28.8753H48.6646L48.0393 31.6041C48.2637 31.267 48.6325 30.962 49.0173 30.962C49.4823 30.962 49.8671 31.2831 49.8671 31.9091C49.8671 32.0696 49.8511 32.2462 49.7869 32.4388L49.5464 33.2735C49.5304 33.3538 49.5144 33.4341 49.5144 33.4983C49.5144 33.6427 49.5785 33.723 49.6747 33.723C49.7869 33.723 49.9152 33.6427 50.0916 33.1933L50.4122 33.3217C50.2198 33.9798 49.8831 34.2688 49.4502 34.2688C48.9532 34.2688 48.6966 33.9638 48.6966 33.5625C48.6966 33.4501 48.7127 33.3217 48.7447 33.1933L48.9852 32.3265C49.0173 32.2302 49.0173 32.1499 49.0173 32.0696C49.0173 31.7968 48.857 31.6202 48.5844 31.6202C48.2477 31.6202 48.0072 31.8449 47.8789 32.3425L47.446 34.1885H46.6283L47.7186 29.5495Z" fill="#A7ADBE"/>
<path d="M51.0536 33.0328C51.0536 31.9252 51.7911 30.962 52.721 30.962C53.1379 30.962 53.4906 31.3152 53.6189 31.6683L53.8434 31.0102H54.597L54.0518 33.1772C54.0198 33.3217 53.9877 33.4341 53.9877 33.5143C53.9877 33.6427 54.0358 33.7069 54.148 33.7069C54.2442 33.7069 54.3885 33.6267 54.5649 33.1772L54.8856 33.3056C54.6611 34.0601 54.2603 34.2527 53.9075 34.2527C53.4906 34.2527 53.2501 33.9638 53.2501 33.5304C52.9936 33.9156 52.5928 34.2527 52.0957 34.2527C51.4865 34.2688 51.0536 33.7712 51.0536 33.0328ZM53.4746 32.3425C53.4746 31.9252 53.2662 31.6683 52.8493 31.6683C52.3202 31.6683 51.8873 32.2623 51.8873 32.9204C51.8873 33.3056 52.0797 33.5946 52.4645 33.5946C52.9936 33.5946 53.4746 33.0328 53.4746 32.3425Z" fill="#A7ADBE"/>
<path d="M56.104 31.6844H55.5268L55.7032 31.0102H56.9538L56.7935 31.7486C57.0179 31.3473 57.4027 30.962 57.8196 30.962C58.2686 30.962 58.5732 31.2831 58.6213 31.7486C58.8939 31.267 59.2947 30.962 59.6635 30.962C60.1124 30.962 60.4812 31.2831 60.4812 31.9091C60.4812 32.0696 60.4651 32.2462 60.401 32.4388L60.1605 33.2735C60.1445 33.3538 60.1284 33.4341 60.1284 33.4983C60.1284 33.6427 60.1926 33.723 60.2888 33.723C60.401 33.723 60.5293 33.6427 60.7057 33.1933L61.0263 33.3217C60.8339 33.9798 60.4972 34.2688 60.0643 34.2688C59.5673 34.2688 59.3107 33.9638 59.3107 33.5625C59.3107 33.4501 59.3268 33.3217 59.3588 33.1933L59.5833 32.3907C59.6154 32.2783 59.6314 32.1659 59.6314 32.0696C59.6314 31.7807 59.439 31.6202 59.2306 31.6202C58.9099 31.6202 58.6854 31.877 58.5732 32.3907L58.1243 34.2046H57.3065L57.7715 32.3907C57.8036 32.2623 57.8196 32.1338 57.8196 32.0375C57.8196 31.7968 57.6433 31.6202 57.4188 31.6202C57.0981 31.6202 56.8736 31.877 56.7454 32.3907L56.2964 34.2046H55.4787L56.104 31.6844Z" fill="#A7ADBE"/>
<path d="M62.5976 29.5495H62.0043L62.1807 28.8753H63.5435L62.9182 31.5881C63.1587 31.251 63.5756 30.962 63.9444 30.962C64.714 30.962 65.0828 31.4757 65.0828 32.2141C65.0828 33.3217 64.3452 34.2688 63.3832 34.2688C62.9663 34.2688 62.5655 33.9638 62.4693 33.5946L62.2609 34.2206H61.5073L62.5976 29.5495ZM64.249 32.3265C64.249 31.9412 64.0406 31.6362 63.6397 31.6362C63.0786 31.6362 62.5976 32.1981 62.5976 32.8883C62.5976 33.3056 62.806 33.5625 63.2549 33.5625C63.8001 33.5625 64.249 32.9685 64.249 32.3265Z" fill="#A7ADBE"/>
<path d="M66.5738 32.8883V32.9365C66.5738 33.2896 66.8624 33.6106 67.4717 33.6106C67.7924 33.6106 68.1291 33.5304 68.5299 33.3217L68.3696 34.044C68.0329 34.2046 67.7603 34.2688 67.2793 34.2688C66.4937 34.2688 65.7722 33.7872 65.7722 32.9044C65.7722 31.8128 66.5418 30.962 67.5038 30.962C68.3215 30.962 68.8827 31.3955 68.8827 32.1981C68.8827 32.4067 68.8506 32.6315 68.7704 32.8883H66.5738ZM66.67 32.3265H68.097C68.1131 32.2462 68.1291 32.1659 68.1291 32.1017C68.1291 31.7807 67.9207 31.6041 67.5359 31.6041C67.135 31.6202 66.8143 31.8931 66.67 32.3265Z" fill="#A7ADBE"/>
<path d="M70.2295 31.6844H69.6523L69.8287 31.0102H71.0793L70.8709 31.9412C71.2396 31.267 71.6245 30.946 72.0093 30.946C72.2818 30.946 72.5384 31.1547 72.5384 31.4757C72.5384 31.7486 72.3139 31.9733 72.0413 31.9733C71.7848 31.9733 71.5924 31.7968 71.5603 31.6041C71.3198 31.6844 70.951 32.0857 70.7907 32.7438L70.4219 34.1885H69.6042L70.2295 31.6844Z" fill="#A7ADBE"/>
<path d="M74.6388 32.8241C74.6388 31.877 75.3924 30.962 76.4506 30.962C77.4126 30.962 77.9577 31.6362 77.9577 32.4067C77.9577 33.3538 77.2041 34.2688 76.1459 34.2688C75.1679 34.2688 74.6388 33.5946 74.6388 32.8241ZM77.14 32.4067C77.14 31.8931 76.8033 31.6202 76.4185 31.6202C75.8894 31.6202 75.4405 32.1338 75.4405 32.808C75.4405 33.3217 75.7772 33.5946 76.162 33.5946C76.7071 33.6106 77.14 33.097 77.14 32.4067Z" fill="#A7ADBE"/>
<path d="M79.2244 31.6843H78.6633L78.8396 31.0101H79.3687L79.5291 30.352C79.6573 29.8062 79.8337 29.4691 80.0742 29.2284C80.3788 28.9234 80.7636 28.811 81.1164 28.811C81.5974 28.811 81.8219 29.0999 81.8219 29.3568C81.8219 29.6618 81.5974 29.8383 81.3248 29.8383C81.1004 29.8383 80.908 29.6778 80.8759 29.5012C80.7957 29.5333 80.7156 29.5815 80.6674 29.6297C80.5231 29.7741 80.4109 30.0149 80.3147 30.4162L80.1704 31.0101H81.0042L80.8278 31.6843H80.0101L79.4329 34.2045H78.6312L79.2244 31.6843Z" fill="#A7ADBE"/>
<path d="M83.2809 32.198C83.2809 30.641 84.5155 29.3408 86.0387 29.3408C87.0327 29.3408 87.7703 29.9187 87.7703 30.5768C87.7703 30.9139 87.5298 31.2028 87.2091 31.2028C86.9365 31.2028 86.7121 30.9781 86.7121 30.7052C86.7121 30.5607 86.7762 30.4484 86.8564 30.3681C86.7602 30.2397 86.4395 30.1113 86.0387 30.1113C85.0446 30.1113 84.1467 30.9941 84.1467 32.1659C84.1467 32.9846 84.6277 33.5625 85.4294 33.5625C85.8944 33.5625 86.3433 33.3698 86.7441 32.9364L87.2572 33.4341C86.7121 34.0601 86.0868 34.3169 85.3653 34.3169C84.2108 34.3009 83.2809 33.5304 83.2809 32.198Z" fill="#A7ADBE"/>
<path d="M88.091 32.8241C88.091 31.877 88.8445 30.962 89.9027 30.962C90.8647 30.962 91.4099 31.6362 91.4099 32.4067C91.4099 33.3538 90.6563 34.2688 89.5981 34.2688C88.6361 34.2688 88.091 33.5946 88.091 32.8241ZM90.5922 32.4067C90.5922 31.8931 90.2555 31.6202 89.8707 31.6202C89.3416 31.6202 88.8926 32.1338 88.8926 32.808C88.8926 33.3217 89.2293 33.5946 89.6141 33.5946C90.1593 33.6106 90.5922 33.097 90.5922 32.4067Z" fill="#A7ADBE"/>
<path d="M92.7247 31.6844H92.1474L92.3238 31.0102H93.5744L93.4141 31.7486C93.6386 31.3473 94.0234 30.962 94.4402 30.962C94.8892 30.962 95.1938 31.2831 95.2419 31.7486C95.5145 31.267 95.9153 30.962 96.2841 30.962C96.733 30.962 97.1018 31.2831 97.1018 31.9091C97.1018 32.0696 97.0858 32.2462 97.0216 32.4388L96.7811 33.2735C96.7651 33.3538 96.7491 33.4341 96.7491 33.4983C96.7491 33.6427 96.8132 33.723 96.9094 33.723C97.0056 33.723 97.1499 33.6427 97.3263 33.1933L97.6469 33.3217C97.4545 33.9798 97.1178 34.2688 96.6849 34.2688C96.1879 34.2688 95.9313 33.9638 95.9313 33.5625C95.9313 33.4501 95.9474 33.3217 95.9795 33.1933L96.2039 32.3907C96.236 32.2783 96.252 32.1659 96.252 32.0696C96.252 31.7807 96.0596 31.6202 95.8512 31.6202C95.5305 31.6202 95.306 31.877 95.1938 32.3907L94.7449 34.2046H93.9272L94.3921 32.3907C94.4242 32.2623 94.4402 32.1338 94.4402 32.0375C94.4402 31.7968 94.2639 31.6202 94.0394 31.6202C93.7187 31.6202 93.4943 31.877 93.366 32.3907L92.917 34.2046H92.0993L92.7247 31.6844Z" fill="#A7ADBE"/>
<path d="M98.8493 31.6844H98.2721L98.4485 31.0102H99.6991L99.5388 31.7486C99.7633 31.3473 100.148 30.962 100.565 30.962C101.014 30.962 101.319 31.2831 101.367 31.7486C101.639 31.267 102.04 30.962 102.409 30.962C102.858 30.962 103.227 31.2831 103.227 31.9091C103.227 32.0696 103.21 32.2462 103.146 32.4388L102.906 33.2735C102.89 33.3538 102.874 33.4341 102.874 33.4983C102.874 33.6427 102.938 33.723 103.034 33.723C103.146 33.723 103.275 33.6427 103.451 33.1933L103.772 33.3217C103.579 33.9798 103.243 34.2688 102.81 34.2688C102.313 34.2688 102.056 33.9638 102.056 33.5625C102.056 33.4501 102.072 33.3217 102.104 33.1933L102.329 32.3907C102.361 32.2783 102.377 32.1659 102.377 32.0696C102.377 31.7807 102.184 31.6202 101.976 31.6202C101.655 31.6202 101.431 31.877 101.319 32.3907L100.87 34.2046H100.052L100.517 32.3907C100.549 32.2623 100.565 32.1338 100.565 32.0375C100.565 31.7968 100.389 31.6202 100.164 31.6202C99.8434 31.6202 99.6189 31.877 99.4907 32.3907L99.0417 34.2046H98.224L98.8493 31.6844Z" fill="#A7ADBE"/>
<path d="M105.183 32.8883V32.9365C105.183 33.2896 105.471 33.6106 106.08 33.6106C106.401 33.6106 106.738 33.5304 107.139 33.3217L106.978 34.044C106.642 34.2046 106.369 34.2688 105.888 34.2688C105.102 34.2688 104.381 33.7872 104.381 32.9044C104.381 31.8128 105.151 30.962 106.113 30.962C106.93 30.962 107.491 31.3955 107.491 32.1981C107.491 32.4067 107.459 32.6315 107.379 32.8883H105.183ZM105.279 32.3265H106.706C106.722 32.2462 106.738 32.1659 106.738 32.1017C106.738 31.7807 106.529 31.6041 106.145 31.6041C105.744 31.6202 105.423 31.8931 105.279 32.3265Z" fill="#A7ADBE"/>
<path d="M108.838 31.6844H108.261L108.437 31.0102H109.688L109.48 31.9412C109.848 31.267 110.233 30.946 110.618 30.946C110.891 30.946 111.147 31.1547 111.147 31.4757C111.147 31.7486 110.923 31.9733 110.65 31.9733C110.394 31.9733 110.201 31.7968 110.169 31.6041C109.929 31.6844 109.56 32.0857 109.4 32.7438L109.031 34.1885H108.213L108.838 31.6844Z" fill="#A7ADBE"/>
<path d="M111.5 32.8241C111.5 31.7967 112.382 30.962 113.408 30.962C114.049 30.962 114.61 31.3473 114.61 31.9091C114.61 32.2302 114.434 32.487 114.113 32.487C113.857 32.487 113.648 32.2783 113.648 32.0215C113.648 31.9091 113.696 31.7968 113.761 31.7165C113.664 31.6523 113.52 31.6202 113.376 31.6202C112.911 31.6202 112.302 31.9412 112.302 32.7599C112.302 33.3056 112.67 33.6106 113.135 33.6106C113.504 33.6106 113.889 33.4822 114.21 33.2575V33.9638C113.905 34.1725 113.52 34.2848 113.087 34.2848C112.205 34.2688 111.5 33.723 111.5 32.8241Z" fill="#A7ADBE"/>
<path d="M116.053 32.8883V32.9365C116.053 33.2896 116.342 33.6106 116.951 33.6106C117.272 33.6106 117.609 33.5304 118.01 33.3217L117.849 34.044C117.512 34.2046 117.24 34.2688 116.759 34.2688C115.973 34.2688 115.252 33.7872 115.252 32.9044C115.252 31.8128 116.021 30.962 116.983 30.962C117.801 30.962 118.362 31.3955 118.362 32.1981C118.362 32.4067 118.33 32.6315 118.25 32.8883H116.053ZM116.134 32.3265H117.561C117.577 32.2462 117.593 32.1659 117.593 32.1017C117.593 31.7807 117.384 31.6041 116.999 31.6041C116.615 31.6202 116.294 31.8931 116.134 32.3265Z" fill="#A7ADBE"/>
<path d="M31.8201 17.3922H30.6977V31.6303H31.8201V17.3922Z" fill="#A7ADBE"/>
<path d="M34.658 17.3922H33.5356V31.6303H34.658V17.3922Z" fill="#A7ADBE"/>
<path d="M34.658 15.6424H27.8598V16.7661H34.658V15.6424Z" fill="#A7ADBE"/>
<path d="M27.8598 15.0004L31.307 8.19434L34.658 15.0004H27.8598ZM32.7821 13.8768L31.291 10.8269L29.7517 13.8768H32.7821Z" fill="#A7ADBE"/>
<path d="M31.8201 5.01597H30.6977V7.55219H31.8201V5.01597Z" fill="#A7ADBE"/>
<path d="M34.6419 33.2997H12.6279V34.4234H34.6419V33.2997Z" fill="#A7ADBE"/>
<path d="M8.02632 32.3044C8.02632 32.7539 8.39509 33.1231 8.84403 33.1231C9.29297 33.1231 9.66174 32.7539 9.66174 32.3044H10.7841C10.7841 32.7539 11.1529 33.2997 11.6018 33.2997H11.7782V34.4233H11.6018C11.0887 34.4233 10.5757 34.2146 10.2229 33.8294C9.85414 34.2146 9.35711 34.4233 8.84403 34.4233C8.33096 34.4233 7.81789 34.2146 7.44912 33.8294C7.08035 34.2146 6.58331 34.4233 6.07024 34.4233C5.55716 34.4233 5.04409 34.2146 4.69135 33.8294C4.32258 34.2146 3.82554 34.4233 3.29644 34.4233C2.76733 34.4233 2.27029 34.2146 1.91756 33.8294C1.54879 34.2146 1.05175 34.4233 0.538673 34.4233H0.362305V33.2997H0.538673C0.987611 33.2997 1.35638 32.7539 1.35638 32.3044H2.47873C2.47873 32.7539 2.8475 33.1231 3.29644 33.1231C3.74538 33.1231 4.11415 32.7539 4.11415 32.3044H5.23649C5.23649 32.7539 5.60526 33.1231 6.0542 33.1231C6.50314 33.1231 6.87191 32.7539 6.87191 32.3044" fill="#A7ADBE"/>
<path d="M8.18667 20.5062H7.06432V28.1951H8.18667V20.5062Z" fill="#A7ADBE"/>
<path d="M10.9605 20.5062H9.83814V27.1197H10.9605V20.5062Z" fill="#A7ADBE"/>
<path d="M7.06432 18.0984V15.177L9.02041 13.1062L10.9765 15.177V18.0984H7.06432ZM9.82208 16.9748V15.6104L9.02041 14.7596L8.21873 15.6104V16.9748H9.82208Z" fill="#A7ADBE"/>
<path d="M10.9605 18.7405H7.06432V19.8641H10.9605V18.7405Z" fill="#A7ADBE"/>
<path d="M9.06853 12.4481C8.63562 12.4481 8.26685 12.095 8.26685 11.6455C8.26685 11.2121 8.61959 10.8429 9.06853 10.8429C9.50143 10.8429 9.8702 11.1961 9.8702 11.6455C9.85417 12.095 9.50143 12.4481 9.06853 12.4481Z" fill="#A7ADBE"/>
<path d="M12.6279 31.6303C12.6279 30.4585 11.6339 29.4954 10.4314 29.4954C9.22884 29.4954 8.23476 30.4585 8.23476 31.6303H7.08035C7.08035 31.1167 6.71157 30.7314 6.26264 30.7314C5.79766 30.7314 5.44493 31.1327 5.44493 31.6303H4.32258V31.4538C4.32258 30.3301 5.20443 29.4151 6.27867 29.4151C6.72761 29.4151 7.16051 29.5757 7.51325 29.8807C8.10649 28.8373 9.21281 28.1791 10.4474 28.1791C11.2651 28.1791 12.0507 28.4681 12.66 28.9978V5H13.7824V28.6768C14.1511 28.0186 14.568 27.4247 15.033 26.911V5H16.1553V25.8195C16.5562 25.4824 16.9891 25.1935 17.4059 24.9366V5H18.5283V24.3909C18.9291 24.2143 19.346 24.0698 19.7789 23.9414V5H20.9012V23.6525C21.3021 23.5722 21.7189 23.508 22.1358 23.4598H22.1518V5H23.2742V18.9492H27.2505V20.0729H23.2742V21.1323H27.2505V22.2559H23.2742V23.3635C23.4826 23.3475 23.7071 23.3475 23.9155 23.3475C25.583 23.3475 26.9779 23.5883 27.8598 23.813V17.3922H28.9821V31.6303H27.8598V27.0234C27.1543 26.7826 25.7915 26.4134 24.0438 26.4134C23.8514 26.4134 23.659 26.4134 23.4666 26.4295C19.9072 26.606 17.3739 28.436 16.0431 31.6464H14.9849C16.7005 26.6542 20.773 25.3379 23.8354 25.3379C25.5349 25.3379 27.0581 25.659 27.8758 25.8837V25.0008C27.1383 24.8082 25.6953 24.5032 23.8995 24.5032C23.3383 24.5032 22.7772 24.5353 22.232 24.5995C17.7907 25.0971 14.9368 27.5371 13.6862 31.6624H12.6279V31.6303Z" fill="#A7ADBE"/>
<path d="M7.51327 11.4208C7.54533 11.18 7.65756 10.9392 7.8179 10.7466L7.88204 10.6663L5.52511 9.55873L5.12427 10.4095L7.49723 11.5331L7.51327 11.4208Z" fill="#A7ADBE"/>
<path d="M7.86597 12.4962L7.7858 12.416C7.62546 12.2233 7.52926 11.9826 7.49719 11.7418V11.6294L5.04406 12.5123L5.36474 13.3951L7.86597 12.4962Z" fill="#A7ADBE"/>
<path d="M41.9304 9.49456C41.9304 6.89414 43.7743 5 46.4358 5C47.8788 5 48.921 5.38525 49.6425 6.21995L48.4079 7.43991C47.959 6.99045 47.462 6.6373 46.4358 6.6373C44.8325 6.6373 43.8063 7.87331 43.8063 9.51062C43.8063 11.1479 44.8645 12.416 46.7244 12.416C47.3016 12.416 47.9911 12.3197 48.4561 12.095V10.7787H46.3236V9.18958H50.1075V12.9939C49.5944 13.4113 48.3278 14.0212 46.7244 14.0212C43.8384 14.0212 41.9304 12.095 41.9304 9.49456Z" fill="#A7ADBE"/>
<path d="M58.8457 13.8928H56.7454L55.2863 11.6616C55.1099 11.6937 54.9336 11.6937 54.7732 11.6937H54.1479V13.8767H52.3361V5.09628H54.7732C57.2424 5.09628 58.7175 6.26808 58.7175 8.41905C58.7175 9.78348 58.1082 10.6503 57.0179 11.1479L58.8457 13.8928ZM54.7251 10.1366C56.2002 10.1366 56.8576 9.67111 56.8576 8.4351C56.8576 7.1991 56.1842 6.70149 54.7251 6.70149H54.1479V10.1366H54.7251Z" fill="#A7ADBE"/>
<path d="M66.6061 5.09628V6.68543H62.5817V9.49454H66.1251V11.0516H62.5817V12.3197H66.7824V13.9088H60.7538V5.09628H66.6061Z" fill="#A7ADBE"/>
<path d="M72.1215 5.03183H72.2819L76.3223 13.9086H74.4143L73.9975 12.9134H70.4059L69.9891 13.9086H68.2414L72.1215 5.03183ZM73.3401 11.3884L72.6987 9.8635C72.4422 9.23747 72.1696 8.2904 72.1696 8.2904C72.1696 8.2904 71.9131 9.25352 71.6566 9.8635L71.0152 11.3884H73.3401Z" fill="#A7ADBE"/>
<path d="M78.8076 6.70149H76.2903V5.09628H83.1366V6.68543H80.6194V13.8928H78.8076V6.70149Z" fill="#A7ADBE"/>
<path d="M90.5602 5.09628V6.68543H86.5358V9.49454H90.0792V11.0516H86.5358V12.3197H90.7366V13.9088H84.708V5.09628H90.5602Z" fill="#A7ADBE"/>
<path d="M99.3947 13.8928H97.2943L95.8353 11.6616C95.6589 11.6937 95.4825 11.6937 95.3222 11.6937H94.6969V13.8767H92.8851V5.09628H95.3222C97.7914 5.09628 99.2664 6.28413 99.2664 8.4351C99.2664 9.79953 98.6572 10.6663 97.5669 11.1639L99.3947 13.8928ZM95.2741 10.1366C96.7492 10.1366 97.4066 9.67111 97.4066 8.4351C97.4066 7.1991 96.7331 6.70149 95.2741 6.70149H94.6969V10.1366H95.2741Z" fill="#A7ADBE"/>
</g>
</svg>
