<svg width="118" height="30" viewBox="0 0 118 30" fill="none" xmlns="http://www.w3.org/2000/svg">
<g opacity="0.8">
<path d="M48.1098 20.7772H46.0095L44.5504 18.5459C44.374 18.5781 44.1977 18.5781 44.0373 18.5781H43.412V20.7611H41.6003V11.9807H44.0373C46.5065 11.9807 47.9816 13.1525 47.9816 15.3034C47.9816 16.6679 47.3723 17.5347 46.282 18.0323L48.1098 20.7772ZM43.9732 17.021C45.4483 17.021 46.1057 16.5555 46.1057 15.3195C46.1057 14.0835 45.4323 13.5859 43.9732 13.5859H43.396V17.021H43.9732Z" fill="#00718E"/>
<path d="M49.5368 16.3788C49.5368 13.7784 51.5571 11.8682 54.1064 11.8682C56.6557 11.8682 58.6759 13.7784 58.6759 16.3788C58.6759 18.9792 56.6557 20.8894 54.1064 20.8894C51.5571 20.9055 49.5368 18.9792 49.5368 16.3788ZM56.8 16.3788C56.8 14.7415 55.7097 13.4734 54.1064 13.4734C52.503 13.4734 51.4128 14.7254 51.4128 16.3788C51.4128 18.0161 52.503 19.2681 54.1064 19.2681C55.7097 19.2842 56.8 18.0321 56.8 16.3788Z" fill="#00718E"/>
<path d="M60.2311 16.3787C60.2311 13.7783 62.2353 11.8842 64.7686 11.8842C66.3719 11.8842 67.5103 12.446 68.296 13.682L66.901 14.6612C66.4842 13.987 65.7787 13.5054 64.7525 13.5054C63.1492 13.5054 62.0749 14.7414 62.0749 16.3787C62.0749 18.016 63.1492 19.2681 64.7525 19.2681C65.8909 19.2681 66.5323 18.7223 67.0293 17.9679L68.4403 18.931C67.6706 20.1189 66.4521 20.8733 64.7525 20.8733C62.2353 20.9054 60.2311 18.9792 60.2311 16.3787Z" fill="#00718E"/>
<path d="M70.1719 11.9807H71.9837V16.4752H75.7676V11.9807H77.5794V20.7772H75.7676V18.1125H71.9837V20.7932H70.1719V11.9807Z" fill="#00718E"/>
<path d="M85.8205 11.9807V13.5698H81.7961V16.3629H85.3395V17.9199H81.7961V19.188H85.9969V20.7772H79.9683V11.9807H85.8205Z" fill="#00718E"/>
<path d="M87.3919 19.0434L88.867 18.1927C89.2518 18.8187 89.7649 19.2842 90.6628 19.2842C91.4163 19.2842 91.8973 18.915 91.8973 18.3853C91.8973 17.7593 91.4003 17.5506 90.5666 17.1814L90.1176 16.9888C88.8029 16.4269 87.9371 15.7367 87.9371 14.2599C87.9371 12.8955 88.9793 11.8682 90.5986 11.8682C91.753 11.8682 92.5868 12.2695 93.18 13.3128L91.7691 14.2118C91.4644 13.6499 91.1277 13.4413 90.5986 13.4413C90.0695 13.4413 89.7328 13.7784 89.7328 14.2118C89.7328 14.7575 90.0695 14.9823 90.8552 15.3033L91.3041 15.4959C92.8433 16.1541 93.7252 16.8282 93.7252 18.3371C93.7252 19.9744 92.4425 20.8573 90.7109 20.8573C89.0273 20.9055 87.9371 20.1029 87.3919 19.0434Z" fill="#00718E"/>
<path d="M97.3487 13.5858H94.8315V11.9967H101.678V13.5858H99.1605V20.7932H97.3487V13.5858Z" fill="#00718E"/>
<path d="M109.101 11.9807V13.5698H105.077V16.3629H108.62V17.9199H105.077V19.188H109.278V20.7772H103.249V11.9807H109.101Z" fill="#00718E"/>
<path d="M117.936 20.7772H115.835L114.376 18.5459C114.2 18.5781 114.024 18.5781 113.863 18.5781H113.238V20.7611H111.426V11.9807H113.863C116.332 11.9807 117.808 13.1525 117.808 15.3034C117.808 16.6679 117.198 17.5347 116.108 18.0323L117.936 20.7772ZM113.815 17.021C115.29 17.021 115.948 16.5555 115.948 15.3195C115.948 14.0835 115.274 13.5859 113.815 13.5859H113.238V17.021H113.815Z" fill="#00718E"/>
<path d="M41.5681 27.198C41.5681 25.6409 42.8027 24.3407 44.3259 24.3407C45.32 24.3407 46.0575 24.9186 46.0575 25.5767C46.0575 25.9138 45.817 26.2028 45.4963 26.2028C45.2238 26.2028 44.9993 25.978 44.9993 25.7051C44.9993 25.5607 45.0634 25.4483 45.1436 25.3681C45.0474 25.2396 44.7267 25.1112 44.3259 25.1112C43.3318 25.1112 42.4339 25.9941 42.4339 27.1659C42.4339 27.9845 42.9149 28.5624 43.7166 28.5624C44.1816 28.5624 44.6305 28.3698 45.0314 27.9364L45.5444 28.434C44.9993 29.06 44.374 29.3169 43.6525 29.3169C42.4981 29.3008 41.5681 28.5303 41.5681 27.198Z" fill="#00718E"/>
<path d="M47.3563 24.5494H46.7631L46.9394 23.8752H48.3023L47.677 26.6041C47.9015 26.267 48.2702 25.962 48.655 25.962C49.12 25.962 49.5048 26.283 49.5048 26.9091C49.5048 27.0696 49.4888 27.2462 49.4246 27.4388L49.1841 28.2735C49.1681 28.3537 49.1521 28.434 49.1521 28.4982C49.1521 28.6427 49.2162 28.7229 49.3124 28.7229C49.4246 28.7229 49.5529 28.6427 49.7293 28.1932L50.0499 28.3216C49.8575 28.9798 49.5208 29.2687 49.0879 29.2687C48.5909 29.2687 48.3344 28.9637 48.3344 28.5624C48.3344 28.4501 48.3504 28.3216 48.3825 28.1932L48.623 27.3264C48.655 27.2301 48.655 27.1498 48.655 27.0696C48.655 26.7967 48.4947 26.6201 48.2221 26.6201C47.8854 26.6201 47.6449 26.8448 47.5166 27.3425L47.0837 29.1885H46.266L47.3563 24.5494Z" fill="#00718E"/>
<path d="M50.6913 28.0327C50.6913 26.9251 51.4288 25.962 52.3587 25.962C52.7756 25.962 53.1284 26.3151 53.2566 26.6683L53.4811 26.0101H54.2347L53.6895 28.1772C53.6575 28.3216 53.6254 28.434 53.6254 28.5143C53.6254 28.6427 53.6735 28.7069 53.7857 28.7069C53.8819 28.7069 54.0262 28.6266 54.2026 28.1772L54.5233 28.3056C54.2988 29.06 53.898 29.2527 53.5452 29.2527C53.1284 29.2527 52.8879 28.9637 52.8879 28.5303C52.6313 28.9156 52.2305 29.2527 51.7334 29.2527C51.1242 29.2687 50.6913 28.7711 50.6913 28.0327ZM53.1123 27.3425C53.1123 26.9251 52.9039 26.6683 52.487 26.6683C51.9579 26.6683 51.525 27.2622 51.525 27.9203C51.525 28.3056 51.7174 28.5945 52.1022 28.5945C52.6313 28.5945 53.1123 28.0327 53.1123 27.3425Z" fill="#00718E"/>
<path d="M55.7417 26.6843H55.1645L55.3409 26.0101H56.5915L56.4312 26.7485C56.6557 26.3472 57.0405 25.962 57.4573 25.962C57.9063 25.962 58.2109 26.283 58.259 26.7485C58.5316 26.267 58.9324 25.962 59.3012 25.962C59.7501 25.962 60.1189 26.283 60.1189 26.9091C60.1189 27.0696 60.1029 27.2462 60.0387 27.4388L59.7982 28.2735C59.7822 28.3537 59.7662 28.434 59.7662 28.4982C59.7662 28.6427 59.8303 28.7229 59.9265 28.7229C60.0387 28.7229 60.167 28.6427 60.3434 28.1932L60.664 28.3216C60.4716 28.9798 60.1349 29.2687 59.702 29.2687C59.205 29.2687 58.9484 28.9637 58.9484 28.5624C58.9484 28.4501 58.9645 28.3216 58.9965 28.1932L59.221 27.3906C59.2531 27.2783 59.2691 27.1659 59.2691 27.0696C59.2691 26.7806 59.0767 26.6201 58.8683 26.6201C58.5476 26.6201 58.3231 26.877 58.2109 27.3906L57.762 29.2045H56.9443L57.4092 27.3906C57.4413 27.2622 57.4573 27.1338 57.4573 27.0375C57.4573 26.7967 57.281 26.6201 57.0565 26.6201C56.7358 26.6201 56.5114 26.877 56.3831 27.3906L55.9341 29.2045H55.1164L55.7417 26.6843Z" fill="#00718E"/>
<path d="M62.2353 24.5494H61.642L61.8184 23.8752H63.1813L62.5559 26.588C62.7964 26.2509 63.2133 25.962 63.5821 25.962C64.3517 25.962 64.7205 26.4756 64.7205 27.214C64.7205 28.3216 63.9829 29.2687 63.0209 29.2687C62.604 29.2687 62.2032 28.9637 62.107 28.5945L61.8986 29.2206H61.145L62.2353 24.5494ZM63.8867 27.3264C63.8867 26.9412 63.6783 26.6362 63.2775 26.6362C62.7163 26.6362 62.2353 27.198 62.2353 27.8882C62.2353 28.3056 62.4437 28.5624 62.8926 28.5624C63.4378 28.5624 63.8867 27.9685 63.8867 27.3264Z" fill="#00718E"/>
<path d="M66.2116 27.8882V27.9364C66.2116 28.2895 66.5002 28.6106 67.1094 28.6106C67.4301 28.6106 67.7668 28.5303 68.1676 28.3216L68.0073 29.044C67.6706 29.2045 67.398 29.2687 66.917 29.2687C66.1314 29.2687 65.4099 28.7872 65.4099 27.9043C65.4099 26.8127 66.1795 25.962 67.1415 25.962C67.9592 25.962 68.5204 26.3954 68.5204 27.198C68.5204 27.4067 68.4883 27.6314 68.4081 27.8882H66.2116ZM66.3078 27.3264H67.7347C67.7508 27.2461 67.7668 27.1659 67.7668 27.1017C67.7668 26.7806 67.5584 26.6041 67.1736 26.6041C66.7727 26.6201 66.4521 26.893 66.3078 27.3264Z" fill="#00718E"/>
<path d="M69.8672 26.6843H69.29L69.4664 26.0101H70.717L70.5086 26.9412C70.8774 26.267 71.2622 25.9459 71.647 25.9459C71.9195 25.9459 72.1761 26.1546 72.1761 26.4757C72.1761 26.7485 71.9516 26.9733 71.679 26.9733C71.4225 26.9733 71.2301 26.7967 71.198 26.6041C70.9575 26.6843 70.5887 27.0856 70.4284 27.7438L70.0596 29.1885H69.2419L69.8672 26.6843Z" fill="#00718E"/>
<path d="M74.2765 27.824C74.2765 26.877 75.0301 25.962 76.0883 25.962C77.0503 25.962 77.5954 26.6362 77.5954 27.4067C77.5954 28.3537 76.8419 29.2687 75.7836 29.2687C74.8056 29.2687 74.2765 28.5945 74.2765 27.824ZM76.7777 27.4067C76.7777 26.893 76.441 26.6201 76.0562 26.6201C75.5271 26.6201 75.0782 27.1338 75.0782 27.808C75.0782 28.3216 75.4149 28.5945 75.7997 28.5945C76.3448 28.6106 76.7777 28.0969 76.7777 27.4067Z" fill="#00718E"/>
<path d="M78.8621 26.6843H78.301L78.4773 26.0101H79.0064L79.1668 25.3519C79.295 24.8062 79.4714 24.4691 79.7119 24.2283C80.0166 23.9233 80.4014 23.8109 80.7541 23.8109C81.2351 23.8109 81.4596 24.0999 81.4596 24.3567C81.4596 24.6617 81.2351 24.8383 80.9625 24.8383C80.7381 24.8383 80.5457 24.6778 80.5136 24.5012C80.4334 24.5333 80.3533 24.5814 80.3052 24.6296C80.1609 24.7741 80.0486 25.0148 79.9524 25.4161L79.8081 26.0101H80.6419L80.4655 26.6843H79.6478L79.0706 29.2044H78.2689L78.8621 26.6843Z" fill="#00718E"/>
<path d="M82.9186 27.198C82.9186 25.6409 84.1532 24.3407 85.6764 24.3407C86.6705 24.3407 87.408 24.9186 87.408 25.5767C87.408 25.9138 87.1675 26.2028 86.8468 26.2028C86.5743 26.2028 86.3498 25.978 86.3498 25.7051C86.3498 25.5607 86.4139 25.4483 86.4941 25.3681C86.3979 25.2396 86.0772 25.1112 85.6764 25.1112C84.6823 25.1112 83.7844 25.9941 83.7844 27.1659C83.7844 27.9845 84.2654 28.5624 85.0671 28.5624C85.5321 28.5624 85.981 28.3698 86.3818 27.9364L86.8949 28.434C86.3498 29.06 85.7245 29.3169 85.003 29.3169C83.8486 29.3008 82.9186 28.5303 82.9186 27.198Z" fill="#00718E"/>
<path d="M87.7287 27.824C87.7287 26.877 88.4822 25.962 89.5404 25.962C90.5025 25.962 91.0476 26.6362 91.0476 27.4067C91.0476 28.3537 90.294 29.2687 89.2358 29.2687C88.2738 29.2687 87.7287 28.5945 87.7287 27.824ZM90.2299 27.4067C90.2299 26.893 89.8932 26.6201 89.5084 26.6201C88.9793 26.6201 88.5303 27.1338 88.5303 27.808C88.5303 28.3216 88.867 28.5945 89.2518 28.5945C89.797 28.6106 90.2299 28.0969 90.2299 27.4067Z" fill="#00718E"/>
<path d="M92.3624 26.6843H91.7852L91.9615 26.0101H93.2121L93.0518 26.7485C93.2763 26.3472 93.6611 25.962 94.0779 25.962C94.5269 25.962 94.8315 26.283 94.8796 26.7485C95.1522 26.267 95.553 25.962 95.9218 25.962C96.3707 25.962 96.7395 26.283 96.7395 26.9091C96.7395 27.0696 96.7235 27.2462 96.6593 27.4388L96.4188 28.2735C96.4028 28.3537 96.3868 28.434 96.3868 28.4982C96.3868 28.6427 96.4509 28.7229 96.5471 28.7229C96.6433 28.7229 96.7876 28.6427 96.964 28.1932L97.2846 28.3216C97.0922 28.9798 96.7555 29.2687 96.3226 29.2687C95.8256 29.2687 95.5691 28.9637 95.5691 28.5624C95.5691 28.4501 95.5851 28.3216 95.6172 28.1932L95.8416 27.3906C95.8737 27.2783 95.8897 27.1659 95.8897 27.0696C95.8897 26.7806 95.6973 26.6201 95.4889 26.6201C95.1682 26.6201 94.9437 26.877 94.8315 27.3906L94.3826 29.2045H93.5649L94.0298 27.3906C94.0619 27.2622 94.0779 27.1338 94.0779 27.0375C94.0779 26.7967 93.9016 26.6201 93.6771 26.6201C93.3564 26.6201 93.132 26.877 93.0037 27.3906L92.5548 29.2045H91.7371L92.3624 26.6843Z" fill="#00718E"/>
<path d="M98.487 26.6843H97.9098L98.0862 26.0101H99.3368L99.1765 26.7485C99.401 26.3472 99.7858 25.962 100.203 25.962C100.652 25.962 100.956 26.283 101.004 26.7485C101.277 26.267 101.678 25.962 102.046 25.962C102.495 25.962 102.864 26.283 102.864 26.9091C102.864 27.0696 102.848 27.2462 102.784 27.4388L102.544 28.2735C102.528 28.3537 102.511 28.434 102.511 28.4982C102.511 28.6427 102.576 28.7229 102.672 28.7229C102.784 28.7229 102.912 28.6427 103.089 28.1932L103.409 28.3216C103.217 28.9798 102.88 29.2687 102.447 29.2687C101.95 29.2687 101.694 28.9637 101.694 28.5624C101.694 28.4501 101.71 28.3216 101.742 28.1932L101.966 27.3906C101.998 27.2783 102.014 27.1659 102.014 27.0696C102.014 26.7806 101.822 26.6201 101.614 26.6201C101.293 26.6201 101.068 26.877 100.956 27.3906L100.507 29.2045H99.6896L100.155 27.3906C100.187 27.2622 100.203 27.1338 100.203 27.0375C100.203 26.7967 100.026 26.6201 99.8018 26.6201C99.4811 26.6201 99.2567 26.877 99.1284 27.3906L98.6795 29.2045H97.8618L98.487 26.6843Z" fill="#00718E"/>
<path d="M104.82 27.8882V27.9364C104.82 28.2895 105.109 28.6106 105.718 28.6106C106.039 28.6106 106.376 28.5303 106.776 28.3216L106.616 29.044C106.279 29.2045 106.007 29.2687 105.526 29.2687C104.74 29.2687 104.019 28.7872 104.019 27.9043C104.019 26.8127 104.788 25.962 105.75 25.962C106.568 25.962 107.129 26.3954 107.129 27.198C107.129 27.4067 107.097 27.6314 107.017 27.8882H104.82ZM104.917 27.3264H106.343C106.36 27.2461 106.376 27.1659 106.376 27.1017C106.376 26.7806 106.167 26.6041 105.782 26.6041C105.381 26.6201 105.061 26.893 104.917 27.3264Z" fill="#00718E"/>
<path d="M108.476 26.6843H107.899L108.075 26.0101H109.326L109.117 26.9412C109.486 26.267 109.871 25.9459 110.256 25.9459C110.528 25.9459 110.785 26.1546 110.785 26.4757C110.785 26.7485 110.56 26.9733 110.288 26.9733C110.031 26.9733 109.839 26.7967 109.807 26.6041C109.566 26.6843 109.198 27.0856 109.037 27.7438L108.668 29.1885H107.851L108.476 26.6843Z" fill="#00718E"/>
<path d="M111.138 27.824C111.138 26.7967 112.019 25.962 113.046 25.962C113.687 25.962 114.248 26.3472 114.248 26.9091C114.248 27.2301 114.072 27.4869 113.751 27.4869C113.495 27.4869 113.286 27.2783 113.286 27.0214C113.286 26.9091 113.334 26.7967 113.398 26.7164C113.302 26.6522 113.158 26.6201 113.014 26.6201C112.549 26.6201 111.939 26.9412 111.939 27.7598C111.939 28.3056 112.308 28.6106 112.773 28.6106C113.142 28.6106 113.527 28.4822 113.847 28.2574V28.9637C113.543 29.1724 113.158 29.2848 112.725 29.2848C111.843 29.2687 111.138 28.7229 111.138 27.824Z" fill="#00718E"/>
<path d="M115.691 27.8882V27.9364C115.691 28.2895 115.98 28.6106 116.589 28.6106C116.91 28.6106 117.246 28.5303 117.647 28.3216L117.487 29.044C117.15 29.2045 116.878 29.2687 116.397 29.2687C115.611 29.2687 114.889 28.7872 114.889 27.9043C114.889 26.8127 115.659 25.962 116.621 25.962C117.439 25.962 118 26.3954 118 27.198C118 27.4067 117.968 27.6314 117.888 27.8882H115.691ZM115.771 27.3264H117.198C117.214 27.2461 117.23 27.1659 117.23 27.1017C117.23 26.7806 117.022 26.6041 116.637 26.6041C116.252 26.6201 115.932 26.893 115.771 27.3264Z" fill="#00718E"/>
<path d="M31.4578 12.3922H30.3354V26.6303H31.4578V12.3922Z" fill="#00718E"/>
<path d="M34.2957 12.3922H33.1733V26.6303H34.2957V12.3922Z" fill="#00718E"/>
<path d="M34.2957 10.6424H27.4975V11.7661H34.2957V10.6424Z" fill="#00718E"/>
<path d="M27.4975 10.0004L30.9447 3.19434L34.2957 10.0004H27.4975ZM32.4198 8.87676L30.9287 5.82687L29.3894 8.87676H32.4198Z" fill="#00718E"/>
<path d="M31.4578 0.0159709H30.3354V2.55219H31.4578V0.0159709Z" fill="#00718E"/>
<path d="M34.2796 28.2997H12.2656V29.4234H34.2796V28.2997Z" fill="#00718E"/>
<path d="M7.66402 27.3044C7.66402 27.7539 8.03279 28.1231 8.48173 28.1231C8.93067 28.1231 9.29944 27.7539 9.29944 27.3044H10.4218C10.4218 27.7539 10.7906 28.2997 11.2395 28.2997H11.4159V29.4233H11.2395C10.7264 29.4233 10.2133 29.2146 9.86061 28.8294C9.49184 29.2146 8.9948 29.4233 8.48173 29.4233C7.96866 29.4233 7.45558 29.2146 7.08681 28.8294C6.71804 29.2146 6.221 29.4233 5.70793 29.4233C5.19486 29.4233 4.68179 29.2146 4.32905 28.8294C3.96028 29.2146 3.46324 29.4233 2.93413 29.4233C2.40503 29.4233 1.90799 29.2146 1.55525 28.8294C1.18648 29.2146 0.689441 29.4233 0.176368 29.4233H0V28.2997H0.176368C0.625307 28.2997 0.994077 27.7539 0.994077 27.3044H2.11643C2.11643 27.7539 2.48519 28.1231 2.93413 28.1231C3.38307 28.1231 3.75184 27.7539 3.75184 27.3044H4.87419C4.87419 27.7539 5.24296 28.1231 5.6919 28.1231C6.14083 28.1231 6.50961 27.7539 6.50961 27.3044" fill="#00718E"/>
<path d="M7.82436 15.5062H6.70201V23.1951H7.82436V15.5062Z" fill="#00718E"/>
<path d="M10.5982 15.5062H9.47584V22.1197H10.5982V15.5062Z" fill="#00718E"/>
<path d="M6.70201 13.0984V10.177L8.6581 8.10625L10.6142 10.177V13.0984H6.70201ZM9.45978 11.9748V10.6104L8.6581 9.7596L7.85643 10.6104V11.9748H9.45978Z" fill="#00718E"/>
<path d="M10.5982 13.7405H6.70201V14.8641H10.5982V13.7405Z" fill="#00718E"/>
<path d="M8.70622 7.44813C8.27332 7.44813 7.90454 7.09499 7.90454 6.64553C7.90454 6.21213 8.25728 5.84293 8.70622 5.84293C9.13913 5.84293 9.50789 6.19608 9.50789 6.64553C9.49186 7.09499 9.13913 7.44813 8.70622 7.44813Z" fill="#00718E"/>
<path d="M12.2656 26.6303C12.2656 25.4585 11.2716 24.4954 10.069 24.4954C8.86653 24.4954 7.87245 25.4585 7.87245 26.6303H6.71804C6.71804 26.1167 6.34927 25.7314 5.90033 25.7314C5.43536 25.7314 5.08262 26.1327 5.08262 26.6303H3.96028V26.4538C3.96028 25.3301 4.84212 24.4151 5.91637 24.4151C6.36531 24.4151 6.79821 24.5757 7.15095 24.8807C7.74419 23.8373 8.8505 23.1791 10.0851 23.1791C10.9028 23.1791 11.6884 23.4681 12.2977 23.9978V0H13.4201V23.6768C13.7888 23.0186 14.2057 22.4247 14.6707 21.911V0H15.793V20.8195C16.1939 20.4824 16.6268 20.1935 17.0436 19.9366V0H18.166V19.3909C18.5668 19.2143 18.9837 19.0698 19.4166 18.9414V0H20.5389V18.6525C20.9398 18.5722 21.3566 18.508 21.7735 18.4598H21.7895V0H22.9119V13.9492H26.8882V15.0729H22.9119V16.1323H26.8882V17.2559H22.9119V18.3635C23.1203 18.3475 23.3448 18.3475 23.5532 18.3475C25.2207 18.3475 26.6156 18.5883 27.4975 18.813V12.3922H28.6198V26.6303H27.4975V22.0234C26.792 21.7826 25.4292 21.4134 23.6815 21.4134C23.4891 21.4134 23.2967 21.4134 23.1043 21.4295C19.5449 21.606 17.0116 23.436 15.6808 26.6464H14.6226C16.3382 21.6542 20.4107 20.3379 23.4731 20.3379C25.1726 20.3379 26.6958 20.659 27.5135 20.8837V20.0008C26.776 19.8082 25.333 19.5032 23.5372 19.5032C22.976 19.5032 22.4149 19.5353 21.8697 19.5995C17.4284 20.0971 14.5745 22.5371 13.3239 26.6624H12.2656V26.6303Z" fill="#00718E"/>
<path d="M7.15096 6.42077C7.18303 6.17999 7.29526 5.93921 7.45559 5.74659L7.51973 5.66633L5.1628 4.55873L4.76197 5.40949L7.13493 6.53314L7.15096 6.42077Z" fill="#00718E"/>
<path d="M7.50366 7.49623L7.42349 7.41597C7.26316 7.22335 7.16696 6.98257 7.13489 6.74178V6.62942L4.68176 7.51228L5.00243 8.39515L7.50366 7.49623Z" fill="#00718E"/>
<path d="M41.5681 4.49456C41.5681 1.89414 43.412 0 46.0735 0C47.5166 0 48.5587 0.385248 49.2802 1.21995L48.0457 2.43991C47.5967 1.99045 47.0997 1.6373 46.0735 1.6373C44.4702 1.6373 43.4441 2.87331 43.4441 4.51062C43.4441 6.14792 44.5023 7.41603 46.3621 7.41603C46.9393 7.41603 47.6288 7.31972 48.0938 7.09499V5.77873H45.9613V4.18958H49.7452V7.99391C49.2321 8.41126 47.9655 9.02123 46.3621 9.02123C43.4761 9.02123 41.5681 7.09499 41.5681 4.49456Z" fill="#00718E"/>
<path d="M58.4835 8.89279H56.3831L54.924 6.66156C54.7477 6.69367 54.5713 6.69366 54.4109 6.69366H53.7856V8.87674H51.9739V0.0962815H54.4109C56.8801 0.0962815 58.3552 1.26808 58.3552 3.41905C58.3552 4.78348 57.7459 5.65028 56.6556 6.1479L58.4835 8.89279ZM54.3628 5.13662C55.8379 5.13662 56.4953 4.67111 56.4953 3.4351C56.4953 2.1991 55.8219 1.70149 54.3628 1.70149H53.7856V5.13662H54.3628Z" fill="#00718E"/>
<path d="M66.2438 0.0962815V1.68543H62.2194V4.49454H65.7628V6.05158H62.2194V7.31969H66.4202V8.90884H60.3915V0.0962815H66.2438Z" fill="#00718E"/>
<path d="M71.7592 0.0318337H71.9196L75.96 8.9086H74.052L73.6352 7.91338H70.0437L69.6268 8.9086H67.8791L71.7592 0.0318337ZM72.9778 6.38844L72.3365 4.8635C72.0799 4.23747 71.8073 3.2904 71.8073 3.2904C71.8073 3.2904 71.5508 4.25352 71.2943 4.8635L70.6529 6.38844H72.9778Z" fill="#00718E"/>
<path d="M78.4453 1.70149H75.928V0.0962815H82.7744V1.68543H80.2571V8.89279H78.4453V1.70149Z" fill="#00718E"/>
<path d="M90.1979 0.0962815V1.68543H86.1735V4.49454H89.7169V6.05158H86.1735V7.31969H90.3743V8.90884H84.3457V0.0962815H90.1979Z" fill="#00718E"/>
<path d="M99.0324 8.89279H96.932L95.473 6.66156C95.2966 6.69367 95.1202 6.69366 94.9599 6.69366H94.3346V8.87674H92.5228V0.0962815H94.9599C97.4291 0.0962815 98.9042 1.28413 98.9042 3.4351C98.9042 4.79953 98.2949 5.66633 97.2046 6.16394L99.0324 8.89279ZM94.9118 5.13662C96.3869 5.13662 97.0443 4.67111 97.0443 3.4351C97.0443 2.1991 96.3708 1.70149 94.9118 1.70149H94.3346V5.13662H94.9118Z" fill="#00718E"/>
</g>
</svg>
