<svg width="168" height="40" viewBox="0 0 168 40" fill="none" xmlns="http://www.w3.org/2000/svg">
<g clip-path="url(#clip0_2437_10843)">
<path fill-rule="evenodd" clip-rule="evenodd" d="M47.8688 28.1375C48.4689 28.1375 48.994 28.0812 49.4535 27.9781C49.8942 27.8656 50.3255 27.7156 50.7381 27.5281V24.9031H48.919C48.7713 24.911 48.6265 24.8605 48.5158 24.7625C48.4673 24.7168 48.429 24.6616 48.4031 24.6002C48.3773 24.5389 48.3646 24.4728 48.3657 24.4062V22.9062H53.1761V28.7281C52.4398 29.2494 51.6223 29.6453 50.7568 29.9C50.3068 30.0312 49.8192 30.125 49.3128 30.1812C48.8064 30.2469 48.2438 30.275 47.6531 30.275C46.5935 30.275 45.6277 30.0969 44.7462 29.7312C43.8831 29.3802 43.0995 28.859 42.4422 28.1986C41.7849 27.5382 41.2673 26.7522 40.9205 25.8875C40.5488 24.9446 40.3641 23.9384 40.3766 22.925C40.3766 21.8469 40.5641 20.8437 40.9111 19.9437C41.2479 19.0656 41.7672 18.2689 42.4348 17.6063C43.1024 16.9437 43.903 16.4303 44.7837 16.1C45.7027 15.7437 46.7529 15.5656 47.8969 15.5656C49.0784 15.5656 50.1005 15.7437 50.9725 16.0906C51.8352 16.4375 52.5666 16.8875 53.1667 17.45L52.3884 18.6687C52.229 18.9125 52.0321 19.0344 51.7695 19.0344C51.5948 19.0308 51.4251 18.9753 51.2819 18.875L50.6256 18.5C49.7562 18.054 48.7894 17.8317 47.8125 17.8531C47.0998 17.8531 46.4528 17.9656 45.8715 18.2094C45.3103 18.4353 44.8071 18.7845 44.3993 19.2312C43.9821 19.6936 43.6631 20.2358 43.4616 20.825C43.2366 21.4531 43.1334 22.1563 43.1334 22.925C43.1203 23.6801 43.2377 24.4317 43.4804 25.1469C43.6735 25.7448 43.9964 26.2926 44.426 26.7513C44.8556 27.2099 45.3812 27.568 45.9652 27.8C46.5372 28.0344 47.1842 28.1469 47.8594 28.1469L47.8688 28.1375ZM55.4172 29.6281V19.5875H56.8331C57.0769 19.5875 57.255 19.625 57.3488 19.7187C57.4426 19.8125 57.5176 19.9719 57.5457 20.1875L57.6958 21.4062C58.0521 20.7875 58.474 20.2906 58.9523 19.9344C59.4399 19.5781 59.9837 19.4 60.5839 19.4C61.0808 19.4 61.484 19.5125 61.8122 19.7375L61.5028 21.5562C61.4747 21.6687 61.4371 21.7437 61.3715 21.8C61.2941 21.8522 61.2022 21.8784 61.109 21.875C61.0152 21.875 60.8745 21.8562 60.7058 21.8094C60.485 21.7548 60.258 21.7296 60.0306 21.7344C59.5336 21.7344 59.1023 21.875 58.746 22.1562C58.3803 22.4375 58.0896 22.8406 57.827 23.375V29.6281H55.4172ZM63.0969 29.9563H65.6005V19.775H63.0969V29.9563ZM65.9756 16.8031C65.9756 17.0187 65.9381 17.2156 65.8443 17.4031C65.7505 17.5906 65.6474 17.75 65.4974 17.8906C65.194 18.1795 64.7911 18.3406 64.3721 18.3406C63.9532 18.3406 63.5503 18.1795 63.2469 17.8906C63.103 17.7502 62.9855 17.5851 62.9 17.4031C62.8131 17.2134 62.7681 17.0071 62.7681 16.7984C62.7681 16.5897 62.8131 16.3835 62.9 16.1937C62.9798 15.9994 63.0976 15.823 63.2466 15.6749C63.3957 15.5268 63.5728 15.41 63.7677 15.3314C63.9625 15.2528 64.1711 15.2139 64.3812 15.2171C64.5913 15.2203 64.7986 15.2655 64.991 15.35C65.2779 15.4686 65.5239 15.6685 65.6988 15.9249C65.8737 16.1814 65.9699 16.4834 65.9756 16.7937V16.8031ZM71.8174 28.0344C72.3237 28.0344 72.7551 27.9312 73.102 27.7156C73.4584 27.5094 73.7959 27.2188 74.1054 26.825V22.325C73.8754 22.0293 73.579 21.792 73.2401 21.6323C72.9012 21.4727 72.5294 21.3952 72.155 21.4062C71.7893 21.4062 71.4611 21.4719 71.161 21.6125C70.8703 21.7437 70.6171 21.95 70.4109 22.2312C70.1952 22.5125 70.0358 22.8594 69.9326 23.2906C69.8201 23.7219 69.7639 24.2281 69.7639 24.8094C69.7639 25.4 69.8107 25.8969 69.9045 26.3C69.9983 26.7125 70.1389 27.05 70.3077 27.3031C70.4953 27.5563 70.7015 27.7437 70.9641 27.8656C71.2173 27.9687 71.508 28.0344 71.8174 28.0344ZM75.0524 29.8062C74.7336 29.8062 74.5367 29.6656 74.4336 29.3656L74.2366 28.3906C73.6593 29.101 72.8713 29.6099 71.9862 29.8437C71.6605 29.9205 71.3268 29.9583 70.9922 29.9563C70.439 29.9563 69.9326 29.8437 69.4732 29.6094C69.0231 29.3844 68.6292 29.0469 68.2917 28.6156C67.9357 28.1315 67.6748 27.5844 67.5228 27.0031C67.1493 25.6008 67.1623 24.1237 67.5603 22.7281C67.7666 22.0906 68.0573 21.5281 68.4323 21.0594C68.8074 20.5906 69.2763 20.2156 69.8014 19.9531C70.3358 19.7 70.9266 19.5594 71.5923 19.5594C72.056 19.5516 72.5166 19.6354 72.9479 19.806C73.3791 19.9765 73.7724 20.2304 74.1054 20.5531V15.2375H76.534V29.8062H75.0524ZM94.2751 22.7562C94.2751 21.9594 94.1626 21.2562 93.9563 20.6281C93.7671 20.0395 93.4573 19.4967 93.0467 19.0344C92.652 18.5941 92.1611 18.2509 91.6121 18.0312C91.0096 17.7923 90.366 17.6745 89.7179 17.6844H86.9049V27.8187H89.7179C90.4212 27.8187 91.0494 27.7062 91.6121 27.4719C92.1747 27.2375 92.6529 26.9094 93.0467 26.4687C93.4584 26.0072 93.7683 25.4642 93.9563 24.875C94.1626 24.2469 94.2751 23.5437 94.2751 22.7562ZM97.0132 22.7562C97.0132 23.8062 96.835 24.7812 96.4881 25.6625C96.1532 26.5183 95.6432 27.2947 94.9909 27.9421C94.3386 28.5894 93.5582 29.0934 92.6998 29.4219C91.7996 29.7781 90.8056 29.9563 89.7179 29.9563H84.2137V15.5562H89.7179C90.7367 15.5444 91.7485 15.7258 92.6998 16.0906C93.5906 16.4469 94.3595 16.9344 95.0065 17.5719C95.6348 18.2094 96.1317 18.9687 96.4881 19.8406C96.835 20.7312 97.0132 21.6969 97.0132 22.7469M102.433 32.6281C102.374 32.7783 102.277 32.9107 102.152 33.0125C102.039 33.1062 101.861 33.1531 101.627 33.1531H99.8262L101.702 29.0938L97.6508 19.7187H99.7606C99.9575 19.7187 100.108 19.7562 100.211 19.85C100.314 19.9437 100.398 20.0469 100.445 20.1687L102.583 25.4187C102.723 25.7705 102.83 26.1346 102.902 26.5063L103.08 25.9437L103.277 25.4094L105.293 20.1687C105.345 20.037 105.436 19.9238 105.552 19.8436C105.669 19.7634 105.808 19.72 105.949 19.7187H107.89L102.433 32.6281ZM108.847 29.9563V19.8687H110.366C110.685 19.8687 110.9 20.0187 110.994 20.3094L111.163 21.1062C111.567 20.6946 112.035 20.3525 112.551 20.0938C113.108 19.8247 113.723 19.6959 114.342 19.7187C114.856 19.7087 115.366 19.8044 115.842 20C116.273 20.1875 116.63 20.4406 116.92 20.7781C117.211 21.125 117.436 21.5281 117.577 21.9969C117.736 22.4656 117.811 22.9719 117.811 23.5344V29.9563H115.336V23.5344C115.336 22.925 115.186 22.4469 114.895 22.1094C114.614 21.7719 114.173 21.6031 113.582 21.6031C113.16 21.6031 112.757 21.6969 112.391 21.8844C112.016 22.0719 111.66 22.3344 111.322 22.6625V29.9563H108.847ZM123.053 28.2594C123.492 28.2762 123.928 28.1793 124.319 27.9781C124.506 27.8937 124.694 27.7812 124.863 27.65C125.031 27.5094 125.21 27.3594 125.378 27.1812V25.4656C124.675 25.4656 124.094 25.5125 123.625 25.5969C123.156 25.6906 122.781 25.8031 122.5 25.9437C122.209 26.0844 122.003 26.2531 121.89 26.4406C121.768 26.6281 121.703 26.825 121.703 27.05C121.703 27.4812 121.834 27.8 122.078 27.9875C122.331 28.175 122.659 28.2687 123.053 28.2687V28.2594ZM127.732 29.7969H126.644C126.46 29.8038 126.276 29.7652 126.11 29.6844C125.978 29.6187 125.885 29.4781 125.819 29.2625L125.603 28.5406C125.35 28.775 125.106 28.9812 124.853 29.15C124.121 29.7045 123.22 29.9893 122.303 29.9563C121.89 29.9563 121.496 29.8906 121.14 29.7687C120.784 29.6562 120.484 29.4875 120.221 29.2531C119.959 29.0106 119.754 28.7128 119.621 28.3813C119.48 28.0344 119.405 27.6312 119.405 27.1719C119.405 26.7969 119.508 26.4125 119.705 26.0281C119.902 25.6531 120.23 25.3156 120.699 25.0156C121.159 24.7156 121.768 24.4531 122.537 24.2656C123.468 24.0473 124.422 23.9465 125.378 23.9656V23.3656C125.378 22.6719 125.238 22.1656 124.956 21.8281C124.675 21.5 124.262 21.3312 123.728 21.3312C123.144 21.3152 122.569 21.4752 122.078 21.7906L121.553 22.1C121.384 22.1937 121.206 22.2406 121.018 22.2406C120.867 22.2447 120.718 22.1986 120.596 22.1094C120.484 22.025 120.39 21.9219 120.315 21.7906L119.874 21.0125C120.992 19.9483 122.485 19.3687 124.028 19.4C124.609 19.4 125.135 19.4937 125.594 19.6812C126.053 19.8875 126.438 20.15 126.747 20.5063C127.066 20.8531 127.31 21.2656 127.479 21.7531C127.648 22.2406 127.732 22.7656 127.732 23.3469V29.7969ZM129.964 29.9563V19.8687H131.473C131.792 19.8687 131.998 20.0187 132.102 20.3094L132.261 21.0594C132.608 20.6771 133.013 20.3513 133.461 20.0938C133.943 19.8464 134.476 19.7179 135.018 19.7187C135.674 19.7187 136.199 19.8875 136.612 20.225C137.034 20.5719 137.343 21.0312 137.55 21.6031C137.845 20.9853 138.332 20.4791 138.937 20.1594C139.463 19.905 140.033 19.7574 140.616 19.7252C141.198 19.693 141.782 19.7769 142.332 19.9719C142.773 20.1406 143.148 20.3937 143.448 20.7219C143.748 21.0406 143.973 21.4438 144.132 21.9125C144.292 22.3813 144.367 22.925 144.367 23.5344V29.9563H141.9V23.5344C141.9 22.8969 141.76 22.4094 141.469 22.0812C141.188 21.7625 140.766 21.6031 140.213 21.6031C139.959 21.6031 139.725 21.6406 139.509 21.725C139.289 21.8082 139.089 21.9386 138.923 22.1069C138.758 22.2753 138.632 22.4777 138.553 22.7C138.459 22.9437 138.412 23.225 138.412 23.5437V29.9563H135.927V23.5344C135.927 22.8594 135.796 22.3719 135.515 22.0625C135.233 21.7531 134.83 21.5938 134.296 21.5938C133.939 21.5938 133.611 21.6875 133.292 21.8656C132.992 22.0344 132.702 22.2687 132.43 22.5687V29.9563H129.964ZM146.289 29.9563H148.792V19.775H146.289V29.9563ZM149.168 16.8031C149.168 17.0187 149.121 17.2156 149.036 17.3937C148.866 17.7701 148.557 18.0658 148.174 18.2187C147.788 18.3799 147.354 18.3839 146.965 18.2297C146.576 18.0756 146.263 17.7756 146.092 17.3937C146.008 17.2032 145.965 16.9973 145.965 16.7891C145.965 16.5809 146.008 16.3749 146.092 16.1844C146.253 15.8087 146.557 15.5121 146.936 15.3594C147.177 15.2565 147.44 15.2145 147.702 15.237C147.963 15.2594 148.215 15.3457 148.436 15.4883C148.656 15.6308 148.838 15.8252 148.965 16.0545C149.093 16.2837 149.162 16.5408 149.168 16.8031ZM158.329 22.0437C158.263 22.1375 158.188 22.2125 158.123 22.2594C158.048 22.3156 157.944 22.3437 157.813 22.3437C157.679 22.3414 157.548 22.2989 157.438 22.2219C157.3 22.1335 157.159 22.0491 157.016 21.9688C156.579 21.7116 156.079 21.5817 155.572 21.5938C155.131 21.5938 154.756 21.6688 154.428 21.8281C154.109 21.9875 153.828 22.2031 153.612 22.5031C153.397 22.7937 153.237 23.15 153.134 23.5625C153.021 23.9844 152.975 24.4531 152.975 24.9781C152.975 25.5219 153.031 26.0094 153.143 26.4406C153.265 26.8625 153.425 27.2188 153.65 27.5094C153.864 27.796 154.145 28.0261 154.469 28.1797C154.793 28.3332 155.149 28.4056 155.506 28.3906C156.065 28.4076 156.615 28.2432 157.072 27.9219L157.513 27.6125C157.635 27.5188 157.766 27.4719 157.926 27.4719C158.123 27.4719 158.273 27.5469 158.376 27.6969L159.088 28.5969C158.585 29.1913 157.936 29.6438 157.204 29.9094C156.857 30.05 156.5 30.1438 156.135 30.1906C155.769 30.2469 155.403 30.275 155.047 30.275C154.439 30.2754 153.837 30.1527 153.278 29.9142C152.719 29.6758 152.214 29.3265 151.793 28.8875C151.359 28.4007 151.025 27.8338 150.809 27.2188C150.565 26.5625 150.443 25.8125 150.443 24.9781C150.443 24.2281 150.555 23.525 150.771 22.8875C150.96 22.2689 151.284 21.6995 151.718 21.2199C152.152 20.7403 152.687 20.3622 153.284 20.1125C153.962 19.8362 154.69 19.7022 155.422 19.7187C156.182 19.7187 156.857 19.8312 157.429 20.0844C158.01 20.3281 158.526 20.6844 158.985 21.1437L158.329 22.0437ZM166.731 21.875C166.679 21.9616 166.608 22.0353 166.524 22.0906C166.438 22.1379 166.341 22.1606 166.243 22.1562C166.106 22.1547 165.972 22.1226 165.849 22.0625L165.38 21.8375C164.936 21.6133 164.443 21.5007 163.946 21.5094C163.458 21.5094 163.074 21.6125 162.792 21.8187C162.511 22.025 162.37 22.2875 162.37 22.6344C162.37 22.85 162.436 23.0281 162.586 23.1781C162.727 23.3281 162.924 23.4594 163.158 23.5812C163.392 23.6844 163.664 23.7969 163.964 23.8812L164.883 24.1719C165.202 24.2844 165.512 24.3969 165.812 24.5469C166.112 24.6687 166.374 24.8469 166.618 25.0531C166.873 25.2793 167.076 25.5584 167.212 25.8709C167.348 26.1834 167.414 26.5218 167.406 26.8625C167.406 27.3594 167.312 27.8188 167.124 28.2312C166.956 28.6438 166.684 29.0094 166.337 29.3094C165.99 29.6094 165.558 29.8531 165.052 30.0219C164.148 30.306 163.187 30.3576 162.258 30.1719C161.615 30.048 160.995 29.8267 160.42 29.5156C160.172 29.3704 159.94 29.2008 159.726 29.0094L160.289 28.0719C160.355 27.9683 160.445 27.8817 160.551 27.8187C160.678 27.7518 160.821 27.72 160.964 27.7266C161.108 27.7332 161.247 27.778 161.367 27.8562C161.715 28.0938 162.093 28.2831 162.492 28.4187C162.727 28.5031 163.036 28.55 163.411 28.55C163.702 28.55 163.955 28.5125 164.161 28.4375C164.377 28.3719 164.555 28.2781 164.686 28.1562C164.827 28.0531 164.93 27.9219 164.986 27.7719C165.052 27.6219 165.08 27.4625 165.08 27.3031C165.089 27.09 165.015 26.8817 164.874 26.7219C164.724 26.5625 164.536 26.4406 164.302 26.3187C164.038 26.1982 163.765 26.0979 163.486 26.0187C163.177 25.925 162.867 25.8313 162.548 25.7188C162.232 25.612 161.922 25.4868 161.62 25.3438C161.325 25.2045 161.053 25.0212 160.814 24.8C160.571 24.5726 160.376 24.2983 160.242 23.9937C160.087 23.6296 160.013 23.2361 160.026 22.8406C160.026 22.4262 160.114 22.0164 160.283 21.6383C160.453 21.2602 160.701 20.9223 161.011 20.6469C161.329 20.3656 161.742 20.1406 162.23 19.9719C162.771 19.7923 163.338 19.7066 163.908 19.7187C164.611 19.7187 165.258 19.8312 165.84 20.0656C166.421 20.3 166.899 20.6 167.293 20.9844L166.731 21.8656V21.875Z" fill="#A7ADBE"/>
<path fill-rule="evenodd" clip-rule="evenodd" d="M28.1116 24.1906C28.2897 26.0937 28.2522 28.025 27.9803 29.9094C24.8953 33.425 14.2525 35.1594 7.49175 34.6625C6.5149 33.2481 5.93824 31.5962 5.82266 29.8812C14.4119 31.5031 23.6013 28.8781 28.1116 24.1906Z" fill="#A7ADBE"/>
<path fill-rule="evenodd" clip-rule="evenodd" d="M30.5121 20.3188C28.918 12.7625 20.4788 5.65625 14.6745 5C14.2056 5.3 13.8212 5.675 13.5023 6.10625C16.878 6.41563 19.8224 8.675 23.2075 12.2938C25.833 15.1063 27.5959 19.6063 28.0272 24.3313C28.196 26.2063 28.1585 28.1188 27.8959 29.975C29.1017 28.7105 29.9726 27.165 30.4294 25.4787C30.8863 23.7925 30.9147 22.0188 30.5121 20.3188Z" fill="#A7ADBE"/>
<path fill-rule="evenodd" clip-rule="evenodd" d="M20.9851 25.7938L20.7038 25.7281C19.2035 25.0906 17.6657 23.6281 16.3342 21.7531C20.8351 16.3625 18.3408 12.275 15.1902 11.4406C14.2588 11.1636 13.2595 11.2233 12.3677 11.6094C13.2585 11.1875 14.2337 10.8594 15.2277 10.8031C17.5813 10.6813 20.0474 11.3281 21.6228 13.625C23.6388 16.7938 23.2356 22.5031 20.9851 25.7938Z" fill="#A7ADBE"/>
<path fill-rule="evenodd" clip-rule="evenodd" d="M15.7059 10.7938C14.9089 11.4969 13.718 12.5469 12.8929 13.4375C12.6959 12.6875 12.6209 11.8156 12.5459 11.0938C12.5459 11.075 12.5553 11.075 12.5647 11.075C13.8305 10.7938 14.7682 10.7938 15.7059 10.7938ZM5.94456 29.9188C5.66325 26.2906 7.17294 22.325 9.339 18.7813C9.15147 17.1125 9.0952 15.4438 9.10458 13.9531C5.54135 17.2438 1.26548 23.6094 0.759127 28.4C0.47782 30.9031 1.24673 32.975 3.66597 33.9688C4.67868 34.325 6.04771 34.5594 7.63241 34.6719C6.64606 33.2714 6.06232 31.6275 5.94456 29.9188Z" fill="#A7ADBE"/>
<path fill-rule="evenodd" clip-rule="evenodd" d="M20.9007 25.4844C19.4098 24.8563 17.9001 23.4125 16.5874 21.5469C14.9455 19.2021 13.7445 16.5781 13.0429 13.8031C12.8553 13.025 12.7053 12.2469 12.6303 11.5063C12.4146 9.38752 12.6959 7.47502 13.6711 6.15315C13.99 5.7219 14.3838 5.3469 14.862 5.0469C13.0991 4.8594 11.5801 5.2344 10.5674 6.38752C9.79847 7.2594 9.32025 8.55315 9.25461 10.3625C8.95102 13.1982 8.95102 16.0581 9.25461 18.8938C9.95788 25.1375 12.424 31.3438 19.1941 27.4719C19.9939 26.9902 20.6736 26.333 21.182 25.55L20.9007 25.4844Z" fill="#A7ADBE"/>
</g>
<defs>
<clipPath id="clip0_2437_10843">
<rect width="166.909" height="30" fill="white" transform="translate(0.702881 5)"/>
</clipPath>
</defs>
</svg>
