<svg width="505" height="564" viewBox="0 0 505 564" fill="none" xmlns="http://www.w3.org/2000/svg">
<path d="M434.352 261.435C434.352 260.413 434.344 259.393 434.326 258.375L433.826 258.383C433.792 256.353 433.724 254.331 433.622 252.317L434.121 252.292C434.018 250.252 433.88 248.221 433.709 246.199L433.21 246.241C433.039 244.215 432.833 242.199 432.593 240.193L433.09 240.134C432.849 238.112 432.573 236.101 432.265 234.101L431.771 234.177C431.461 232.166 431.117 230.166 430.74 228.178L431.231 228.085C430.851 226.083 430.438 224.092 429.992 222.114L429.504 222.224C429.057 220.244 428.577 218.277 428.065 216.322L428.548 216.196C428.032 214.224 427.482 212.266 426.9 210.322L426.421 210.466C425.838 208.52 425.223 206.588 424.576 204.671L425.05 204.511C424.399 202.583 423.716 200.669 423.002 198.771L422.534 198.947C421.819 197.047 421.072 195.163 420.294 193.294L420.756 193.102C419.974 191.222 419.16 189.359 418.315 187.512L417.861 187.72C417.017 185.875 416.142 184.047 415.238 182.236L415.685 182.013C414.776 180.193 413.837 178.391 412.868 176.608L412.429 176.846C411.46 175.063 410.462 173.298 409.434 171.552L409.865 171.299C408.834 169.545 407.773 167.811 406.684 166.097L406.262 166.365C405.174 164.654 404.058 162.962 402.914 161.291L403.327 161.009C402.178 159.331 401.001 157.673 399.797 156.036L399.394 156.333C398.193 154.699 396.964 153.087 395.708 151.497L396.1 151.187C394.841 149.592 393.554 148.018 392.241 146.467L391.86 146.79C390.55 145.243 389.214 143.718 387.853 142.217L388.224 141.881C386.859 140.375 385.468 138.892 384.053 137.434L383.694 137.782C382.283 136.327 380.847 134.897 379.387 133.491L379.733 133.131C378.27 131.721 376.782 130.336 375.27 128.976L374.936 129.348C373.43 127.993 371.9 126.663 370.347 125.359L370.669 124.976C369.113 123.67 367.535 122.389 365.935 121.135L365.627 121.528C364.032 120.279 362.415 119.055 360.778 117.86L361.072 117.456C359.432 116.258 357.77 115.087 356.087 113.944L355.806 114.357C354.131 113.22 352.436 112.109 350.721 111.028L350.987 110.605C349.27 109.522 347.532 108.467 345.776 107.441L345.524 107.873C343.774 106.851 342.006 105.858 340.22 104.895L340.457 104.455C338.67 103.492 336.865 102.558 335.043 101.655L334.821 102.103C333.008 101.204 331.177 100.335 329.329 99.4963L329.536 99.041C327.687 98.202 325.821 97.3934 323.939 96.616L323.749 97.0781C321.878 96.3055 319.992 95.5636 318.09 94.8533L318.265 94.3849C316.365 93.6753 314.45 92.997 312.52 92.3507L312.361 92.8248C310.443 92.1822 308.51 91.5714 306.562 90.9928L306.705 90.5135C304.76 89.9354 302.8 89.3895 300.828 88.8764L300.702 89.3602C298.747 88.8516 296.778 88.3752 294.798 87.9316L294.907 87.4437C292.928 87.0007 290.938 86.5904 288.935 86.2135L288.842 86.7048C286.854 86.3305 284.853 85.9891 282.842 85.6812L282.917 85.187C280.917 84.8808 278.906 84.6077 276.884 84.3683L276.825 84.8648C274.819 84.6272 272.803 84.4228 270.777 84.2523L270.819 83.754C268.797 83.5838 266.765 83.4472 264.725 83.3447L264.7 83.844C262.687 83.7429 260.665 83.675 258.634 83.641L258.643 83.1411C257.625 83.124 256.605 83.1155 255.583 83.1155C254.561 83.1155 253.54 83.124 252.522 83.1411L252.531 83.641C250.5 83.675 248.478 83.7429 246.465 83.844L246.44 83.3447C244.4 83.4472 242.368 83.5838 240.346 83.754L240.388 84.2523C238.362 84.4229 236.346 84.6272 234.34 84.8648L234.281 84.3683C232.26 84.6077 230.248 84.8808 228.248 85.187L228.323 85.6812C226.312 85.9891 224.311 86.3305 222.323 86.7049L222.23 86.2135C220.227 86.5905 218.237 87.0007 216.258 87.4437L216.367 87.9316C214.387 88.3752 212.418 88.8516 210.463 89.3603L210.337 88.8764C208.365 89.3895 206.406 89.9354 204.46 90.5135L204.603 90.9928C202.656 91.5714 200.722 92.1823 198.804 92.8248L198.645 92.3507C196.715 92.997 194.8 93.6753 192.9 94.3849L193.075 94.8533C191.173 95.5636 189.287 96.3055 187.417 97.0782L187.226 96.616C185.344 97.3934 183.478 98.202 181.629 99.041L181.836 99.4963C179.988 100.335 178.158 101.204 176.344 102.103L176.122 101.655C174.3 102.558 172.495 103.492 170.708 104.455L170.945 104.895C169.159 105.858 167.391 106.851 165.642 107.873L165.389 107.441C163.633 108.467 161.895 109.522 160.178 110.605L160.444 111.028C158.729 112.109 157.034 113.22 155.359 114.357L155.078 113.944C153.395 115.087 151.733 116.258 150.093 117.456L150.387 117.86C148.75 119.056 147.133 120.279 145.538 121.528L145.23 121.135C143.63 122.389 142.052 123.67 140.496 124.976L140.818 125.359C139.265 126.663 137.736 127.993 136.229 129.348L135.895 128.976C134.383 130.336 132.895 131.721 131.432 133.131L131.778 133.491C130.318 134.897 128.882 136.327 127.471 137.782L127.112 137.434C125.697 138.892 124.306 140.375 122.941 141.881L123.312 142.217C121.951 143.718 120.615 145.243 119.305 146.79L118.924 146.467C117.611 148.018 116.325 149.592 115.065 151.187L115.457 151.497C114.201 153.087 112.972 154.699 111.771 156.333L111.368 156.036C110.164 157.673 108.987 159.331 107.838 161.009L108.251 161.291C107.107 162.962 105.991 164.654 104.903 166.366L104.481 166.097C103.392 167.812 102.331 169.545 101.3 171.299L101.731 171.552C100.703 173.298 99.705 175.063 98.7363 176.846L98.2969 176.608C97.3281 178.391 96.3889 180.193 95.4799 182.013L95.9272 182.236C95.0227 184.047 94.1482 185.875 93.3044 187.72L92.8497 187.513C92.0053 189.359 91.1915 191.223 90.4091 193.102L90.8707 193.294C90.093 195.163 89.3463 197.047 88.6313 198.947L88.1634 198.771C87.4489 200.669 86.766 202.583 86.1153 204.511L86.589 204.671C85.942 206.588 85.3269 208.52 84.7442 210.466L84.2653 210.322C83.6832 212.266 83.1334 214.224 82.6166 216.196L83.1003 216.322C82.5879 218.277 82.1081 220.244 81.6613 222.225L81.1736 222.114C80.7273 224.092 80.314 226.083 79.9343 228.085L80.4255 228.178C80.0484 230.166 79.7045 232.166 79.3944 234.177L78.9002 234.101C78.5917 236.101 78.3166 238.112 78.0753 240.134L78.5718 240.193C78.3324 242.199 78.1265 244.215 77.9546 246.241L77.4564 246.199C77.2849 248.221 77.1472 250.252 77.0439 252.292L77.5433 252.317C77.4413 254.331 77.373 256.353 77.3387 258.383L76.8388 258.375C76.8216 259.393 76.813 260.413 76.813 261.435C76.813 262.457 76.8216 263.477 76.8388 264.495L77.3387 264.487C77.373 266.517 77.4413 268.539 77.5433 270.552L77.0439 270.577C77.1472 272.618 77.2849 274.649 77.4564 276.671L77.9546 276.629C78.1265 278.654 78.3324 280.671 78.5718 282.677L78.0753 282.736C78.3166 284.757 78.5917 286.769 78.9002 288.769L79.3944 288.693C79.7045 290.704 80.0484 292.704 80.4255 294.692L79.9343 294.785C80.314 296.787 80.7273 298.777 81.1736 300.755L81.6613 300.645C82.1081 302.625 82.5879 304.593 83.1003 306.547L82.6167 306.674C83.1334 308.645 83.6832 310.603 84.2653 312.547L84.7443 312.404C85.3269 314.35 85.942 316.282 86.589 318.199L86.1153 318.359C86.766 320.287 87.449 322.201 88.1634 324.099L88.6313 323.923C89.3464 325.823 90.093 327.707 90.8707 329.575L90.4091 329.768C91.1916 331.647 92.0053 333.511 92.8497 335.357L93.3044 335.149C94.1482 336.994 95.0227 338.823 95.9272 340.634L95.4799 340.857C96.3889 342.677 97.3281 344.478 98.297 346.262L98.7363 346.023C99.705 347.807 100.703 349.572 101.731 351.318L101.3 351.571C102.331 353.324 103.392 355.058 104.481 356.772L104.903 356.504C105.991 358.216 107.107 359.907 108.251 361.578L107.838 361.861C108.987 363.539 110.164 365.197 111.368 366.833L111.771 366.537C112.972 368.17 114.201 369.782 115.457 371.372L115.065 371.682C116.325 373.278 117.611 374.851 118.924 376.402L119.305 376.079C120.615 377.627 121.951 379.151 123.312 380.653L122.941 380.988C124.306 382.495 125.697 383.977 127.112 385.436L127.471 385.088C128.882 386.542 130.318 387.973 131.778 389.379L131.432 389.739C132.895 391.149 134.383 392.534 135.895 393.893L136.229 393.522C137.736 394.877 139.265 396.207 140.818 397.511L140.496 397.893C142.052 399.2 143.63 400.481 145.23 401.735L145.539 401.341C147.133 402.591 148.75 403.814 150.387 405.01L150.093 405.414C151.733 406.612 153.395 407.783 155.078 408.926L155.359 408.512C157.034 409.65 158.729 410.76 160.444 411.842L160.178 412.265C161.895 413.348 163.633 414.403 165.389 415.429L165.642 414.997C167.391 416.019 169.159 417.011 170.945 417.974L170.708 418.414C172.495 419.378 174.3 420.311 176.122 421.215L176.344 420.767C178.158 421.666 179.988 422.535 181.836 423.373L181.629 423.829C183.478 424.668 185.344 425.476 187.226 426.254L187.417 425.792C189.287 426.564 191.173 427.306 193.075 428.016L192.9 428.485C194.8 429.194 196.715 429.873 198.645 430.519L198.804 430.045C200.722 430.687 202.656 431.298 204.603 431.877L204.46 432.356C206.406 432.934 208.365 433.48 210.337 433.993L210.463 433.509C212.418 434.018 214.387 434.495 216.367 434.938L216.258 435.426C218.237 435.869 220.228 436.279 222.23 436.656L222.323 436.165C224.311 436.539 226.312 436.881 228.323 437.188L228.248 437.683C230.248 437.989 232.26 438.262 234.281 438.501L234.34 438.005C236.346 438.242 238.363 438.447 240.388 438.617L240.347 439.116C242.368 439.286 244.4 439.423 246.44 439.525L246.465 439.026C248.478 439.127 250.5 439.195 252.531 439.229L252.522 439.729C253.54 439.746 254.561 439.754 255.583 439.754C256.605 439.754 257.625 439.746 258.643 439.729L258.634 439.229C260.665 439.195 262.687 439.127 264.7 439.026L264.725 439.525C266.766 439.423 268.797 439.286 270.819 439.116L270.777 438.617C272.803 438.447 274.819 438.242 276.825 438.005L276.884 438.501C278.906 438.262 280.917 437.989 282.917 437.683L282.842 437.188C284.853 436.881 286.854 436.539 288.842 436.165L288.935 436.656C290.938 436.279 292.928 435.869 294.907 435.426L294.798 434.938C296.778 434.495 298.747 434.018 300.702 433.509L300.828 433.993C302.8 433.48 304.76 432.934 306.705 432.356L306.562 431.877C308.51 431.298 310.443 430.687 312.361 430.045L312.52 430.519C314.45 429.873 316.365 429.194 318.265 428.485L318.09 428.016C319.992 427.306 321.878 426.564 323.749 425.792L323.939 426.254C325.821 425.476 327.687 424.668 329.536 423.829L329.329 423.373C331.177 422.535 333.008 421.666 334.821 420.767L335.043 421.215C336.865 420.311 338.67 419.378 340.457 418.414L340.22 417.974C342.006 417.011 343.774 416.019 345.524 414.997L345.776 415.429C347.532 414.403 349.27 413.348 350.987 412.265L350.721 411.842C352.436 410.76 354.131 409.65 355.806 408.512L356.087 408.926C357.77 407.783 359.432 406.612 361.073 405.414L360.778 405.01C362.415 403.814 364.032 402.591 365.627 401.341L365.935 401.735C367.535 400.481 369.113 399.2 370.669 397.893L370.348 397.511C371.9 396.207 373.43 394.877 374.936 393.521L375.27 393.893C376.782 392.534 378.27 391.149 379.734 389.739L379.387 389.379C380.847 387.973 382.283 386.542 383.694 385.088L384.053 385.436C385.468 383.977 386.859 382.495 388.224 380.988L387.853 380.653C389.214 379.151 390.55 377.627 391.86 376.079L392.241 376.402C393.554 374.851 394.841 373.278 396.1 371.682L395.708 371.372C396.964 369.782 398.193 368.17 399.394 366.537L399.797 366.833C401.001 365.197 402.178 363.539 403.327 361.861L402.914 361.578C404.058 359.907 405.174 358.216 406.262 356.504L406.684 356.772C407.773 355.058 408.834 353.324 409.865 351.571L409.434 351.318C410.462 349.572 411.46 347.807 412.429 346.023L412.868 346.262C413.837 344.478 414.776 342.677 415.685 340.857L415.238 340.633C416.142 338.823 417.017 336.994 417.861 335.149L418.315 335.357C419.16 333.511 419.974 331.647 420.756 329.767L420.294 329.575C421.072 327.707 421.819 325.823 422.534 323.923L423.002 324.099C423.716 322.201 424.399 320.287 425.05 318.359L424.576 318.199C425.223 316.282 425.838 314.35 426.421 312.404L426.9 312.547C427.482 310.603 428.032 308.645 428.548 306.674L428.065 306.547C428.577 304.593 429.057 302.625 429.504 300.645L429.992 300.755C430.438 298.777 430.851 296.787 431.231 294.785L430.74 294.692C431.117 292.703 431.461 290.704 431.771 288.693L432.265 288.769C432.573 286.769 432.849 284.757 433.09 282.736L432.593 282.677C432.833 280.671 433.039 278.654 433.21 276.629L433.709 276.671C433.88 274.649 434.018 272.618 434.121 270.577L433.622 270.552C433.724 268.539 433.792 266.517 433.826 264.487L434.326 264.495C434.344 263.477 434.352 262.457 434.352 261.435Z" stroke="#BCC4D1" stroke-dasharray="6 6"/>
<g filter="url(#filter0_d_9123_17213)">
<ellipse cx="415.264" cy="181.01" rx="45.7222" ry="45.67" fill="white"/>
</g>
<path d="M419.748 172.067V178.141L421.96 179.478C422.019 179.494 422.145 179.496 422.203 179.478L431.723 173.318C431.723 172.589 431.015 172.067 430.615 172.067H419.748Z" fill="#0072C6"/>
<path d="M419.748 180.408L421.767 181.739C422.051 181.939 422.394 181.739 422.394 181.739C422.053 181.939 431.725 175.774 431.725 175.774V186.938C431.725 188.154 430.914 188.664 430.002 188.664H419.747L419.748 180.408Z" fill="#0072C6"/>
<path d="M409.296 177.607C408.608 177.607 408.06 177.917 407.655 178.537C407.251 179.156 407.048 179.976 407.048 180.997C407.048 182.033 407.251 182.851 407.655 183.453C408.06 184.056 408.591 184.356 409.248 184.356C409.924 184.356 410.462 184.063 410.858 183.478C411.254 182.892 411.453 182.079 411.453 181.04C411.453 179.956 411.261 179.113 410.876 178.51C410.491 177.908 409.965 177.607 409.296 177.607Z" fill="#0072C6"/>
<path d="M399.719 168.982V192.747L418.557 196.538V165.482L399.719 168.982ZM412.325 184.882C411.529 185.888 410.491 186.391 409.21 186.391C407.962 186.391 406.946 185.904 406.159 184.93C405.374 183.955 404.98 182.686 404.98 181.12C404.98 179.468 405.379 178.131 406.177 177.11C406.976 176.09 408.033 175.579 409.35 175.579C410.593 175.579 411.599 176.066 412.366 177.044C413.134 178.021 413.518 179.309 413.518 180.908C413.52 182.552 413.121 183.877 412.325 184.882Z" fill="#0072C6"/>
<g filter="url(#filter1_d_9123_17213)">
<ellipse cx="89.7222" cy="181.01" rx="45.7222" ry="45.67" fill="white"/>
</g>
<path d="M106.183 181.387C106.183 180.27 106.09 179.146 105.893 178.047H90.0542V184.378H99.1241C98.7478 186.419 97.5384 188.225 95.7676 189.373V193.481H101.179C104.356 190.618 106.183 186.389 106.183 181.387Z" fill="#4285F4"/>
<path d="M90.0541 197.449C94.5829 197.449 98.4021 195.994 101.185 193.481L95.7737 189.373C94.2682 190.376 92.3246 190.944 90.0602 190.944C85.6795 190.944 81.9652 188.05 80.6325 184.16H75.0486V188.394C77.8991 193.946 83.7051 197.449 90.0541 197.449Z" fill="#34A853"/>
<path d="M80.6264 184.16C79.923 182.119 79.923 179.908 80.6264 177.866V173.631H75.0487C72.667 178.277 72.667 183.749 75.0487 188.395L80.6264 184.16Z" fill="#FBBC04"/>
<path d="M90.0541 171.076C92.448 171.04 94.7618 171.922 96.4956 173.541L101.29 168.847C98.254 166.056 94.225 164.522 90.0541 164.57C83.7051 164.57 77.8991 168.074 75.0486 173.631L80.6263 177.866C81.9528 173.97 85.6734 171.076 90.0541 171.076Z" fill="#EA4335"/>
<g filter="url(#filter2_d_9123_17213)">
<ellipse cx="89.7222" cy="347.249" rx="45.7222" ry="45.67" fill="white"/>
</g>
<path fill-rule="evenodd" clip-rule="evenodd" d="M84.2361 363.69H95.2101V352.729H84.2361V363.69Z" fill="#9DD6E3"/>
<path fill-rule="evenodd" clip-rule="evenodd" d="M73.262 352.731H84.2359V341.77H73.262V352.731Z" fill="#9DD6E3"/>
<path fill-rule="evenodd" clip-rule="evenodd" d="M73.262 363.69H84.2359V352.729H73.262V363.69Z" fill="#3F72AB"/>
<path fill-rule="evenodd" clip-rule="evenodd" d="M95.208 352.731H106.182V341.77H95.208V352.731Z" fill="#00A9D1"/>
<path fill-rule="evenodd" clip-rule="evenodd" d="M84.2361 341.768H95.2101V330.808H84.2361V341.768Z" fill="#00A9D1"/>
<path fill-rule="evenodd" clip-rule="evenodd" d="M84.2361 352.73H95.2101V341.77H84.2361V352.73Z" fill="#2191C4"/>
<path fill-rule="evenodd" clip-rule="evenodd" d="M95.208 341.768H106.182V330.808H95.208V341.768Z" fill="#3F72AB"/>
<g filter="url(#filter3_d_9123_17213)">
<ellipse cx="255.237" cy="439.502" rx="45.7222" ry="45.67" fill="white"/>
</g>
<path d="M235.933 438.209L253.972 426.146C254.357 425.92 254.794 425.801 255.238 425.801C255.683 425.801 256.12 425.92 256.505 426.146L274.544 438.209C274.787 438.328 274.992 438.514 275.135 438.745C275.278 438.976 275.354 439.244 275.354 439.516C275.354 439.789 275.278 440.056 275.135 440.287C274.992 440.519 274.787 440.704 274.544 440.823L272.125 442.432C270.321 439.555 267.825 437.185 264.871 435.542C261.916 433.9 258.597 433.039 255.224 433.039C251.851 433.039 248.533 433.9 245.578 435.542C242.623 437.185 240.127 439.555 238.323 442.432L235.905 440.823C235.666 440.699 235.466 440.51 235.327 440.278C235.188 440.046 235.116 439.779 235.119 439.507C235.122 439.236 235.2 438.971 235.344 438.742C235.487 438.512 235.692 438.328 235.933 438.209ZM255.224 438.066C252.677 438.072 250.172 438.728 247.944 439.973C245.715 441.219 243.835 443.013 242.478 445.189L246.632 447.975C247.521 446.485 248.777 445.253 250.278 444.397C251.778 443.542 253.472 443.092 255.196 443.092C256.919 443.092 258.613 443.542 260.114 444.397C261.614 445.253 262.87 446.485 263.76 447.975L267.914 445.189C266.577 443.008 264.708 441.208 262.487 439.961C260.266 438.714 257.766 438.062 255.224 438.066ZM255.224 448.148C254.326 448.154 253.446 448.399 252.672 448.857C251.898 449.316 251.257 449.973 250.814 450.762L253.602 452.6C254.056 452.987 254.63 453.201 255.224 453.203C255.819 453.206 256.395 452.991 256.846 452.6L259.634 450.762C259.195 449.97 258.555 449.31 257.78 448.851C257.005 448.392 256.123 448.149 255.224 448.148Z" fill="url(#paint0_linear_9123_17213)"/>
<g filter="url(#filter4_d_9123_17213)">
<ellipse cx="415.264" cy="347.249" rx="45.7222" ry="45.67" fill="white"/>
</g>
<path fill-rule="evenodd" clip-rule="evenodd" d="M427.61 330.808H402.919C401.83 330.806 400.784 331.238 400.013 332.009C399.241 332.78 398.806 333.826 398.804 334.918V359.58C398.804 361.85 400.647 363.69 402.919 363.69H427.61C428.699 363.692 429.745 363.26 430.516 362.489C431.288 361.718 431.723 360.672 431.724 359.58V334.918C431.724 332.648 429.883 330.808 427.61 330.808ZM419.653 336.836C419.653 336.231 420.145 335.74 420.751 335.74C421.357 335.74 421.848 336.231 421.848 336.836V351.481C421.848 352.085 421.356 352.577 420.751 352.577C420.461 352.577 420.182 352.462 419.976 352.256C419.771 352.051 419.655 351.772 419.654 351.481V336.836H419.653ZM414.166 336.282C414.166 335.676 414.658 335.186 415.264 335.186C415.871 335.186 416.363 335.676 416.363 336.282V352.175C416.363 352.78 415.871 353.271 415.264 353.271C414.974 353.271 414.695 353.156 414.49 352.95C414.284 352.745 414.168 352.466 414.167 352.175V336.282H414.166ZM408.68 336.836C408.68 336.231 409.173 335.74 409.778 335.74C410.384 335.74 410.875 336.231 410.875 336.836V351.481C410.875 352.085 410.384 352.577 409.778 352.577C409.487 352.577 409.209 352.462 409.003 352.256C408.797 352.051 408.681 351.772 408.68 351.481V336.836ZM403.194 339.028C403.194 338.423 403.685 337.932 404.291 337.932C404.897 337.932 405.388 338.423 405.388 339.028V348.887C405.388 349.492 404.896 349.983 404.291 349.983C404.147 349.983 404.005 349.955 403.872 349.9C403.739 349.845 403.618 349.764 403.516 349.662C403.414 349.561 403.333 349.44 403.278 349.307C403.223 349.173 403.194 349.031 403.194 348.887V339.028ZM426.952 355.747C426.784 355.893 422.718 359.299 415.264 359.299C407.811 359.299 403.748 355.892 403.577 355.746C403.467 355.653 403.378 355.539 403.313 355.41C403.247 355.282 403.208 355.142 403.197 354.999C403.186 354.855 403.204 354.711 403.248 354.574C403.293 354.437 403.364 354.311 403.458 354.202C403.647 353.981 403.916 353.845 404.205 353.823C404.494 353.8 404.781 353.893 405.002 354.081C405.066 354.135 408.696 357.107 415.264 357.107C421.913 357.107 425.488 354.113 425.522 354.084C425.743 353.894 426.03 353.8 426.32 353.822C426.61 353.844 426.879 353.981 427.069 354.202C427.163 354.31 427.235 354.437 427.28 354.574C427.325 354.711 427.343 354.855 427.332 354.999C427.322 355.142 427.282 355.283 427.217 355.411C427.152 355.539 427.062 355.654 426.952 355.747ZM427.335 348.887C427.335 349.492 426.843 349.984 426.238 349.984C426.094 349.984 425.951 349.956 425.818 349.901C425.686 349.846 425.565 349.765 425.463 349.663C425.361 349.562 425.28 349.441 425.225 349.308C425.169 349.174 425.141 349.032 425.14 348.887V339.028C425.14 338.423 425.632 337.932 426.237 337.932C426.843 337.932 427.335 338.423 427.335 339.028V348.887V348.887Z" fill="#303744"/>
<g filter="url(#filter5_d_9123_17213)">
<ellipse cx="251.579" cy="89.67" rx="45.7223" ry="45.67" fill="white"/>
</g>
<g clip-path="url(#clip0_9123_17213)">
<path d="M243.551 86.4602C243.551 86.943 243.603 87.3344 243.693 87.6215C243.797 87.9086 243.926 88.2217 244.107 88.561C244.172 88.6654 244.198 88.7698 244.198 88.8611C244.198 88.9916 244.12 89.1221 243.952 89.2526L243.137 89.8006C243.021 89.8789 242.904 89.918 242.801 89.918C242.671 89.918 242.542 89.8528 242.413 89.7354C242.232 89.5396 242.076 89.3309 241.947 89.1221C241.818 88.9003 241.688 88.6523 241.546 88.3522C240.537 89.5527 239.27 90.1529 237.743 90.1529C236.657 90.1529 235.79 89.8398 235.156 89.2134C234.523 88.5871 234.199 87.752 234.199 86.7081C234.199 85.599 234.587 84.6986 235.376 84.0201C236.165 83.3416 237.213 83.0023 238.545 83.0023C238.985 83.0023 239.438 83.0414 239.916 83.1067C240.395 83.1719 240.886 83.2763 241.404 83.3938V82.4412C241.404 81.4495 241.197 80.7579 240.796 80.3534C240.382 79.9489 239.683 79.7532 238.688 79.7532C238.235 79.7532 237.769 79.8054 237.291 79.9228C236.812 80.0403 236.346 80.1838 235.894 80.3665C235.687 80.4578 235.531 80.51 235.441 80.5361C235.35 80.5622 235.286 80.5753 235.234 80.5753C235.053 80.5753 234.962 80.4448 234.962 80.1708V79.5314C234.962 79.3226 234.988 79.166 235.053 79.0747C235.118 78.9833 235.234 78.892 235.415 78.8007C235.868 78.5658 236.411 78.3701 237.045 78.2135C237.679 78.0438 238.351 77.9656 239.063 77.9656C240.602 77.9656 241.727 78.3179 242.451 79.0225C243.163 79.7271 243.525 80.7971 243.525 82.2324V86.4602H243.551ZM238.299 88.4436C238.726 88.4436 239.166 88.3653 239.632 88.2087C240.097 88.0521 240.511 87.765 240.861 87.3736C241.067 87.1256 241.223 86.8516 241.3 86.5385C241.378 86.2253 241.43 85.8469 241.43 85.4032V84.8552C241.055 84.7639 240.654 84.6856 240.24 84.6334C239.826 84.5812 239.425 84.5551 239.024 84.5551C238.157 84.5551 237.523 84.7247 237.097 85.077C236.67 85.4293 236.463 85.9252 236.463 86.5776C236.463 87.1909 236.618 87.6476 236.941 87.9608C237.252 88.287 237.704 88.4436 238.299 88.4436ZM248.686 89.8528C248.453 89.8528 248.298 89.8137 248.194 89.7223C248.091 89.644 248 89.4613 247.923 89.2134L244.883 79.1269C244.806 78.8659 244.767 78.6963 244.767 78.6049C244.767 78.3962 244.87 78.2787 245.077 78.2787H246.345C246.591 78.2787 246.759 78.3179 246.849 78.4092C246.953 78.4875 247.03 78.6702 247.108 78.9181L249.281 87.5563L251.299 78.9181C251.363 78.6571 251.441 78.4875 251.544 78.4092C251.648 78.3309 251.829 78.2787 252.062 78.2787H253.097C253.342 78.2787 253.511 78.3179 253.614 78.4092C253.717 78.4875 253.808 78.6702 253.86 78.9181L255.903 87.6606L258.141 78.9181C258.219 78.6571 258.309 78.4875 258.4 78.4092C258.503 78.3309 258.671 78.2787 258.904 78.2787H260.107C260.314 78.2787 260.431 78.3831 260.431 78.6049C260.431 78.6702 260.418 78.7354 260.405 78.8137C260.392 78.892 260.366 78.9964 260.314 79.1399L257.197 89.2265C257.119 89.4874 257.029 89.6571 256.925 89.7354C256.822 89.8137 256.654 89.8658 256.434 89.8658H255.321C255.076 89.8658 254.907 89.8267 254.804 89.7354C254.701 89.644 254.61 89.4744 254.558 89.2134L252.553 80.7971L250.561 89.2004C250.497 89.4613 250.419 89.631 250.316 89.7223C250.212 89.8137 250.031 89.8528 249.798 89.8528H248.686ZM265.307 90.2051C264.634 90.2051 263.962 90.1268 263.315 89.9702C262.668 89.8137 262.164 89.644 261.827 89.4483C261.621 89.3309 261.478 89.2004 261.427 89.0829C261.375 88.9655 261.349 88.835 261.349 88.7176V88.0521C261.349 87.7781 261.452 87.6476 261.646 87.6476C261.724 87.6476 261.802 87.6606 261.879 87.6867C261.957 87.7128 262.073 87.765 262.203 87.8172C262.642 88.013 263.121 88.1695 263.625 88.2739C264.143 88.3783 264.647 88.4305 265.165 88.4305C265.979 88.4305 266.613 88.287 267.053 87.9999C267.493 87.7128 267.726 87.2953 267.726 86.7603C267.726 86.3949 267.609 86.0948 267.376 85.8469C267.144 85.599 266.704 85.3771 266.07 85.1684L264.195 84.5812C263.25 84.2811 262.552 83.8374 262.125 83.2502C261.698 82.6761 261.478 82.0367 261.478 81.3582C261.478 80.8101 261.595 80.3273 261.827 79.9098C262.06 79.4922 262.371 79.1269 262.759 78.8398C263.147 78.5397 263.587 78.3179 264.104 78.1613C264.621 78.0047 265.165 77.9395 265.734 77.9395C266.018 77.9395 266.316 77.9525 266.6 77.9916C266.898 78.0308 267.169 78.083 267.441 78.1352C267.7 78.2004 267.946 78.2657 268.178 78.344C268.411 78.4223 268.592 78.5005 268.722 78.5788C268.903 78.6832 269.032 78.7876 269.11 78.905C269.187 79.0094 269.226 79.153 269.226 79.3357V79.9489C269.226 80.223 269.123 80.3665 268.929 80.3665C268.825 80.3665 268.657 80.3143 268.437 80.2099C267.7 79.8706 266.872 79.701 265.954 79.701C265.216 79.701 264.634 79.8184 264.233 80.0664C263.832 80.3143 263.625 80.6927 263.625 81.2277C263.625 81.5931 263.755 81.9062 264.013 82.1541C264.272 82.4021 264.751 82.65 265.436 82.8718L267.273 83.459C268.204 83.7591 268.877 84.1767 269.278 84.7117C269.679 85.2467 269.873 85.8599 269.873 86.5385C269.873 87.0996 269.756 87.6084 269.536 88.0521C269.304 88.4957 268.993 88.8872 268.592 89.2004C268.191 89.5266 267.713 89.7615 267.157 89.9311C266.574 90.1138 265.967 90.2051 265.307 90.2051Z" fill="#252F3E"/>
<path fill-rule="evenodd" clip-rule="evenodd" d="M267.752 96.5466C263.496 99.7174 257.313 101.401 251.997 101.401C244.547 101.401 237.834 98.6213 232.764 94.0022C232.363 93.6368 232.725 93.141 233.203 93.428C238.688 96.638 245.452 98.5822 252.45 98.5822C257.171 98.5822 262.358 97.5905 267.131 95.5549C267.842 95.2287 268.45 96.0247 267.752 96.5466Z" fill="#FF9900"/>
<path fill-rule="evenodd" clip-rule="evenodd" d="M269.524 94.5112C268.98 93.8065 265.928 94.1719 264.544 94.3415C264.13 94.3937 264.065 94.0284 264.44 93.7543C266.872 92.0319 270.869 92.5278 271.334 93.1019C271.8 93.6891 271.205 97.7211 268.929 99.6523C268.579 99.9524 268.243 99.7958 268.398 99.4044C268.916 98.1126 270.067 95.2027 269.524 94.5112Z" fill="#FF9900"/>
</g>
<g filter="url(#filter6_d_9123_17213)">
<ellipse cx="248.836" cy="265.043" rx="93.2734" ry="93.1668" fill="white"/>
</g>
<g filter="url(#filter7_d_9123_17213)">
<path d="M230.44 264.055C230.836 264.055 230.836 263.444 230.44 263.444C230.044 263.444 230.044 264.055 230.44 264.055Z" fill="#BCC4D1"/>
<path d="M246.503 272.136C246.504 271.808 246.4 271.488 246.206 271.222C246.013 270.956 245.74 270.758 245.426 270.655C245.081 270.541 244.728 270.426 244.322 270.288C243.58 270.033 242.759 269.748 242.027 269.467C240.375 268.81 238.787 268.006 237.282 267.064C236.039 266.298 234.839 265.466 233.687 264.572C232.492 263.649 231.261 262.675 231.261 261.453C231.261 260.923 229.353 261.715 229.586 262.19C230.968 264.997 233.226 267.452 235.726 269.37C237.309 270.567 239.036 271.563 240.869 272.334C241.674 272.697 242.498 273.016 243.339 273.29C243.671 273.388 244.073 273.511 244.498 273.632C244.732 273.697 244.978 273.709 245.216 273.664C245.455 273.62 245.68 273.521 245.874 273.376C246.067 273.23 246.224 273.042 246.332 272.826C246.44 272.611 246.497 272.373 246.496 272.132L246.503 272.136Z" fill="#BCC4D1"/>
<path d="M244.94 274.043C244.76 274.043 244.582 274.018 244.409 273.968C244.087 273.877 243.779 273.784 243.504 273.703L243.246 273.626C242.443 273.367 241.654 273.064 240.885 272.719L240.738 272.657C238.879 271.874 237.126 270.863 235.52 269.648C232.745 267.528 230.586 265.004 229.278 262.347C229.225 262.24 229.139 261.955 229.44 261.628C229.798 261.242 230.788 260.797 231.285 260.983C231.383 261.018 231.468 261.082 231.527 261.167C231.587 261.253 231.618 261.354 231.616 261.458C231.616 262.536 232.834 263.475 233.907 264.303C235.049 265.189 236.238 266.012 237.47 266.769C238.954 267.701 240.522 268.496 242.153 269.144C242.888 269.421 243.72 269.716 244.437 269.961C244.747 270.068 245.03 270.16 245.301 270.249L245.537 270.327C245.92 270.452 246.254 270.695 246.49 271.02C246.727 271.345 246.854 271.736 246.853 272.136C246.853 272.641 246.651 273.124 246.293 273.481C245.934 273.839 245.448 274.041 244.94 274.043ZM229.938 262.11C231.203 264.648 233.279 267.063 235.946 269.1C237.505 270.279 239.208 271.261 241.013 272.02L241.161 272.082C241.906 272.416 242.669 272.71 243.447 272.962L243.705 273.039C243.984 273.121 244.282 273.212 244.601 273.302C244.782 273.353 244.973 273.362 245.159 273.327C245.344 273.292 245.519 273.216 245.669 273.103C245.82 272.99 245.942 272.844 246.026 272.676C246.11 272.508 246.154 272.324 246.154 272.136C246.154 271.881 246.073 271.633 245.923 271.426C245.773 271.219 245.561 271.065 245.317 270.984L245.082 270.907C244.803 270.817 244.524 270.723 244.209 270.616C243.486 270.368 242.646 270.076 241.9 269.785C240.23 269.122 238.624 268.308 237.103 267.354C235.848 266.583 234.637 265.746 233.475 264.845C232.323 263.957 231.023 262.954 230.919 261.624C230.633 261.664 230.077 261.93 229.938 262.11Z" fill="#BCC4D1"/>
<path d="M252.104 272.12C252.104 271.792 252.208 271.473 252.401 271.207C252.595 270.941 252.868 270.742 253.182 270.639C253.526 270.525 253.879 270.41 254.285 270.272C255.028 270.017 255.848 269.732 256.581 269.451C258.233 268.794 259.821 267.99 261.326 267.048C262.568 266.282 263.768 265.45 264.92 264.556C266.116 263.634 267.347 262.659 267.347 261.437C267.347 260.907 269.255 261.699 269.022 262.174C267.64 264.981 265.382 267.436 262.882 269.354C261.299 270.552 259.572 271.548 257.739 272.318C256.934 272.681 256.109 273 255.269 273.274C254.937 273.372 254.535 273.495 254.11 273.616C253.876 273.683 253.63 273.695 253.391 273.651C253.151 273.608 252.926 273.51 252.731 273.365C252.537 273.22 252.379 273.032 252.27 272.816C252.161 272.6 252.105 272.362 252.104 272.12Z" fill="#BCC4D1"/>
<path d="M253.663 274.022C253.155 274.019 252.669 273.818 252.31 273.461C251.952 273.104 251.75 272.621 251.749 272.117C251.748 271.716 251.875 271.325 252.111 270.999C252.348 270.674 252.682 270.431 253.065 270.305L253.283 270.235C253.562 270.143 253.848 270.049 254.165 269.941C254.882 269.695 255.714 269.405 256.449 269.124C258.08 268.476 259.648 267.681 261.133 266.75C262.364 265.992 263.554 265.169 264.695 264.283C265.77 263.453 266.987 262.517 266.987 261.438C266.985 261.334 267.016 261.233 267.075 261.148C267.134 261.062 267.219 260.998 267.317 260.963C267.814 260.77 268.805 261.222 269.162 261.608C269.466 261.935 269.376 262.22 269.324 262.327C268.012 264.987 265.856 267.514 263.081 269.631C261.475 270.845 259.722 271.855 257.863 272.637L257.711 272.702C256.943 273.046 256.157 273.348 255.355 273.607L255.1 273.683C254.821 273.766 254.515 273.857 254.192 273.949C254.019 273.997 253.841 274.022 253.663 274.022ZM267.677 261.611C267.574 262.942 266.275 263.944 265.122 264.832C263.96 265.733 262.748 266.571 261.494 267.341C259.973 268.295 258.367 269.109 256.696 269.772C255.951 270.058 255.111 270.35 254.388 270.603C254.069 270.713 253.777 270.808 253.498 270.9L253.282 270.97C253.038 271.05 252.825 271.205 252.675 271.412C252.525 271.619 252.444 271.867 252.444 272.122C252.444 272.309 252.488 272.494 252.572 272.662C252.656 272.829 252.778 272.975 252.929 273.088C253.079 273.201 253.254 273.278 253.44 273.313C253.625 273.348 253.816 273.339 253.998 273.288C254.317 273.198 254.623 273.107 254.896 273.025L255.153 272.949C255.929 272.697 256.69 272.404 257.433 272.071L257.585 272.006C259.391 271.246 261.093 270.265 262.652 269.086C265.32 267.049 267.397 264.632 268.66 262.094C268.526 261.911 267.969 261.647 267.677 261.611Z" fill="#BCC4D1"/>
<path d="M252.207 289.696C251.685 289.665 251.196 289.434 250.844 289.051C250.599 288.737 250.447 288.361 250.407 287.965C250.391 287.84 250.41 287.712 250.461 287.596C250.513 287.481 250.596 287.381 250.701 287.309C251.128 287.017 251.451 286.598 251.622 286.112C251.793 285.627 251.803 285.099 251.652 284.607C251.501 284.115 251.195 283.683 250.78 283.375C250.365 283.067 249.861 282.898 249.343 282.892C248.824 282.887 248.318 283.046 247.896 283.345C247.475 283.645 247.16 284.07 246.998 284.559C246.837 285.048 246.836 285.575 246.997 286.064C247.158 286.554 247.471 286.979 247.892 287.28C247.992 287.353 248.071 287.451 248.12 287.564C248.169 287.677 248.187 287.802 248.171 287.924C248.136 288.334 247.982 288.725 247.729 289.051C247.376 289.434 246.887 289.665 246.365 289.696C245.658 289.688 244.551 289.31 243.474 288.978C244.59 290.015 247.211 291.172 248.427 291.377L248.815 291.669C248.826 291.589 248.834 291.509 248.844 291.429C249.136 291.442 249.429 291.442 249.722 291.429C249.731 291.509 249.74 291.589 249.751 291.669L250.139 291.377C251.356 291.171 253.972 290.013 255.091 288.978C254.017 289.31 252.914 289.687 252.207 289.696Z" fill="#BCC4D1"/>
<path d="M252.207 289.007C251.754 288.977 251.23 288.648 251.158 288.176C251.088 287.73 251.618 287.484 251.872 287.127C252.192 286.682 252.388 286.161 252.44 285.617C252.492 285.073 252.399 284.525 252.17 284.028C251.941 283.531 251.585 283.102 251.136 282.786C250.687 282.469 250.162 282.275 249.614 282.224C249.065 282.172 248.513 282.265 248.012 282.493C247.512 282.72 247.08 283.075 246.762 283.52C246.443 283.966 246.248 284.487 246.197 285.031C246.145 285.575 246.239 286.123 246.469 286.62C246.68 287.077 246.999 287.348 247.318 287.716C247.664 288.115 247.242 288.676 246.835 288.877C245.957 289.31 244.511 288.581 243.664 288.323C243.011 288.121 242.467 289.015 242.986 289.481C243.772 290.181 244.707 290.702 245.66 291.142C246.123 291.357 246.595 291.558 247.076 291.727C247.558 291.896 248.053 291.966 248.472 292.28C248.945 292.638 249.467 292.132 249.521 291.682L249.55 291.441L248.853 292.134C249.146 292.148 249.437 292.148 249.73 292.134L249.033 291.441L249.062 291.682C249.118 292.132 249.638 292.638 250.111 292.28C250.508 291.981 250.949 291.919 251.42 291.756C251.93 291.578 252.431 291.368 252.92 291.142C253.873 290.702 254.808 290.173 255.594 289.481C256.112 289.018 255.569 288.121 254.916 288.323C254.047 288.593 253.128 288.972 252.21 289.015C251.317 289.06 251.311 290.444 252.21 290.4C253.268 290.347 254.285 289.967 255.28 289.656L254.602 288.499C253.862 289.158 252.927 289.626 252.029 290.022C251.177 290.401 250.138 290.522 249.402 291.077L250.452 291.675L250.431 291.432C250.388 291.074 250.152 290.719 249.733 290.739C249.44 290.753 249.148 290.753 248.855 290.739C248.447 290.72 248.201 291.076 248.158 291.432L248.128 291.673L249.178 291.074C248.442 290.521 247.403 290.399 246.551 290.019C245.65 289.618 244.718 289.15 243.978 288.496L243.3 289.654C244.303 289.965 245.473 290.476 246.549 290.386C247.002 290.344 247.436 290.182 247.804 289.916C248.172 289.651 248.462 289.292 248.642 288.877C248.812 288.484 248.939 287.993 248.847 287.564C248.74 287.062 248.402 286.872 248.075 286.534C247.91 286.364 247.782 286.163 247.698 285.943C247.613 285.722 247.575 285.487 247.585 285.251C247.595 285.016 247.653 284.785 247.755 284.572C247.858 284.359 248.003 284.169 248.181 284.014C249.856 282.585 252.089 285.047 250.517 286.581C250.176 286.913 249.846 287.098 249.74 287.6C249.648 288.032 249.776 288.5 249.949 288.895C250.347 289.806 251.228 290.331 252.211 290.397C253.105 290.451 253.1 289.067 252.207 289.007Z" fill="#BCC4D1"/>
<path d="M272.085 277.486C271.757 275.078 271.173 272.71 270.343 270.424C269.952 269.327 269.552 268.229 269.296 267.091C269.055 265.953 269.016 264.781 269.182 263.629C269.461 261.399 269.778 259.198 269.853 256.943C269.928 254.75 269.835 252.555 269.574 250.376C268.974 245.414 267.495 241.966 264.857 237.684C264.747 237.505 264.592 237.357 264.408 237.254C264.223 237.151 264.015 237.097 263.803 237.097C263.591 237.097 263.383 237.151 263.199 237.254C263.014 237.357 262.859 237.505 262.749 237.684C260.261 241.506 258.186 244.115 256.134 248.177C255.55 247.915 254.951 247.683 254.341 247.485C250.294 246.172 246.154 246.624 242.48 248.295C240.414 244.202 238.327 241.563 235.821 237.713C235.71 237.534 235.555 237.386 235.371 237.283C235.186 237.18 234.978 237.126 234.766 237.126C234.555 237.126 234.346 237.18 234.162 237.283C233.977 237.386 233.822 237.534 233.712 237.713C229.022 245.329 227.972 253.211 229.149 261.926C229.308 263.105 229.537 264.28 229.499 265.478C229.464 266.612 229.159 267.714 228.808 268.787C228.065 271.071 227.22 273.279 226.779 275.649C226.375 277.824 225.747 281.852 227.372 283.68C228.07 284.461 229.064 284.961 229.99 285.39C231.107 285.908 232.227 286.412 233.352 286.903C238.376 289.098 243.512 291.387 248.755 292.966C249.059 293.03 249.373 293.037 249.68 292.988C254.444 291.553 259.255 289.388 263.835 287.466C264.941 287.002 266.038 286.518 267.132 286.026C268.087 285.596 269.086 285.195 269.972 284.641C270.858 284.087 271.639 283.334 272.011 282.324C272.424 281.215 272.232 278.609 272.085 277.486ZM263.752 240.664C266.994 246.869 267.883 252.665 267.241 259.601C265.148 255.5 262.187 251.729 258.282 249.317C260.014 245.901 261.758 243.921 263.752 240.664ZM231.418 250.634C231.87 246.693 232.989 244.21 234.831 240.693C236.843 243.979 238.599 245.991 240.342 249.439C239.001 250.27 237.76 251.252 236.645 252.365C234.47 254.533 232.749 257.087 231.394 259.82C231.115 256.764 231.065 253.711 231.418 250.631V250.634ZM269.409 282.002C268.821 282.659 267.884 283.01 267.106 283.375C266.355 283.727 265.604 284.076 264.842 284.404C259.906 286.537 254.828 288.867 249.662 290.443C249.389 290.526 249.098 290.526 248.825 290.443C244.537 289.131 240.313 287.205 236.176 285.48C234.168 284.642 232.078 283.828 230.176 282.766C229.502 282.389 228.86 281.935 228.771 281.122C228.655 280.055 228.924 277.464 229.115 276.414C229.524 274.167 230.272 272.054 231.009 269.906C231.627 268.106 231.947 266.363 231.887 264.527C231.873 264.143 231.938 263.761 232.077 263.404C234.301 257.672 238.387 251.888 244.411 249.683C250.024 247.628 255.903 249.388 260.153 253.378C262.927 255.983 264.991 259.286 266.433 262.781L266.45 262.821C266.641 263.253 266.72 263.726 266.677 264.196C266.659 264.399 266.645 264.603 266.638 264.806C266.611 265.956 266.752 267.104 267.057 268.214C267.633 270.43 268.578 272.516 269.114 274.743C269.377 275.818 269.574 276.908 269.705 278.007C269.804 278.85 270.043 281.297 269.409 282.002Z" fill="#BCC4D1"/>
<path d="M249.301 293.358C249.086 293.362 248.871 293.338 248.663 293.287C243.668 291.783 238.755 289.63 233.991 287.549L233.219 287.211C232.06 286.704 230.925 286.193 229.851 285.688C228.874 285.234 227.856 284.718 227.118 283.888C225.472 282.039 225.945 278.255 226.444 275.568C226.794 273.684 227.406 271.874 227.996 270.125C228.159 269.64 228.324 269.156 228.483 268.663C228.812 267.652 229.122 266.564 229.157 265.449C229.186 264.531 229.048 263.592 228.914 262.679C228.878 262.436 228.843 262.192 228.81 261.95C227.529 252.46 228.994 244.694 233.415 237.51C233.552 237.284 233.744 237.096 233.975 236.964C234.205 236.833 234.466 236.762 234.732 236.758C235.007 236.755 235.279 236.822 235.52 236.952C235.762 237.082 235.966 237.272 236.113 237.503C236.828 238.599 237.509 239.598 238.165 240.563C239.726 242.855 241.203 245.023 242.641 247.823C246.54 246.13 250.616 245.884 254.447 247.131C254.955 247.295 255.466 247.488 255.971 247.704C257.391 244.935 258.85 242.803 260.392 240.545C261.053 239.576 261.736 238.576 262.454 237.472C262.602 237.242 262.806 237.053 263.048 236.922C263.289 236.792 263.561 236.725 263.836 236.727C264.102 236.731 264.362 236.802 264.593 236.934C264.823 237.065 265.016 237.253 265.153 237.479C267.623 241.487 269.281 245.031 269.919 250.31C270.18 252.506 270.274 254.719 270.198 256.929C270.132 258.91 269.878 260.889 269.633 262.801C269.596 263.083 269.56 263.365 269.525 263.647C269.366 264.758 269.402 265.887 269.634 266.985C269.897 268.042 270.223 269.083 270.611 270.101L270.674 270.277C271.513 272.589 272.103 274.982 272.432 277.417C272.432 277.452 272.887 280.952 272.348 282.412C271.992 283.381 271.258 284.212 270.168 284.904C269.412 285.354 268.624 285.748 267.81 286.084L267.287 286.316C266.007 286.892 264.956 287.351 263.981 287.759C263.193 288.09 262.399 288.426 261.599 288.767C257.743 290.407 253.755 292.102 249.792 293.294C249.631 293.336 249.466 293.357 249.301 293.358ZM234.76 237.467H234.749C234.601 237.468 234.456 237.507 234.328 237.579C234.2 237.652 234.093 237.756 234.017 237.882C229.679 244.928 228.243 252.55 229.499 261.874C229.531 262.115 229.567 262.355 229.602 262.596C229.742 263.534 229.881 264.503 229.852 265.482C229.814 266.683 229.491 267.829 229.144 268.888C228.984 269.38 228.819 269.869 228.655 270.358C228.045 272.158 227.469 273.871 227.127 275.707C226.848 277.172 226.024 281.632 227.637 283.442C228.286 284.17 229.231 284.645 230.142 285.069C231.213 285.566 232.341 286.074 233.491 286.579L234.263 286.917C239.008 288.994 243.902 291.135 248.855 292.626C249.095 292.671 249.339 292.679 249.581 292.649C253.505 291.467 257.475 289.78 261.314 288.148C262.115 287.808 262.91 287.471 263.699 287.139C264.669 286.732 265.714 286.276 266.988 285.703L267.517 285.469C268.299 285.146 269.057 284.767 269.785 284.336C270.761 283.726 271.375 283.025 271.682 282.194C272.037 281.235 271.899 278.821 271.729 277.526C271.405 275.139 270.827 272.793 270.004 270.528L269.941 270.352C269.544 269.307 269.212 268.24 268.945 267.155C268.695 265.98 268.655 264.77 268.825 263.581C268.86 263.298 268.896 263.016 268.932 262.733C269.175 260.836 269.427 258.876 269.49 256.926C269.566 254.753 269.476 252.577 269.221 250.418C268.598 245.264 266.973 241.794 264.553 237.866C264.477 237.74 264.37 237.635 264.242 237.563C264.114 237.49 263.969 237.451 263.822 237.45C263.665 237.449 263.51 237.488 263.372 237.563C263.235 237.638 263.119 237.746 263.035 237.878C262.312 238.986 261.627 239.992 260.964 240.963C259.313 243.382 257.885 245.472 256.44 248.338L256.289 248.636L255.983 248.497C255.41 248.239 254.823 248.012 254.225 247.817C250.457 246.595 246.45 246.87 242.62 248.612L242.313 248.751L242.163 248.452C240.698 245.544 239.253 243.428 237.581 240.974C236.923 240.005 236.24 239.005 235.522 237.903C235.441 237.773 235.329 237.665 235.196 237.589C235.063 237.513 234.913 237.471 234.76 237.467ZM249.248 290.85C249.071 290.85 248.895 290.824 248.726 290.772C245.287 289.721 241.867 288.267 238.56 286.861C237.722 286.502 236.885 286.146 236.048 285.797L235.139 285.42C233.422 284.712 231.651 283.978 230.011 283.066C229.252 282.643 228.535 282.118 228.43 281.158C228.309 280.035 228.586 277.41 228.777 276.353C229.165 274.224 229.866 272.177 230.544 270.198L230.684 269.783C231.326 267.904 231.599 266.233 231.543 264.521C231.528 264.092 231.6 263.664 231.755 263.262C232.972 260.129 234.631 257.265 236.557 254.979C238.825 252.286 241.429 250.387 244.296 249.338C249.739 247.344 255.762 248.754 260.399 253.107C263.04 255.588 265.18 258.791 266.756 262.63L266.77 262.661C266.985 263.147 267.073 263.679 267.026 264.207C267.008 264.417 266.995 264.613 266.987 264.799C266.962 265.916 267.1 267.03 267.397 268.108C267.666 269.141 268.025 270.171 268.374 271.168C268.766 272.292 269.171 273.454 269.457 274.642C269.724 275.73 269.923 276.834 270.055 277.946C270.315 280.21 270.188 281.647 269.676 282.219C269.13 282.83 268.333 283.188 267.631 283.507C267.506 283.564 267.382 283.62 267.262 283.676C266.54 284.014 265.766 284.368 264.988 284.71C264.272 285.019 263.553 285.332 262.832 285.648C258.59 287.507 254.199 289.42 249.769 290.778C249.6 290.828 249.424 290.852 249.248 290.85ZM249.275 249.154C247.656 249.153 246.049 249.439 244.531 249.997C241.779 251.005 239.28 252.837 237.092 255.432C235.22 257.663 233.595 260.453 232.407 263.517C232.284 263.833 232.227 264.17 232.24 264.509C232.298 266.302 232.014 268.049 231.344 270.01L231.204 270.426C230.506 272.471 229.842 274.401 229.464 276.481C229.283 277.475 229.009 280.044 229.124 281.089C229.191 281.704 229.643 282.072 230.353 282.474C231.951 283.366 233.702 284.091 235.407 284.793L236.317 285.17C237.154 285.519 237.992 285.876 238.837 286.235C242.128 287.633 245.536 289.08 248.934 290.122C249.14 290.185 249.361 290.185 249.567 290.122C253.964 288.78 258.329 286.877 262.545 285.036C263.268 284.721 263.987 284.408 264.704 284.097C265.473 283.764 266.239 283.404 266.957 283.072C267.08 283.014 267.207 282.957 267.337 282.899C268.008 282.596 268.702 282.281 269.151 281.781C269.43 281.477 269.621 280.336 269.359 278.043C269.231 276.958 269.036 275.882 268.776 274.821C268.497 273.666 268.099 272.519 267.712 271.411C267.361 270.402 266.996 269.358 266.72 268.299C266.404 267.157 266.259 265.975 266.289 264.791C266.296 264.592 266.31 264.387 266.329 264.164C266.366 263.752 266.297 263.338 266.13 262.959L266.109 262.911C264.574 259.164 262.481 256.04 259.917 253.633C256.801 250.693 253.036 249.154 249.275 249.154ZM231.158 261.077L231.046 259.849C230.738 256.458 230.746 253.43 231.072 250.591C231.545 246.465 232.801 243.818 234.521 240.53L234.8 239.984L235.123 240.51C235.886 241.757 236.614 242.82 237.318 243.85C238.47 245.535 239.56 247.128 240.647 249.281L240.787 249.558L240.518 249.724C239.201 250.542 237.983 251.507 236.889 252.6C234.876 254.607 233.131 257.084 231.704 259.964L231.158 261.077ZM231.764 250.669C231.479 253.296 231.438 255.943 231.642 258.578C232.904 256.208 234.505 254.031 236.397 252.117C237.455 251.061 238.625 250.12 239.885 249.312C238.865 247.338 237.834 245.83 236.746 244.238C236.137 243.348 235.511 242.438 234.856 241.392C233.272 244.451 232.205 246.873 231.764 250.669ZM267.485 260.834L266.936 259.761C264.656 255.284 261.603 251.775 258.105 249.613L257.835 249.447L257.975 249.17C259.048 247.045 260.124 245.476 261.264 243.816C261.962 242.792 262.691 241.739 263.452 240.492L263.774 239.966L264.053 240.513C267.206 246.548 268.262 252.268 267.587 259.641L267.485 260.834ZM258.744 249.191C261.953 251.252 264.787 254.409 266.995 258.383C267.428 251.934 266.427 246.751 263.723 241.37C263.072 242.403 262.449 243.309 261.843 244.195C260.769 245.763 259.75 247.246 258.744 249.191Z" fill="#BCC4D1"/>
</g>
<defs>
<filter id="filter0_d_9123_17213" x="325.542" y="125.34" width="179.445" height="179.34" filterUnits="userSpaceOnUse" color-interpolation-filters="sRGB">
<feFlood flood-opacity="0" result="BackgroundImageFix"/>
<feColorMatrix in="SourceAlpha" type="matrix" values="0 0 0 0 0 0 0 0 0 0 0 0 0 0 0 0 0 0 127 0" result="hardAlpha"/>
<feOffset dy="34"/>
<feGaussianBlur stdDeviation="22"/>
<feComposite in2="hardAlpha" operator="out"/>
<feColorMatrix type="matrix" values="0 0 0 0 0.262257 0 0 0 0 0.458816 0 0 0 0 0.758333 0 0 0 0.1 0"/>
<feBlend mode="normal" in2="BackgroundImageFix" result="effect1_dropShadow_9123_17213"/>
<feBlend mode="normal" in="SourceGraphic" in2="effect1_dropShadow_9123_17213" result="shape"/>
</filter>
<filter id="filter1_d_9123_17213" x="0" y="125.34" width="179.445" height="179.34" filterUnits="userSpaceOnUse" color-interpolation-filters="sRGB">
<feFlood flood-opacity="0" result="BackgroundImageFix"/>
<feColorMatrix in="SourceAlpha" type="matrix" values="0 0 0 0 0 0 0 0 0 0 0 0 0 0 0 0 0 0 127 0" result="hardAlpha"/>
<feOffset dy="34"/>
<feGaussianBlur stdDeviation="22"/>
<feComposite in2="hardAlpha" operator="out"/>
<feColorMatrix type="matrix" values="0 0 0 0 0.262257 0 0 0 0 0.458816 0 0 0 0 0.758333 0 0 0 0.1 0"/>
<feBlend mode="normal" in2="BackgroundImageFix" result="effect1_dropShadow_9123_17213"/>
<feBlend mode="normal" in="SourceGraphic" in2="effect1_dropShadow_9123_17213" result="shape"/>
</filter>
<filter id="filter2_d_9123_17213" x="0" y="291.579" width="179.445" height="179.34" filterUnits="userSpaceOnUse" color-interpolation-filters="sRGB">
<feFlood flood-opacity="0" result="BackgroundImageFix"/>
<feColorMatrix in="SourceAlpha" type="matrix" values="0 0 0 0 0 0 0 0 0 0 0 0 0 0 0 0 0 0 127 0" result="hardAlpha"/>
<feOffset dy="34"/>
<feGaussianBlur stdDeviation="22"/>
<feComposite in2="hardAlpha" operator="out"/>
<feColorMatrix type="matrix" values="0 0 0 0 0.262257 0 0 0 0 0.458816 0 0 0 0 0.758333 0 0 0 0.1 0"/>
<feBlend mode="normal" in2="BackgroundImageFix" result="effect1_dropShadow_9123_17213"/>
<feBlend mode="normal" in="SourceGraphic" in2="effect1_dropShadow_9123_17213" result="shape"/>
</filter>
<filter id="filter3_d_9123_17213" x="165.514" y="383.832" width="179.445" height="179.34" filterUnits="userSpaceOnUse" color-interpolation-filters="sRGB">
<feFlood flood-opacity="0" result="BackgroundImageFix"/>
<feColorMatrix in="SourceAlpha" type="matrix" values="0 0 0 0 0 0 0 0 0 0 0 0 0 0 0 0 0 0 127 0" result="hardAlpha"/>
<feOffset dy="34"/>
<feGaussianBlur stdDeviation="22"/>
<feComposite in2="hardAlpha" operator="out"/>
<feColorMatrix type="matrix" values="0 0 0 0 0.262257 0 0 0 0 0.458816 0 0 0 0 0.758333 0 0 0 0.1 0"/>
<feBlend mode="normal" in2="BackgroundImageFix" result="effect1_dropShadow_9123_17213"/>
<feBlend mode="normal" in="SourceGraphic" in2="effect1_dropShadow_9123_17213" result="shape"/>
</filter>
<filter id="filter4_d_9123_17213" x="325.542" y="291.579" width="179.445" height="179.34" filterUnits="userSpaceOnUse" color-interpolation-filters="sRGB">
<feFlood flood-opacity="0" result="BackgroundImageFix"/>
<feColorMatrix in="SourceAlpha" type="matrix" values="0 0 0 0 0 0 0 0 0 0 0 0 0 0 0 0 0 0 127 0" result="hardAlpha"/>
<feOffset dy="34"/>
<feGaussianBlur stdDeviation="22"/>
<feComposite in2="hardAlpha" operator="out"/>
<feColorMatrix type="matrix" values="0 0 0 0 0.262257 0 0 0 0 0.458816 0 0 0 0 0.758333 0 0 0 0.1 0"/>
<feBlend mode="normal" in2="BackgroundImageFix" result="effect1_dropShadow_9123_17213"/>
<feBlend mode="normal" in="SourceGraphic" in2="effect1_dropShadow_9123_17213" result="shape"/>
</filter>
<filter id="filter5_d_9123_17213" x="161.856" y="34" width="179.445" height="179.34" filterUnits="userSpaceOnUse" color-interpolation-filters="sRGB">
<feFlood flood-opacity="0" result="BackgroundImageFix"/>
<feColorMatrix in="SourceAlpha" type="matrix" values="0 0 0 0 0 0 0 0 0 0 0 0 0 0 0 0 0 0 127 0" result="hardAlpha"/>
<feOffset dy="34"/>
<feGaussianBlur stdDeviation="22"/>
<feComposite in2="hardAlpha" operator="out"/>
<feColorMatrix type="matrix" values="0 0 0 0 0.262257 0 0 0 0 0.458816 0 0 0 0 0.758333 0 0 0 0.1 0"/>
<feBlend mode="normal" in2="BackgroundImageFix" result="effect1_dropShadow_9123_17213"/>
<feBlend mode="normal" in="SourceGraphic" in2="effect1_dropShadow_9123_17213" result="shape"/>
</filter>
<filter id="filter6_d_9123_17213" x="91.5623" y="151.876" width="314.547" height="314.333" filterUnits="userSpaceOnUse" color-interpolation-filters="sRGB">
<feFlood flood-opacity="0" result="BackgroundImageFix"/>
<feColorMatrix in="SourceAlpha" type="matrix" values="0 0 0 0 0 0 0 0 0 0 0 0 0 0 0 0 0 0 127 0" result="hardAlpha"/>
<feOffset dy="44"/>
<feGaussianBlur stdDeviation="32"/>
<feComposite in2="hardAlpha" operator="out"/>
<feColorMatrix type="matrix" values="0 0 0 0 0 0 0 0 0 0.319114 0 0 0 0 0.804167 0 0 0 0.08 0"/>
<feBlend mode="normal" in2="BackgroundImageFix" result="effect1_dropShadow_9123_17213"/>
<feBlend mode="normal" in="SourceGraphic" in2="effect1_dropShadow_9123_17213" result="shape"/>
</filter>
<filter id="filter7_d_9123_17213" x="225.975" y="236.727" width="46.6367" height="58.6309" filterUnits="userSpaceOnUse" color-interpolation-filters="sRGB">
<feFlood flood-opacity="0" result="BackgroundImageFix"/>
<feColorMatrix in="SourceAlpha" type="matrix" values="0 0 0 0 0 0 0 0 0 0 0 0 0 0 0 0 0 0 127 0" result="hardAlpha"/>
<feOffset dy="2"/>
<feComposite in2="hardAlpha" operator="out"/>
<feColorMatrix type="matrix" values="0 0 0 0 1 0 0 0 0 1 0 0 0 0 1 0 0 0 0.8 0"/>
<feBlend mode="normal" in2="BackgroundImageFix" result="effect1_dropShadow_9123_17213"/>
<feBlend mode="normal" in="SourceGraphic" in2="effect1_dropShadow_9123_17213" result="shape"/>
</filter>
<linearGradient id="paint0_linear_9123_17213" x1="255.237" y1="453.203" x2="255.237" y2="425.801" gradientUnits="userSpaceOnUse">
<stop stop-color="#EFC119"/>
<stop offset="0.3314" stop-color="#92C84E"/>
<stop offset="0.4859" stop-color="#71BF5B"/>
<stop offset="0.7506" stop-color="#15B158"/>
<stop offset="0.903" stop-color="#23AC69"/>
<stop offset="1" stop-color="#23AC69"/>
</linearGradient>
<clipPath id="clip0_9123_17213">
<rect width="39.3211" height="23.7484" fill="white" transform="translate(232.375 77.7959)"/>
</clipPath>
</defs>
</svg>
