<svg width="178" height="40" viewBox="0 0 178 40" fill="none" xmlns="http://www.w3.org/2000/svg">
<g clip-path="url(#clip0_2437_17628)">
<path d="M55.0291 21.6823H55.934C55.9474 21.6828 55.9607 21.6806 55.9731 21.6757C55.9856 21.6707 55.9969 21.6632 56.0063 21.6537C56.0158 21.6441 56.0232 21.6327 56.028 21.6201C56.0329 21.6075 56.0351 21.594 56.0346 21.5805L56.1351 21.4786L59.8574 17.6083C59.958 17.5065 59.958 17.5065 60.0585 17.5065H60.7624L56.7394 21.6823L56.5383 21.8859C56.4377 21.8859 56.4377 21.9878 56.3372 21.9878C56.4134 21.9984 56.4841 22.0342 56.5383 22.0896L56.7394 22.2932L60.9635 26.7745H60.2592L60.1586 26.6727L56.3367 22.7005L56.2362 22.5977L56.1356 22.4959C56.0584 22.4885 55.9867 22.4522 55.9345 22.3941H55.0291V26.8763H54.3252V17.6083H55.0291V21.6823Z" fill="#A7ADBE"/>
<path d="M79.9715 26.6727H79.3663L79.2657 26.5709L78.1592 23.9229H73.6354L72.5288 26.5709C72.5294 26.5844 72.5271 26.5979 72.5223 26.6105C72.5174 26.6231 72.51 26.6345 72.5006 26.6441C72.4911 26.6537 72.4798 26.6611 72.4674 26.6661C72.4549 26.671 72.4416 26.6732 72.4283 26.6727C72.3277 26.6727 72.3277 26.7745 72.2272 26.7745H71.825L75.5473 17.5065H76.1506L79.9715 26.6727ZM77.8595 23.3115L75.9485 18.6265C75.848 18.4229 75.848 18.3211 75.7474 18.1174C75.7474 18.2192 75.6469 18.3211 75.6469 18.4229C75.6469 18.5247 75.5463 18.6265 75.5463 18.7284L73.8365 23.3115H77.8595Z" fill="#A7ADBE"/>
<path d="M98.8794 17.4047V26.6727H98.4772L98.3767 26.5709L92.4427 18.5252V26.7745H91.8394V17.5065H92.2416C92.255 17.5059 92.2683 17.5082 92.2807 17.5131C92.2932 17.518 92.3045 17.5255 92.3139 17.5351C92.3234 17.5447 92.3308 17.5561 92.3356 17.5687C92.3405 17.5813 92.3427 17.5948 92.3422 17.6083L98.2761 25.6545V17.5065H98.8794V17.4047Z" fill="#A7ADBE"/>
<path d="M118.994 17.4047V26.6727H118.592L118.491 26.5709L112.557 18.5252V26.7745H111.954V17.5065H112.356C112.37 17.5059 112.383 17.5082 112.395 17.5131C112.408 17.518 112.419 17.5255 112.428 17.5351C112.438 17.5447 112.445 17.5561 112.45 17.5687C112.455 17.5813 112.457 17.5948 112.457 17.6083L118.391 25.6545V17.5065H118.994V17.4047Z" fill="#A7ADBE"/>
<path d="M139.009 26.6727H138.405L138.305 26.5709L137.198 23.9229H132.672L131.566 26.5709C131.566 26.5844 131.564 26.5979 131.559 26.6105C131.554 26.6231 131.547 26.6345 131.538 26.6441C131.528 26.6537 131.517 26.6611 131.504 26.6661C131.492 26.671 131.479 26.6732 131.465 26.6727C131.365 26.6727 131.365 26.7745 131.264 26.7745H130.761L134.484 17.5065H135.087L139.009 26.6727ZM136.998 23.312L135.087 18.627C134.986 18.4234 134.986 18.3216 134.885 18.1179C134.885 18.2197 134.785 18.3216 134.785 18.4234C134.785 18.5252 134.684 18.627 134.684 18.7289L132.773 23.4138H136.998V23.312Z" fill="#A7ADBE"/>
<path d="M157.313 25.0435H157.414L157.715 25.349C157.54 25.5479 157.337 25.7195 157.112 25.8581C156.901 26.0314 156.663 26.169 156.408 26.2654L155.503 26.5709C155.175 26.655 154.836 26.6893 154.498 26.6727C153.914 26.6793 153.334 26.5757 152.788 26.3672C152.263 26.1601 151.784 25.8484 151.38 25.4508C150.964 25.0205 150.654 24.4971 150.475 23.9229C150.072 22.665 150.072 21.3105 150.475 20.0526C150.654 19.4776 150.964 18.9535 151.381 18.5228C151.789 18.1038 152.266 17.7593 152.789 17.5045C153.368 17.2875 153.983 17.1838 154.6 17.199C155.183 17.1924 155.763 17.296 156.31 17.5045C156.779 17.7153 157.218 17.9893 157.615 18.3191L157.414 18.6246C157.414 18.7264 157.313 18.7264 157.213 18.7264C157.112 18.7264 157.112 18.7264 156.911 18.6246C156.758 18.5005 156.588 18.3978 156.408 18.3191C156.147 18.2005 155.878 18.0985 155.604 18.0136C155.242 17.9245 154.869 17.8902 154.497 17.9118C153.979 17.9047 153.464 18.0088 152.988 18.2173C152.549 18.4285 152.142 18.7029 151.78 19.0319C151.454 19.4338 151.184 19.8784 150.976 20.3537C150.573 21.472 150.573 22.6983 150.976 23.8167C151.145 24.3114 151.42 24.7625 151.78 25.1385C152.124 25.4899 152.535 25.767 152.988 25.9531C153.429 26.1615 153.91 26.2659 154.397 26.2585C154.702 26.2751 155.008 26.2407 155.302 26.1567C155.55 26.1507 155.792 26.0806 156.005 25.9531L156.609 25.6476C156.795 25.5376 156.965 25.4003 157.112 25.2403L157.313 25.0366L157.313 25.0435Z" fill="#A7ADBE"/>
<path d="M177.83 21.9877C177.836 22.6453 177.735 23.2992 177.529 23.9229C177.35 24.4971 177.04 25.0205 176.624 25.4508C176.237 25.87 175.753 26.185 175.216 26.3672C174.637 26.5842 174.022 26.6879 173.405 26.6727C172.789 26.6706 172.178 26.5675 171.595 26.3672C171.07 26.16 170.591 25.8484 170.187 25.4508C169.771 25.0205 169.461 24.4971 169.282 23.9229C168.879 22.6649 168.879 21.3105 169.282 20.0526C169.461 19.4789 169.772 18.9562 170.188 18.5267C170.575 18.1074 171.059 17.7925 171.597 17.6102C172.176 17.3932 172.79 17.2895 173.407 17.3048C174.023 17.3068 174.634 17.41 175.217 17.6102C175.743 17.8174 176.221 18.129 176.626 18.5267C177.042 18.9569 177.352 19.4804 177.531 20.0545C177.736 20.6777 177.837 21.331 177.83 21.9877ZM177.127 21.9877C177.133 21.3966 177.031 20.8094 176.825 20.2562C176.651 19.785 176.414 19.3403 176.121 18.9344C175.804 18.5506 175.384 18.2677 174.912 18.1198C174.436 17.9113 173.922 17.8072 173.404 17.8144C172.886 17.8173 172.374 17.921 171.895 18.1198C171.455 18.3311 171.048 18.6054 170.686 18.9344C170.361 19.3364 170.09 19.781 169.882 20.2562C169.48 21.3746 169.48 22.6009 169.882 23.7192C170.052 24.2139 170.326 24.6651 170.686 25.041C171.003 25.4249 171.423 25.7078 171.895 25.8556C172.371 26.0641 172.885 26.1682 173.404 26.1611C173.921 26.1582 174.434 26.0545 174.912 25.8556C175.352 25.6444 175.759 25.37 176.121 25.041C176.506 24.7016 176.757 24.2318 176.825 23.7192C177.04 23.1686 177.142 22.5796 177.127 21.9877Z" fill="#A7ADBE"/>
<path fill-rule="evenodd" clip-rule="evenodd" d="M17.5148 34.5543C17.4142 29.6658 16.1066 25.49 13.2907 22.0269C10.7769 18.9717 6.85395 16.6287 1.42274 15.2032C1.72439 20.6014 2.93149 24.879 5.44575 28.1379C8.06104 31.2955 11.9835 33.5376 17.5148 34.5543ZM14.3972 21.1105C17.6153 24.9808 18.9206 29.7681 18.9206 35.2676V35.3694C18.882 35.5525 18.7793 35.7153 18.6314 35.8276C18.4836 35.9399 18.3005 35.9942 18.1161 35.9804C11.6794 34.9621 7.25422 32.6192 4.43782 28.953C1.52136 25.2863 0.21371 20.3977 0.113159 14.3886V14.1849C0.131745 14.0973 0.167507 14.0144 0.218326 13.9411C0.269144 13.8678 0.333985 13.8055 0.409004 13.758C0.484022 13.7106 0.567691 13.6788 0.65505 13.6647C0.742409 13.6506 0.831679 13.6543 0.917568 13.6758C7.1556 14.9995 11.5808 17.6475 14.3972 21.1105Z" fill="#A7ADBE"/>
<path fill-rule="evenodd" clip-rule="evenodd" d="M24.4547 35.3695C24.3763 33.2015 25.0527 31.0746 26.3657 29.3603C27.5742 27.9343 29.3827 26.8147 31.998 26.2033C32.4002 26.1014 32.8024 26.3051 32.8024 26.7124V26.916C32.7019 29.4617 32.1991 31.4991 30.992 33.027C29.7849 34.5549 27.8744 35.5726 25.1586 35.9804C24.7564 36.0822 24.4547 35.7768 24.3542 35.3695H24.4547ZM27.4718 30.1754C26.4662 31.296 26.0636 32.8234 25.8625 34.4531C27.6729 34.0458 29.0811 33.2292 29.8855 32.1106C30.7904 30.99 31.1907 29.565 31.3942 27.7311C29.9058 28.2014 28.5573 29.0416 27.4718 30.1749V30.1754Z" fill="#A7ADBE"/>
<path fill-rule="evenodd" clip-rule="evenodd" d="M11.4803 18.768C11.0062 19.8947 10.7666 21.1082 10.7764 22.3329C10.7589 23.8157 11.1798 25.27 11.985 26.5087C12.7747 27.736 13.941 28.6664 15.3041 29.1566C16.276 29.4906 17.2949 29.6625 18.3211 29.6657C19.3809 29.6707 20.4342 29.4987 21.4387 29.1566C22.7895 28.6917 23.9312 27.7523 24.6573 26.5087C25.398 25.2835 25.7816 23.8712 25.7638 22.4347C25.7387 21.1374 25.4655 19.8573 24.9594 18.6652C23.5512 15.304 20.9364 10.9245 19.2266 7.8693C18.9249 7.25835 18.5227 6.74874 18.3216 6.23961C18.02 6.74874 17.7183 7.25786 17.4167 7.8693C15.5057 10.8227 12.8909 15.3045 11.4827 18.767L11.4803 18.768ZM9.36823 22.2311C9.39271 20.8682 9.66541 19.5215 10.1726 18.2589C11.5808 14.694 14.2962 10.1109 16.1066 7.05568C16.8105 5.93512 17.3151 5.01869 17.6153 4.40774L17.917 4.10227C17.9931 4.04899 18.0804 4.01437 18.172 4.00116C18.2636 3.98794 18.357 3.99649 18.4448 4.02612C18.5326 4.05575 18.6124 4.10565 18.6778 4.17189C18.7433 4.23812 18.7926 4.31887 18.822 4.40774C19.1236 5.01869 19.7269 5.93561 20.3307 7.05568C22.1411 10.1109 24.7559 14.4904 26.1641 18.0552C26.7415 19.4067 27.049 20.8605 27.0691 22.3329C27.1024 24.023 26.6488 25.6863 25.7638 27.1196C24.8454 28.5903 23.4626 29.7029 21.8404 30.2767C20.6452 30.7021 19.3848 30.9092 18.1181 30.8881C16.9172 30.9102 15.723 30.7029 14.5978 30.2772C12.9638 29.6775 11.5572 28.573 10.5768 27.1196C9.80045 25.6088 9.38643 23.9341 9.36823 22.2311Z" fill="#A7ADBE"/>
<path fill-rule="evenodd" clip-rule="evenodd" d="M11.0781 19.7863C10.8868 20.4483 10.7853 21.1336 10.7764 21.8233C10.6619 23.3664 11.0507 24.9049 11.883 26.2027C12.6823 27.4852 13.8881 28.4547 15.3027 28.9525C15.8227 29.1478 16.3624 29.2844 16.912 29.3598C16.4286 27.4319 15.6838 25.5812 14.6989 23.8603C13.7169 22.3134 12.4941 20.9376 11.0781 19.7863ZM9.36825 21.8233C9.40873 20.6701 9.64706 19.5329 10.0726 18.4625C10.0726 18.3607 10.1731 18.3607 10.1731 18.2589C10.2287 18.1801 10.3003 18.1141 10.3831 18.0656C10.4659 18.017 10.5579 17.9869 10.6531 17.9773C10.7483 17.9676 10.8444 17.9787 10.9351 18.0097C11.0257 18.0407 11.1087 18.0909 11.1786 18.1571C13.0882 19.5746 14.7244 21.3352 16.0061 23.3511C17.2557 25.4476 18.1082 27.7618 18.5198 30.1749V30.3785C18.5287 30.4701 18.5156 30.5625 18.4818 30.648C18.4479 30.7334 18.3943 30.8093 18.3253 30.8692C18.2564 30.9292 18.1742 30.9715 18.0857 30.9925C17.9972 31.0135 17.905 31.0126 17.817 30.99C16.8124 31.0045 15.8169 30.7959 14.9005 30.379C13.1785 29.7371 11.7002 28.5616 10.6759 27.0198C9.72932 25.4622 9.27339 23.6496 9.36873 21.8233H9.36825Z" fill="#A7ADBE"/>
</g>
<defs>
<clipPath id="clip0_2437_17628">
<rect width="177.714" height="32" fill="white" transform="translate(0.115601 4)"/>
</clipPath>
</defs>
</svg>
