<svg width="89" height="40" viewBox="0 0 89 40" fill="none" xmlns="http://www.w3.org/2000/svg">
<path d="M7.99262 4.50023V17.3165C7.98596 17.5832 7.90318 17.8437 7.75238 18.0726C7.60159 18.3015 7.38795 18.4908 7.1324 18.6221C6.87685 18.7534 6.58815 18.8221 6.29459 18.8215C6.00103 18.8209 5.71267 18.751 5.45776 18.6187L0.94073 16.333C0.683435 16.205 0.468555 16.0167 0.31841 15.7877C0.168266 15.5587 0.0883328 15.2974 0.0869141 15.0308L0.0869141 4.50023C0.0878518 4.43367 0.103208 4.36794 0.132105 4.30678C0.161003 4.24562 0.202876 4.19023 0.255333 4.14378C0.30779 4.09733 0.369803 4.06072 0.437832 4.03605C0.50586 4.01137 0.578571 3.99912 0.651813 3.99998H7.42772C7.50096 3.99912 7.57367 4.01137 7.6417 4.03605C7.70973 4.06072 7.77175 4.09733 7.8242 4.14378C7.87666 4.19023 7.91853 4.24562 7.94743 4.30678C7.97633 4.36794 7.99168 4.43367 7.99262 4.50023ZM5.45776 21.3812L0.94073 23.6669C0.683435 23.7949 0.468555 23.9832 0.31841 24.2122C0.168266 24.4412 0.0883328 24.7025 0.0869141 24.9691L0.0869141 35.4997C0.0878518 35.5662 0.103208 35.6319 0.132105 35.6931C0.161003 35.7543 0.202876 35.8096 0.255333 35.8561C0.30779 35.9025 0.369803 35.9392 0.437832 35.9638C0.50586 35.9885 0.578571 36.0008 0.651813 35.9999H7.42772C7.50096 36.0008 7.57367 35.9885 7.6417 35.9638C7.70973 35.9392 7.77175 35.9025 7.8242 35.8561C7.87666 35.8096 7.91853 35.7543 7.94743 35.6931C7.97633 35.6319 7.99168 35.5662 7.99262 35.4997V22.6834C7.98596 22.4167 7.90318 22.1561 7.75238 21.9273C7.60159 21.6984 7.38795 21.5091 7.1324 21.3778C6.87685 21.2465 6.58815 21.1778 6.29459 21.1784C6.00103 21.179 5.71267 21.2488 5.45776 21.3812Z" fill="#A7ADBE"/>
<path d="M0.982415 24.1051L7.99262 22.6834V30.4437L0.928513 25.195C0.556944 24.9181 0.0955385 25.0455 0.0869141 25.4203V25.3465V24.9671C0.0869141 24.3702 0.982415 24.1051 0.982415 24.1051ZM0.928513 14.8049C0.556944 15.0817 0.0955385 14.9544 0.0869141 14.5795V14.6527V15.0328C0.0869141 15.6316 0.982415 15.8968 0.982415 15.8968L7.99262 17.3165V9.55621L0.928513 14.8049Z" fill="#A7ADBE"/>
<path d="M23.804 28.6791V35.2372C23.8019 35.3261 23.7743 35.413 23.7241 35.4894C23.6738 35.5657 23.6026 35.6289 23.5173 35.6727C23.4321 35.7165 23.3358 35.7394 23.2379 35.7392C23.14 35.7389 23.0438 35.7156 22.9588 35.6714L0.931387 24.5263C0.847129 24.4824 0.751822 24.459 0.654692 24.4584C0.557563 24.4578 0.461902 24.4799 0.37697 24.5228C0.292037 24.5656 0.220711 24.6276 0.169896 24.7028C0.11908 24.7781 0.0904975 24.8639 0.0869141 24.9521C0.0903049 24.6924 0.169681 24.4381 0.316898 24.2155C0.467889 23.9858 0.683129 23.7965 0.94073 23.6669L7.15246 20.5224C7.40946 20.3927 7.69862 20.3246 7.99262 20.3246C8.28663 20.3246 8.57578 20.3927 8.83278 20.5224L23.2348 27.8112C23.4064 27.8965 23.5496 28.022 23.6497 28.1746C23.7498 28.3272 23.8031 28.5015 23.804 28.6791ZM22.9588 4.32654L0.931387 15.4736C0.847129 15.5175 0.751822 15.5409 0.654692 15.5415C0.557563 15.5422 0.461902 15.52 0.37697 15.4772C0.292037 15.4343 0.220711 15.3723 0.169896 15.2971C0.11908 15.2219 0.0904975 15.136 0.0869141 15.0478C0.0903049 15.3076 0.169681 15.5618 0.316898 15.7845C0.467889 16.0142 0.683129 16.2034 0.94073 16.333L7.15246 19.4775C7.40946 19.6073 7.69862 19.6754 7.99262 19.6754C8.28663 19.6754 8.57578 19.6073 8.83278 19.4775L23.2348 12.1887C23.4064 12.1034 23.5496 11.978 23.6497 11.8253C23.7498 11.6727 23.8031 11.4985 23.804 11.3208V4.76279C23.8022 4.67368 23.775 4.58652 23.7248 4.50991C23.6747 4.43329 23.6035 4.36985 23.5182 4.32583C23.433 4.28181 23.3365 4.25873 23.2384 4.25885C23.1404 4.25898 23.044 4.28231 22.9588 4.32654Z" fill="#A7ADBE"/>
<path d="M42.3939 26.8571L37.9416 22.5142V26.8571H34.6456V10.5352H37.9416V20.5479L42.1431 16.3428H46.2936L41.0356 21.3263L46.6961 26.8571H42.3939Z" fill="#A7ADBE"/>
<path d="M58.1666 22.4222H49.6629C49.8985 23.0772 50.368 23.6421 50.997 24.0273C51.6259 24.4124 52.3783 24.5959 53.1349 24.5486C54.2716 24.5591 55.3696 24.1746 56.2045 23.4736L57.5628 25.6222C56.2293 26.6376 54.5198 27.1528 52.7828 27.0628C49.1095 27.0628 46.418 24.6857 46.418 21.5993C46.3975 20.8749 46.5398 20.1543 46.8363 19.4815C47.1327 18.8088 47.5771 18.1981 48.1421 17.6867C48.7072 17.1753 49.3811 16.774 50.1227 16.5074C50.8643 16.2407 51.6579 16.1143 52.455 16.1358C55.9515 16.1358 58.2161 18.4679 58.2161 21.6215C58.2169 22.0108 58.1666 22.4222 58.1666 22.4222ZM49.6859 20.5029H55.069C55.0092 19.946 54.7187 19.4306 54.2563 19.0612C53.7938 18.6918 53.1941 18.4961 52.5787 18.5136C51.9154 18.4793 51.2604 18.6606 50.7309 19.0251C50.2014 19.3895 49.8319 19.9134 49.6888 20.5029H49.6859Z" fill="#A7ADBE"/>
<path d="M71.5258 16.3428L66.1643 26.8799H63.674L58.3908 16.3428H61.9671L65.0575 23.0164L68.0509 16.3428H71.5258Z" fill="#A7ADBE"/>
<path d="M83.421 22.4222H74.9181C75.1536 23.0772 75.6229 23.642 76.2517 24.0272C76.8805 24.4124 77.6328 24.5959 78.3894 24.5486C79.5261 24.5597 80.6245 24.1751 81.459 23.4736L82.8173 25.6222C81.4837 26.6376 79.7743 27.1528 78.0372 27.0628C74.3647 27.0628 71.6724 24.6857 71.6724 21.5993C71.6519 20.8749 71.7943 20.1543 72.0907 19.4815C72.3872 18.8088 72.8315 18.1981 73.3966 17.6867C73.9617 17.1753 74.6356 16.774 75.3771 16.5074C76.1187 16.2407 76.9123 16.1143 77.7095 16.1358C81.2067 16.1358 83.4706 18.4679 83.4706 21.6215C83.4713 22.0108 83.421 22.4222 83.421 22.4222ZM74.9403 20.5029H80.3241C80.2642 19.9459 79.9736 19.4306 79.511 19.0612C79.0484 18.6918 78.4486 18.4961 77.8331 18.5136C77.1699 18.4793 76.5149 18.6606 75.9854 19.0251C75.4558 19.3895 75.0864 19.9134 74.9432 20.5029H74.9403Z" fill="#A7ADBE"/>
<path d="M85.6073 10.5352H88.9033V26.8571H85.6073V10.5352Z" fill="#A7ADBE"/>
</svg>
