<svg width="16" height="16" viewBox="0 0 16 16" fill="none" xmlns="http://www.w3.org/2000/svg">
<path d="M4.1877 15H1.18215V5.54861H4.1877V15ZM3.91463 3.79877C3.60242 4.11202 3.19036 4.26867 2.67854 4.26867H2.66542C2.17106 4.26867 1.77003 4.11202 1.46201 3.79877C1.15394 3.48552 1 3.09743 1 2.6344C1 2.16231 1.15841 1.77184 1.4749 1.46308C1.79163 1.15441 2.20141 1 2.70443 1C3.20749 1 3.61085 1.15441 3.91449 1.46308C4.21805 1.77184 4.37422 2.16231 4.38283 2.6344C4.38279 3.09724 4.22684 3.48533 3.91463 3.79877ZM14.9998 15H11.9943V9.94758C11.9943 8.52234 11.4913 7.80951 10.4851 7.80951C10.1035 7.80951 9.7824 7.9207 9.52228 8.14317C9.26184 8.3655 9.06674 8.63563 8.93682 8.95365C8.87598 9.11688 8.84572 9.37103 8.84572 9.71595V15H5.84017C5.86619 9.29838 5.86619 6.14777 5.84017 5.54851H8.84572V6.88288C9.47766 5.84869 10.375 5.33052 11.5391 5.33052C12.5799 5.33052 13.4171 5.68923 14.0502 6.40636C14.6835 7.12363 15 8.18147 15 9.57933L14.9998 15Z" fill="#8C93A6"/>
</svg>
