<svg width="112" height="40" viewBox="0 0 112 40" fill="none" xmlns="http://www.w3.org/2000/svg">
<g clip-path="url(#clip0_2437_33083)">
<path fill-rule="evenodd" clip-rule="evenodd" d="M13.2234 4.99415C12.9866 5.03454 12.7535 5.09347 12.5261 5.17061C12.462 5.19415 9.82371 6.50105 6.66198 8.06667C3.13352 9.81476 0.87973 10.9506 0.818608 11.0153C0.760612 11.0782 0.724364 11.1577 0.715184 11.2424C0.706003 11.3271 0.72437 11.4124 0.767575 11.4861C0.808521 11.5449 2.6131 12.4573 7.09755 14.6822C10.5477 16.395 13.4513 17.8253 13.5533 17.8665C14.3035 18.1275 15.1194 18.1358 15.8748 17.8901C15.9869 17.8489 16.9222 17.4014 17.9517 16.9011C21.2114 15.3002 24.3429 13.758 25.3558 13.2518C25.6682 13.0666 26.0014 12.9184 26.3486 12.8104C26.3587 12.8339 26.3623 16.0182 26.3587 19.8851C26.3486 26.6597 26.3451 26.9248 26.2839 27.1367C26.1437 27.6038 25.8565 28.014 25.4644 28.3078C25.2229 28.502 24.6146 28.814 20.2055 31.0035L15.2149 33.4814V27.7488C15.2149 22.0101 15.2084 21.5805 15.0962 21.1508C14.8631 20.3192 14.3309 19.6009 13.6002 19.1319C13.2442 18.9023 0.947375 12.8048 0.777064 12.7753C0.706009 12.7617 0.632417 12.7708 0.566992 12.8015C0.501568 12.8322 0.447721 12.8826 0.413296 12.9457C0.359295 13.0458 0.353962 13.5579 0.36583 19.8498L0.375917 26.6481L0.467896 26.9424C0.754118 27.7889 1.33972 28.5039 2.1164 28.9553C2.51458 29.1848 12.5938 34.176 12.6199 34.1525C12.646 34.129 12.6472 32.8693 12.627 32.8575C12.6199 32.8575 10.372 31.7394 7.63282 30.3856C3.20711 28.1902 2.622 27.89 2.38048 27.7017C2.02424 27.4254 1.75529 27.0535 1.60547 26.6303L1.53427 26.4481L1.52418 20.4502C1.52062 16.5184 1.52773 14.4526 1.55147 14.4526C1.57521 14.4526 2.47601 14.8939 3.56374 15.4354C4.65148 15.9769 7.13019 17.2013 9.06414 18.1548C10.9981 19.1083 12.684 19.9559 12.8104 20.0265C13.1654 20.2541 13.4743 20.5456 13.7213 20.8859C13.8008 21.0234 13.8691 21.1671 13.9254 21.3155L14.0103 21.5569L14.0275 28.2313L14.0447 34.9L14.1432 34.9471C14.2646 34.9921 14.3944 35.01 14.5236 35H14.8096L20.2245 32.3161C23.1993 30.8387 25.7659 29.5439 25.9214 29.4439C26.3335 29.1595 26.6933 28.8071 26.9854 28.4021C27.1894 28.0979 27.3399 27.7615 27.4304 27.4074L27.5052 27.1542L27.5153 19.3437C27.5188 15.0529 27.5153 11.5039 27.5087 11.4685C27.3619 11.3241 27.1767 11.2239 26.9747 11.18C26.8892 11.18 27.066 11.0919 18.1921 15.465C16.791 16.1537 15.5674 16.748 15.4725 16.7833C15.0847 16.9293 14.6612 16.954 14.2589 16.854C14.0649 16.801 12.7053 16.1418 8.45232 14.0347C5.39978 12.5161 2.91456 11.2684 2.93355 11.2507C3.01484 11.1742 12.9854 6.25949 13.1623 6.20063C13.5432 6.11225 13.9402 6.11847 14.3183 6.21845C14.4506 6.25965 16.718 7.37189 19.3623 8.69032C22.0066 10.0087 24.1832 11.08 24.2034 11.08C24.2236 11.08 24.5096 10.9505 24.8425 10.7857C25.0636 10.7076 25.2694 10.5921 25.4508 10.4443C25.4508 10.409 23.8485 9.59684 20.1545 7.76635C15.9733 5.69454 14.8037 5.12946 14.5895 5.0706C14.1384 4.99482 13.6802 4.96923 13.2234 4.99415ZM79.0648 17.9018C79.072 23.6817 79.0785 24.1055 79.1331 24.388C79.4055 25.715 80.1742 26.8904 81.2848 27.6781C81.9284 28.1461 82.6658 28.4713 83.4472 28.6317C84.149 28.7357 84.8622 28.7397 85.5652 28.6435C86.7945 28.4183 87.9023 27.7647 88.6889 26.801C89.092 26.3348 89.4034 25.7978 89.6069 25.2177C89.8269 24.6417 89.9196 24.0256 89.8787 23.4109C89.9163 22.8074 89.8296 22.2026 89.6241 21.6334C89.1382 20.2777 88.1484 19.1576 86.857 18.5022C86.2093 18.1853 85.4981 18.0162 84.7759 18.0076C83.4322 17.9214 82.1063 18.3492 81.0706 19.2026L80.8564 19.3851V11.7217H79.0548L79.0648 17.9018ZM85.021 19.7558C85.4124 19.8046 85.7941 19.9118 86.1532 20.0737C86.6354 20.2929 87.0628 20.6151 87.4048 21.0172C87.7469 21.4193 87.9951 21.8915 88.1318 22.3998C88.2685 22.9082 88.2903 23.4401 88.1956 23.9578C88.1009 24.4755 87.892 24.9662 87.584 25.3945C87.3223 25.7423 87.0161 26.0547 86.6731 26.3242C86.0402 26.7663 85.2838 27.0014 84.5098 26.9961C83.7357 26.9908 82.9826 26.7456 82.3559 26.2949C81.86 25.9373 81.4633 25.4611 81.2028 24.9105C80.9424 24.3599 80.8267 23.7528 80.8665 23.1459C80.8848 22.6912 80.9934 22.2447 81.1859 21.8317C81.3785 21.4186 81.6512 21.0471 81.9886 20.7387C82.3853 20.3568 82.8647 20.0699 83.3902 19.8995C83.9157 19.7292 84.4735 19.68 85.021 19.7558ZM102.617 17.8369C102.749 18.0841 104.626 21.1979 104.881 21.5923C105.17 21.9979 105.413 22.4341 105.605 22.893C105.389 23.4585 105.085 23.9866 104.704 24.4584C104.12 25.3354 103.235 26.6952 102.304 28.1431L102.035 28.5549H104.299L105.207 27.2131C105.707 26.4774 106.22 25.7182 106.346 25.5181C106.48 25.2568 106.688 25.0399 106.944 24.8941C107.131 24.847 107.352 25.0588 107.675 25.6003C107.781 25.7709 108.269 26.5068 108.767 27.2367L109.667 28.5549H111.925L110.527 26.5716C108.77 24.0819 108.491 23.6639 108.355 23.3166C108.278 23.164 108.247 22.9921 108.267 22.8223C108.333 22.4279 108.496 22.056 108.742 21.7394C109.75 20.0208 110.993 17.9016 111.033 17.8369L111.08 17.7605H108.912L108.222 19.0141C107.844 19.7086 107.481 20.3561 107.412 20.4562C107.359 20.5584 107.274 20.6412 107.17 20.693C107.067 20.7448 106.949 20.7627 106.834 20.7445C106.563 20.7033 106.43 20.5328 105.573 19.0672L104.804 17.7605H102.574L102.617 17.8369ZM50.4989 17.8665C48.3911 18.1019 47.0826 19.226 46.8648 20.9976C46.8411 21.1801 46.8275 22.5809 46.8275 24.8999V28.5199H48.4932V25.3945C48.4967 23.6699 48.5104 22.1042 48.527 21.9159C48.5357 21.5912 48.6175 21.2725 48.7664 20.9833C48.9152 20.6941 49.1274 20.4418 49.3874 20.2444C49.8205 19.9382 50.3202 19.7374 50.846 19.6587C51.3719 19.5799 51.909 19.6254 52.4139 19.7912C52.7436 19.8835 53.0458 20.0537 53.2945 20.2875C53.5432 20.5213 53.731 20.8114 53.8416 21.133C54.025 21.6451 54.0321 21.7512 54.0321 25.2709V28.5199H55.8373L55.8237 24.7999C55.81 20.7916 55.8136 20.8918 55.6267 20.3326C55.4765 19.8992 55.2398 19.5 54.9307 19.1592C54.6217 18.8184 54.2467 18.543 53.828 18.349C53.2829 18.0879 52.6962 17.9225 52.094 17.8605C51.563 17.8214 51.0297 17.8235 50.4989 17.8665ZM62.108 17.9487C60.9055 18.1152 59.79 18.6647 58.9296 19.5144C58.3615 20.0641 57.9409 20.746 57.706 21.498C57.5093 22.0698 57.4161 22.6716 57.4306 23.2755C57.4144 23.8774 57.5065 24.4772 57.7024 25.047C58.1044 26.266 58.936 27.3005 60.0446 27.9606C60.8994 28.5061 61.9061 28.7696 62.9209 28.7139C63.6238 28.683 64.3144 28.5212 64.9569 28.2371L65.151 28.1489V26.1184L64.9913 26.242C64.2865 26.8123 63.3849 27.0868 62.4789 27.007C61.3602 26.8065 60.3568 26.2 59.6642 25.306C59.3116 24.7978 59.1295 24.1923 59.1438 23.5756C59.0721 22.6699 59.3464 21.7708 59.9123 21.0566C60.4941 20.3241 61.3354 19.8392 62.2649 19.7004C63.1945 19.5615 64.1426 19.7791 64.916 20.3091L65.1848 20.4915V18.5787L64.8822 18.4433C64.2273 18.1168 63.5043 17.9472 62.7714 17.9487C62.4616 17.9369 62.1661 17.9428 62.108 17.9487ZM39.0086 17.9958C37.7223 18.1507 36.5357 18.7609 35.6671 19.7144C35.1824 20.2139 34.8071 20.8078 34.5649 21.4581C34.3226 22.1083 34.2186 22.8013 34.2595 23.4934C34.2757 24.1654 34.426 24.8272 34.7016 25.4413C35.0204 26.128 35.4737 26.7449 36.0352 27.2562C36.5966 27.7675 37.2549 28.163 37.9719 28.4196C38.533 28.6169 39.1278 28.703 39.7225 28.6728C40.3268 28.7032 40.9313 28.6171 41.5027 28.4196C42.3255 28.1339 43.0662 27.6551 43.6618 27.0237C44.2573 26.3923 44.6899 25.6274 44.9226 24.7941C45.0634 24.2626 45.1173 23.7122 45.0822 23.1637C45.0843 22.391 44.8965 21.6293 44.5351 20.9448C44.1764 20.2194 43.6577 19.5835 43.0174 19.0842C42.3771 18.5849 41.6316 18.2352 40.8363 18.0608C40.2309 17.9773 39.6185 17.9554 39.0086 17.9958ZM40.4535 19.7498C41.0144 19.8594 41.5428 20.094 41.9991 20.4355C42.4554 20.777 42.8276 21.2167 43.0877 21.7216C43.3867 22.3671 43.4884 23.0855 43.3803 23.7877C43.2736 24.6153 42.8778 25.3796 42.2617 25.9477C42.0048 26.2189 41.6993 26.4404 41.3609 26.601C40.9236 26.8145 40.4479 26.9397 39.9614 26.9697C39.4749 26.9997 38.9873 26.9339 38.5267 26.7757C38.0661 26.6175 37.6417 26.3702 37.2781 26.0483C36.9144 25.7264 36.6188 25.3359 36.4082 24.8999C36.1573 24.3801 36.0343 23.8088 36.0494 23.2327C36.0644 22.6567 36.2171 22.0924 36.4948 21.5862C36.7725 21.0801 37.1673 20.6465 37.6468 20.3211C38.1263 19.9957 38.6768 19.7877 39.2531 19.7144C39.6534 19.6854 40.0557 19.6973 40.4535 19.7498ZM71.2359 17.9958C69.9497 18.1507 68.7631 18.7609 67.8944 19.7144C67.4097 20.2139 67.0344 20.8078 66.7922 21.4581C66.5499 22.1083 66.446 22.8013 66.4868 23.4934C66.503 24.1654 66.6533 24.8272 66.9289 25.4413C67.2477 26.128 67.7011 26.7449 68.2625 27.2562C68.8239 27.7675 69.4822 28.163 70.1992 28.4196C70.7603 28.6169 71.3552 28.703 71.9498 28.6728C72.5541 28.7032 73.1586 28.6171 73.73 28.4196C74.5528 28.1339 75.2936 27.6551 75.8891 27.0237C76.4846 26.3923 76.9172 25.6274 77.1499 24.7941C77.2907 24.2626 77.3446 23.7122 77.3095 23.1637C77.3117 22.391 77.1238 21.6293 76.7624 20.9448C76.4037 20.2194 75.885 19.5835 75.2447 19.0842C74.6044 18.5849 73.8589 18.2352 73.0636 18.0608C72.4582 17.9773 71.8458 17.9554 71.2359 17.9958ZM72.6809 19.7498C73.2417 19.8594 73.7702 20.094 74.2264 20.4355C74.6827 20.777 75.0549 21.2167 75.3151 21.7216C75.614 22.3671 75.7157 23.0855 75.6076 23.7877C75.5009 24.6153 75.1051 25.3796 74.489 25.9477C74.2321 26.2189 73.9266 26.4404 73.5882 26.601C73.1509 26.8145 72.6752 26.9397 72.1887 26.9697C71.7022 26.9997 71.2146 26.9339 70.754 26.7757C70.2934 26.6175 69.869 26.3702 69.5054 26.0483C69.1417 25.7264 68.8461 25.3359 68.6356 24.8999C68.3848 24.3801 68.2619 23.8088 68.2771 23.2327C68.2922 22.6567 68.4449 22.0924 68.7227 21.5862C69.0004 21.0801 69.3952 20.6465 69.8747 20.3211C70.3542 19.9958 70.9047 19.7878 71.481 19.7144C71.8811 19.6855 72.2832 19.6973 72.6809 19.7498ZM95.6782 17.9958C94.3919 18.1507 93.2053 18.7609 92.3367 19.7144C91.8521 20.214 91.4769 20.8078 91.2346 21.4581C90.9924 22.1083 90.8884 22.8013 90.9291 23.4934C90.9456 24.1653 91.0958 24.8271 91.3712 25.4413C91.6901 26.1279 92.1434 26.7449 92.7049 27.2562C93.2663 27.7675 93.9246 28.1629 94.6415 28.4196C95.2026 28.6169 95.7974 28.703 96.3921 28.6728C96.9964 28.7032 97.6009 28.6171 98.1723 28.4196C98.9951 28.1339 99.7358 27.6551 100.331 27.0237C100.927 26.3923 101.36 25.6274 101.592 24.7941C101.733 24.2626 101.787 23.7122 101.752 23.1637C101.755 22.3909 101.567 21.6292 101.205 20.9448C100.846 20.2194 100.327 19.5835 99.6871 19.0842C99.0467 18.5849 98.3012 18.2351 97.5059 18.0608C96.9005 17.9773 96.288 17.9554 95.6782 17.9958ZM97.1231 19.7498C97.6841 19.8594 98.2126 20.094 98.669 20.4355C99.1254 20.777 99.4977 21.2167 99.7579 21.7216C100.057 22.3672 100.158 23.0855 100.05 23.7877C99.9438 24.6153 99.548 25.3796 98.9319 25.9477C98.6747 26.2187 98.3693 26.4401 98.0311 26.601C97.5937 26.8144 97.118 26.9397 96.6315 26.9697C96.145 26.9996 95.6573 26.9336 95.1967 26.7754C94.7361 26.6172 94.3116 26.3699 93.9479 26.048C93.5842 25.7261 93.2885 25.3359 93.0778 24.8999C92.827 24.3801 92.7042 23.8088 92.7193 23.2327C92.7345 22.6567 92.8872 22.0924 93.1649 21.5862C93.4427 21.0801 93.8375 20.6465 94.317 20.3211C94.7965 19.9958 95.347 19.7878 95.9232 19.7144C96.3234 19.6854 96.7255 19.6973 97.1231 19.7498Z" fill="#A7ADBE"/>
</g>
<defs>
<clipPath id="clip0_2437_33083">
<rect width="111.562" height="30" fill="white" transform="translate(0.362305 5)"/>
</clipPath>
</defs>
</svg>
