<svg width="119" height="32" viewBox="0 0 119 32" fill="none" xmlns="http://www.w3.org/2000/svg">
<g clip-path="url(#clip0_14229_32698)">
<path fill-rule="evenodd" clip-rule="evenodd" d="M13.7186 -0.00627054C13.466 0.036814 13.2173 0.0996728 12.9748 0.181953C12.9064 0.207066 10.0922 1.60108 6.71971 3.27109C2.95602 5.13571 0.551973 6.34726 0.486777 6.41632C0.424914 6.48335 0.38625 6.56814 0.376457 6.6585C0.366664 6.74885 0.386256 6.83991 0.432341 6.91845C0.476017 6.98123 2.4009 7.95447 7.18432 10.3276C10.8645 12.1546 13.9616 13.6803 14.0705 13.7242C14.8706 14.0026 15.741 14.0114 16.5467 13.7494C16.6663 13.7054 17.6639 13.2282 18.7621 12.6945C22.2391 10.9869 25.5793 9.34184 26.6598 8.80191C26.993 8.6043 27.3484 8.44626 27.7188 8.33105C27.7295 8.35616 27.7333 11.7527 27.7295 15.8775C27.7188 23.1037 27.715 23.3864 27.6498 23.6124C27.5002 24.1107 27.1939 24.5483 26.7756 24.8616C26.518 25.0688 25.8692 25.4016 21.1662 27.7371L15.8428 30.3802V24.2654C15.8428 18.1441 15.8359 17.6858 15.7162 17.2275C15.4676 16.3404 14.8999 15.5742 14.1205 15.074C13.7407 14.8291 0.624128 8.32504 0.442463 8.29365C0.366671 8.27909 0.288172 8.2888 0.218386 8.32154C0.1486 8.35429 0.0911635 8.40808 0.0544432 8.47543C-0.00315783 8.58216 -0.00884614 9.12836 0.00381343 15.8398L0.014573 23.0913L0.112684 23.4052C0.417987 24.3081 1.04263 25.0708 1.87109 25.5523C2.29582 25.7971 13.047 31.1211 13.0748 31.096C13.1027 31.0709 13.1039 29.7272 13.0824 29.7146C13.0748 29.7146 10.6771 28.522 7.75527 27.078C3.03452 24.7362 2.41039 24.416 2.15277 24.2151C1.77278 23.9204 1.4859 23.5237 1.3261 23.0723L1.25014 22.8779L1.23939 16.4801C1.23559 12.2863 1.24318 10.0827 1.2685 10.0827C1.29382 10.0827 2.25467 10.5535 3.41492 11.1311C4.57517 11.7087 7.21913 13.0146 9.28201 14.0317C11.3449 15.0488 13.1432 15.9529 13.278 16.0283C13.6567 16.271 13.9862 16.5819 14.2496 16.9449C14.3345 17.0916 14.4073 17.2449 14.4674 17.4032L14.5579 17.6607L14.5763 24.7801L14.5946 31.8933L14.6997 31.9436C14.8292 31.9915 14.9676 32.0107 15.1054 32H15.4105L21.1864 29.1371C24.3596 27.5613 27.0972 26.1801 27.263 26.0734C27.7026 25.7701 28.0865 25.3942 28.398 24.9622C28.6156 24.6377 28.7761 24.2789 28.8727 23.9012L28.9524 23.6311L28.9632 15.2999C28.967 10.7231 28.9632 6.93742 28.9562 6.89975C28.7996 6.74563 28.6021 6.63878 28.3866 6.59197C28.2954 6.59197 28.484 6.49797 19.0185 11.1627C17.524 11.8972 16.2188 12.5312 16.1176 12.5688C15.704 12.7245 15.2522 12.7509 14.8231 12.6442C14.6161 12.5877 13.166 11.8846 8.6294 9.63696C5.37336 8.01719 2.72245 6.68622 2.74271 6.66739C2.82943 6.58577 13.4647 1.34342 13.6534 1.28064C14.0597 1.18636 14.4832 1.193 14.8864 1.29964C15.0276 1.34359 17.4462 2.52999 20.2667 3.93631C23.0873 5.34262 25.409 6.48529 25.4306 6.48529C25.4521 6.48529 25.7572 6.34717 26.1123 6.17138C26.3481 6.08807 26.5676 5.96482 26.7611 5.8072C26.7611 5.76953 25.052 4.90326 21.1117 2.95074C16.6518 0.740811 15.4042 0.138055 15.1757 0.0752725C14.6945 -0.00555527 14.2058 -0.0328563 13.7186 -0.00627054V-0.00627054ZM83.9494 13.7619C83.957 19.9271 83.964 20.3792 84.0223 20.6805C84.3128 22.096 85.1328 23.3498 86.3174 24.1899C87.0038 24.6891 87.7905 25.0361 88.624 25.2071C89.3726 25.3181 90.1333 25.3223 90.8831 25.2197C92.1944 24.9795 93.3761 24.2824 94.2151 23.2543C94.6451 22.7571 94.9772 22.1843 95.1943 21.5655C95.4289 20.9511 95.5278 20.2939 95.4842 19.6383C95.5243 18.9945 95.4319 18.3494 95.2127 17.7422C94.6944 16.2962 93.6385 15.1014 92.2611 14.4023C91.5701 14.0643 90.8116 13.8839 90.0412 13.8747C88.608 13.7828 87.1936 14.2391 86.0889 15.1494L85.8604 15.3441V7.16983H83.9387L83.9494 13.7619ZM90.3027 15.7395C90.7202 15.7915 91.1273 15.9059 91.5104 16.0786C92.0247 16.3124 92.4806 16.656 92.8454 17.085C93.2103 17.5139 93.4751 18.0176 93.6209 18.5598C93.7667 19.102 93.7899 19.6694 93.6889 20.2216C93.5879 20.7738 93.3651 21.2972 93.0365 21.7541C92.7574 22.1251 92.4308 22.4583 92.0649 22.7458C91.3898 23.2174 90.583 23.4681 89.7574 23.4625C88.9317 23.4569 88.1284 23.1953 87.4599 22.7145C86.9309 22.3331 86.5078 21.8251 86.23 21.2378C85.9522 20.6506 85.8287 20.003 85.8712 19.3556C85.8907 18.8706 86.0065 18.3943 86.2119 17.9537C86.4173 17.5131 86.7082 17.1169 87.0681 16.7879C87.4913 16.3806 88.0026 16.0745 88.5631 15.8928C89.1237 15.7111 89.7186 15.6586 90.3027 15.7395ZM109.072 13.6927C109.213 13.9563 111.214 17.2777 111.487 17.6984C111.795 18.1311 112.054 18.5964 112.259 19.0858C112.029 19.689 111.704 20.2524 111.298 20.7556C110.674 21.6911 109.731 23.1415 108.738 24.6859L108.451 25.1252H110.866L111.835 23.6939C112.368 22.9092 112.915 22.0994 113.049 21.8859C113.192 21.6072 113.414 21.3759 113.687 21.2204C113.887 21.1701 114.123 21.396 114.467 21.9736C114.58 22.1556 115.1 22.9406 115.631 23.7191L116.592 25.1252H119L117.509 23.0097C115.635 20.354 115.338 19.9081 115.193 19.5377C115.11 19.3749 115.077 19.1916 115.098 19.0104C115.168 18.5898 115.342 18.193 115.605 17.8553C116.681 16.0221 118.006 13.7617 118.049 13.6927L118.099 13.6111H115.786L115.05 14.9483C114.648 15.6891 114.26 16.3799 114.187 16.4866C114.13 16.5956 114.039 16.684 113.929 16.7392C113.818 16.7944 113.693 16.8136 113.57 16.7941C113.28 16.7501 113.139 16.5683 112.225 15.005L111.404 13.6111H109.026L109.072 13.6927ZM53.4791 13.7242C51.2308 13.9754 49.8351 15.1744 49.6028 17.0641C49.5774 17.2588 49.5629 18.7529 49.5629 21.2265V25.0878H51.3396V21.7541C51.3434 19.9146 51.358 18.2445 51.3757 18.0436C51.385 17.6973 51.4722 17.3573 51.631 17.0488C51.7899 16.7403 52.0162 16.4712 52.2935 16.2607C52.7554 15.934 53.2885 15.7199 53.8494 15.6359C54.4103 15.5519 54.9832 15.6004 55.5218 15.7772C55.8735 15.8757 56.1958 16.0573 56.4611 16.3066C56.7264 16.556 56.9266 16.8655 57.0447 17.2085C57.2403 17.7547 57.2479 17.8679 57.2479 21.6223V25.0878H59.1734L59.1588 21.1198C59.1443 16.8444 59.1481 16.9512 58.9487 16.3548C58.7885 15.8924 58.536 15.4666 58.2064 15.1031C57.8768 14.7396 57.4768 14.4458 57.0301 14.2389C56.4487 13.9603 55.8229 13.784 55.1806 13.7178C54.6141 13.6761 54.0452 13.6784 53.4791 13.7242V13.7242ZM65.8621 13.8119C64.5794 13.9895 63.3896 14.5757 62.4718 15.482C61.8659 16.0684 61.4172 16.7957 61.1666 17.5978C60.9568 18.2077 60.8574 18.8496 60.8729 19.4939C60.8557 20.1359 60.9538 20.7756 61.1629 21.3835C61.5917 22.6837 62.4786 23.7872 63.6612 24.4913C64.573 25.0731 65.6468 25.3542 66.7293 25.2948C67.4789 25.2618 68.2156 25.0893 68.901 24.7862L69.108 24.6921V22.5263L68.9377 22.6581C68.1859 23.2665 67.2242 23.5592 66.2577 23.4741C65.0645 23.2602 63.9942 22.6133 63.2555 21.6597C62.8793 21.1176 62.685 20.4718 62.7004 19.8139C62.6238 18.8479 62.9164 17.8888 63.5201 17.127C64.1406 16.3457 65.038 15.8285 66.0295 15.6803C67.0211 15.5322 68.0323 15.7643 68.8573 16.3296L69.1441 16.5243V14.4839L68.8213 14.3395C68.1228 13.9912 67.3515 13.8103 66.5698 13.8119C66.2393 13.7994 65.9241 13.8056 65.8621 13.8119V13.8119ZM41.2227 13.8622C39.8508 14.0274 38.5851 14.6783 37.6585 15.6954C37.1415 16.2282 36.7412 16.8616 36.4828 17.5552C36.2244 18.2489 36.1135 18.988 36.157 19.7262C36.1743 20.443 36.3346 21.149 36.6286 21.804C36.9687 22.5365 37.4522 23.1946 38.0511 23.7399C38.65 24.2853 39.3522 24.7071 40.1169 24.9809C40.7155 25.1914 41.35 25.2832 41.9842 25.2509C42.6288 25.2833 43.2737 25.1916 43.8832 24.9809C44.7608 24.6761 45.5509 24.1654 46.1862 23.4919C46.8214 22.8185 47.2828 22.0025 47.531 21.1137C47.6812 20.5468 47.7387 19.9596 47.7013 19.3746C47.7036 18.5503 47.5032 17.7379 47.1177 17.0077C46.7351 16.234 46.1818 15.5557 45.4988 15.0231C44.8158 14.4905 44.0206 14.1175 43.1723 13.9315C42.5266 13.8424 41.8733 13.8191 41.2227 13.8622V13.8622ZM42.764 15.7331C43.3623 15.85 43.9259 16.1002 44.4126 16.4645C44.8993 16.8288 45.2964 17.2978 45.5739 17.8363C45.8927 18.5249 46.0012 19.2911 45.8859 20.0401C45.7721 20.923 45.3499 21.7382 44.6927 22.3442C44.4187 22.6335 44.0929 22.8697 43.7319 23.041C43.2654 23.2687 42.758 23.4023 42.2391 23.4343C41.7202 23.4663 41.2 23.3961 40.7087 23.2274C40.2174 23.0586 39.7647 22.7949 39.3769 22.4515C38.989 22.1081 38.6736 21.6916 38.449 21.2265C38.1814 20.6721 38.0502 20.0626 38.0663 19.4482C38.0823 18.8337 38.2452 18.2319 38.5414 17.6919C38.8376 17.152 39.2587 16.6896 39.7702 16.3425C40.2817 15.9954 40.8688 15.7736 41.4835 15.6954C41.9105 15.6644 42.3396 15.6771 42.764 15.7331V15.7331ZM75.5985 13.8622C74.2266 14.0274 72.9609 14.6783 72.0343 15.6954C71.5173 16.2282 71.117 16.8616 70.8586 17.5552C70.6002 18.2489 70.4893 18.988 70.5328 19.7262C70.5501 20.443 70.7104 21.149 71.0044 21.804C71.3445 22.5365 71.8281 23.1946 72.4269 23.7399C73.0258 24.2853 73.728 24.7071 74.4927 24.9809C75.0913 25.1914 75.7258 25.2832 76.36 25.2509C77.0046 25.2833 77.6495 25.1916 78.259 24.9809C79.1366 24.6761 79.9267 24.1654 80.562 23.4919C81.1972 22.8185 81.6586 22.0025 81.9068 21.1137C82.057 20.5468 82.1145 19.9596 82.0771 19.3746C82.0794 18.5503 81.879 17.7379 81.4935 17.0077C81.1109 16.234 80.5576 15.5557 79.8746 15.0231C79.1916 14.4905 78.3964 14.1175 77.5481 13.9315C76.9024 13.8424 76.2491 13.8191 75.5985 13.8622V13.8622ZM77.1398 15.7331C77.7381 15.85 78.3018 16.1002 78.7885 16.4645C79.2752 16.8288 79.6722 17.2978 79.9497 17.8363C80.2685 18.5249 80.377 19.2911 80.2617 20.0401C80.1479 20.923 79.7257 21.7382 79.0685 22.3442C78.7945 22.6335 78.4687 22.8697 78.1077 23.041C77.6412 23.2687 77.1338 23.4023 76.6149 23.4343C76.096 23.4663 75.5758 23.3961 75.0845 23.2274C74.5932 23.0586 74.1405 22.7949 73.7527 22.4515C73.3648 22.1081 73.0494 21.6916 72.8249 21.2265C72.5574 20.672 72.4263 20.0626 72.4425 19.4482C72.4586 18.8337 72.6215 18.2318 72.9178 17.6919C73.214 17.1521 73.6352 16.6896 74.1466 16.3425C74.6581 15.9954 75.2453 15.7736 75.86 15.6954C76.2868 15.6644 76.7156 15.6771 77.1398 15.7331V15.7331ZM101.67 13.8622C100.298 14.0274 99.0326 14.6783 98.106 15.6954C97.5892 16.2283 97.1889 16.8616 96.9306 17.5552C96.6722 18.2488 96.5612 18.988 96.6046 19.7262C96.6222 20.443 96.7825 21.1489 97.0762 21.804C97.4164 22.5364 97.8999 23.1946 98.4988 23.7399C99.0976 24.2853 99.7998 24.707 100.565 24.9809C101.163 25.1913 101.798 25.2831 102.432 25.2509C103.076 25.2833 103.721 25.1916 104.331 24.9809C105.208 24.6761 105.999 24.1654 106.634 23.4919C107.269 22.8185 107.73 22.0025 107.979 21.1137C108.129 20.5468 108.186 19.9596 108.149 19.3746C108.152 18.5502 107.951 17.7378 107.565 17.0077C107.183 16.234 106.63 15.5557 105.946 15.0231C105.263 14.4905 104.468 14.1174 103.62 13.9315C102.974 13.8424 102.321 13.8191 101.67 13.8622V13.8622ZM103.212 15.7331C103.81 15.85 104.374 16.1002 104.861 16.4645C105.347 16.8288 105.744 17.2978 106.022 17.8363C106.341 18.5249 106.449 19.2911 106.334 20.0401C106.22 20.923 105.798 21.7382 105.141 22.3442C104.867 22.6332 104.541 22.8694 104.18 23.041C103.714 23.2687 103.206 23.4024 102.687 23.4343C102.168 23.4662 101.648 23.3958 101.157 23.2271C100.665 23.0583 100.213 22.7945 99.8247 22.4512C99.4368 22.1078 99.1213 21.6916 98.8966 21.2265C98.6291 20.672 98.4981 20.0626 98.5142 19.4482C98.5304 18.8337 98.6933 18.2318 98.9895 17.6919C99.2858 17.1521 99.7069 16.6896 100.218 16.3425C100.73 15.9954 101.317 15.7736 101.932 15.6954C102.359 15.6644 102.787 15.6771 103.212 15.7331V15.7331Z" fill="#6BBDE6"/>
</g>
<defs>
<clipPath id="clip0_14229_32698">
<rect width="119" height="32" fill="white"/>
</clipPath>
</defs>
</svg>
