<svg width="67" height="40" viewBox="0 0 67 40" fill="none" xmlns="http://www.w3.org/2000/svg">
<g clip-path="url(#clip0_2437_8171)">
<path d="M8.74699 4C4.58326 4 0.274432 7.04976 0.000752079 12.3217C-0.00300561 12.3902 0.00734588 12.4587 0.0311776 12.5231C0.0550093 12.5875 0.0918233 12.6463 0.139383 12.6962C0.186942 12.7461 0.244253 12.7859 0.307834 12.8131C0.371414 12.8404 0.439936 12.8546 0.509235 12.8549H3.22102C3.35564 12.855 3.48472 12.908 3.57991 13.0022C3.6751 13.0963 3.72863 13.224 3.72873 13.3572V27.0617C3.72883 27.1946 3.78214 27.3222 3.877 27.4163C3.97186 27.5104 4.10054 27.5635 4.2349 27.564H6.97711C7.11179 27.564 7.24097 27.5111 7.33621 27.4169C7.43151 27.3227 7.48508 27.195 7.48522 27.0617V21.241C7.90254 21.3011 8.32369 21.3317 8.74539 21.3324C13.5754 21.3324 17.5047 17.4447 17.5047 12.6664C17.5047 7.88799 13.577 4 8.74699 4ZM8.6777 17.6143C8.27548 17.6117 7.87527 17.5583 7.48675 17.4554V13.3423C7.48675 13.209 7.43318 13.0812 7.33788 12.9869C7.24264 12.8926 7.11339 12.8397 6.97864 12.8397H4.2784C4.20852 12.8398 4.13937 12.8255 4.07532 12.7979C4.01126 12.7703 3.95368 12.7298 3.9062 12.6791C3.85873 12.6284 3.82239 12.5685 3.79946 12.5032C3.77653 12.4378 3.76752 12.3686 3.77299 12.2996C4.04244 9.36031 6.43897 7.71775 8.74887 7.71775C11.5069 7.71775 13.7506 9.93766 13.7506 12.666C13.7487 15.6373 11.3078 17.6143 8.6777 17.6143Z" fill="#A7ADBE"/>
<path d="M24.9732 12.4927C20.6664 12.4927 17.1616 15.9583 17.1616 20.2214C17.1616 24.4846 20.6664 27.9502 24.9732 27.9502C29.2802 27.9502 32.7872 24.4846 32.7872 20.2214C32.7872 15.9583 29.2806 12.4927 24.9732 12.4927ZM24.9732 24.2324C24.1714 24.2324 23.3874 23.9972 22.7207 23.5563C22.054 23.1155 21.5344 22.4889 21.2276 21.7558C20.9209 21.0228 20.8407 20.2162 20.9973 19.4381C21.1539 18.66 21.5403 17.9453 22.1074 17.3844C22.6747 16.8236 23.3972 16.4417 24.1837 16.2872C24.9703 16.1327 25.7856 16.2125 26.5263 16.5165C27.267 16.8204 27.9 17.3348 28.3451 17.9947C28.7904 18.6546 29.0277 19.4303 29.0273 20.2237C29.0258 21.287 28.5981 22.3062 27.8381 23.0579C27.0781 23.8095 26.0479 24.2324 24.9732 24.2336V24.2324Z" fill="#A7ADBE"/>
<path d="M49.4247 20.2237C49.4247 18.4513 48.5425 16.8602 47.5794 15.7607H48.917C48.9838 15.7606 49.0499 15.7476 49.1115 15.7222C49.1732 15.6969 49.2292 15.6598 49.2763 15.613C49.3235 15.5663 49.3608 15.5108 49.3863 15.4497C49.4118 15.3887 49.4249 15.3233 49.4247 15.2572V12.9962C49.4249 12.8629 49.3716 12.735 49.2766 12.6406C49.1815 12.5462 49.0525 12.493 48.9178 12.4927H41.6139C37.3066 12.4927 33.8022 15.9583 33.8022 20.2214C33.8022 24.4846 37.3051 27.9502 41.6139 27.9502C42.9619 27.9496 44.2869 27.6041 45.4601 26.9471C45.7023 27.6397 45.7516 28.3839 45.6029 29.1019C45.3288 30.4584 44.3853 31.6234 43.0774 32.1105C42.3974 32.3663 41.6605 32.4365 40.9438 32.314C40.227 32.1915 39.5567 31.8806 39.0029 31.4139C38.2169 30.7505 37.7231 29.7508 37.6076 28.7252C37.5956 28.6008 37.5374 28.4852 37.4443 28.4008C37.3511 28.3164 37.2297 28.2692 37.1033 28.2682H34.3523C34.2824 28.2682 34.2132 28.2824 34.1492 28.31C34.085 28.3375 34.0274 28.3778 33.9796 28.4283C33.9319 28.4788 33.8952 28.5386 33.8717 28.6037C33.8484 28.6689 33.8387 28.7381 33.8434 28.8071C33.9795 30.7594 34.8594 32.5878 36.3055 33.923C37.7516 35.2582 39.6559 36.0005 41.6339 36C45.9412 36 49.4455 32.5343 49.4455 28.2712C49.4455 26.8172 49.0121 25.5357 48.1949 24.3821C48.9977 23.1406 49.4245 21.6976 49.4247 20.2237ZM41.5631 24.2336C40.7612 24.2336 39.9773 23.9983 39.3107 23.5575C38.644 23.1167 38.1243 22.4902 37.8175 21.7573C37.5108 21.0243 37.4306 20.2177 37.5871 19.4397C37.7435 18.6616 38.1298 17.9469 38.6969 17.386C39.2639 16.8251 39.9864 16.4431 40.7729 16.2886C41.5594 16.1339 42.3745 16.2135 43.1153 16.5172C43.856 16.821 44.4891 17.3353 44.9344 17.9951C45.3797 18.6548 45.6173 19.4304 45.6171 20.2237C45.6155 21.287 45.1879 22.3062 44.4279 23.0579C43.668 23.8095 42.6377 24.2324 41.5631 24.2336Z" fill="#A7ADBE"/>
<path d="M58.2741 12.4927C53.9668 12.4927 50.464 15.961 50.464 20.2237C50.464 24.4865 53.9668 27.9525 58.2756 27.9525C62.5844 27.9525 66.0869 24.4868 66.0869 20.2237C66.0869 15.9606 62.5813 12.4927 58.2741 12.4927ZM58.2741 24.2324C57.4721 24.2325 56.6882 23.9973 56.0214 23.5565C55.3546 23.1157 54.835 22.4892 54.5281 21.7561C54.2213 21.0231 54.1411 20.2165 54.2977 19.4383C54.4543 18.6602 54.8405 17.9455 55.4078 17.3846C55.9749 16.8237 56.6975 16.4418 57.4841 16.2872C58.2706 16.1327 59.0858 16.2125 59.8266 16.5164C60.5674 16.8203 61.2003 17.3348 61.6456 17.9947C62.0908 18.6546 62.3281 19.4303 62.3277 20.2237C62.3262 21.2869 61.8986 22.306 61.1387 23.0577C60.3788 23.8094 59.3486 24.2323 58.2741 24.2336V24.2324Z" fill="#A7ADBE"/>
</g>
<defs>
<clipPath id="clip0_2437_8171">
<rect width="66.087" height="32" fill="white" transform="translate(0 4)"/>
</clipPath>
</defs>
</svg>
