<svg width="79" height="40" viewBox="0 0 79 40" fill="none" xmlns="http://www.w3.org/2000/svg">
<g clip-path="url(#clip0_2437_19003)">
<path d="M13.7653 31.3681C12.8906 30.991 12.1268 30.3968 11.5464 29.642C11.0118 28.9468 10.7002 28.1064 10.6525 27.2311H14.3094C14.3438 27.5042 14.434 27.7673 14.5744 28.0041C14.7148 28.2409 14.9024 28.4464 15.1256 28.6077C15.6384 28.9787 16.2595 29.1698 16.8923 29.1513C17.4631 29.1849 18.0302 29.0392 18.5141 28.7348C18.6934 28.6221 18.8412 28.4659 18.9438 28.2808C19.0463 28.0956 19.1003 27.8875 19.1006 27.6758C19.1039 27.4486 19.0382 27.2257 18.912 27.0366C18.7858 26.8475 18.6052 26.7012 18.3939 26.6169C17.6605 26.2957 16.9003 26.0393 16.122 25.8509C15.2265 25.6469 14.3469 25.3792 13.4897 25.0496C12.8079 24.7726 12.2023 24.3369 11.7231 23.7788C11.2037 23.1248 10.9411 22.3039 10.9846 21.4702C10.9822 20.6909 11.2244 19.9304 11.6771 19.2958C12.1779 18.6058 12.8604 18.0682 13.6487 17.7426C14.6047 17.3442 15.6341 17.1517 16.6697 17.1778C18.3845 17.1778 19.7507 17.6061 20.7683 18.4627C21.2755 18.89 21.6877 19.4185 21.9785 20.0142C22.2693 20.6099 22.4324 21.2597 22.4572 21.922H18.9805C18.9646 21.6587 18.8935 21.4016 18.7718 21.1675C18.6501 20.9333 18.4804 20.7274 18.2738 20.563C17.783 20.2028 17.1825 20.0232 16.5743 20.0547C16.0441 20.0207 15.5157 20.1434 15.055 20.4077C14.8864 20.5151 14.7484 20.6641 14.6543 20.8403C14.5603 21.0166 14.5133 21.2141 14.5179 21.4137C14.5146 21.6463 14.5799 21.8747 14.7055 22.0705C14.8311 22.2664 15.0117 22.421 15.2246 22.5151C15.9478 22.8488 16.7047 23.1044 17.4823 23.2775C18.356 23.4866 19.2143 23.7555 20.0511 24.0824C20.7356 24.3595 21.342 24.7993 21.8177 25.3637C22.3345 26.0149 22.6048 26.8275 22.5809 27.6582C22.5905 28.455 22.3509 29.2349 21.8954 29.8891C21.3952 30.577 20.7122 31.1113 19.9239 31.4317C18.976 31.825 17.9574 32.0197 16.9311 32.0035C15.8426 32.0199 14.7631 31.8032 13.7653 31.3681Z" fill="#A7ADBE"/>
<path d="M29.2023 12.5889V31.767H25.563V12.5889H29.2023Z" fill="#A7ADBE"/>
<path d="M32.7179 20.676C33.2455 19.6071 34.0634 18.708 35.0781 18.0815C36.0826 17.4756 37.2368 17.1626 38.41 17.1778C39.3918 17.1545 40.3637 17.3778 41.2367 17.8273C41.9947 18.2199 42.6551 18.7772 43.1694 19.4581V17.4108H46.8299V31.767H43.1588V29.6702C42.657 30.3728 41.9944 30.9453 41.2261 31.3399C40.3536 31.7918 39.382 32.0187 38.3994 32C37.2305 32.0121 36.0826 31.6886 35.0922 31.0681C34.0784 30.425 33.2617 29.515 32.732 28.4383C32.1371 27.2315 31.8391 25.9003 31.8628 24.5554C31.8293 23.2121 32.1227 21.8809 32.7179 20.676ZM42.6394 22.3209C42.3149 21.7136 41.8249 21.2106 41.2261 20.8701C40.6553 20.5342 40.0052 20.3563 39.3428 20.3547C38.6872 20.3493 38.042 20.5186 37.4737 20.8454C36.8884 21.1904 36.4083 21.6884 36.0851 22.2856C35.7171 22.9743 35.5345 23.7467 35.5551 24.5271C35.5368 25.3152 35.7191 26.095 36.0851 26.7933C36.411 27.4096 36.8999 27.9248 37.4984 28.283C38.0516 28.6299 38.6897 28.8179 39.3428 28.8266C40.0079 28.8301 40.6618 28.6558 41.2367 28.3218C41.8355 27.9813 42.3255 27.4783 42.65 26.871C43.0108 26.1664 43.1859 25.3816 43.1588 24.5907C43.181 23.8023 43.0023 23.0213 42.6394 22.3209Z" fill="#A7ADBE"/>
<path d="M52.7057 31.3681C51.8316 30.99 51.068 30.396 50.4868 29.642C49.9525 28.9464 49.6398 28.1064 49.5894 27.2311H53.2463C53.2805 27.5046 53.371 27.7681 53.512 28.0051C53.6531 28.242 53.8417 28.4472 54.066 28.6077C54.5783 28.9797 55.1998 29.1709 55.8327 29.1513C56.4035 29.1849 56.9706 29.0392 57.4545 28.7348C57.6334 28.622 57.7807 28.4656 57.8827 28.2804C57.9846 28.0952 58.0379 27.8872 58.0375 27.6758C58.0413 27.4485 57.9758 27.2254 57.8495 27.0362C57.7233 26.847 57.5424 26.7007 57.3308 26.6169C56.5974 26.2957 55.8372 26.0393 55.0589 25.8509C54.1636 25.6464 53.2839 25.3787 52.4266 25.0496C51.7443 24.7735 51.1384 24.3377 50.6599 23.7788C50.1481 23.1246 49.893 22.3061 49.9427 21.4773C49.9335 20.6975 50.1695 19.9344 50.6175 19.2958C51.1191 18.6066 51.8013 18.0691 52.5891 17.7426C53.5465 17.3445 54.577 17.152 55.6136 17.1778C57.3238 17.1778 58.69 17.6061 59.7123 18.4627C60.2194 18.8898 60.6314 19.4182 60.9217 20.014C61.212 20.6099 61.3741 21.2598 61.3976 21.922H57.9209C57.9059 21.6585 57.8352 21.4011 57.7134 21.1668C57.5916 20.9326 57.4215 20.7268 57.2142 20.563C56.7234 20.2028 56.1229 20.0232 55.5147 20.0547C54.9856 20.0201 54.4581 20.1429 53.9989 20.4077C53.8327 20.5165 53.6974 20.6662 53.6058 20.8424C53.5142 21.0186 53.4695 21.2153 53.476 21.4137C53.4704 21.6486 53.5345 21.8799 53.6602 22.0784C53.786 22.2769 53.9678 22.4338 54.1826 22.5292C54.9059 22.8629 55.6628 23.1185 56.4404 23.2917C57.314 23.5013 58.1722 23.7702 59.0091 24.0965C59.6939 24.3732 60.3004 24.8131 60.7758 25.3779C61.2939 26.0286 61.5654 26.8411 61.5425 27.6723C61.5527 28.4697 61.3117 29.2502 60.8535 29.9032C60.3541 30.5919 59.6709 31.1264 58.8819 31.4458C57.9277 31.837 56.9028 32.0269 55.8716 32.0035C54.783 32.0195 53.7036 31.8029 52.7057 31.3681Z" fill="#A7ADBE"/>
<path d="M75.5132 17.9156C76.3702 18.3966 77.0631 19.1233 77.5024 20.0018C78.0014 21.0401 78.2437 22.1828 78.2091 23.334V31.767H74.5769V23.8353C74.5769 22.6963 74.2919 21.8197 73.7218 21.2055C73.4209 20.8943 73.0567 20.6511 72.6539 20.4922C72.2511 20.3333 71.8189 20.2624 71.3863 20.2842C70.9496 20.2629 70.5133 20.3339 70.1059 20.4927C69.6986 20.6514 69.3294 20.8943 69.0225 21.2055C68.4431 21.8197 68.1533 22.6963 68.1533 23.8353V31.767H64.5105V12.5889H68.1427V19.197C68.6321 18.559 69.2751 18.055 70.0119 17.732C70.8281 17.3711 71.7127 17.1905 72.6053 17.2025C73.6202 17.1829 74.6227 17.4287 75.5132 17.9156Z" fill="#A7ADBE"/>
<path d="M13.0621 8L4.6458 31.767H0.829834L9.24616 8H13.0621Z" fill="#A7ADBE"/>
</g>
<defs>
<clipPath id="clip0_2437_19003">
<rect width="77.3793" height="24" fill="white" transform="translate(0.829834 8)"/>
</clipPath>
</defs>
</svg>
