<svg width="123" height="22" viewBox="0 0 123 22" fill="none" xmlns="http://www.w3.org/2000/svg">
<path d="M65.0976 2.40924L72.6805 4.58412L73.1732 0.490234H65.0976L60.7064 1.64164V17.5054H65.0976V9.10445H69.1889V6.16197L65.0976 7.41999V2.40924Z" fill="#02222F"/>
<path d="M71.6954 6.0769L73.9017 8.48632L77.6503 5.97029V8.35839C76.922 8.59294 70.1745 9.25393 70.1745 14.222C70.1745 15.0536 70.3458 15.8212 70.9242 16.4608C71.7168 17.3564 73.0877 17.8682 74.5443 17.8682C76.5365 17.8682 77.6289 17.2071 78.293 16.5035L79.6211 17.5056H81.7202V4.79756L77.7146 3.66748L71.6954 6.0769ZM77.5004 14.8617C77.3076 14.9683 76.7507 15.1816 76.108 15.2455C75.8509 15.2668 74.9727 15.2881 74.4158 14.7977C74.1159 14.5205 73.966 14.1368 73.966 13.6464C73.966 10.4906 76.9434 10.5759 77.5004 10.5759V14.8617Z" fill="#02222F"/>
<path d="M91.7237 3.13428C89.8173 3.13428 88.4035 4.17907 87.4181 5.22386V3.64601L83.3482 4.79741V17.5055H87.4181V7.76122C88.0179 6.78039 89.4745 6.03411 90.6955 6.37527C91.2096 6.52453 91.8094 7.01493 91.8094 7.99576V17.5055H95.8794V7.71857C95.8794 5.43708 94.4441 3.13428 91.7237 3.13428Z" fill="#02222F"/>
<path d="M7.15454 6.3114C5.26951 5.58644 3.47017 4.90412 3.49159 4.11519C3.513 3.51817 4.39125 2.81453 6.29771 2.81453C6.49049 2.81453 6.66185 2.81453 6.83323 2.83586C6.94032 2.83586 7.04743 2.85718 7.15454 2.8785C7.19737 2.8785 7.24022 2.89982 7.28306 2.89982C9.40372 3.24098 11.1817 4.6909 12.0384 6.11949L12.6383 2.00428L12.4455 1.89767C12.3812 1.81239 10.0677 0.447754 6.55476 0.447754C2.72043 0.447754 0.0428415 2.38809 0.0428415 5.18131C0.0428415 9.10462 3.92 10.4692 7.02601 11.5567C8.84678 12.1963 10.539 12.7934 10.689 13.7102C10.7532 14.1367 10.6033 14.5845 10.3034 14.9256C9.89641 15.3734 9.03956 15.9065 7.21879 15.8638C3.513 15.7785 1.60655 12.0898 1.58513 12.0471L1.17814 11.2368L0 16.3116L0.214207 16.4395C0.321312 16.5034 2.95606 17.996 6.98317 17.996C11.3101 17.9748 14.3519 15.7572 14.3519 12.5588C14.3519 9.06197 10.3462 7.52676 7.15454 6.3114Z" fill="#02222F"/>
<path d="M57.0648 17.2072C55.4583 16.2263 54.58 15.0535 53.5947 13.625L51.9024 11.2155H50.5529L56.0152 3.11306H52.2665L48.3252 8.84876V0L44.2552 1.1514V17.5056H48.3252V17.4844V14.5205L48.8821 13.689L51.5597 17.5056H57.5575L57.0648 17.2072Z" fill="#02222F"/>
<path d="M109.074 13.3263L108.989 13.4117C108.903 13.4969 108.796 13.6035 108.689 13.6675C108.646 13.6889 108.624 13.7102 108.582 13.7528C108.518 13.8167 108.432 13.8594 108.346 13.9021C108.303 13.9234 108.239 13.966 108.196 13.9873C108.132 14.03 108.046 14.0726 107.982 14.1153C107.918 14.1366 107.875 14.1579 107.81 14.2006C107.725 14.2432 107.661 14.2645 107.575 14.3072C107.511 14.3285 107.446 14.3498 107.382 14.3711C107.296 14.3925 107.232 14.4351 107.146 14.4565C107.082 14.4777 107.018 14.4777 106.953 14.499C106.868 14.5204 106.782 14.5417 106.697 14.563C106.632 14.5844 106.547 14.5844 106.482 14.5844C106.397 14.6057 106.311 14.6057 106.226 14.627C106.161 14.627 106.076 14.627 106.012 14.627C105.925 14.627 105.818 14.6483 105.733 14.627C104.362 14.627 103.141 14.1153 102.305 13.1985C100.871 11.6632 100.827 8.57146 101.684 6.60981C101.899 6.09808 102.348 5.33047 103.055 5.05328C103.227 4.98932 103.398 4.94668 103.591 4.94668C104.02 4.94668 104.341 5.09593 104.619 5.41576C105.775 6.6951 105.411 10.1067 105.411 10.1493L105.369 10.4691L109.61 8.16634V8.05973C109.503 5.11725 107.168 3.13428 103.826 3.13428C103.077 3.13428 102.37 3.2622 101.706 3.49675C98.8785 4.52022 97.0998 7.52667 97.0998 10.3626C97.0998 13.8594 98.8564 17.9533 103.783 17.9533C104.534 17.9533 105.198 17.8467 105.775 17.6761C108.903 16.7379 109.567 13.7314 109.588 13.6889L109.61 13.5609L109.074 13.3263Z" fill="#02222F"/>
<path d="M42.4774 13.3267L42.3918 13.4119C42.306 13.4972 42.1989 13.6039 42.0918 13.6678C42.049 13.6891 42.0276 13.7105 41.9847 13.7531C41.9204 13.8171 41.8348 13.8598 41.7491 13.9237C41.7062 13.945 41.642 13.9877 41.5992 14.009C41.5349 14.0516 41.4492 14.0943 41.3635 14.137C41.2993 14.1582 41.2564 14.1795 41.1921 14.2009C41.1065 14.2435 41.0422 14.2649 40.9565 14.3075C40.8923 14.3288 40.828 14.3502 40.7637 14.3715C40.678 14.3928 40.5924 14.4354 40.5281 14.4567C40.4638 14.4781 40.3996 14.4781 40.3353 14.4994C40.2496 14.5207 40.1639 14.5421 40.0783 14.5634C40.014 14.5847 39.9283 14.5847 39.8641 14.5847C39.7784 14.606 39.6927 14.606 39.6071 14.6274C39.5428 14.6274 39.457 14.6274 39.3928 14.6274C39.3071 14.6274 39.2 14.6487 39.1144 14.6274C37.7434 14.6274 36.5224 14.1156 35.687 13.1987C34.2518 11.6635 34.209 8.5718 35.0659 6.61014C35.28 6.0984 35.7299 5.33081 36.4367 5.05361C36.6082 4.98964 36.7795 4.947 36.9723 4.947C37.4006 4.947 37.722 5.09626 38.0005 5.41609C39.1571 6.69543 38.793 10.107 38.793 10.1496L38.7716 10.4481L43.0129 8.14535V8.03874C42.9059 5.09626 40.571 3.11328 37.2293 3.11328C36.4796 3.11328 35.7727 3.24122 35.1086 3.47576C32.2812 4.49923 30.5032 7.50568 30.5032 10.3416C30.5032 13.8384 32.2597 17.9323 37.1865 17.9323C37.9362 17.9323 38.6003 17.8257 39.1786 17.6551C42.306 16.7169 42.97 13.7105 42.9915 13.6678L43.0129 13.5399L42.4774 13.3267Z" fill="#02222F"/>
<path d="M122.784 3.53955H119.72L116.315 11.2796L113.659 3.64616H109.375L113.509 15.1175H114.601L113.959 16.6314C112.716 19.4673 110.553 20.9172 110.531 20.9385L110.081 21.2371H115.008L122.784 3.53955Z" fill="#02222F"/>
<path d="M22.2133 3.13428C21.4422 3.13428 20.6924 3.24088 20.007 3.47543C16.9653 4.41362 14.7589 7.22816 14.7589 10.5544C14.7589 14.6484 18.1006 17.9747 22.2133 17.9747C26.3261 17.9747 29.6678 14.6484 29.6678 10.5544C29.6678 6.46055 26.3261 3.13428 22.2133 3.13428ZM22.7917 16.0769C22.7274 16.0769 22.6418 16.0769 22.5775 16.0769C22.5347 16.0769 22.4918 16.0769 22.4489 16.0556C22.4062 16.0556 22.3419 16.0343 22.299 16.0343C22.2562 16.0343 22.2133 16.0129 22.1706 15.9916C22.1277 15.9704 22.0634 15.949 22.0206 15.9277C21.9777 15.9064 21.9348 15.885 21.8921 15.8637C21.8492 15.8424 21.7849 15.7997 21.7421 15.7784C21.6992 15.7571 21.6565 15.7357 21.6136 15.7145C21.5707 15.6718 21.5065 15.6505 21.4636 15.6078C21.4207 15.5865 21.378 15.5438 21.3351 15.5225C21.2923 15.4799 21.228 15.4373 21.1851 15.3733C21.1424 15.3306 21.1209 15.3093 21.0781 15.2666C21.0138 15.2028 20.9709 15.1388 20.9067 15.0748C20.8853 15.0321 20.8424 15.0108 20.821 14.9682C20.7353 14.8616 20.671 14.7549 20.5854 14.6484C20.5854 14.6484 20.5854 14.627 20.564 14.627C19.8785 13.6249 19.45 12.2389 19.3216 10.7463C19.2144 9.25378 19.4286 7.82518 19.9427 6.73774C20.3712 5.79957 20.9709 5.20254 21.6565 5.03196C21.7635 5.01064 21.8492 4.98932 21.9563 4.98932C21.9991 4.98932 22.042 4.98932 22.0848 4.98932C23.7128 4.98932 25.2123 7.31345 25.4479 10.2772C25.555 11.7698 25.3408 13.1985 24.8267 14.2858C24.3983 15.2241 23.7985 15.821 23.113 15.9916C22.9845 16.0556 22.8989 16.0769 22.7917 16.0769Z" fill="#02222F"/>
</svg>
