<svg width="124" height="40" viewBox="0 0 124 40" fill="none" xmlns="http://www.w3.org/2000/svg">
<g clip-path="url(#clip0_2437_23164)">
<path d="M65.4188 11.4094L73.0017 13.5843L73.4944 9.49042H65.4188L61.0276 10.6418V26.5056H65.4188V18.1046H69.5102V15.1622L65.4188 16.4202V11.4094Z" fill="#A7ADBE"/>
<path d="M72.0166 15.077L74.2229 17.4864L77.9715 14.9703V17.3584C77.2432 17.593 70.4957 18.254 70.4957 23.2221C70.4957 24.0537 70.6671 24.8213 71.2454 25.4609C72.038 26.3565 73.4089 26.8682 74.8656 26.8682C76.8577 26.8682 77.9501 26.2072 78.6142 25.5036L79.9423 26.5057H82.0415V13.7976L78.0358 12.6675L72.0166 15.077ZM77.8216 23.8618C77.6289 23.9683 77.0719 24.1816 76.4292 24.2455C76.1722 24.2669 75.294 24.2882 74.737 23.7978C74.4371 23.5206 74.2872 23.1368 74.2872 22.6464C74.2872 19.4907 77.2647 19.576 77.8216 19.576V23.8618Z" fill="#A7ADBE"/>
<path d="M92.045 12.1344C90.1386 12.1344 88.7247 13.1792 87.7394 14.224V12.6461L83.6694 13.7975V26.5056H87.7394V16.7613C88.3392 15.7805 89.7958 15.0342 91.0168 15.3754C91.5309 15.5246 92.1307 16.0151 92.1307 16.9959V26.5056H96.2006V16.7187C96.2006 14.4372 94.7654 12.1344 92.045 12.1344Z" fill="#A7ADBE"/>
<path d="M7.47582 15.3113C5.5908 14.5864 3.79146 13.9041 3.81287 13.1151C3.83429 12.5181 4.71254 11.8145 6.61899 11.8145C6.81178 11.8145 6.98314 11.8145 7.15452 11.8358C7.26161 11.8358 7.36872 11.8571 7.47582 11.8784C7.51866 11.8784 7.56151 11.8998 7.60435 11.8998C9.725 12.2409 11.5029 13.6908 12.3597 15.1194L12.9595 11.0042L12.7668 10.8976C12.7025 10.8123 10.389 9.44769 6.87605 9.44769C3.04172 9.44769 0.364131 11.388 0.364131 14.1813C0.364131 18.1046 4.24129 19.4692 7.3473 20.5566C9.16806 21.1962 10.8603 21.7933 11.0103 22.7101C11.0745 23.1366 10.9246 23.5844 10.6247 23.9256C10.2177 24.3733 9.36085 24.9064 7.54008 24.8637C3.83429 24.7784 1.92784 21.0897 1.90642 21.047L1.49943 20.2368L0.321289 25.3115L0.535496 25.4395C0.642601 25.5034 3.27735 26.9959 7.30446 26.9959C11.6314 26.9747 14.6732 24.7571 14.6732 21.5588C14.6732 18.0619 10.6675 16.5267 7.47582 15.3113Z" fill="#A7ADBE"/>
<path d="M57.3861 26.2072C55.7796 25.2263 54.9013 24.0535 53.916 22.625L52.2238 20.2155H50.8742L56.3365 12.1131H52.5879L48.6465 17.8488V9L44.5765 10.1514V26.5056H48.6465V26.4844V23.5205L49.2035 22.689L51.881 26.5056H57.8788L57.3861 26.2072Z" fill="#A7ADBE"/>
<path d="M109.395 22.3265L109.31 22.4118C109.224 22.497 109.118 22.6037 109.01 22.6677C108.967 22.689 108.946 22.7103 108.903 22.7529C108.839 22.8169 108.753 22.8595 108.667 22.9022C108.625 22.9235 108.56 22.9661 108.517 22.9874C108.454 23.0301 108.367 23.0727 108.303 23.1154C108.239 23.1367 108.196 23.1581 108.132 23.2007C108.046 23.2433 107.982 23.2646 107.896 23.3073C107.832 23.3286 107.768 23.3499 107.703 23.3713C107.618 23.3926 107.553 23.4353 107.468 23.4566C107.403 23.4778 107.339 23.4778 107.275 23.4992C107.189 23.5205 107.104 23.5418 107.018 23.5631C106.954 23.5845 106.868 23.5845 106.804 23.5845C106.718 23.6058 106.633 23.6058 106.547 23.6271C106.483 23.6271 106.397 23.6271 106.333 23.6271C106.246 23.6271 106.14 23.6485 106.054 23.6271C104.683 23.6271 103.463 23.1154 102.627 22.1986C101.192 20.6634 101.149 17.5716 102.006 15.6099C102.22 15.0982 102.67 14.3306 103.376 14.0534C103.548 13.9894 103.719 13.9468 103.912 13.9468C104.341 13.9468 104.662 14.0961 104.94 14.4159C106.096 15.6952 105.732 19.1068 105.732 19.1495L105.69 19.4692L109.932 17.1665V17.0599C109.824 14.1174 107.489 12.1344 104.148 12.1344C103.398 12.1344 102.691 12.2623 102.027 12.4969C99.1998 13.5203 97.4211 16.5268 97.4211 19.3627C97.4211 22.8595 99.1777 26.9534 104.104 26.9534C104.855 26.9534 105.519 26.8468 106.096 26.6762C109.224 25.738 109.888 22.7315 109.909 22.689L109.932 22.561L109.395 22.3265Z" fill="#A7ADBE"/>
<path d="M42.7986 22.3266L42.713 22.4118C42.6273 22.4971 42.5201 22.6038 42.4131 22.6677C42.3702 22.689 42.3488 22.7103 42.3059 22.753C42.2416 22.817 42.156 22.8596 42.0703 22.9235C42.0275 22.9449 41.9633 22.9875 41.9204 23.0089C41.8561 23.0515 41.7704 23.0942 41.6848 23.1368C41.6205 23.1581 41.5776 23.1794 41.5134 23.2007C41.4277 23.2434 41.3634 23.2647 41.2777 23.3074C41.2135 23.3287 41.1493 23.3501 41.085 23.3714C40.9992 23.3927 40.9136 23.4353 40.8493 23.4566C40.7851 23.4779 40.7209 23.4779 40.6566 23.4993C40.5709 23.5206 40.4851 23.5419 40.3995 23.5633C40.3352 23.5846 40.2495 23.5846 40.1853 23.5846C40.0996 23.6059 40.0139 23.6059 39.9283 23.6273C39.864 23.6273 39.7783 23.6273 39.714 23.6273C39.6284 23.6273 39.5212 23.6486 39.4356 23.6273C38.0646 23.6273 36.8437 23.1155 36.0082 22.1986C34.5731 20.6634 34.5302 17.5717 35.3871 15.61C35.6013 15.0983 36.0511 14.3307 36.758 14.0535C36.9294 13.9895 37.1007 13.9469 37.2935 13.9469C37.7219 13.9469 38.0432 14.0961 38.3217 14.416C39.4784 15.6953 39.1143 19.1069 39.1143 19.1495L39.0928 19.448L43.3341 17.1452V17.0386C43.2271 14.0961 40.8922 12.1132 37.5505 12.1132C36.8008 12.1132 36.094 12.2411 35.4299 12.4756C32.6024 13.4991 30.8245 16.5056 30.8245 19.3415C30.8245 22.8383 32.581 26.9321 37.5077 26.9321C38.2574 26.9321 38.9215 26.8256 39.4998 26.655C42.6273 25.7168 43.2913 22.7103 43.3127 22.6677L43.3341 22.5398L42.7986 22.3266Z" fill="#A7ADBE"/>
<path d="M123.105 12.5396H120.042L116.636 20.2796L113.98 12.6462H109.696L113.83 24.1175H114.923L114.28 25.6314C113.037 28.4673 110.874 29.9172 110.852 29.9385L110.402 30.2371H115.329L123.105 12.5396Z" fill="#A7ADBE"/>
<path d="M22.5346 12.1344C21.7634 12.1344 21.0137 12.241 20.3283 12.4756C17.2865 13.4137 15.0802 16.2283 15.0802 19.5546C15.0802 23.6485 18.4219 26.9748 22.5346 26.9748C26.6474 26.9748 29.9891 23.6485 29.9891 19.5546C29.9891 15.4607 26.6474 12.1344 22.5346 12.1344ZM23.113 25.077C23.0487 25.077 22.9631 25.077 22.8988 25.077C22.8559 25.077 22.8131 25.077 22.7702 25.0557C22.7274 25.0557 22.6632 25.0344 22.6203 25.0344C22.5774 25.0344 22.5346 25.013 22.4918 24.9917C22.449 24.9705 22.3847 24.9492 22.3418 24.9278C22.299 24.9065 22.2561 24.8852 22.2133 24.8638C22.1705 24.8425 22.1062 24.7998 22.0633 24.7785C22.0205 24.7572 21.9777 24.7358 21.9349 24.7146C21.892 24.672 21.8277 24.6506 21.7849 24.608C21.742 24.5866 21.6992 24.544 21.6564 24.5226C21.6135 24.48 21.5492 24.4374 21.5064 24.3734C21.4636 24.3308 21.4422 24.3094 21.3993 24.2668C21.335 24.2029 21.2922 24.1389 21.228 24.0749C21.2066 24.0322 21.1637 24.0109 21.1423 23.9683C21.0566 23.8617 20.9923 23.755 20.9067 23.6485C20.9067 23.6485 20.9067 23.6271 20.8852 23.6271C20.1998 22.625 19.7713 21.239 19.6428 19.7464C19.5357 18.2539 19.7499 16.8253 20.264 15.7379C20.6925 14.7997 21.2922 14.2027 21.9777 14.0321C22.0848 14.0108 22.1705 13.9894 22.2775 13.9894C22.3204 13.9894 22.3632 13.9894 22.4061 13.9894C24.034 13.9894 25.5336 16.3136 25.7692 19.2774C25.8762 20.7699 25.662 22.1986 25.1479 23.286C24.7196 24.2242 24.1197 24.8212 23.4343 24.9917C23.3057 25.0557 23.2201 25.077 23.113 25.077Z" fill="#A7ADBE"/>
</g>
<defs>
<clipPath id="clip0_2437_23164">
<rect width="123" height="22" fill="white" transform="translate(0.321289 9)"/>
</clipPath>
</defs>
</svg>
