<svg width="76" height="40" viewBox="0 0 76 40" fill="none" xmlns="http://www.w3.org/2000/svg">
<g clip-path="url(#clip0_2437_27379)">
<path d="M64.57 9.57056L65.089 9.62759C66.0116 9.85574 66.7612 10.4261 67.3378 11.1106C68.1948 12.369 68.7449 13.8069 68.945 15.3112C69.1452 16.8156 68.9898 18.3453 68.4911 19.7802V19.1528C68.4335 17.4417 68.0875 15.7306 67.2802 14.1335C66.7152 12.9879 65.8612 12.0057 64.8006 11.2817C63.9743 10.77 63.0053 10.5303 62.0328 10.5972H61.8021L62.3788 10.198C62.8401 9.85574 63.359 9.62759 63.9933 9.62759L64.051 9.57056H64.57ZM53.4985 19.6661L53.7869 18.8106C54.1771 17.8448 54.8891 17.0398 55.8051 16.5291C56.7854 15.8446 57.9386 15.5024 59.0919 15.3883C60.7065 15.1602 62.3788 15.2743 63.9357 15.8446H63.3014C61.4561 15.8446 59.7262 16.2439 58.1116 17.0424C56.9584 17.6128 55.9781 18.4113 55.2861 19.552C54.7671 20.3506 54.5365 21.2631 54.5941 22.1757V22.4609C54.2326 22.0863 53.9572 21.6388 53.7869 21.1491L53.6139 20.2935L53.5562 20.1794V19.6661H53.4985ZM74.8341 20.4076L74.6035 21.3202C74.2991 22.1252 73.7565 22.8209 73.0466 23.3165C71.9277 24.1258 70.617 24.6365 69.2408 24.7994C67.6088 25.0607 65.9359 24.8834 64.397 24.2861H65.2043C67.3955 24.2291 69.4714 23.7157 71.3166 22.4039C72.3546 21.6624 73.2196 20.7498 73.6232 19.552C73.7962 18.9246 73.8539 18.2972 73.7385 17.6698C74.2044 18.1504 74.5414 18.7386 74.7188 19.3809L74.8341 19.9513V20.4076ZM63.878 30.5602L63.3014 30.4461C62.4099 30.237 61.6168 29.7342 61.0525 29.0202C60.1875 27.8794 59.6686 26.6817 59.4379 25.3128C59.0919 23.6017 59.2649 21.8906 59.8992 20.2935V20.978C59.8992 22.7461 60.3029 24.4572 61.1678 26.0543C61.7445 27.138 62.4364 28.0506 63.4744 28.735C64.3189 29.3108 65.3335 29.5918 66.3576 29.5335H66.5882L65.7809 30.1039C65.3773 30.332 64.8583 30.5031 64.3393 30.5031L64.2817 30.5602H63.878Z" fill="#A7ADBE"/>
<path d="M67.0496 16.8141C66.4332 16.256 65.7781 15.7415 65.089 15.2741C63.9357 14.3615 62.4941 13.7341 60.9949 13.4489C59.8416 13.2207 58.6883 13.2778 57.535 13.677C56.8519 13.9565 56.2553 14.4089 55.8051 14.9889H55.6898L55.9204 13.9622C56.0958 13.3653 56.4376 12.8293 56.9068 12.4157C57.3759 12.0021 57.9534 11.7276 58.573 11.6237C59.6686 11.3956 60.7065 11.6237 61.6868 11.9659C64.0425 12.8327 65.9655 14.5711 67.0496 16.8141ZM69.2984 11.6807L70.3364 11.8519C70.9754 12.0451 71.5441 12.4173 71.9739 12.9234C72.4037 13.4294 72.6761 14.0478 72.7583 14.7037C72.9313 15.8444 72.7006 16.9852 72.1816 18.0689C71.7203 19.2667 70.913 20.3504 69.8751 21.2059C69.1951 21.8693 68.4174 22.427 67.5685 22.86H67.4532L68.5488 21.6622C69.7021 20.2933 70.4517 18.8104 70.8554 17.0993C71.0578 16.1592 71.0578 15.1875 70.8554 14.2474C70.653 13.255 70.1013 12.3657 69.2984 11.7378V11.6807ZM59.1496 28.3926C58.3423 28.3926 57.5927 28.1644 56.9584 27.7081C56.596 27.4333 56.2923 27.0901 56.0647 26.6986C55.837 26.307 55.69 25.8747 55.6321 25.4267C55.4015 24.2859 55.6898 23.1452 56.2088 22.0615C56.6701 20.8637 57.4774 19.78 58.5153 18.8674C59.2073 18.24 59.9569 17.7267 60.8219 17.2704H60.9949L60.0146 18.24C58.7101 19.6894 57.8326 21.4649 57.4774 23.3733C57.2467 24.5141 57.3044 25.6548 57.8233 26.7956C58.1117 27.423 58.5153 27.9363 59.1496 28.4496V28.3926ZM61.3408 23.3163L63.2437 24.8563C64.4976 25.7943 65.9611 26.4203 67.5109 26.6815C68.6641 26.9096 69.8751 26.8526 70.9707 26.3393C71.6227 26.0611 72.1965 25.6305 72.643 25.0844C72.646 25.9448 72.3213 26.7746 71.7336 27.4088C71.1458 28.043 70.3382 28.435 69.4714 28.5067C68.3182 28.6778 67.2802 28.4496 66.2423 27.9933C64.0779 27.0905 62.3307 25.4233 61.3408 23.3163ZM15.0945 24.5141C15.0945 25.5407 14.8638 26.4533 14.4025 27.3659C13.8524 28.2581 13.0507 28.9718 12.0959 29.4193C11.1157 29.9896 9.90472 30.2178 8.40546 30.2178C7.02153 30.2178 5.75293 29.9896 4.59965 29.4763C3.44637 28.963 2.58142 28.2785 1.88945 27.3659C1.2196 26.4671 0.819854 25.3995 0.736174 24.2859H4.36899C4.4711 25.224 4.93647 26.0866 5.66751 26.6927C6.39855 27.2988 7.33846 27.6014 8.29013 27.537C9.32808 27.537 10.0777 27.2519 10.5967 26.7385C10.8901 26.4694 11.1237 26.1427 11.2825 25.7794C11.4414 25.416 11.522 25.024 11.5193 24.6281C11.5193 23.8867 11.2887 23.2593 10.885 22.803C10.4613 22.3097 9.92862 21.9194 9.32808 21.6622C8.75144 21.377 7.88649 21.0919 6.84854 20.7496C5.52227 20.2933 4.42666 19.8941 3.61936 19.4948C2.81207 19.0956 2.12011 18.4681 1.54347 17.7267C0.931086 16.8172 0.62807 15.7382 0.678511 14.6467C0.674701 13.6139 0.97907 12.603 1.55349 11.7406C2.12791 10.8782 2.94684 10.2026 3.90768 9.79852C5.0033 9.22815 6.21424 9 7.48284 9C9.6164 9 11.3463 9.51333 12.5573 10.54C13.1795 11.0215 13.6951 11.6244 14.0721 12.3112C14.449 12.998 14.6792 13.7541 14.7485 14.5326H11.1157C10.9746 13.6967 10.525 12.9423 9.85388 12.4154C9.18276 11.8886 8.33789 11.6268 7.48284 11.6807C6.56022 11.6807 5.75293 11.9089 5.17629 12.4222C4.59965 12.8785 4.36899 13.563 4.36899 14.4756C4.36899 15.16 4.54199 15.7304 4.94563 16.1867C5.34928 16.643 5.86825 17.0422 6.44489 17.3274C7.02153 17.5556 7.88649 17.8978 8.92444 18.183C10.2507 18.6393 11.3463 19.0385 12.1536 19.4378C13.0898 19.8836 13.873 20.5915 14.406 21.4736C14.9391 22.3558 15.1985 23.3733 15.1521 24.4L15.0945 24.5141ZM21.7835 9.34222V21.5481C21.7835 23.3733 22.1294 24.7422 22.9367 25.6548C23.3787 26.1173 23.9171 26.4793 24.5145 26.7156C25.1118 26.952 25.754 27.0571 26.3966 27.0237C27.8958 27.0237 28.9914 26.5674 29.8564 25.6548C30.6637 24.7422 31.0097 23.3733 31.0097 21.5481V9.34222H34.4695V21.5481C34.4695 24.4 33.7199 26.5104 32.2206 27.9933C30.7214 29.4193 28.7608 30.1607 26.3389 30.1607C23.917 30.1607 22.0141 29.4193 20.5725 27.9933C19.0733 26.5104 18.3813 24.4 18.3813 21.5481V9.34222H21.7835ZM49.3468 9.34222V24.343C49.3468 26.1681 48.7701 27.6511 47.7898 28.6778C47.2036 29.2157 46.5125 29.6296 45.759 29.8944C45.0055 30.1592 44.2053 30.2692 43.4074 30.2178C42.5429 30.2669 41.6774 30.1404 40.8642 29.8462C40.051 29.5519 39.3073 29.096 38.679 28.5067C37.5257 27.3659 36.949 25.6548 36.949 23.6015H40.2935C40.2935 24.7422 40.5242 25.5978 40.9855 26.2252C41.2714 26.5481 41.6273 26.803 42.0267 26.9709C42.4261 27.1388 42.8586 27.2153 43.2921 27.1948C44.2147 27.1948 44.849 26.9096 45.3103 26.3963C45.7716 25.8259 45.9446 25.1415 45.9446 24.343V9.34222H49.3468Z" fill="#A7ADBE"/>
</g>
<defs>
<clipPath id="clip0_2437_27379">
<rect width="74.963" height="22" fill="white" transform="translate(0.447754 9)"/>
</clipPath>
</defs>
</svg>
