<svg width="92" height="38" viewBox="0 0 92 38" fill="none" xmlns="http://www.w3.org/2000/svg">
<path d="M78.6954 3.7002L79.3323 3.7702C80.4646 4.0502 81.3846 4.7502 82.0923 5.5902C83.144 7.13466 83.8192 8.89937 84.0648 10.7456C84.3103 12.5918 84.1197 14.4692 83.5077 16.2302V15.4602C83.4369 13.3602 83.0123 11.2602 82.0215 9.3002C81.3282 7.8942 80.2801 6.68875 78.9784 5.8002C77.9643 5.17219 76.7751 4.87812 75.5815 4.9602H75.2984L76.0061 4.4702C76.5723 4.0502 77.2092 3.7702 77.9877 3.7702L78.0584 3.7002H78.6954V3.7002ZM65.1077 16.0902L65.4615 15.0402C65.9404 13.8549 66.8143 12.867 67.9384 12.2402C69.1415 11.4002 70.5569 10.9802 71.9723 10.8402C73.9538 10.5602 76.0061 10.7002 77.9169 11.4002H77.1384C74.8738 11.4002 72.7507 11.8902 70.7692 12.8702C69.3538 13.5702 68.1507 14.5502 67.3015 15.9502C66.6646 16.9302 66.3815 18.0502 66.4523 19.1702V19.5202C66.0086 19.0604 65.6706 18.5112 65.4615 17.9102L65.2492 16.8602L65.1784 16.7202V16.0902H65.1077V16.0902ZM91.2923 17.0002L91.0092 18.1202C90.6356 19.1082 89.9697 19.9619 89.0984 20.5702C87.7253 21.5634 86.1167 22.1902 84.4277 22.3902C82.4248 22.7108 80.3717 22.4932 78.483 21.7602H79.4738C82.163 21.6902 84.7107 21.0602 86.9754 19.4502C88.2492 18.5402 89.3107 17.4202 89.8061 15.9502C90.0184 15.1802 90.0892 14.4102 89.9477 13.6402C90.5194 14.23 90.933 14.9519 91.1507 15.7402L91.2923 16.4402V17.0002V17.0002ZM77.8461 29.4602L77.1384 29.3202C76.0443 29.0636 75.071 28.4465 74.3784 27.5702C73.3169 26.1702 72.68 24.7002 72.3969 23.0202C71.9723 20.9202 72.1846 18.8202 72.963 16.8602V17.7002C72.963 19.8702 73.4584 21.9702 74.52 23.9302C75.2277 25.2602 76.0769 26.3802 77.3507 27.2202C78.3873 27.9269 79.6324 28.2717 80.8892 28.2002H81.1723L80.1815 28.9002C79.6861 29.1802 79.0492 29.3902 78.4123 29.3902L78.3415 29.4602H77.8461V29.4602Z" fill="#656A85"/>
<path d="M81.7385 12.59C80.982 11.9052 80.178 11.2736 79.3323 10.7C77.9169 9.58 76.1477 8.81 74.3077 8.46C72.8923 8.18 71.4769 8.25 70.0615 8.74C69.2232 9.08297 68.491 9.63826 67.9385 10.35H67.7969L68.08 9.09C68.2952 8.35741 68.7147 7.69962 69.2905 7.19202C69.8663 6.68441 70.575 6.34754 71.3354 6.22C72.68 5.94 73.9538 6.22 75.1569 6.64C78.048 7.70373 80.408 9.83726 81.7385 12.59V12.59ZM84.4985 6.29L85.7723 6.5C86.5565 6.73719 87.2545 7.19392 87.782 7.81502C88.3094 8.43612 88.6438 9.19501 88.7446 10C88.9569 11.4 88.6738 12.8 88.0369 14.13C87.4708 15.6 86.48 16.93 85.2061 17.98C84.3716 18.7942 83.4172 19.4786 82.3754 20.01H82.2338L83.5785 18.54C84.9938 16.86 85.9138 15.04 86.4092 12.94C86.6577 11.7863 86.6577 10.5937 86.4092 9.44C86.1608 8.22203 85.4838 7.13067 84.4985 6.36V6.29V6.29ZM72.0431 26.8C71.0523 26.8 70.1323 26.52 69.3538 25.96C68.9091 25.6226 68.5364 25.2015 68.257 24.721C67.9776 24.2404 67.7972 23.7099 67.7261 23.16C67.4431 21.76 67.7969 20.36 68.4338 19.03C69 17.56 69.9908 16.23 71.2646 15.11C72.1138 14.34 73.0338 13.71 74.0954 13.15H74.3077L73.1046 14.34C71.5037 16.1188 70.4267 18.2978 69.9908 20.64C69.7077 22.04 69.7785 23.44 70.4154 24.84C70.7692 25.61 71.2646 26.24 72.0431 26.87V26.8V26.8ZM74.7323 20.57L77.0677 22.46C78.6065 23.6112 80.4026 24.3795 82.3046 24.7C83.72 24.98 85.2062 24.91 86.5508 24.28C87.3509 23.9387 88.0552 23.4102 88.6031 22.74C88.6068 23.7958 88.2083 24.8143 87.487 25.5927C86.7657 26.371 85.7745 26.852 84.7108 26.94C83.2954 27.15 82.0215 26.87 80.7477 26.31C78.0914 25.202 75.9472 23.1559 74.7323 20.57V20.57ZM17.9754 22.04C17.9754 23.3 17.6923 24.42 17.1262 25.54C16.451 26.6349 15.4671 27.5108 14.2954 28.06C13.0923 28.76 11.6062 29.04 9.76615 29.04C8.06769 29.04 6.51077 28.76 5.09538 28.13C3.68 27.5 2.61846 26.66 1.76923 25.54C0.947147 24.4369 0.456543 23.1267 0.353846 21.76H4.81231C4.93762 22.9113 5.50876 23.9699 6.40594 24.7138C7.30312 25.4577 8.45665 25.829 9.62462 25.75C10.8985 25.75 11.8185 25.4 12.4554 24.77C12.8155 24.4397 13.1022 24.0388 13.2971 23.5929C13.4921 23.147 13.591 22.6658 13.5877 22.18C13.5877 21.27 13.3046 20.5 12.8092 19.94C12.2893 19.3346 11.6355 18.8556 10.8985 18.54C10.1908 18.19 9.12923 17.84 7.85538 17.42C6.22769 16.86 4.88308 16.37 3.89231 15.88C2.90154 15.39 2.05231 14.62 1.34462 13.71C0.593055 12.5939 0.221172 11.2696 0.283077 9.93C0.278401 8.66254 0.651945 7.4219 1.35691 6.36349C2.06188 5.30507 3.06693 4.47596 4.24615 3.98C5.59077 3.28 7.07692 3 8.63385 3C11.2523 3 13.3754 3.63 14.8615 4.89C15.6252 5.48095 16.258 6.22083 16.7206 7.06374C17.1833 7.90665 17.4658 8.83459 17.5508 9.79H13.0923C12.9192 8.76411 12.3674 7.83825 11.5438 7.19167C10.7201 6.5451 9.68323 6.2238 8.63385 6.29C7.50154 6.29 6.51077 6.57 5.80308 7.2C5.09538 7.76 4.81231 8.6 4.81231 9.72C4.81231 10.56 5.02462 11.26 5.52 11.82C6.01538 12.38 6.65231 12.87 7.36 13.22C8.06769 13.5 9.12923 13.92 10.4031 14.27C12.0308 14.83 13.3754 15.32 14.3662 15.81C15.5151 16.3571 16.4763 17.2259 17.1305 18.3085C17.7847 19.3912 18.1031 20.64 18.0462 21.9L17.9754 22.04V22.04ZM26.1846 3.42V18.4C26.1846 20.64 26.6092 22.32 27.6 23.44C28.1424 24.0076 28.8031 24.4518 29.5363 24.7419C30.2694 25.032 31.0576 25.161 31.8462 25.12C33.6862 25.12 35.0308 24.56 36.0923 23.44C37.0831 22.32 37.5077 20.64 37.5077 18.4V3.42H41.7538V18.4C41.7538 21.9 40.8338 24.49 38.9938 26.31C37.1538 28.06 34.7477 28.97 31.7754 28.97C28.8031 28.97 26.4677 28.06 24.6985 26.31C22.8585 24.49 22.0092 21.9 22.0092 18.4V3.42H26.1846ZM60.0123 3.42V21.83C60.0123 24.07 59.3046 25.89 58.1015 27.15C57.382 27.8101 56.5339 28.3182 55.6092 28.6432C54.6844 28.9681 53.7024 29.1032 52.7231 29.04C51.6621 29.1003 50.5999 28.9451 49.6019 28.5839C48.6038 28.2228 47.6911 27.6633 46.92 26.94C45.5046 25.54 44.7969 23.44 44.7969 20.92H48.9015C48.9015 22.32 49.1846 23.37 49.7508 24.14C50.1017 24.5363 50.5385 24.8491 51.0286 25.0551C51.5187 25.2612 52.0496 25.3551 52.5815 25.33C53.7138 25.33 54.4923 24.98 55.0585 24.35C55.6246 23.65 55.8369 22.81 55.8369 21.83V3.42H60.0123ZM0.707692 36.46H0V32.26H2.61846V32.82H0.636923V34.15H2.40615V34.71H0.707692V36.46V36.46ZM4.24615 36.53C3.99562 36.5232 3.7514 36.4507 3.53846 36.32L3.04308 35.76C2.90154 35.55 2.83077 35.27 2.83077 34.92C2.83077 34.57 2.90154 34.29 3.04308 34.08C3.16494 33.8546 3.3499 33.6687 3.57582 33.5445C3.80174 33.4204 4.05904 33.3633 4.31692 33.38C4.6 33.38 4.81231 33.38 5.02462 33.52C5.23692 33.66 5.44923 33.8 5.59077 34.08L5.73231 34.92C5.73231 35.27 5.73231 35.55 5.59077 35.76L5.02462 36.32C4.81168 36.4507 4.56746 36.5232 4.31692 36.53H4.24615ZM4.24615 35.97C4.52923 35.97 4.74154 35.9 4.88308 35.69C5.02462 35.48 5.09538 35.27 5.09538 34.92C5.09538 34.57 5.09538 34.29 4.88308 34.15C4.81716 34.0631 4.73168 33.9925 4.63341 33.9439C4.53515 33.8953 4.42679 33.87 4.31692 33.87C4.19536 33.8583 4.07281 33.878 3.9612 33.9271C3.84958 33.9761 3.75271 34.0529 3.68 34.15C3.53846 34.29 3.46769 34.57 3.46769 34.85C3.46769 35.27 3.53846 35.55 3.68 35.69C3.82154 35.9 4.03385 35.97 4.31692 35.97H4.24615ZM6.22769 36.46V33.38H6.79385V33.87L7.07692 33.45L7.57231 33.31H7.71385V33.94H7.50154C7.28923 33.94 7.14769 33.94 7.00615 34.08C6.89841 34.2199 6.84788 34.3949 6.86461 34.57V36.46H6.15692H6.22769V36.46ZM8.13846 36.46V33.38H8.77538V33.87C8.84524 33.7042 8.96316 33.5625 9.11429 33.4628C9.26542 33.3632 9.44298 33.31 9.62462 33.31C9.83692 33.31 10.0492 33.31 10.1908 33.45L10.4738 33.94L10.8985 33.45L11.4646 33.31C11.7477 33.31 11.96 33.38 12.1723 33.59C12.3846 33.8 12.4554 34.01 12.4554 34.29V36.39H11.8185V34.5C11.8185 34.29 11.8185 34.15 11.6769 34.01L11.2523 33.87C11.04 33.87 10.8985 33.87 10.7569 34.08C10.665 34.2012 10.6154 34.3485 10.6154 34.5V36.46H9.90769V34.43C9.90769 34.29 9.90769 34.15 9.76615 34.01C9.70871 33.9593 9.64143 33.9208 9.56843 33.8967C9.49542 33.8727 9.41822 33.8636 9.34154 33.87C9.2 33.87 8.98769 33.87 8.91692 34.08C8.78358 34.2092 8.70727 34.3854 8.70462 34.57V36.46H8.06769H8.13846V36.46ZM15.0738 35.55H15.64C15.64 35.76 15.5692 35.9 15.4277 36.04L15.0031 36.39L14.2954 36.53C13.8708 36.53 13.5877 36.39 13.3046 36.11C13.0215 35.76 12.88 35.41 12.88 34.92C12.88 34.57 12.9508 34.29 13.0923 34.08L13.5877 33.52C13.8006 33.3893 14.0449 33.3168 14.2954 33.31C14.5785 33.31 14.8615 33.38 15.0031 33.52C15.2862 33.66 15.4277 33.8 15.4985 34.01L15.7108 34.85V35.06H13.5877C13.5877 35.34 13.5877 35.55 13.7292 35.76C13.9415 35.9 14.0831 35.97 14.3662 35.97L14.7908 35.9L15.0738 35.55V35.55ZM14.3662 33.8C14.2563 33.8 14.1479 33.8253 14.0497 33.8739C13.9514 33.9225 13.8659 33.9931 13.8 34.08L13.5169 34.64H15.0738C15.0738 34.36 15.0031 34.22 14.8615 34.08C14.7956 33.9931 14.7101 33.9225 14.6119 33.8739C14.5136 33.8253 14.4053 33.8 14.2954 33.8H14.3662ZM16.2062 36.46V33.38H16.7723V33.87C16.7723 33.73 16.9138 33.59 17.0554 33.45L17.5508 33.31H17.6923V33.94H17.4092C17.1969 33.94 17.0554 33.94 16.9138 34.08C16.7805 34.2092 16.7042 34.3854 16.7015 34.57V36.46H16.2062V36.46ZM18.1169 36.46V32.26H18.8246V36.46H18.1169ZM19.7446 37.58H19.4615V37.09H19.6738C19.8154 37.09 19.8862 37.09 20.0277 36.95C20.0985 36.88 20.24 36.74 20.24 36.6V36.46L19.1785 33.38H19.8862L20.5938 35.9L21.3723 33.38H22.08L20.8062 36.6C20.8062 36.88 20.6646 37.02 20.5231 37.16L20.1692 37.51C20.0096 37.5622 19.8419 37.586 19.6738 37.58H19.7446V37.58ZM25.4769 32.19C25.9015 32.19 26.1846 32.19 26.5385 32.4C26.8215 32.61 27.0338 32.82 27.2462 33.17C27.3877 33.52 27.4585 33.87 27.4585 34.36C27.4585 34.78 27.3877 35.2 27.1754 35.48C27.0439 35.8174 26.8101 36.1062 26.5059 36.3067C26.2018 36.5073 25.8423 36.6097 25.4769 36.6C25.1231 36.6 24.7692 36.53 24.4154 36.32L23.7077 35.62L23.5662 34.43C23.5662 33.94 23.5662 33.59 23.7785 33.24C23.92 32.89 24.1323 32.68 24.4862 32.54C24.7692 32.33 25.1231 32.26 25.4769 32.26V32.19V32.19ZM25.4769 32.75C25.1938 32.75 24.9815 32.75 24.7692 32.96C24.6277 33.03 24.4862 33.24 24.3446 33.52C24.2399 33.7875 24.1918 34.0734 24.2031 34.36C24.2031 34.64 24.2031 34.92 24.3446 35.2L24.7692 35.76C24.9815 35.9 25.1938 35.97 25.4769 35.97C25.76 35.97 25.9723 35.9 26.1846 35.76C26.3969 35.62 26.5385 35.41 26.6092 35.2C26.7508 34.92 26.7508 34.64 26.7508 34.36C26.7508 34.01 26.7508 33.73 26.6092 33.52C26.5385 33.24 26.3969 33.03 26.1846 32.96C25.9723 32.82 25.76 32.75 25.4769 32.75ZM28.0954 32.26H29.5108C30.2185 32.26 30.6431 32.4 30.9262 32.75C31.3508 33.17 31.4923 33.66 31.4923 34.36C31.4923 35.06 31.3508 35.48 30.9969 35.9C30.6431 36.25 30.1477 36.46 29.5815 36.46H28.0954V32.26V32.26ZM28.7323 32.82V35.9H29.44C29.9354 35.9 30.2892 35.76 30.5015 35.48C30.7138 35.2 30.8554 34.78 30.8554 34.36C30.8554 33.87 30.7138 33.45 30.5015 33.17C30.2892 32.96 29.9354 32.82 29.44 32.82H28.7323ZM34.7477 35.9V36.46H32.1292V32.26H34.7477V32.82H32.7662V34.01H34.6769V34.57H32.7662V35.9H34.7477V35.9ZM37.2246 32.19C37.6492 32.19 37.9323 32.19 38.2862 32.4C38.5692 32.61 38.7815 32.82 38.9938 33.17C39.1354 33.52 39.2062 33.87 39.2062 34.36C39.2062 34.78 39.1354 35.2 38.9938 35.48C38.847 35.8161 38.5974 36.0981 38.28 36.2865C37.9626 36.4749 37.5935 36.56 37.2246 36.53C36.8708 36.53 36.5169 36.46 36.2338 36.25C35.88 36.04 35.6677 35.83 35.5262 35.55C35.3846 35.2 35.3138 34.85 35.3138 34.36C35.3138 33.87 35.3138 33.52 35.5262 33.17C35.6677 32.82 35.88 32.61 36.2338 32.47C36.5169 32.26 36.8708 32.19 37.2246 32.19ZM37.2246 32.75C37.0123 32.75 36.7292 32.75 36.5169 32.96C36.3754 33.03 36.2338 33.24 36.0923 33.52C35.9876 33.7875 35.9395 34.0734 35.9508 34.36C35.9508 34.64 35.9508 34.92 36.0923 35.2L36.5877 35.76C36.7292 35.9 37.0123 35.97 37.2954 35.97L37.9323 35.76C38.1446 35.62 38.2862 35.41 38.3569 35.2C38.4985 34.92 38.4985 34.64 38.4985 34.36C38.4985 34.01 38.4985 33.73 38.3569 33.52C38.2862 33.24 38.1446 33.03 37.9323 32.96C37.72 32.82 37.5077 32.75 37.2246 32.75ZM40.48 36.46H39.7723V32.26H40.4092L42.5323 35.34V32.26H43.24V36.46H42.6031L40.48 33.31V36.46Z" fill="#656A85"/>
</svg>
