<svg width="100" height="40" viewBox="0 0 100 40" fill="none" xmlns="http://www.w3.org/2000/svg">
<g opacity="0.8">
<path d="M46.3148 6.67177C46.2437 5.79065 46.1725 4.6111 46.1725 4H45.8451C45.6031 4.27002 45.4323 4.35529 45.0622 4.35529H39.3686C38.97 4.35529 38.785 4.32687 38.5714 4H38.2441C38.2156 4.739 38.1302 5.74802 38.0732 6.7144H38.5572C38.728 6.03225 38.8846 5.57748 39.0981 5.33588C39.2974 5.06587 39.5678 4.93796 40.735 4.93796H41.3756V11.7453C41.3756 12.9248 41.2332 13.0385 40.0091 13.138V13.5928H44.4502V13.138C43.1549 13.0385 43.0267 12.9248 43.0267 11.7453V4.93796H43.7954C44.7206 4.93796 45.0338 5.02323 45.29 5.30746C45.5035 5.54906 45.6743 5.98961 45.8451 6.70019L46.3148 6.67177Z" fill="#A7ADBE"/>
<path d="M58.7532 11.191C58.5112 11.7879 58.255 12.2569 57.9846 12.5553C57.6572 12.9248 57.1874 13.0243 56.3192 13.0243C55.7355 13.0243 55.2374 13.0101 54.9811 12.868C54.7107 12.7117 54.6395 12.3848 54.6395 11.7027V9.173H55.7355C56.9597 9.173 57.102 9.22985 57.2871 10.2531H57.771V7.43919H57.2871C57.102 8.41979 56.9597 8.50506 55.7355 8.50506H54.6395V5.42115C54.6395 4.96638 54.6822 4.93796 55.1804 4.93796H56.006C56.8885 4.93796 57.2728 5.03744 57.5006 5.30746C57.7283 5.57748 57.8991 5.98961 58.0273 6.52965L58.5112 6.4586C58.4543 5.63433 58.3831 4.63952 58.3689 4.35529H51.8069V4.82427C52.846 4.90954 52.9741 4.96638 52.9741 6.217V11.7453C52.9741 12.9391 52.846 13.0385 51.6076 13.138V13.5928H58.7247C58.8528 13.1664 59.1375 11.8448 59.2229 11.2763L58.7532 11.191Z" fill="#A7ADBE"/>
<path d="M73.7016 13.5928V13.138C72.7194 13.0385 72.4062 12.8538 71.7942 11.9016C71.0113 10.7221 70.2853 9.5425 69.474 8.26346C70.2569 7.12654 70.812 6.35912 71.239 5.83329C71.8369 5.09429 72.1785 4.93796 73.1464 4.82427V4.35529H69.7729V4.82427C70.7124 4.96638 70.7551 5.1085 70.4562 5.66275C70.1003 6.31648 69.6306 7.06969 69.1324 7.76606C68.5345 6.81388 68.0506 6.04646 67.7232 5.46379C67.5381 5.12271 67.5239 4.96638 68.3495 4.82427V4.35529H64.3355V4.82427C65.3176 4.92375 65.6308 5.13692 66.1147 5.90435C66.7695 6.94179 67.3958 7.95081 68.0933 9.10194C67.1254 10.5799 66.2286 11.7737 65.7731 12.3422C65.3603 12.8396 64.8764 13.0527 64.0792 13.138V13.5928H67.5381V13.138C66.5845 12.9817 66.4848 12.868 66.8264 12.2569C67.1823 11.589 67.7659 10.651 68.4491 9.62777C69.4313 11.2479 69.8726 11.9727 70.0861 12.3422C70.3423 12.8112 70.3565 12.9817 69.4313 13.138V13.5928H73.7016Z" fill="#A7ADBE"/>
<path d="M88.1256 13.5928V13.138C87.2146 13.0243 87.0296 12.868 86.5598 11.6174C85.6346 9.173 84.7378 6.61492 83.8269 4.14212L83.2006 4.31265L80.2825 11.66C79.7986 12.8822 79.6135 13.0101 78.6883 13.138V13.5928H81.8341V13.138C80.795 13.0101 80.7238 12.8396 80.9658 12.0722C81.1366 11.5037 81.3359 10.9637 81.5209 10.4378H84.3535C84.6097 11.12 84.8517 11.7879 85.0083 12.2569C85.2076 12.8538 85.1222 13.0101 84.2681 13.138V13.5928H88.1256ZM84.1115 9.74146H81.7487C82.1472 8.6756 82.5315 7.5671 82.9443 6.47281H82.987L84.1115 9.74146Z" fill="#A7ADBE"/>
<path d="M98.9351 6.51544C98.8212 5.62011 98.7358 5.02323 98.6789 4.4974C98.3088 4.38371 97.5829 4.14212 96.7573 4.14212C94.8072 4.14212 93.6258 5.3501 93.6258 6.8281C93.6258 8.27767 94.793 9.03088 96.0598 9.68461C97.1274 10.2389 97.8106 10.7647 97.8106 11.6742C97.8106 12.6264 97.227 13.2517 96.2733 13.2517C94.8784 13.2517 94.1097 11.7169 93.8535 10.8215L93.3696 10.9637C93.4692 11.7595 93.6542 12.9533 93.7823 13.2943C93.9532 13.3796 94.2094 13.4791 94.5937 13.5928C94.978 13.7207 95.462 13.806 96.0029 13.806C98.0241 13.806 99.3621 12.5696 99.3621 10.9921C99.3621 9.51408 98.2234 8.77508 96.8712 8.09292C95.6613 7.49604 95.0777 7.02706 95.0777 6.14594C95.0777 5.3501 95.6328 4.69636 96.5295 4.69636C97.711 4.69636 98.1949 5.7196 98.4796 6.61492L98.9351 6.51544Z" fill="#A7ADBE"/>
<path d="M43.697 22.5839V22.3426C43.2136 22.2823 43.1154 22.1993 42.8662 21.5357C42.3752 20.2387 41.8994 18.8813 41.416 17.5692L41.0837 17.6597L39.5354 21.5583C39.2786 22.2068 39.1804 22.2747 38.6895 22.3426V22.5839H40.3586V22.3426C39.8073 22.2747 39.7695 22.1842 39.8979 21.777C39.9885 21.4754 40.0943 21.1888 40.1925 20.9098H41.6955C41.8314 21.2718 41.9598 21.6262 42.0429 21.875C42.1487 22.1918 42.1033 22.2747 41.6502 22.3426V22.5839H43.697ZM41.5671 20.5403H40.3133C40.5248 19.9748 40.7287 19.3866 40.9478 18.8059H40.9704L41.5671 20.5403Z" fill="#A7ADBE"/>
<path d="M47.0158 18.8286C46.9553 18.3535 46.91 18.0368 46.8798 17.7578C46.6834 17.6974 46.2982 17.5692 45.8602 17.5692C44.8254 17.5692 44.1985 18.2102 44.1985 18.9945C44.1985 19.7636 44.8179 20.1633 45.4901 20.5102C46.0565 20.8043 46.4191 21.0833 46.4191 21.5659C46.4191 22.0711 46.1094 22.4029 45.6034 22.4029C44.8632 22.4029 44.4553 21.5885 44.3194 21.1134L44.0626 21.1888C44.1155 21.6111 44.2137 22.2445 44.2816 22.4255C44.3723 22.4708 44.5082 22.5236 44.7121 22.5839C44.9161 22.6518 45.1729 22.697 45.4599 22.697C46.5324 22.697 47.2423 22.0409 47.2423 21.2039C47.2423 20.4197 46.6381 20.0275 45.9206 19.6656C45.2786 19.3489 44.9689 19.1 44.9689 18.6325C44.9689 18.2102 45.2635 17.8633 45.7393 17.8633C46.3662 17.8633 46.623 18.4063 46.7741 18.8813L47.0158 18.8286Z" fill="#A7ADBE"/>
<path d="M50.7479 18.8286C50.6875 18.3535 50.6422 18.0368 50.612 17.7578C50.4156 17.6974 50.0304 17.5692 49.5923 17.5692C48.5576 17.5692 47.9307 18.2102 47.9307 18.9945C47.9307 19.7636 48.55 20.1633 49.2223 20.5102C49.7887 20.8043 50.1513 21.0833 50.1513 21.5659C50.1513 22.0711 49.8416 22.4029 49.3355 22.4029C48.5954 22.4029 48.1875 21.5885 48.0516 21.1134L47.7948 21.1888C47.8476 21.6111 47.9458 22.2445 48.0138 22.4255C48.1044 22.4708 48.2404 22.5236 48.4443 22.5839C48.6482 22.6518 48.905 22.697 49.192 22.697C50.2645 22.697 50.9745 22.0409 50.9745 21.2039C50.9745 20.4197 50.3703 20.0275 49.6528 19.6656C49.0108 19.3489 48.7011 19.1 48.7011 18.6325C48.7011 18.2102 48.9957 17.8633 49.4715 17.8633C50.0984 17.8633 50.3552 18.4063 50.5062 18.8813L50.7479 18.8286Z" fill="#A7ADBE"/>
<path d="M54.1629 17.5692C52.4937 17.5692 51.5571 18.8436 51.5571 20.1557C51.5571 21.6036 52.6145 22.697 54.0722 22.697C55.4846 22.697 56.6478 21.7016 56.6478 20.0803C56.6478 18.5797 55.5073 17.5692 54.1629 17.5692ZM54.0194 17.8709C54.9408 17.8709 55.6281 18.7532 55.6281 20.2839C55.6281 21.6941 54.9861 22.3954 54.2233 22.3954C53.2188 22.3954 52.5768 21.3246 52.5768 19.9898C52.5768 18.6476 53.2339 17.8709 54.0194 17.8709Z" fill="#A7ADBE"/>
<path d="M61.7865 21.2115C61.4013 21.9655 60.9632 22.3727 60.2759 22.3727C59.2034 22.3727 58.433 21.4377 58.433 20.0502C58.433 18.919 59.0599 17.8784 60.2155 17.8784C60.8801 17.8784 61.4164 18.165 61.643 19.0246L61.9073 18.9718C61.8544 18.5269 61.8016 18.1876 61.7412 17.7728C61.5372 17.7276 60.9934 17.5692 60.3816 17.5692C58.6143 17.5692 57.4134 18.6325 57.4134 20.201C57.4134 21.3924 58.2517 22.697 60.2079 22.697C60.7366 22.697 61.4088 22.5462 61.6128 22.5009C61.7412 22.2445 61.93 21.6714 62.0357 21.3095L61.7865 21.2115Z" fill="#A7ADBE"/>
<path d="M64.6254 22.5839V22.3426C64.0438 22.2898 63.9834 22.237 63.9834 21.6036V18.6702C63.9834 18.0292 64.0438 17.9764 64.6254 17.9312V17.6824H62.4577V17.9312C63.0393 17.9764 63.1073 18.0292 63.1073 18.6702V21.6036C63.1073 22.2445 63.0393 22.2898 62.4577 22.3426V22.5839H64.6254Z" fill="#A7ADBE"/>
<path d="M69.7927 22.5839V22.3426C69.3093 22.2823 69.2111 22.1993 68.9619 21.5357C68.4709 20.2387 67.9951 18.8813 67.5117 17.5692L67.1794 17.6597L65.631 21.5583C65.3743 22.2068 65.2761 22.2747 64.7851 22.3426V22.5839H66.4543V22.3426C65.9029 22.2747 65.8652 22.1842 65.9936 21.777C66.0842 21.4754 66.19 21.1888 66.2881 20.9098H67.7912C67.9271 21.2718 68.0555 21.6262 68.1386 21.875C68.2443 22.1918 68.199 22.2747 67.7458 22.3426V22.5839H69.7927ZM67.6628 20.5403H66.409C66.6205 19.9748 66.8244 19.3866 67.0434 18.8059H67.0661L67.6628 20.5403Z" fill="#A7ADBE"/>
<path d="M73.9836 18.9115C73.9458 18.444 73.9081 17.8181 73.9081 17.4938H73.7344C73.606 17.6371 73.5153 17.6824 73.319 17.6824H70.2978C70.0863 17.6824 69.9882 17.6673 69.8749 17.4938H69.7011C69.686 17.886 69.6407 18.4214 69.6105 18.9341H69.8673C69.9579 18.5722 70.041 18.3309 70.1543 18.2027C70.2601 18.0594 70.4036 17.9915 71.0229 17.9915H71.3628V21.6036C71.3628 22.2295 71.2872 22.2898 70.6377 22.3426V22.5839H72.9942V22.3426C72.3069 22.2898 72.2389 22.2295 72.2389 21.6036V17.9915H72.6468C73.1377 17.9915 73.3039 18.0368 73.4398 18.1876C73.5531 18.3158 73.6437 18.5495 73.7344 18.9266L73.9836 18.9115Z" fill="#A7ADBE"/>
<path d="M76.6259 22.5839V22.3426C76.0443 22.2898 75.9839 22.237 75.9839 21.6036V18.6702C75.9839 18.0292 76.0443 17.9764 76.6259 17.9312V17.6824H74.4582V17.9312C75.0398 17.9764 75.1077 18.0292 75.1077 18.6702V21.6036C75.1077 22.2445 75.0398 22.2898 74.4582 22.3426V22.5839H76.6259Z" fill="#A7ADBE"/>
<path d="M79.7717 17.5692C78.1026 17.5692 77.166 18.8436 77.166 20.1557C77.166 21.6036 78.2234 22.697 79.6811 22.697C81.0935 22.697 82.2566 21.7016 82.2566 20.0803C82.2566 18.5797 81.1161 17.5692 79.7717 17.5692ZM79.6282 17.8709C80.5497 17.8709 81.237 18.7532 81.237 20.2839C81.237 21.6941 80.595 22.3954 79.8322 22.3954C78.8276 22.3954 78.1856 21.3246 78.1856 19.9898C78.1856 18.6476 78.8427 17.8709 79.6282 17.8709Z" fill="#A7ADBE"/>
<path d="M87.9443 17.6824H86.124V17.9237C86.6678 17.9538 86.8265 18.0745 86.8718 18.3987C86.8869 18.6174 86.9246 18.9718 86.9246 19.6505V21.1587H86.902L83.9186 17.6824H82.6195V17.9237C82.9594 17.9538 83.118 18.0142 83.2691 18.2027C83.4126 18.3761 83.4201 18.4817 83.4201 18.9945V20.6007C83.4201 21.2718 83.3824 21.6111 83.3597 21.86C83.3219 22.1993 83.1407 22.3124 82.7177 22.3426V22.5839H84.5455V22.3426C84.0017 22.3124 83.8582 22.1918 83.8204 21.8373C83.7978 21.6111 83.7676 21.2718 83.7676 20.6007V18.8286H83.7827L86.9549 22.6593H87.2721V19.6505C87.2721 18.9718 87.3023 18.6174 87.3325 18.3912C87.3703 18.0519 87.5364 17.9463 87.9443 17.9237V17.6824Z" fill="#A7ADBE"/>
<path d="M92.6868 17.5692C91.0176 17.5692 90.0811 18.8436 90.0811 20.1557C90.0811 21.6036 91.1385 22.697 92.5962 22.697C94.0086 22.697 95.1717 21.7016 95.1717 20.0803C95.1717 18.5797 94.0312 17.5692 92.6868 17.5692ZM92.5433 17.8709C93.4648 17.8709 94.1521 18.7532 94.1521 20.2839C94.1521 21.6941 93.5101 22.3954 92.7472 22.3954C91.7427 22.3954 91.1007 21.3246 91.1007 19.9898C91.1007 18.6476 91.7578 17.8709 92.5433 17.8709Z" fill="#A7ADBE"/>
<path d="M99.2808 18.821C99.243 18.4063 99.2053 17.8633 99.1977 17.6824H95.7159V17.9312C96.2748 17.9764 96.3427 18.0217 96.3427 18.6928V21.5583C96.3427 22.2445 96.2748 22.2898 95.7008 22.3426V22.5839H97.9515V22.3426C97.2869 22.2898 97.2189 22.2445 97.2189 21.5583V20.299H97.8986C98.5708 20.299 98.6388 20.3744 98.7219 20.8872H98.9711V19.4017H98.7219C98.6313 19.8843 98.5708 19.9521 97.8986 19.9521H97.2189V18.2479C97.2189 18.0066 97.2491 17.9915 97.4983 17.9915H97.944C98.4273 17.9915 98.6162 18.0443 98.7597 18.2253C98.8805 18.3761 98.956 18.5646 99.0316 18.8587L99.2808 18.821Z" fill="#A7ADBE"/>
<path d="M43.5803 30.9836C44.4951 30.7928 45.6146 30.2611 45.6146 28.9525C45.6146 28.2982 45.3142 27.7257 44.8227 27.4122C44.3312 27.085 43.6759 26.9351 42.6382 26.9351H38.829V27.3849C39.8393 27.4667 39.9349 27.5621 39.9349 28.7072V34.0234C39.9349 35.1685 39.8257 35.2639 38.7334 35.3457V35.7955H42.0375C43.157 35.7955 44.1537 35.6183 44.85 35.223C45.6419 34.8004 46.1334 34.0916 46.1334 33.1783C46.1334 31.856 45.0821 31.229 43.5803 31.0381V30.9836ZM41.505 30.8473V28.2301C41.505 27.8893 41.546 27.6984 41.6552 27.6166C41.7508 27.5348 42.0102 27.4531 42.3242 27.4531C43.2663 27.4531 43.9216 28.0528 43.9216 29.1706C43.9216 30.302 43.3209 30.8473 41.9419 30.8473H41.505ZM41.505 31.3653H41.9146C43.4984 31.3653 44.3585 32.006 44.3585 33.3146C44.3585 34.6914 43.4438 35.2503 42.5563 35.2639C41.7781 35.2775 41.505 34.9913 41.505 33.9962V31.3653Z" fill="#A7ADBE"/>
<path d="M56.3128 26.9351H52.9541V27.3849C53.8961 27.4394 54.1965 27.6712 54.2784 28.1619C54.3331 28.5845 54.4013 29.1297 54.4013 30.193V31.488C54.4013 33.7644 53.7187 35.1412 51.971 35.1412C50.4146 35.1412 49.6363 33.928 49.6363 31.8288V28.8162C49.6363 27.5485 49.7592 27.4667 50.7832 27.3849V26.9351H46.8784V27.3849C47.916 27.4803 48.0389 27.5485 48.0389 28.8162V32.1014C48.0389 33.6963 48.4212 34.705 49.1994 35.3184C49.8411 35.8091 50.674 36 51.5341 36C52.4762 36 53.4046 35.6728 54.0327 35.0185C54.8109 34.2006 55.043 33.042 55.043 31.5425V30.193C55.043 29.1161 55.084 28.5845 55.1386 28.1892C55.2069 27.6712 55.5345 27.4258 56.3128 27.3849V26.9351Z" fill="#A7ADBE"/>
<path d="M62.3263 29.007C62.217 28.1483 62.1351 27.5757 62.0805 27.0714C61.7255 26.9623 61.0292 26.7306 60.2373 26.7306C58.3668 26.7306 57.2336 27.8893 57.2336 29.3069C57.2336 30.6973 58.3532 31.4198 59.5683 32.0469C60.5923 32.5785 61.2477 33.0828 61.2477 33.9553C61.2477 34.8686 60.6879 35.4684 59.7731 35.4684C58.4351 35.4684 57.6978 33.9962 57.4521 33.1374L56.9879 33.2737C57.0834 34.0371 57.2609 35.1821 57.3838 35.5092C57.5476 35.591 57.7934 35.6865 58.162 35.7955C58.5307 35.9182 58.9949 36 59.5137 36C61.4525 36 62.7359 34.814 62.7359 33.301C62.7359 31.8833 61.6436 31.1744 60.3465 30.5201C59.186 29.9476 58.6262 29.4978 58.6262 28.6526C58.6262 27.8893 59.1587 27.2622 60.0189 27.2622C61.1521 27.2622 61.6163 28.2437 61.8894 29.1025L62.3263 29.007Z" fill="#A7ADBE"/>
<path d="M67.4659 35.7955V35.3593C66.4146 35.2639 66.3054 35.1685 66.3054 34.0234V28.7208C66.3054 27.5621 66.4146 27.4667 67.4659 27.3849V26.9351H63.5475V27.3849C64.5988 27.4667 64.7217 27.5621 64.7217 28.7208V34.0234C64.7217 35.1821 64.5988 35.2639 63.5475 35.3593V35.7955H67.4659Z" fill="#A7ADBE"/>
<path d="M77.8596 26.9351H74.5691V27.3713C75.5522 27.4258 75.8389 27.6439 75.9208 28.2301C75.9481 28.6254 76.0164 29.266 76.0164 30.4929V33.2192H75.9754L70.5824 26.9351H68.234V27.3713C68.8484 27.4258 69.1352 27.5348 69.4082 27.8756C69.6676 28.1892 69.6813 28.38 69.6813 29.3069V32.2104C69.6813 33.4236 69.613 34.0371 69.5721 34.4869C69.5038 35.1003 69.1761 35.3048 68.4115 35.3593V35.7955H71.7156V35.3593C70.7326 35.3048 70.4732 35.0867 70.4049 34.446C70.364 34.0371 70.3093 33.4236 70.3093 32.2104V29.007H70.3366L76.071 35.9318H76.6444V30.4929C76.6444 29.266 76.699 28.6254 76.7537 28.2164C76.8219 27.603 77.1223 27.4122 77.8596 27.3713V26.9351Z" fill="#A7ADBE"/>
<path d="M85.3444 33.4918C85.1123 34.0643 84.8665 34.5142 84.6071 34.8004C84.2931 35.1548 83.8426 35.2503 83.0097 35.2503C82.4499 35.2503 81.9721 35.2366 81.7263 35.1003C81.4669 34.9504 81.3986 34.6368 81.3986 33.9825V31.5561H82.4499C83.6241 31.5561 83.7606 31.6107 83.9381 32.5921H84.4023V29.8931H83.9381C83.7606 30.8337 83.6241 30.9154 82.4499 30.9154H81.3986V27.9574C81.3986 27.5212 81.4396 27.494 81.9175 27.494H82.7093C83.5558 27.494 83.9245 27.5894 84.1429 27.8484C84.3614 28.1074 84.5252 28.5027 84.6481 29.0207L85.1123 28.9525C85.0577 28.1619 84.9894 27.2077 84.9758 26.9351H78.6816V27.3849C79.6783 27.4667 79.8012 27.5212 79.8012 28.7208V34.0234C79.8012 35.1685 79.6783 35.2639 78.4905 35.3593V35.7955H85.3171C85.44 35.3866 85.713 34.1188 85.795 33.5736L85.3444 33.4918Z" fill="#A7ADBE"/>
<path d="M91.8593 29.007C91.7501 28.1483 91.6682 27.5757 91.6136 27.0714C91.2586 26.9623 90.5623 26.7306 89.7704 26.7306C87.8999 26.7306 86.7667 27.8893 86.7667 29.3069C86.7667 30.6973 87.8863 31.4198 89.1014 32.0469C90.1254 32.5785 90.7807 33.0828 90.7807 33.9553C90.7807 34.8686 90.221 35.4684 89.3062 35.4684C87.9682 35.4684 87.2309 33.9962 86.9851 33.1374L86.5209 33.2737C86.6165 34.0371 86.794 35.1821 86.9169 35.5092C87.0807 35.591 87.3265 35.6865 87.6951 35.7955C88.0637 35.9182 88.528 36 89.0468 36C90.9855 36 92.2689 34.814 92.2689 33.301C92.2689 31.8833 91.1767 31.1744 89.8796 30.5201C88.7191 29.9476 88.1593 29.4978 88.1593 28.6526C88.1593 27.8893 88.6918 27.2622 89.5519 27.2622C90.6852 27.2622 91.1494 28.2437 91.4224 29.1025L91.8593 29.007Z" fill="#A7ADBE"/>
<path d="M98.6059 29.007C98.4967 28.1483 98.4148 27.5757 98.3602 27.0714C98.0052 26.9623 97.3089 26.7306 96.517 26.7306C94.6465 26.7306 93.5133 27.8893 93.5133 29.3069C93.5133 30.6973 94.6329 31.4198 95.848 32.0469C96.872 32.5785 97.5273 33.0828 97.5273 33.9553C97.5273 34.8686 96.9676 35.4684 96.0528 35.4684C94.7148 35.4684 93.9775 33.9962 93.7317 33.1374L93.2675 33.2737C93.3631 34.0371 93.5406 35.1821 93.6635 35.5092C93.8273 35.591 94.0731 35.6865 94.4417 35.7955C94.8104 35.9182 95.2746 36 95.7934 36C97.7321 36 99.0155 34.814 99.0155 33.301C99.0155 31.8833 97.9233 31.1744 96.6262 30.5201C95.4657 29.9476 94.9059 29.4978 94.9059 28.6526C94.9059 27.8893 95.4384 27.2622 96.2985 27.2622C97.4318 27.2622 97.896 28.2437 98.169 29.1025L98.6059 29.007Z" fill="#A7ADBE"/>
<path d="M19.2586 28.495V4.00421L14.8196 15.6373H0.234131L11.9659 23.5968L7.20977 35.23L19.2586 28.495Z" fill="#A7ADBE"/>
<path d="M33.3735 11.3514L19.2585 4.00421V7.67783L33.3735 15.0251V11.3514Z" fill="#A7ADBE"/>
<path d="M33.3735 18.086L19.2585 10.7388V14.4124L33.3735 21.7596V18.086Z" fill="#A7ADBE"/>
<path d="M33.3735 24.8209L19.2585 17.4737V21.1473L33.3735 28.4945V24.8209Z" fill="#A7ADBE"/>
<path d="M33.3735 32.1685L19.2585 24.8212V28.4948L33.3735 35.8421V32.1685Z" fill="#A7ADBE"/>
</g>
</svg>
