<svg width="114" height="37" viewBox="0 0 114 37" fill="none" xmlns="http://www.w3.org/2000/svg">
<g opacity="0.8">
<path d="M52.9942 3.07261C52.9123 2.0593 52.8305 0.702777 52.8305 0H52.454C52.1757 0.310529 51.9793 0.408591 51.5536 0.408591H45.0058C44.5474 0.408591 44.3346 0.375904 44.0891 0H43.7125C43.6798 0.84987 43.5816 2.01027 43.5161 3.12164H44.0727C44.2691 2.33714 44.4492 1.81415 44.6947 1.5363C44.9239 1.22577 45.2349 1.07868 46.5772 1.07868H47.3139V8.90729C47.3139 10.2638 47.1502 10.3946 45.7424 10.509V11.032H50.8497V10.509C49.3601 10.3946 49.2128 10.2638 49.2128 8.90729V1.07868H50.0967C51.1608 1.07868 51.5209 1.17674 51.8156 1.50362C52.0611 1.78146 52.2575 2.28811 52.454 3.10529L52.9942 3.07261Z" fill="#13377E"/>
<path d="M67.2986 8.26989C67.0203 8.95632 66.7257 9.49566 66.4147 9.83888C66.0382 10.2638 65.498 10.3782 64.4994 10.3782C63.8282 10.3782 63.2553 10.3619 62.9606 10.1984C62.6496 10.0187 62.5678 9.64275 62.5678 8.85826V5.94909H63.8282C65.236 5.94909 65.3997 6.01446 65.6125 7.19121H66.1691V3.95516H65.6125C65.3997 5.08287 65.236 5.18094 63.8282 5.18094H62.5678V1.63436C62.5678 1.11137 62.6169 1.07868 63.1898 1.07868H64.1393C65.1542 1.07868 65.5962 1.19309 65.8581 1.50362C66.12 1.81415 66.3164 2.28811 66.4638 2.90917L67.0203 2.82745C66.9549 1.87952 66.873 0.735464 66.8566 0.408591H59.3102V0.947931C60.5052 1.04599 60.6525 1.11137 60.6525 2.54961V8.90729C60.6525 10.2802 60.5052 10.3946 59.081 10.509V11.032H67.2659C67.4132 10.5417 67.7406 9.02169 67.8388 8.36795L67.2986 8.26989Z" fill="#13377E"/>
<path d="M84.4896 11.032V10.509C83.3601 10.3946 83 10.1821 82.2961 9.08707C81.3958 7.73055 80.5609 6.37402 79.6278 4.90309C80.5282 3.5956 81.1666 2.71305 81.6577 2.10833C82.3452 1.25846 82.7381 1.07868 83.8512 0.947931V0.408591H79.9716V0.947931C81.052 1.11137 81.1011 1.2748 80.7573 1.91221C80.3481 2.66401 79.8079 3.53023 79.235 4.33107C78.5474 3.23604 77.9909 2.35349 77.6144 1.6834C77.4016 1.29115 77.3852 1.11137 78.3346 0.947931V0.408591H73.7184V0.947931C74.8479 1.06234 75.208 1.30749 75.7646 2.19005C76.5176 3.38314 77.2379 4.54353 78.04 5.86737C76.9268 7.56711 75.8955 8.93998 75.3717 9.59372C74.897 10.1658 74.3404 10.4109 73.4237 10.509V11.032H77.4016V10.509C76.3048 10.3292 76.1902 10.1984 76.5831 9.49566C76.9923 8.72751 77.6635 7.64883 78.4492 6.47208C79.5787 8.33526 80.0862 9.16879 80.3317 9.59372C80.6264 10.1331 80.6428 10.3292 79.5787 10.509V11.032H84.4896Z" fill="#13377E"/>
<path d="M101.078 11.032V10.509C100.03 10.3782 99.8172 10.1984 99.277 8.7602C98.213 5.94909 97.1817 3.00723 96.134 0.163436L95.4137 0.35956L92.0579 8.80923C91.5014 10.2148 91.2886 10.3619 90.2245 10.509V11.032H93.8422V10.509C92.6473 10.3619 92.5654 10.1658 92.8437 9.28319C93.0401 8.62945 93.2693 8.00839 93.4821 7.40367H96.7397C97.0343 8.18817 97.3126 8.95632 97.4927 9.49566C97.7219 10.1821 97.6236 10.3619 96.6415 10.509V11.032H101.078ZM96.4614 6.60283H93.744C94.2024 5.37706 94.6444 4.10226 95.1191 2.84379H95.1682L96.4614 6.60283Z" fill="#13377E"/>
<path d="M113.509 2.89283C113.378 1.86318 113.28 1.17674 113.214 0.572027C112.789 0.441279 111.954 0.163436 111.004 0.163436C108.762 0.163436 107.403 1.55265 107.403 3.25239C107.403 4.91944 108.745 5.78565 110.202 6.53746C111.43 7.17486 112.216 7.77958 112.216 8.82557C112.216 9.9206 111.545 10.6397 110.448 10.6397C108.844 10.6397 107.96 8.8746 107.665 7.84495L107.108 8.00839C107.223 8.92363 107.436 10.2965 107.583 10.6887C107.78 10.7868 108.074 10.9012 108.516 11.032C108.958 11.1791 109.515 11.2771 110.137 11.2771C112.461 11.2771 114 9.85522 114 8.04108C114 6.34134 112.69 5.49147 111.135 4.70697C109.744 4.02054 109.073 3.4812 109.073 2.46789C109.073 1.55265 109.711 0.800838 110.742 0.800838C112.101 0.800838 112.658 1.97758 112.985 3.00723L113.509 2.89283Z" fill="#13377E"/>
<path d="M49.9835 21.3718V21.0943C49.4276 21.0249 49.3147 20.9295 49.0281 20.1663C48.4635 18.6747 47.9163 17.1137 47.3604 15.6048L46.9782 15.7089L45.1976 20.1923C44.9022 20.9382 44.7893 21.0162 44.2247 21.0943V21.3718H46.1443V21.0943C45.5103 21.0162 45.4668 20.9121 45.6145 20.4438C45.7187 20.097 45.8403 19.7674 45.9532 19.4465H47.6818C47.8381 19.8628 47.9858 20.2704 48.0813 20.5566C48.2029 20.9208 48.1508 21.0162 47.6296 21.0943V21.3718H49.9835ZM47.5341 19.0216H46.0922C46.3354 18.3712 46.5699 17.6948 46.8218 17.027H46.8479L47.5341 19.0216Z" fill="#13377E"/>
<path d="M53.8002 17.053C53.7307 16.5067 53.6786 16.1425 53.6439 15.8216C53.418 15.7522 52.975 15.6048 52.4713 15.6048C51.2813 15.6048 50.5603 16.3419 50.5603 17.2438C50.5603 18.1284 51.2726 18.588 52.0456 18.9869C52.6971 19.3251 53.114 19.646 53.114 20.201C53.114 20.7821 52.7579 21.1636 52.1759 21.1636C51.3247 21.1636 50.8557 20.227 50.6993 19.6807L50.404 19.7674C50.4648 20.2531 50.5777 20.9815 50.6559 21.1896C50.7601 21.2417 50.9165 21.3024 51.151 21.3718C51.3855 21.4498 51.6808 21.5018 52.0109 21.5018C53.2443 21.5018 54.0608 20.7474 54.0608 19.7848C54.0608 18.8829 53.3659 18.4319 52.5407 18.0156C51.8024 17.6514 51.4463 17.3652 51.4463 16.8276C51.4463 16.3419 51.7851 15.943 52.3323 15.943C53.0532 15.943 53.3485 16.5674 53.5223 17.1137L53.8002 17.053Z" fill="#13377E"/>
<path d="M58.0923 17.053C58.0228 16.5067 57.9707 16.1425 57.936 15.8216C57.7101 15.7522 57.2671 15.6048 56.7634 15.6048C55.5734 15.6048 54.8524 16.3419 54.8524 17.2438C54.8524 18.1284 55.5647 18.588 56.3377 18.9869C56.9892 19.3251 57.4061 19.646 57.4061 20.201C57.4061 20.7821 57.05 21.1636 56.468 21.1636C55.6168 21.1636 55.1478 20.227 54.9914 19.6807L54.6961 19.7674C54.7569 20.2531 54.8698 20.9815 54.948 21.1896C55.0522 21.2417 55.2086 21.3024 55.4431 21.3718C55.6776 21.4498 55.9729 21.5018 56.303 21.5018C57.5364 21.5018 58.3529 20.7474 58.3529 19.7848C58.3529 18.8829 57.658 18.4319 56.8328 18.0156C56.0945 17.6514 55.7384 17.3652 55.7384 16.8276C55.7384 16.3419 56.0772 15.943 56.6244 15.943C57.3453 15.943 57.6406 16.5674 57.8144 17.1137L58.0923 17.053Z" fill="#13377E"/>
<path d="M62.0196 15.6048C60.1 15.6048 59.0229 17.0704 59.0229 18.5793C59.0229 20.2444 60.239 21.5018 61.9154 21.5018C63.5396 21.5018 64.8773 20.3571 64.8773 18.4926C64.8773 16.7669 63.5657 15.6048 62.0196 15.6048ZM61.8546 15.9517C62.9142 15.9517 63.7047 16.9663 63.7047 18.7268C63.7047 20.3484 62.9664 21.155 62.0891 21.155C60.9338 21.155 60.1955 19.9235 60.1955 18.3885C60.1955 16.8449 60.9512 15.9517 61.8546 15.9517Z" fill="#13377E"/>
<path d="M70.7869 19.7934C70.3439 20.6606 69.8402 21.1289 69.0497 21.1289C67.8163 21.1289 66.9304 20.0536 66.9304 18.4579C66.9304 17.1571 67.6513 15.9603 68.9802 15.9603C69.7446 15.9603 70.3613 16.2899 70.6219 17.2785L70.9259 17.2178C70.8651 16.7061 70.8043 16.3159 70.7348 15.8389C70.5003 15.7869 69.8749 15.6048 69.1713 15.6048C67.1388 15.6048 65.7577 16.8276 65.7577 18.6314C65.7577 20.0016 66.7219 21.5018 68.9716 21.5018C69.5796 21.5018 70.3526 21.3284 70.5872 21.2764C70.7348 20.9815 70.952 20.3224 71.0736 19.9062L70.7869 19.7934Z" fill="#13377E"/>
<path d="M74.0518 21.3718V21.0943C73.383 21.0335 73.3135 20.9728 73.3135 20.2444V16.8709C73.3135 16.1338 73.383 16.0731 74.0518 16.0211V15.7349H71.5589V16.0211C72.2277 16.0731 72.3059 16.1338 72.3059 16.8709V20.2444C72.3059 20.9815 72.2277 21.0335 71.5589 21.0943V21.3718H74.0518Z" fill="#13377E"/>
<path d="M79.9943 21.3718V21.0943C79.4384 21.0249 79.3254 20.9295 79.0388 20.1663C78.4742 18.6747 77.927 17.1137 77.3711 15.6048L76.9889 15.7089L75.2083 20.1923C74.913 20.9382 74.8001 21.0162 74.2355 21.0943V21.3718H76.1551V21.0943C75.521 21.0162 75.4776 20.9121 75.6252 20.4438C75.7295 20.097 75.8511 19.7674 75.964 19.4465H77.6925C77.8488 19.8628 77.9965 20.2704 78.092 20.5566C78.2136 20.9208 78.1615 21.0162 77.6404 21.0943V21.3718H79.9943ZM77.5448 19.0216H76.103C76.3462 18.3712 76.5807 17.6948 76.8326 17.027H76.8586L77.5448 19.0216Z" fill="#13377E"/>
<path d="M84.814 17.1484C84.7705 16.6108 84.7271 15.891 84.7271 15.5181H84.5273C84.3797 15.6828 84.2754 15.7349 84.0496 15.7349H80.5752C80.332 15.7349 80.2191 15.7175 80.0888 15.5181H79.889C79.8716 15.969 79.8195 16.5847 79.7848 17.1744H80.0801C80.1843 16.7582 80.2799 16.4807 80.4102 16.3332C80.5318 16.1685 80.6968 16.0904 81.4091 16.0904H81.7999V20.2444C81.7999 20.9642 81.7131 21.0335 80.9661 21.0943V21.3718H83.6761V21.0943C82.8857 21.0335 82.8075 20.9642 82.8075 20.2444V16.0904H83.2766C83.8411 16.0904 84.0322 16.1425 84.1886 16.3159C84.3189 16.4633 84.4231 16.7322 84.5273 17.1658L84.814 17.1484Z" fill="#13377E"/>
<path d="M87.8526 21.3718V21.0943C87.1838 21.0335 87.1143 20.9728 87.1143 20.2444V16.8709C87.1143 16.1338 87.1838 16.0731 87.8526 16.0211V15.7349H85.3598V16.0211C86.0286 16.0731 86.1068 16.1338 86.1068 16.8709V20.2444C86.1068 20.9815 86.0286 21.0335 85.3598 21.0943V21.3718H87.8526Z" fill="#13377E"/>
<path d="M91.4705 15.6048C89.5509 15.6048 88.4738 17.0704 88.4738 18.5793C88.4738 20.2444 89.6899 21.5018 91.3663 21.5018C92.9905 21.5018 94.3282 20.3571 94.3282 18.4926C94.3282 16.7669 93.0166 15.6048 91.4705 15.6048ZM91.3055 15.9517C92.3651 15.9517 93.1556 16.9663 93.1556 18.7268C93.1556 20.3484 92.4173 21.155 91.54 21.155C90.3847 21.155 89.6464 19.9235 89.6464 18.3885C89.6464 16.8449 90.4021 15.9517 91.3055 15.9517Z" fill="#13377E"/>
<path d="M100.869 15.7349H98.7758V16.0124C99.4012 16.0471 99.5836 16.1858 99.6357 16.5587C99.6531 16.8102 99.6965 17.2178 99.6965 17.9983V19.7327H99.6705L96.2395 15.7349H94.7455V16.0124C95.1364 16.0471 95.3188 16.1164 95.4925 16.3332C95.6575 16.5327 95.6662 16.6541 95.6662 17.2438V19.091C95.6662 19.8628 95.6228 20.2531 95.5967 20.5392C95.5533 20.9295 95.3448 21.0596 94.8584 21.0943V21.3718H96.9604V21.0943C96.335 21.0596 96.17 20.9208 96.1266 20.5132C96.1005 20.2531 96.0658 19.8628 96.0658 19.091V17.053H96.0831L99.7313 21.4585H100.096V17.9983C100.096 17.2178 100.131 16.8102 100.166 16.5501C100.209 16.1598 100.4 16.0384 100.869 16.0124V15.7349Z" fill="#13377E"/>
<path d="M106.323 15.6048C104.404 15.6048 103.327 17.0704 103.327 18.5793C103.327 20.2444 104.543 21.5018 106.219 21.5018C107.843 21.5018 109.181 20.3571 109.181 18.4926C109.181 16.7669 107.869 15.6048 106.323 15.6048ZM106.158 15.9517C107.218 15.9517 108.008 16.9663 108.008 18.7268C108.008 20.3484 107.27 21.155 106.393 21.155C105.237 21.155 104.499 19.9235 104.499 18.3885C104.499 16.8449 105.255 15.9517 106.158 15.9517Z" fill="#13377E"/>
<path d="M113.906 17.0444C113.863 16.5674 113.82 15.943 113.811 15.7349H109.807V16.0211C110.449 16.0731 110.528 16.1251 110.528 16.8969V20.1923C110.528 20.9815 110.449 21.0335 109.789 21.0943V21.3718H112.378V21.0943C111.613 21.0335 111.535 20.9815 111.535 20.1923V18.7441H112.317C113.09 18.7441 113.168 18.8308 113.264 19.4205H113.55V17.7121H113.264C113.159 18.2671 113.09 18.3452 112.317 18.3452H111.535V16.3853C111.535 16.1078 111.57 16.0904 111.857 16.0904H112.369C112.925 16.0904 113.142 16.1511 113.307 16.3593C113.446 16.5327 113.533 16.7495 113.62 17.0877L113.906 17.0444Z" fill="#13377E"/>
<path d="M49.8493 31.0317C50.9013 30.8122 52.1889 30.2009 52.1889 28.6959C52.1889 27.9434 51.8434 27.285 51.2782 26.9245C50.7129 26.5482 49.9593 26.3758 48.7659 26.3758H44.3852V26.8931C45.5471 26.9872 45.657 27.0969 45.657 28.4137V34.5276C45.657 35.8444 45.5314 35.9541 44.2753 36.0482V36.5655H48.0751C49.3626 36.5655 50.5088 36.3617 51.3096 35.9071C52.2203 35.4211 52.7855 34.606 52.7855 33.5556C52.7855 32.035 51.5765 31.3139 49.8493 31.0944V31.0317ZM47.4627 30.8749V27.865C47.4627 27.4731 47.5098 27.2537 47.6354 27.1596C47.7453 27.0655 48.0437 26.9715 48.4048 26.9715C49.4882 26.9715 50.2419 27.6613 50.2419 28.9467C50.2419 30.2479 49.551 30.8749 47.9652 30.8749H47.4627ZM47.4627 31.4707H47.9337C49.7551 31.4707 50.7443 32.2074 50.7443 33.7124C50.7443 35.2957 49.6923 35.9385 48.6717 35.9541C47.7767 35.9698 47.4627 35.6406 47.4627 34.4962V31.4707Z" fill="#13377E"/>
<path d="M64.492 26.3758H60.6294V26.8931C61.7129 26.9558 62.0583 27.2223 62.1525 27.7867C62.2153 28.2726 62.2938 28.8997 62.2938 30.1225V31.6117C62.2938 34.2297 61.5087 35.8131 59.4989 35.8131C57.709 35.8131 56.814 34.4178 56.814 32.0037V28.5391C56.814 27.0812 56.9553 26.9872 58.1329 26.8931V26.3758H53.6422V26.8931C54.8356 27.0028 54.9769 27.0812 54.9769 28.5391V32.3172C54.9769 34.1513 55.4165 35.3114 56.3115 36.0169C57.0495 36.5812 58.0073 36.8007 58.9965 36.8007C60.0799 36.8007 61.1476 36.4244 61.8699 35.672C62.7649 34.7314 63.0318 33.3989 63.0318 31.6744V30.1225C63.0318 28.884 63.0789 28.2726 63.1417 27.818C63.2202 27.2223 63.597 26.9401 64.492 26.8931V26.3758Z" fill="#13377E"/>
<path d="M71.4077 28.7586C71.2821 27.771 71.1879 27.1126 71.1251 26.5325C70.7168 26.4071 69.9161 26.1406 69.0054 26.1406C66.8543 26.1406 65.551 27.4731 65.551 29.1035C65.551 30.7025 66.8386 31.5334 68.236 32.2545C69.4136 32.8659 70.1673 33.4459 70.1673 34.4492C70.1673 35.4995 69.5235 36.1893 68.4715 36.1893C66.9328 36.1893 66.0849 34.4962 65.8023 33.5086L65.2684 33.6654C65.3783 34.5433 65.5824 35.8601 65.7237 36.2363C65.9122 36.3304 66.1948 36.4401 66.6187 36.5655C67.0427 36.7066 67.5765 36.8007 68.1732 36.8007C70.4028 36.8007 71.8788 35.4368 71.8788 33.6967C71.8788 32.0664 70.6226 31.2512 69.131 30.4987C67.7964 29.8403 67.1526 29.323 67.1526 28.351C67.1526 27.4731 67.765 26.752 68.7541 26.752C70.0574 26.752 70.5912 27.8807 70.9053 28.8683L71.4077 28.7586Z" fill="#13377E"/>
<path d="M77.3185 36.5655V36.0639C76.1095 35.9541 75.9839 35.8444 75.9839 34.5276V28.4294C75.9839 27.0969 76.1095 26.9872 77.3185 26.8931V26.3758H72.8121V26.8931C74.0212 26.9872 74.1625 27.0969 74.1625 28.4294V34.5276C74.1625 35.8601 74.0212 35.9541 72.8121 36.0639V36.5655H77.3185Z" fill="#13377E"/>
<path d="M89.2714 26.3758H85.4874V26.8774C86.6179 26.9401 86.9476 27.191 87.0418 27.865C87.0732 28.3197 87.1517 29.0565 87.1517 30.4674V33.6027H87.1046L80.9025 26.3758H78.2018V26.8774C78.9084 26.9401 79.2381 27.0655 79.5522 27.4575C79.8505 27.818 79.8662 28.0375 79.8662 29.1035V32.4426C79.8662 33.8378 79.7877 34.5433 79.7406 35.0606C79.6621 35.766 79.2852 36.0012 78.406 36.0639V36.5655H82.2057V36.0639C81.0752 36.0012 80.7769 35.7503 80.6984 35.0136C80.6513 34.5433 80.5885 33.8378 80.5885 32.4426V28.7586H80.6199L87.2145 36.7223H87.874V30.4674C87.874 29.0565 87.9368 28.3197 87.9996 27.8494C88.0781 27.1439 88.4236 26.9245 89.2714 26.8774V26.3758Z" fill="#13377E"/>
<path d="M97.8792 33.9162C97.6123 34.5746 97.3297 35.0919 97.0313 35.4211C96.6702 35.8287 96.152 35.9385 95.1942 35.9385C94.5505 35.9385 94.0009 35.9228 93.7183 35.766C93.42 35.5936 93.3415 35.233 93.3415 34.4805V31.6901H94.5505C95.9008 31.6901 96.0578 31.7528 96.2619 32.8815H96.7958V29.7776H96.2619C96.0578 30.8593 95.9008 30.9533 94.5505 30.9533H93.3415V27.5515C93.3415 27.0499 93.3886 27.0185 93.9381 27.0185H94.8488C95.8223 27.0185 96.2462 27.1282 96.4975 27.4261C96.7487 27.724 96.9371 28.1786 97.0784 28.7743L97.6123 28.6959C97.5495 27.7867 97.471 26.6893 97.4553 26.3758H90.2168V26.8931C91.3631 26.9872 91.5044 27.0499 91.5044 28.4294V34.5276C91.5044 35.8444 91.3631 35.9541 89.997 36.0639V36.5655H97.8478C97.9891 36.0952 98.3031 34.6373 98.3974 34.0103L97.8792 33.9162Z" fill="#13377E"/>
<path d="M105.372 28.7586C105.246 27.771 105.152 27.1126 105.089 26.5325C104.681 26.4071 103.88 26.1406 102.969 26.1406C100.818 26.1406 99.5149 27.4731 99.5149 29.1035C99.5149 30.7025 100.802 31.5334 102.2 32.2545C103.377 32.8659 104.131 33.4459 104.131 34.4492C104.131 35.4995 103.487 36.1893 102.435 36.1893C100.897 36.1893 100.049 34.4962 99.7661 33.5086L99.2322 33.6654C99.3422 34.5433 99.5463 35.8601 99.6876 36.2363C99.876 36.3304 100.159 36.4401 100.583 36.5655C101.007 36.7066 101.54 36.8007 102.137 36.8007C104.367 36.8007 105.843 35.4368 105.843 33.6967C105.843 32.0664 104.586 31.2512 103.095 30.4987C101.76 29.8403 101.116 29.323 101.116 28.351C101.116 27.4731 101.729 26.752 102.718 26.752C104.021 26.752 104.555 27.8807 104.869 28.8683L105.372 28.7586Z" fill="#13377E"/>
<path d="M113.13 28.7586C113.005 27.771 112.911 27.1126 112.848 26.5325C112.439 26.4071 111.639 26.1406 110.728 26.1406C108.577 26.1406 107.274 27.4731 107.274 29.1035C107.274 30.7025 108.561 31.5334 109.959 32.2545C111.136 32.8659 111.89 33.4459 111.89 34.4492C111.89 35.4995 111.246 36.1893 110.194 36.1893C108.655 36.1893 107.808 34.4962 107.525 33.5086L106.991 33.6654C107.101 34.5433 107.305 35.8601 107.446 36.2363C107.635 36.3304 107.917 36.4401 108.341 36.5655C108.765 36.7066 109.299 36.8007 109.896 36.8007C112.125 36.8007 113.601 35.4368 113.601 33.6967C113.601 32.0664 112.345 31.2512 110.854 30.4987C109.519 29.8403 108.875 29.323 108.875 28.351C108.875 27.4731 109.488 26.752 110.477 26.752C111.78 26.752 112.314 27.8807 112.628 28.8683L113.13 28.7586Z" fill="#13377E"/>
<path d="M21.8787 28.17V0.00488281L16.7736 13.3833H0L13.4918 22.5369L8.02218 35.9154L21.8787 28.17Z" fill="#13377E"/>
<path d="M38.1112 8.4544L21.8786 0.00488281V4.22964L38.1112 12.6792V8.4544Z" fill="#A40D35"/>
<path d="M38.1112 16.1995L21.8786 7.75V11.9748L38.1112 20.4243V16.1995Z" fill="#A40D35"/>
<path d="M38.1112 23.9446L21.8786 15.4951V19.7199L38.1112 28.1694V23.9446Z" fill="#A40D35"/>
<path d="M38.1112 32.3943L21.8786 23.9448V28.1696L38.1112 36.6191V32.3943Z" fill="#A40D35"/>
</g>
</svg>
