<svg width="107" height="40" viewBox="0 0 107 40" fill="none" xmlns="http://www.w3.org/2000/svg">
<g clip-path="url(#clip0_2437_5523)">
<path d="M7.28179 12.0404C7.09757 12.5141 6.93638 12.9762 6.79822 13.4267C7.50055 12.3639 8.36408 11.4166 9.35425 10.6195C10.7014 9.53356 12.2902 8.748 14.0173 8.33212V27.2664C14.8923 27.613 15.8365 27.7978 16.8266 27.7978C17.4023 27.7978 17.9665 27.7285 18.5191 27.613V26.5502V13.5076V8.11262C22.0423 8.60938 25.0589 10.6426 26.9126 13.5076C26.9471 13.5538 26.9702 13.6 27.0047 13.6462L27.0853 13.5076L29.0772 9.81082C29.2038 9.56822 26.7975 7.54656 26.5211 7.33862C25.554 6.56461 24.4832 5.94078 23.3434 5.45558C18.6688 3.44548 12.912 2.99493 9.65361 7.56966C8.69797 8.90974 7.8805 10.504 7.28179 12.0404Z" fill="#A7ADBE"/>
<path d="M28.6742 17.7704H28.6051H28.5821H20.2001V22.2873H28.5821V22.4029C27.4768 27.9133 22.641 32.0606 16.8266 32.0606C10.2063 32.0606 4.84091 26.6772 4.84091 20.0346C4.84091 19.1682 4.93302 18.3249 5.10572 17.5162C5.10572 17.5162 5.5893 9.99563 9.94147 5.62885C7.88052 6.62235 6.06136 8.05484 4.61064 9.79924C4.39188 10.0649 4.17312 10.3422 3.96587 10.631C3.34413 11.4859 2.8145 12.3985 2.36547 13.3689H2.35396C2.20428 13.6462 1.77827 14.8361 1.75525 14.8938C1.2141 16.5112 0.914748 18.2325 0.914748 20.0346C0.903234 28.8491 8.0302 36 16.8266 36C23.7233 36 29.5953 31.5985 31.8059 25.4411C32.1744 24.4245 32.4392 23.3732 32.5889 22.2758V17.7588H28.6742V17.7704Z" fill="#A7ADBE"/>
<path d="M43.4117 10.5848H38.6911V8.0202C42.9857 8.0202 46.624 8.0202 50.9532 8.0202V10.5848H46.2326V22.9689H43.4232V10.5848H43.4117Z" fill="#A7ADBE"/>
<path d="M52.6687 22.9574V8.0202H55.455V22.9689H52.6687V22.9574Z" fill="#A7ADBE"/>
<path d="M62.628 10.5848H57.9074V8.0202C62.202 8.0202 65.8403 8.0202 70.1695 8.0202V10.5848H65.4489V22.9689H62.6395V10.5848H62.628Z" fill="#A7ADBE"/>
<path d="M97.8138 7.99707H100.623V22.9689H98.8846V22.992L91.0553 12.8953V22.9689H88.246V8.02018H90.5257L97.8253 17.2852V7.99707H97.8138Z" fill="#A7ADBE"/>
<path d="M86.7492 22.9573L80.0713 8.00861H77.0086L70.3307 22.9573H73.3703L74.0036 21.5711L75.9378 17.1234C81.1075 17.9321 83.249 21.9869 83.629 22.8072L83.6981 22.9573H86.7492ZM76.502 15.8295L78.5399 11.1624L81.0729 16.9848L75.9839 17.031L76.502 15.8295Z" fill="#A7ADBE"/>
<path d="M104.768 9.27938H104.308L103.709 8.60934H103.34V9.27938H102.96V7.28082C103.283 7.28082 103.605 7.28082 103.928 7.28082C104.411 7.28082 104.664 7.59274 104.664 7.93931C104.664 8.21656 104.538 8.49382 104.146 8.56313L104.768 9.24472V9.27938ZM103.34 7.62739V8.27432H103.928C104.169 8.27432 104.273 8.11259 104.273 7.95086C104.273 7.78913 104.169 7.62739 103.928 7.62739H103.34Z" fill="#293985"/>
<path d="M103.858 10.4115C102.65 10.4115 101.671 9.45267 101.671 8.27433C101.671 7.09599 102.65 6.13715 103.858 6.13715C105.067 6.13715 106.046 7.09599 106.046 8.27433C106.046 9.45267 105.067 10.4115 103.858 10.4115ZM103.858 6.49527C102.857 6.49527 102.039 7.29238 102.039 8.27433C102.039 9.25628 102.857 10.0534 103.858 10.0534C104.86 10.0534 105.678 9.25628 105.678 8.27433C105.678 7.29238 104.86 6.49527 103.858 6.49527Z" fill="#293985"/>
<path d="M43.9644 29.3805C43.4923 28.9184 42.8475 28.6874 42.2373 28.6874C40.6714 28.6874 39.8655 29.8426 39.8655 31.0903C39.8655 32.361 40.6714 33.4469 42.2373 33.4469C42.813 33.4469 43.4117 33.2505 43.8722 32.8231V31.3213H42.007V30.9632H44.2637V32.9733C43.6995 33.5393 43.0433 33.8397 42.2373 33.8397C40.4181 33.8397 39.474 32.569 39.474 31.1018C39.4625 29.4152 40.6024 28.3177 42.2373 28.3177C42.9396 28.3177 43.6535 28.5834 44.1946 29.1264L43.9644 29.3805Z" fill="#A7ADBE"/>
<path d="M55.0981 33.7704H54.557L52.7033 31.7256H51.241V33.7588H50.8265V28.3754C51.621 28.3754 52.3924 28.3754 53.1868 28.3754C54.3497 28.3754 54.9369 29.2187 54.9484 30.0505C54.9599 30.9285 54.3843 31.691 53.2099 31.691L55.0981 33.7704ZM51.241 31.3444H53.1408C54.0734 31.3444 54.4879 30.813 54.4994 30.0621C54.5109 29.4267 54.0734 28.7798 53.1868 28.7798H51.241V31.3444Z" fill="#A7ADBE"/>
<path d="M66.4736 31.0902C66.462 32.4996 65.5755 33.8628 63.7678 33.8628C61.9717 33.8628 61.0621 32.4996 61.0621 31.0787C61.0621 29.6346 61.9602 28.3176 63.7678 28.3176C65.5755 28.3061 66.4851 29.6346 66.4736 31.0902ZM61.4766 31.0787C61.4881 32.2916 62.248 33.4815 63.7794 33.4815C65.3107 33.4815 66.0821 32.3032 66.0821 31.0787C66.0821 29.831 65.3107 28.6873 63.7794 28.6873C62.248 28.6873 61.4651 29.8079 61.4766 31.0787Z" fill="#A7ADBE"/>
<path d="M76.0414 28.387H76.2717L77.9066 33.3083L79.5646 28.387H80.0136L78.1254 33.7819H77.6764L76.8244 31.2635L76.145 29.1379L75.4657 31.2519L74.6137 33.7819H74.1647L72.288 28.387H72.7255L74.3835 33.3083L76.0414 28.387Z" fill="#A7ADBE"/>
<path d="M87.7739 28.7682H85.8396V28.3985H90.1227V28.7682H88.1884V33.7703H87.7739V28.7682Z" fill="#A7ADBE"/>
<path d="M100.255 33.7704V31.3213H96.8352V33.7704H96.4207V28.387H96.8352V30.94H100.255V28.387H100.669V33.7704H100.255Z" fill="#A7ADBE"/>
</g>
<defs>
<clipPath id="clip0_2437_5523">
<rect width="105.143" height="32" fill="white" transform="translate(0.903259 4)"/>
</clipPath>
</defs>
</svg>
