<svg width="102" height="31" viewBox="0 0 102 31" fill="none" xmlns="http://www.w3.org/2000/svg">
<path d="M6.16079 7.65314C5.98252 8.10415 5.82654 8.54415 5.69284 8.97315C6.37248 7.96115 7.20811 7.05914 8.16629 6.30014C9.46986 5.26614 11.0074 4.51814 12.6787 4.12214V22.1512C13.5254 22.4812 14.439 22.6572 15.3972 22.6572C15.9543 22.6572 16.5002 22.5912 17.035 22.4812V21.4692V9.05015V3.91314C20.4444 4.38614 23.3635 6.32214 25.1573 9.05015C25.1907 9.09415 25.213 9.13815 25.2464 9.18215L25.3244 9.05015L27.2519 5.53014C27.3745 5.29914 25.0459 3.37414 24.7785 3.17614C23.8426 2.43914 22.8064 1.84514 21.7034 1.38314C17.1799 -0.530859 11.6091 -0.959859 8.45597 3.39614C7.53121 4.67214 6.74016 6.19014 6.16079 7.65314Z" fill="#293985"/>
<path d="M26.8625 13.1084H26.7957H26.7734H18.6623V17.4094H26.7734V17.5194C25.7038 22.7664 21.0243 26.7154 15.3978 26.7154C8.99133 26.7154 3.79932 21.5894 3.79932 15.2644C3.79932 14.4394 3.88845 13.6364 4.05558 12.8664C4.05558 12.8664 4.52353 5.70536 8.73507 1.54736C6.74072 2.49336 4.98033 3.85736 3.57648 5.51836C3.36479 5.77136 3.1531 6.03537 2.95255 6.31037C2.3509 7.12437 1.83839 7.99337 1.40386 8.91737H1.39272C1.24788 9.18137 0.835638 10.3144 0.813354 10.3694C0.289697 11.9094 1.34806e-05 13.5484 1.34806e-05 15.2644C-0.0111282 23.6574 6.88556 30.4664 15.3978 30.4664C22.0716 30.4664 27.7539 26.2754 29.8931 20.4124C30.2496 19.4444 30.5059 18.4434 30.6507 17.3984V13.0974H26.8625V13.1084Z" fill="#B0B0B0"/>
<path d="M41.3484 6.26915H36.7804V3.82715C40.9362 3.82715 44.457 3.82715 48.6462 3.82715V6.26915H44.0781V18.0612H41.3596V6.26915H41.3484Z" fill="#293985"/>
<path d="M50.3059 18.0492V3.82617H53.0022V18.0602H50.3059V18.0492Z" fill="#293985"/>
<path d="M59.9442 6.26817H55.3761V3.82617C59.532 3.82617 63.0527 3.82617 67.242 3.82617V6.26817H62.6739V18.0602H59.9553V6.26817H59.9442Z" fill="#293985"/>
<path d="M93.9934 3.80371H96.712V18.0597H95.0296V18.0817L87.4533 8.46771V18.0597H84.7347V3.82571H86.9408L94.0046 12.6477V3.80371H93.9934Z" fill="#293985"/>
<path d="M83.2852 18.049L76.823 3.81494H73.8593L67.3972 18.049H70.3386L70.9513 16.7289L72.8231 12.4939C77.8258 13.2639 79.8981 17.1249 80.2658 17.9059L80.3326 18.049H83.2852V18.049ZM73.3691 11.2619L75.3412 6.81794L77.7923 12.3619L72.8677 12.4059L73.3691 11.2619Z" fill="#293985"/>
<path d="M100.724 5.02556H100.278L99.6988 4.38756H99.3423V5.02556H98.9746V3.12256C99.2866 3.12256 99.5985 3.12256 99.9105 3.12256C100.378 3.12256 100.624 3.41956 100.624 3.74956C100.624 4.01356 100.501 4.27756 100.122 4.34356L100.724 4.99256V5.02556V5.02556ZM99.3423 3.45256V4.06856H99.9105C100.144 4.06856 100.245 3.91456 100.245 3.76056C100.245 3.60656 100.144 3.45256 99.9105 3.45256H99.3423V3.45256Z" fill="#293985"/>
<path d="M99.8432 6.10272C98.6733 6.10272 97.7263 5.18972 97.7263 4.06772C97.7263 2.94572 98.6733 2.03271 99.8432 2.03271C101.013 2.03271 101.96 2.94572 101.96 4.06772C101.96 5.18972 101.013 6.10272 99.8432 6.10272ZM99.8432 2.37372C98.8739 2.37372 98.0828 3.13272 98.0828 4.06772C98.0828 5.00272 98.8739 5.76172 99.8432 5.76172C100.813 5.76172 101.604 5.00272 101.604 4.06772C101.604 3.13272 100.813 2.37372 99.8432 2.37372Z" fill="#293985"/>
<path d="M41.8829 24.1643C41.4261 23.7243 40.8021 23.5043 40.2116 23.5043C38.6964 23.5043 37.9164 24.6043 37.9164 25.7923C37.9164 27.0023 38.6964 28.0363 40.2116 28.0363C40.7687 28.0363 41.3481 27.8493 41.7937 27.4423V26.0123H39.9888V25.6713H42.1725V27.5853C41.6266 28.1243 40.9915 28.4103 40.2116 28.4103C38.4512 28.4103 37.5376 27.2003 37.5376 25.8033C37.5265 24.1973 38.6295 23.1523 40.2116 23.1523C40.8913 23.1523 41.582 23.4053 42.1057 23.9223L41.8829 24.1643Z" fill="#B0B0B0"/>
<path d="M52.658 28.3455H52.1344L50.3406 26.3985H48.9256V28.3345H48.5245V23.2085C49.2932 23.2085 50.0397 23.2085 50.8085 23.2085C51.9338 23.2085 52.502 24.0115 52.5132 24.8035C52.5243 25.6395 51.9672 26.3655 50.8308 26.3655L52.658 28.3455ZM48.9256 26.0355H50.7639C51.6664 26.0355 52.0675 25.5295 52.0787 24.8145C52.0898 24.2095 51.6664 23.5935 50.8085 23.5935H48.9256V26.0355V26.0355Z" fill="#B0B0B0"/>
<path d="M63.6642 25.7929C63.6531 27.1349 62.7952 28.4329 61.0459 28.4329C59.3078 28.4329 58.4276 27.1349 58.4276 25.7819C58.4276 24.4069 59.2967 23.1529 61.0459 23.1529C62.7952 23.1419 63.6754 24.4069 63.6642 25.7929ZM58.8287 25.7819C58.8399 26.9369 59.5752 28.0699 61.0571 28.0699C62.5389 28.0699 63.2854 26.9479 63.2854 25.7819C63.2854 24.5939 62.5389 23.5049 61.0571 23.5049C59.5752 23.5049 58.8176 24.5719 58.8287 25.7819Z" fill="#B0B0B0"/>
<path d="M72.9223 23.2192H73.1451L74.7273 27.9052L76.3317 23.2192H76.7662L74.939 28.3562H74.5044L73.68 25.9582L73.0226 23.9342L72.3652 25.9472L71.5408 28.3562H71.1062L69.2901 23.2192H69.7135L71.3179 27.9052L72.9223 23.2192Z" fill="#B0B0B0"/>
<path d="M84.2766 23.582H82.4048V23.23H86.5496V23.582H84.6777V28.345H84.2766V23.582V23.582Z" fill="#B0B0B0"/>
<path d="M96.3549 28.3452V26.0132H93.0458V28.3452H92.6447V23.2192H93.0458V25.6502H96.3549V23.2192H96.756V28.3452H96.3549Z" fill="#B0B0B0"/>
</svg>
