<svg width="99" height="40" viewBox="0 0 99 40" fill="none" xmlns="http://www.w3.org/2000/svg">
<g clip-path="url(#clip0_2437_34524)">
<path d="M28.7628 9C26.5824 9 24.4509 9.64516 22.638 10.8539C20.825 12.0626 19.412 13.7807 18.5776 15.7907C17.7431 17.8008 17.5248 20.0126 17.9502 22.1465C18.3756 24.2803 19.4256 26.2404 20.9674 27.7788C22.5092 29.3173 24.4735 30.365 26.6121 30.7894C28.7506 31.2139 30.9672 30.996 32.9817 30.1634C34.9961 29.3308 36.7179 27.9209 37.9293 26.1119C39.1407 24.3029 39.7873 22.1761 39.7873 20.0004C39.7873 18.5558 39.5021 17.1254 38.9481 15.7907C38.394 14.4561 37.582 13.2434 36.5583 12.2219C35.5346 11.2005 34.3192 10.3902 32.9817 9.83736C31.6441 9.28453 30.2106 9 28.7628 9ZM28.7628 29.0019C26.4095 28.9622 24.1684 27.9917 22.532 26.3038C20.8956 24.6158 19.9979 22.3486 20.0362 20.0004C19.9977 17.6521 20.8953 15.3846 22.5317 13.6965C24.1681 12.0084 26.4094 11.0378 28.7628 10.9981C31.1162 11.0378 33.3575 12.0084 34.9939 13.6965C36.6304 15.3846 37.528 17.6521 37.4894 20.0004C37.5278 22.3486 36.6301 24.6158 34.9937 26.3038C33.3573 27.9917 31.1161 28.9622 28.7628 29.0019ZM7.24565 28.3401V13.658H0.924805V11.6599H15.8328V13.658H9.5364V28.3409L7.24565 28.3401ZM56.5929 28.3401L51.1654 20.6614H45.8584V28.3401H43.5416V11.6599H45.8576V18.6642H51.3332L56.3747 11.6599H59.0286L53.1206 19.796L59.2232 28.3409L56.5929 28.3401ZM63.039 28.3401V11.6599H76.162V13.658H65.355V18.6642H75.39V20.6622H65.355V26.3428H76.355V28.3409L63.039 28.3401ZM96.3133 11.6599H98.6048V28.3401H94.2628L83.7952 13.658H82.9287V28.3409H80.6128V11.6599H84.9769L95.4704 26.3428H96.3148L96.3133 11.6599Z" fill="#A7ADBE"/>
</g>
<defs>
<clipPath id="clip0_2437_34524">
<rect width="97.68" height="22" fill="white" transform="translate(0.924805 9)"/>
</clipPath>
</defs>
</svg>
