<svg width="111" height="25" viewBox="0 0 111 25" fill="none" xmlns="http://www.w3.org/2000/svg">
<g clip-path="url(#clip0_14229_32694)">
<path d="M31.6341 0C29.1563 0 26.7342 0.733138 24.674 2.1067C22.6139 3.48027 21.0081 5.43257 20.0599 7.71673C19.1117 10.0009 18.8637 12.5143 19.347 14.9392C19.8304 17.364 21.0236 19.5914 22.7756 21.3396C24.5277 23.0878 26.7599 24.2784 29.1901 24.7607C31.6202 25.243 34.1391 24.9955 36.4283 24.0494C38.7174 23.1032 40.674 21.501 42.0506 19.4453C43.4271 17.3896 44.1619 14.9728 44.1619 12.5004C44.1619 10.8589 43.8378 9.23336 43.2083 7.71673C42.5787 6.20011 41.6559 4.82207 40.4926 3.6613C39.3293 2.50052 37.9482 1.57975 36.4283 0.95154C34.9083 0.323334 33.2793 0 31.6341 0V0ZM31.6341 22.7295C28.9599 22.6844 26.4131 21.5815 24.5536 19.6634C22.694 17.7452 21.6739 15.1688 21.7175 12.5004C21.6737 9.83192 22.6937 7.25526 24.5533 5.33693C26.4128 3.41861 28.9598 2.31564 31.6341 2.27053C34.3084 2.31564 36.8554 3.41861 38.7149 5.33693C40.5745 7.25526 41.5945 9.83192 41.5507 12.5004C41.5943 15.1688 40.5742 17.7452 38.7146 19.6634C36.8551 21.5815 34.3083 22.6844 31.6341 22.7295V22.7295ZM7.18277 21.9774V5.29315H0V3.02262H16.9409V5.29315H9.7859V21.9783L7.18277 21.9774ZM63.2593 21.9774L57.0916 13.2516H51.0609V21.9774H48.4282V3.02262H51.06V10.982H57.2823L63.0113 3.02262H66.0271L59.3134 12.2682L66.2482 21.9783L63.2593 21.9774ZM70.5844 21.9774V3.02262H85.4969V5.29315H73.2161V10.982H84.6196V13.2525H73.2161V19.7077H85.7162V21.9783L70.5844 21.9774ZM108.396 3.02262H111V21.9774H106.066L94.171 5.29315H93.1863V21.9783H90.5545V3.02262H95.5137L107.438 19.7077H108.398L108.396 3.02262Z" fill="#1C0F36"/>
</g>
<defs>
<clipPath id="clip0_14229_32694">
<rect width="111" height="25" fill="white"/>
</clipPath>
</defs>
</svg>
