<svg width="16" height="16" viewBox="0 0 16 16" fill="none" xmlns="http://www.w3.org/2000/svg">
<path d="M13.5667 4.98737C13.5753 5.11756 13.5753 5.24775 13.5753 5.37914C13.5753 9.38269 10.686 14 5.40276 14V13.9976C3.84209 14 2.31383 13.5284 1 12.6393C1.22693 12.6681 1.45501 12.6825 1.68365 12.6831C2.97701 12.6843 4.23339 12.2265 5.2509 11.3836C4.02182 11.359 2.94402 10.5136 2.5675 9.2795C2.99805 9.36709 3.44168 9.34909 3.86427 9.2273C2.52427 8.94172 1.56023 7.6998 1.56023 6.25749C1.56023 6.24429 1.56023 6.23169 1.56023 6.21909C1.9595 6.45368 2.40654 6.58387 2.86382 6.59827C1.60175 5.70852 1.21272 3.93744 1.97485 2.55272C3.43315 4.4456 5.58477 5.59633 7.8945 5.71812C7.66301 4.66579 7.97924 3.56306 8.72545 2.82331C9.88231 1.67618 11.7018 1.73497 12.7892 2.9547C13.4325 2.82091 14.049 2.57192 14.6132 2.21914C14.3988 2.9205 13.9501 3.51626 13.3506 3.89484C13.9199 3.82404 14.4762 3.66325 15 3.41787C14.6144 4.02743 14.1287 4.5584 13.5667 4.98737Z" fill="#8C93A6"/>
</svg>
